<?xml version="1.0" standalone="no"?>
<!DOCTYPE svg PUBLIC "-//W3C//DTD SVG 1.1//EN" "http://www.w3.org/Graphics/SVG/1.1/DTD/svg11.dtd" >
<svg xmlns="http://www.w3.org/2000/svg" xmlns:xlink="http://www.w3.org/1999/xlink" version="1.1">
<metadata>
Created by FontForge 20170731 at Sun Mar  8 16:23:30 2020
 By Aleksey,,,
Copyright (c) 2020 by Gayane Bagdasaryan, Vyacheslav Kirilenko. All rights reserved.
</metadata>
<defs>
<font id="DermaticaFormular-Medium" horiz-adv-x="854" >
  <font-face 
    font-family="Dermatica Formular"
    font-weight="500"
    font-stretch="normal"
    units-per-em="1000"
    panose-1="2 0 0 0 0 0 0 0 0 0"
    ascent="778"
    descent="-222"
    x-height="509"
    cap-height="714"
    bbox="-140 -226 1398 974"
    underline-thickness="50"
    underline-position="-150"
    unicode-range="U+000D-FB02"
  />
<missing-glyph horiz-adv-x="522" 
d="M55 714h412v-714h-412v714zM397 65v584h-271v-584h271z" />
    <glyph glyph-name="fi" unicode="fi" horiz-adv-x="677" 
d="M597 0h-113v413h-255v-413h-113v413h-91v96h91v52q0 90 46 128t136 38h75v-98h-72q-72 0 -72 -73v-47h368v-509zM630 667l-89 -89l-89 89l89 89z" />
    <glyph glyph-name="fl" unicode="fl" horiz-adv-x="674" 
d="M25 509h91v52q0 90 46 128t136 38h298v-727h-113v629h-182q-72 0 -72 -73v-47h136v-96h-136v-413h-113v413h-91v96z" />
    <glyph glyph-name=".notdef" horiz-adv-x="522" 
d="M55 714h412v-714h-412v714zM397 65v584h-271v-584h271z" />
    <glyph glyph-name=".null" horiz-adv-x="0" 
 />
    <glyph glyph-name="nonmarkingreturn" unicode="&#xd;" horiz-adv-x="278" 
 />
    <glyph glyph-name="NULL" horiz-adv-x="0" 
 />
    <glyph glyph-name="NULL" horiz-adv-x="0" 
 />
    <glyph glyph-name="space" unicode=" " horiz-adv-x="278" 
 />
    <glyph glyph-name="exclam" unicode="!" horiz-adv-x="331" 
d="M226 714v-292l-21 -220h-78l-21 220v292h120zM167 161l95 -95l-95 -95l-95 95z" />
    <glyph glyph-name="quotedbl" unicode="&#x22;" horiz-adv-x="433" 
d="M75 714h104v-271h-104v271zM254 714h104v-271h-104v271z" />
    <glyph glyph-name="numbersign" unicode="#" horiz-adv-x="622" 
d="M187 513l34 187h90l-33 -187h124l34 187h90l-34 -187h98v-88h-112l-27 -151h100v-88h-115l-33 -186h-92l34 186h-124l-33 -186h-92l34 186h-98v88h113l28 151h-102v88h116zM236 274h124l27 151h-124z" />
    <glyph glyph-name="dollar" unicode="$" horiz-adv-x="642" 
d="M353 798v-86q93 -8 149.5 -61t67.5 -135h-114q-8 38 -33.5 62.5t-69.5 30.5v-197l45 -8q41 -7 75.5 -23t59.5 -40.5t39 -59t14 -79.5q0 -41 -15 -77.5t-44 -65.5t-73 -48t-101 -23v-86h-67v87q-106 9 -168.5 67t-71.5 151h115q8 -53 42.5 -80t82.5 -35v221l-36 6
q-39 6 -71.5 21t-56.5 39t-37.5 56.5t-13.5 74.5q0 39 14 73.5t41 61.5t67 44.5t93 22.5v86h67zM353 302v-211q54 5 85.5 34t31.5 74q0 42 -25.5 67.5t-70.5 32.5zM286 609q-46 -6 -72.5 -32t-26.5 -65q0 -35 25.5 -57.5t73.5 -30.5v185z" />
    <glyph glyph-name="percent" unicode="%" horiz-adv-x="880" 
d="M184 0l424 700h88l-423 -700h-89zM206 714q41 0 71.5 -15t51 -40.5t31 -60t10.5 -73.5q0 -40 -10.5 -74.5t-31 -60t-51 -40t-71.5 -14.5t-71.5 14.5t-51 40t-30.5 60t-10 74.5q0 39 10 73.5t30.5 60t51 40.5t71.5 15zM206 409q43 0 63 32.5t20 83.5q0 50 -20 83t-63 33
q-42 0 -62 -33t-20 -83q0 -51 20 -83.5t62 -32.5zM673 365q41 0 71.5 -15t51 -40.5t31 -60t10.5 -73.5q0 -40 -10.5 -74.5t-31 -60t-51 -40t-71.5 -14.5t-71.5 14.5t-51 40t-31 60t-10.5 74.5q0 39 10.5 73.5t31 60t51 40.5t71.5 15zM673 60q42 0 62.5 32.5t20.5 83.5
q0 50 -20.5 83t-62.5 33q-43 0 -63 -33t-20 -83q0 -51 20 -83.5t63 -32.5z" />
    <glyph glyph-name="ampersand" unicode="&#x26;" horiz-adv-x="743" 
d="M647 342q-8 -54 -27 -104.5t-48 -92.5l142 -145h-139l-62 63h-20q-43 -37 -94.5 -56.5t-106.5 -19.5q-52 0 -95.5 13t-75 39t-49 64t-17.5 88q0 37 11 66.5t29 53t40 42t45 33.5v20q-32 37 -50.5 69.5t-18.5 77.5q0 35 12.5 64.5t36 51t56 33.5t73.5 12q40 0 74.5 -11
t60 -31.5t40 -50t14.5 -66.5q0 -29 -9.5 -52.5t-27 -44t-42 -40.5t-54.5 -41l152 -157q16 26 26 58t15 64h109zM296 84q81 0 137 60l-173 179l-29 -19q-64 -43 -64 -110q0 -54 36 -82t93 -28zM318 465q26 20 41 39.5t15 47.5q0 33 -24 52t-58 19t-55.5 -18.5t-21.5 -53.5
q0 -30 16.5 -52.5t34.5 -39.5l19 -18z" />
    <glyph glyph-name="quotesingle" unicode="'" horiz-adv-x="254" 
d="M75 714h104v-271h-104v271z" />
    <glyph glyph-name="parenleft" unicode="(" horiz-adv-x="310" 
d="M148 312q0 -76 13.5 -141.5t36 -121.5t51 -103t58.5 -87h-104q-31 37 -59.5 83.5t-50.5 103t-35 123t-13 143.5q0 76 12.5 141.5t34 121t49 101.5t57.5 83h104q-29 -39 -56.5 -86t-49 -102.5t-35 -119.5t-13.5 -139z" />
    <glyph glyph-name="parenright" unicode=")" horiz-adv-x="310" 
d="M162 312q0 75 -13.5 139t-35 119.5t-49 102.5t-56.5 86h104q30 -37 57.5 -83t49 -101.5t34 -121t12.5 -141.5q0 -77 -13 -143.5t-35 -123t-50.5 -103t-59.5 -83.5h-104q30 40 58.5 87t51 103t36 121.5t13.5 141.5z" />
    <glyph glyph-name="asterisk" unicode="*" horiz-adv-x="486" 
d="M284 714l-6 -164l155 57l26 -79l-158 -46l101 -129l-67 -50l-93 136l-91 -136l-67 50l100 129l-157 46l26 79l154 -57l-5 164h82z" />
    <glyph glyph-name="plus" unicode="+" horiz-adv-x="677" 
d="M290 542h97v-207h207v-96h-207v-207h-97v207h-207v96h207v207z" />
    <glyph glyph-name="comma" unicode="," horiz-adv-x="276" 
d="M62 -129h-65l73 263h141z" />
    <glyph glyph-name="hyphen" unicode="-" horiz-adv-x="384" 
d="M48 230v99h288v-99h-288z" />
    <glyph glyph-name="period" unicode="." horiz-adv-x="276" 
d="M138 161l95 -95l-95 -95l-95 95z" />
    <glyph glyph-name="slash" unicode="/" horiz-adv-x="423" 
d="M-2 -141l302 900h96l-299 -900h-99z" />
    <glyph glyph-name="zero" unicode="0" horiz-adv-x="636" 
d="M318 714q57 0 105.5 -21t84 -65.5t56 -113.5t20.5 -164t-20.5 -163.5t-56 -113t-84 -65.5t-105.5 -21t-105.5 21t-84.5 65.5t-56 113t-20 163.5t20 164t56 113.5t84.5 65.5t105.5 21zM318 91q42 0 70.5 20.5t46 55.5t25 82.5t7.5 100.5q0 54 -7.5 101t-25 82.5t-46 56
t-70.5 20.5t-70.5 -20.5t-46 -56t-25 -82.5t-7.5 -101q0 -53 7.5 -100.5t25 -82.5t46 -55.5t70.5 -20.5z" />
    <glyph glyph-name="one" unicode="1" horiz-adv-x="518" 
d="M56 102h162v479h-20l-143 -94v117l144 96h135v-598h149v-102h-427v102z" />
    <glyph glyph-name="two" unicode="2" horiz-adv-x="595" 
d="M49 498q3 54 22 94.5t51.5 67.5t76 40.5t95.5 13.5q111 0 173 -59t62 -160q0 -40 -11 -73.5t-32.5 -64.5t-54.5 -62.5t-76 -66.5l-128 -106v-20h318v-102h-493v121l203 162q42 34 72 60.5t49 50.5t27.5 48t8.5 51q0 59 -33.5 88.5t-87.5 29.5q-51 0 -85.5 -27.5
t-40.5 -85.5h-116v0z" />
    <glyph glyph-name="three" unicode="3" horiz-adv-x="587" 
d="M506 700v-119l-151 -131v-21q39 -2 73 -16.5t59 -40.5t39.5 -63.5t14.5 -86.5q0 -55 -19 -98.5t-53 -74t-81.5 -46.5t-103.5 -16t-102.5 16.5t-79.5 46t-52.5 69t-21.5 86.5h117q5 -54 44 -84t95 -30q65 0 103 35t38 96q0 60 -36 96t-104 36q-38 0 -63 -6v102l150 131v20
h-296v99h430z" />
    <glyph glyph-name="four" unicode="4" horiz-adv-x="623" 
d="M581 259v-102h-91v-157h-113v157h-340v127l307 416h146v-441h91zM380 259v309h-20l-208 -289v-20h228z" />
    <glyph glyph-name="five" unicode="5" horiz-adv-x="610" 
d="M333 474q50 0 92 -17.5t72 -49t46.5 -74.5t16.5 -94q0 -57 -18.5 -103.5t-51.5 -79.5t-79 -51t-101 -18q-60 0 -106 16.5t-78 46t-50 69t-21 86.5h116q7 -57 42.5 -85.5t92.5 -28.5q63 0 100 39t37 106q0 66 -37 105t-98 39q-41 0 -72 -14t-53 -45h-112l31 379h417v-99
h-325l-13 -173h20q23 19 53 32.5t79 13.5z" />
    <glyph glyph-name="six" unicode="6" horiz-adv-x="608" 
d="M341 461q48 0 89 -17t72 -47t48.5 -72.5t17.5 -93.5q0 -50 -17 -94.5t-49 -77.5t-78 -52.5t-104 -19.5t-107 18.5t-85 59.5t-56 107.5t-20 161.5q0 81 16 150.5t50 120.5t86 80t123 29q46 0 84.5 -13.5t67 -37.5t46.5 -56t24 -69h-115q-11 36 -36.5 56.5t-72.5 20.5
q-72 0 -114 -56t-47 -161h20q9 10 22.5 21t33 20.5t44.5 15.5t57 6zM318 87q57 0 95 35.5t38 104.5t-38.5 103t-95.5 34t-95.5 -34.5t-38.5 -101.5q0 -68 39 -104.5t96 -36.5z" />
    <glyph glyph-name="seven" unicode="7" horiz-adv-x="561" 
d="M221 0h-124l292 579v20h-341v101h462v-120z" />
    <glyph glyph-name="eight" unicode="8" horiz-adv-x="622" 
d="M464 360q17 -6 36 -20t35 -34.5t26.5 -48.5t10.5 -63q0 -43 -17.5 -80.5t-51 -65.5t-82 -44.5t-110.5 -16.5t-111 16.5t-82.5 44.5t-51 65.5t-17.5 80.5q0 35 10.5 63t26.5 48.5t35 34.5t36 20v20q-14 6 -29 18.5t-27.5 31t-21 42.5t-8.5 54q0 41 17 75.5t48.5 59.5
t75.5 39t99 14q54 0 98.5 -14t75.5 -39t48 -59.5t17 -75.5q0 -30 -8.5 -54t-21.5 -42.5t-28 -31t-28 -18.5v-20zM311 620q-54 0 -90.5 -27.5t-36.5 -75.5t36.5 -76t90.5 -28t90 28t36 76t-36 75.5t-90 27.5zM311 87q70 0 108 33t38 85t-38 85t-108 33q-71 0 -108.5 -33
t-37.5 -85t37.5 -85t108.5 -33z" />
    <glyph glyph-name="nine" unicode="9" horiz-adv-x="608" 
d="M267 240q-48 0 -89 17t-72 47t-48.5 72.5t-17.5 93.5q0 50 17 94.5t49 77.5t78 52.5t104 19.5t107 -18.5t85 -59.5t56 -107.5t20 -161.5q0 -81 -16 -150.5t-50 -120.5t-86 -80t-123 -29q-46 0 -84.5 13.5t-67 37.5t-46.5 56t-24 69h115q11 -36 36.5 -56.5t72.5 -20.5
q72 0 114 56t47 161h-20q-9 -10 -22.5 -21t-33 -20.5t-44.5 -15.5t-57 -6zM290 614q-57 0 -95 -35.5t-38 -104.5t38.5 -103t95.5 -34t95.5 34.5t38.5 101.5q0 68 -39 104.5t-96 36.5z" />
    <glyph glyph-name="colon" unicode=":" horiz-adv-x="276" 
d="M139 161l95 -95l-95 -95l-95 95zM139 536l95 -95l-95 -95l-95 95z" />
    <glyph glyph-name="semicolon" unicode=";" horiz-adv-x="276" 
d="M62 -129h-65l73 263h141zM138 536l95 -95l-95 -95l-95 95z" />
    <glyph glyph-name="less" unicode="&#x3c;" horiz-adv-x="677" 
d="M594 21l-511 226v79l511 226v-99l-357 -157v-20l357 -156v-99z" />
    <glyph glyph-name="equal" unicode="=" horiz-adv-x="677" 
d="M594 136h-511v97h511v-97zM594 340h-511v97h511v-97z" />
    <glyph glyph-name="greater" unicode="&#x3e;" horiz-adv-x="677" 
d="M440 276v20l-357 157v99l511 -226v-79l-511 -226v99z" />
    <glyph glyph-name="question" unicode="?" horiz-adv-x="563" 
d="M274 727q55 0 98 -15t72.5 -41.5t44.5 -63t15 -79.5q0 -37 -9.5 -63.5t-26 -48t-39 -39.5t-47.5 -37q-18 -13 -30 -23t-19.5 -21.5t-11 -25.5t-3.5 -34v-34h-115v34q0 31 6 54t18.5 42.5t32.5 38t48 40.5q18 13 32.5 25t25 25t16.5 29t6 38q0 19 -7 37t-21.5 31.5
t-35.5 22t-48 8.5q-55 0 -86.5 -27.5t-33.5 -90.5h-115q1 48 17 88t45.5 69t72 45t98.5 16zM261 161l95 -95l-95 -95l-95 95z" />
    <glyph glyph-name="at" unicode="@" horiz-adv-x="976" 
d="M700 -114q-57 -36 -122.5 -56t-143.5 -20q-89 0 -160 28t-120.5 78t-76 120.5t-26.5 156.5q0 107 36 199t101.5 159t156 105t198.5 38q78 0 147.5 -24t122 -69t83 -110t30.5 -147q0 -62 -16 -118t-46 -98.5t-74 -67.5t-101 -25q-46 0 -71 15.5t-37 43.5h-18
q-18 -21 -49 -40t-80 -19q-75 0 -118 45t-43 130q0 49 15.5 95.5t43.5 81.5t67.5 56.5t88.5 21.5q40 0 67.5 -15.5t37.5 -32.5h18l8 34h92l-44 -254q-2 -10 -3.5 -24t-1.5 -25q0 -27 11 -39t37 -12q25 0 51.5 15t48.5 44.5t36 74.5t14 105q0 66 -21 121t-62.5 94t-103 61
t-141.5 22q-84 0 -159.5 -31t-132.5 -87.5t-90 -135.5t-33 -175q0 -66 17.5 -127t56 -107t100 -73.5t150.5 -27.5q65 0 123 18t109 51zM458 113q27 0 49.5 13t39 35.5t25.5 53.5t9 67q0 33 -7.5 54t-20 32t-27.5 15t-30 4q-28 0 -50.5 -14.5t-38 -38t-24 -53.5t-8.5 -62
q0 -50 20.5 -78t62.5 -28z" />
    <glyph glyph-name="A" unicode="A" horiz-adv-x="705" 
d="M495 205h-289l-66 -205h-122l240 714h188l241 -714h-125zM240 312h220l-93 285h-35z" />
    <glyph glyph-name="B" unicode="B" horiz-adv-x="713" 
d="M565 364q21 -9 38.5 -25t31 -37t21 -46t7.5 -52q0 -44 -15 -81t-45 -64.5t-76 -43t-108 -15.5h-332v714h323q58 0 101.5 -15t72.5 -40t43.5 -59t14.5 -71q0 -48 -20.5 -87t-56.5 -58v-20zM399 421q66 0 93 25t27 70t-27 69.5t-93 24.5h-192v-189h192zM403 104
q75 0 106 29t31 79q0 51 -31 79t-106 28h-196v-215h196z" />
    <glyph glyph-name="C" unicode="C" horiz-adv-x="728" 
d="M679 216q-9 -51 -33 -93t-61 -72t-86.5 -47t-110.5 -17q-81 0 -143.5 27.5t-105 77t-65 117t-22.5 148.5t22.5 148.5t65.5 117t105.5 77t143.5 27.5q57 0 104.5 -15t83.5 -43t60 -66.5t34 -86.5h-126q-17 51 -55 76.5t-101 25.5q-55 0 -95.5 -21t-67 -56.5t-39.5 -83
t-13 -100.5t13 -100.5t39 -83t66.5 -56.5t95.5 -21q66 0 108.5 31.5t56.5 88.5h126z" />
    <glyph glyph-name="D" unicode="D" horiz-adv-x="752" 
d="M370 714q82 0 144 -25.5t103 -72.5t62 -112.5t21 -146.5q0 -80 -21 -146t-62 -113t-103 -72.5t-144 -25.5h-283v714h283zM360 109q60 0 101.5 19.5t67.5 53.5t37.5 79t11.5 96t-11.5 96.5t-37.5 79t-67.5 53t-101.5 19.5h-153v-496h153z" />
    <glyph glyph-name="E" unicode="E" horiz-adv-x="659" 
d="M613 109v-109h-526v714h513v-109h-393v-184h311v-107h-311v-205h406z" />
    <glyph glyph-name="F" unicode="F" horiz-adv-x="642" 
d="M207 605v-196h314v-107h-314v-302h-120v714h513v-109h-393z" />
    <glyph glyph-name="G" unicode="G" horiz-adv-x="753" 
d="M697 388v-78q0 -62 -17 -120t-53.5 -103t-95 -72.5t-141.5 -27.5t-146 28t-105.5 77.5t-64.5 117t-22 147.5t22 147.5t65 117t106.5 77.5t145.5 28q117 0 191 -56t94 -150h-125q-14 46 -53 71.5t-107 25.5q-56 0 -96.5 -20.5t-67.5 -55.5t-40 -83t-13 -102t13 -101.5
t39.5 -83.5t67.5 -56.5t97 -20.5q46 0 80.5 13.5t57.5 38.5t34.5 60.5t12.5 78.5h-195v102h316z" />
    <glyph glyph-name="H" unicode="H" horiz-adv-x="770" 
d="M684 714v-714h-120v312h-357v-312h-120v714h120v-290h357v290h120z" />
    <glyph glyph-name="I" unicode="I" horiz-adv-x="304" 
d="M212 714v-714h-120v714h120z" />
    <glyph glyph-name="J" unicode="J" horiz-adv-x="575" 
d="M65 108h185q54 0 87 34t33 106v357h-305v109h425v-473q0 -114 -59 -177.5t-165 -63.5h-201v108z" />
    <glyph glyph-name="K" unicode="K" horiz-adv-x="699" 
d="M87 714h120v-292h169l154 292h131l-182 -347l191 -367h-131l-164 313h-168v-313h-120v714z" />
    <glyph glyph-name="L" unicode="L" horiz-adv-x="637" 
d="M596 113v-113h-509v714h120v-601h389z" />
    <glyph glyph-name="M" unicode="M" horiz-adv-x="868" 
d="M87 714h190l149 -324h20l148 324h188v-714h-114v580h-20l-156 -342h-115l-156 342h-20v-580h-114v714z" />
    <glyph glyph-name="N" unicode="N" horiz-adv-x="774" 
d="M688 714v-714h-167l-300 542h-20v-542h-114v714h167l300 -542h20v542h114z" />
    <glyph glyph-name="O" unicode="O" horiz-adv-x="785" 
d="M393 727q83 0 146.5 -28.5t106.5 -78.5t65 -117.5t22 -145.5t-22 -145.5t-65 -117.5t-106.5 -78.5t-146.5 -28.5t-147 28.5t-107 78.5t-65 117.5t-22 145.5t22 145.5t65 117.5t107 78.5t147 28.5zM393 96q57 0 98 21t67.5 56.5t39.5 83t13 100.5t-13 100.5t-39.5 83
t-67.5 56.5t-98 21t-98.5 -21t-68 -56.5t-39.5 -83t-13 -100.5t13 -100.5t39.5 -83t68 -56.5t98.5 -21z" />
    <glyph glyph-name="P" unicode="P" horiz-adv-x="701" 
d="M401 714q120 0 185 -58.5t65 -161.5q0 -105 -65 -164t-185 -59h-194v-271h-120v714h314zM383 377q80 0 113 31t33 85q0 55 -33 85t-113 30h-176v-231h176z" />
    <glyph glyph-name="Q" unicode="Q" horiz-adv-x="785" 
d="M393 727q83 0 146.5 -28.5t106.5 -78.5t65 -117.5t22 -145.5q0 -83 -24.5 -153t-72.5 -121l94 -155h-117l-57 96q-71 -37 -163 -37q-83 0 -147 28.5t-107 78.5t-65 117.5t-22 145.5t22 145.5t65 117.5t107 78.5t147 28.5zM393 96q60 0 105 25l-120 202h112l81 -132
q21 34 30.5 76t9.5 90q0 53 -13 100.5t-39.5 83t-67.5 56.5t-98 21t-98.5 -21t-68 -56.5t-39.5 -83t-13 -100.5t13 -100.5t39.5 -83t68 -56.5t98.5 -21z" />
    <glyph glyph-name="R" unicode="R" horiz-adv-x="718" 
d="M207 284v-284h-120v714h326q116 0 179.5 -57.5t63.5 -157.5q0 -110 -76 -166q29 -14 47 -42.5t18 -67.5v-223h-120v196q0 44 -17.5 66t-56.5 22h-244zM207 390h181q80 0 113 27.5t33 81.5t-33 81.5t-113 27.5h-181v-218z" />
    <glyph glyph-name="S" unicode="S" horiz-adv-x="676" 
d="M425 410q42 -8 78 -23.5t62 -40.5t40.5 -60t14.5 -81q0 -43 -17.5 -82.5t-52.5 -69.5t-87 -48t-121 -18q-65 0 -117.5 16t-90.5 45t-60.5 70t-27.5 91h121q6 -32 22 -54.5t39.5 -36.5t53.5 -20t63 -6q69 0 111.5 29.5t42.5 80.5q0 45 -29 69t-77 32l-135 23
q-83 14 -133.5 62t-50.5 131q0 43 17 80.5t50 66t82 45t114 16.5q56 0 102.5 -14.5t81 -40.5t56 -63.5t27.5 -82.5h-122q-11 47 -46.5 71.5t-100.5 24.5q-63 0 -101.5 -26t-38.5 -74q0 -41 29.5 -61.5t71.5 -27.5z" />
    <glyph glyph-name="T" unicode="T" horiz-adv-x="611" 
d="M594 608h-228v-608h-120v608h-229v106h577v-106z" />
    <glyph glyph-name="U" unicode="U" horiz-adv-x="750" 
d="M665 714v-455q0 -130 -75 -201t-215 -71t-215 71t-75 201v455h120v-452q0 -75 43.5 -120.5t126.5 -45.5q84 0 127 45.5t43 120.5v452h120z" />
    <glyph glyph-name="V" unicode="V" horiz-adv-x="686" 
d="M19 714h123l185 -596h35l185 596h120l-222 -714h-204z" />
    <glyph glyph-name="W" unicode="W" horiz-adv-x="937" 
d="M381 714h175l124 -579h20l113 579h114l-140 -714h-187l-123 579h-20l-124 -579h-183l-140 714h114l114 -579h20z" />
    <glyph glyph-name="X" unicode="X" horiz-adv-x="668" 
d="M497 714h123l-181 -342l210 -372h-130l-172 306h-29l-172 -306h-127l209 372l-180 342h125l148 -278h28z" />
    <glyph glyph-name="Y" unicode="Y" horiz-adv-x="656" 
d="M517 714h124l-253 -451v-263h-120v263l-253 451h128l173 -307h28z" />
    <glyph glyph-name="Z" unicode="Z" horiz-adv-x="656" 
d="M594 584l-397 -454v-21h412v-109h-563v130l398 454v21h-371v109h521v-130z" />
    <glyph glyph-name="bracketleft" unicode="[" horiz-adv-x="353" 
d="M73 -141v900h224v-86h-123v-728h123v-86h-224z" />
    <glyph glyph-name="backslash" unicode="\" horiz-adv-x="423" 
d="M326 -141l-299 900h96l302 -900h-99z" />
    <glyph glyph-name="bracketright" unicode="]" horiz-adv-x="353" 
d="M56 -141v86h123v728h-123v86h224v-900h-224z" />
    <glyph glyph-name="asciicircum" unicode="^" horiz-adv-x="568" 
d="M40 283l207 410h72l208 -410h-104l-132 259h-16l-130 -259h-105z" />
    <glyph glyph-name="underscore" unicode="_" horiz-adv-x="509" 
d="M-1 -144v78h511v-78h-511z" />
    <glyph glyph-name="grave" unicode="`" horiz-adv-x="292" 
d="M40 727h123l89 -145h-100z" />
    <glyph glyph-name="a" unicode="a" horiz-adv-x="629" 
d="M551 0h-110v50h-20q-21 -26 -55.5 -44.5t-91.5 -18.5q-53 0 -94.5 20t-71 56t-45 85t-15.5 107t15.5 107t45 84.5t71 55.5t94.5 20q57 0 91.5 -18t55.5 -44h20v49h110v-509zM300 426q-35 0 -61 -13t-43.5 -35.5t-26 -54t-8.5 -68.5t8.5 -68.5t26 -54.5t43.5 -36t61 -13
q37 0 63.5 14t44 38t25.5 55t8 65t-8 65t-25.5 54.5t-44 37.5t-63.5 14z" />
    <glyph glyph-name="b" unicode="b" horiz-adv-x="629" 
d="M355 522q52 0 94 -20t71 -55.5t45 -84.5t16 -107t-15.5 -107t-45 -85t-71.5 -56t-94 -20q-57 0 -91.5 18.5t-55.5 44.5h-20v-50h-110v727h113v-268h20q20 27 54 45t90 18zM329 83q35 0 61 13t43.5 36t26 54.5t8.5 68.5t-8.5 68t-26 54t-43.5 36t-61 13q-37 0 -63.5 -14
t-44 -38t-25.5 -55t-8 -64q0 -34 8 -65t25.5 -55t44 -38t63.5 -14z" />
    <glyph glyph-name="c" unicode="c" horiz-adv-x="568" 
d="M524 163q-6 -39 -24.5 -71.5t-47.5 -56t-67.5 -36t-84.5 -12.5q-59 0 -106 20t-79.5 55.5t-49.5 84.5t-17 108q0 58 17 107.5t49.5 84.5t79.5 55t106 20q94 0 151.5 -46.5t68.5 -121.5h-112q-11 33 -36.5 52.5t-70.5 19.5q-38 0 -64.5 -14t-43.5 -37t-24.5 -54t-7.5 -65
q0 -35 8 -66.5t24.5 -55t43 -37.5t64.5 -14q48 0 75.5 21t35.5 59h112z" />
    <glyph glyph-name="d" unicode="d" horiz-adv-x="629" 
d="M274 522q56 0 90 -18t54 -45h20v268h113v-727h-110v50h-20q-21 -26 -55.5 -44.5t-91.5 -18.5q-53 0 -94.5 20t-71 56t-45 85t-15.5 107t16 107t45 84.5t71 55.5t94 20zM300 83q37 0 63.5 14t44 38t25.5 55t8 65q0 33 -8 64t-25.5 55t-44 38t-63.5 14q-35 0 -61 -13
t-43.5 -36t-26 -54t-8.5 -68t8.5 -68.5t26 -54.5t43.5 -36t61 -13z" />
    <glyph glyph-name="e" unicode="e" horiz-adv-x="583" 
d="M536 245h-376q2 -78 38 -120t105 -42q46 0 73 17t38 47h115q-14 -70 -71 -115t-156 -45q-60 0 -107 20t-80 56t-50 85.5t-17 109.5t17.5 108.5t49.5 83t78.5 53.5t105.5 19q57 0 101 -19t74.5 -51t46 -76t15.5 -93v-38zM298 432q-60 0 -91.5 -29.5t-41.5 -73.5h255
q-5 43 -35.5 73t-86.5 30z" />
    <glyph glyph-name="f" unicode="f" horiz-adv-x="405" 
d="M25 509h91v52q0 90 46 128t136 38h75v-98h-72q-72 0 -72 -73v-47h136v-96h-136v-413h-113v413h-91v96z" />
    <glyph glyph-name="g" unicode="g" horiz-adv-x="629" 
d="M551 509v-484q0 -54 -18 -96t-51 -70.5t-80 -43.5t-104 -15h-188v98h175q78 0 115 38t37 117v15h-19q-18 -26 -52 -44.5t-89 -18.5q-53 0 -95 19t-72 53.5t-46 82t-16 103.5q0 57 16 104.5t46 82t72.5 53.5t94.5 19q57 0 92 -19.5t52 -43.5h20v50h110zM300 101
q36 0 62.5 13t44 35.5t26.5 51.5t9 62t-9 62.5t-26.5 52t-44 35.5t-62.5 13q-66 0 -102.5 -45.5t-36.5 -117.5q0 -36 9.5 -65.5t27 -51t43.5 -33.5t59 -12z" />
    <glyph glyph-name="h" unicode="h" horiz-adv-x="620" 
d="M436 0v296q0 62 -29 93.5t-85 31.5q-30 0 -54.5 -12t-41.5 -32t-26 -48t-9 -59v-270h-113v727h113v-268h20q20 26 53.5 44.5t87.5 18.5q94 0 145.5 -55t51.5 -152v-315h-113z" />
    <glyph glyph-name="i" unicode="i" horiz-adv-x="272" 
d="M192 0h-113v509h113v-509zM225 667l-89 -89l-89 89l89 89z" />
    <glyph glyph-name="j" unicode="j" horiz-adv-x="283" 
d="M204 -34q0 -90 -46 -128t-136 -38h-62v98h59q72 0 72 73v538h113v-543zM204 0h-113v509h113v-509zM237 667l-89 -89l-89 89l89 89z" />
    <glyph glyph-name="k" unicode="k" horiz-adv-x="586" 
d="M307 213h-116v-213h-113v714h113v-405h118l116 200h117l-142 -245l149 -264h-120z" />
    <glyph glyph-name="l" unicode="l" horiz-adv-x="269" 
d="M191 727v-727h-113v727h113z" />
    <glyph glyph-name="m" unicode="m" horiz-adv-x="880" 
d="M629 522q46 0 80 -14.5t56.5 -40.5t33 -63t10.5 -83v-321h-113v306q0 56 -22 85.5t-66 29.5q-54 0 -81 -36.5t-27 -92.5v-292h-113v306q0 56 -22 85.5t-66 29.5q-27 0 -47 -11t-33.5 -29.5t-20.5 -43t-7 -52.5v-285h-113v509h110v-48h20q18 29 51.5 45t78.5 16
q91 0 132 -64h20q23 31 57.5 47.5t81.5 16.5z" />
    <glyph glyph-name="n" unicode="n" horiz-adv-x="620" 
d="M436 0v296q0 62 -29 93.5t-85 31.5q-30 0 -54.5 -12t-41.5 -32t-26 -48t-9 -59v-270h-113v509h110v-50h20q20 26 55 44.5t89 18.5q94 0 145.5 -55t51.5 -152v-315h-113z" />
    <glyph glyph-name="o" unicode="o" horiz-adv-x="610" 
d="M305 522q60 0 107.5 -20t81 -55.5t51 -84.5t17.5 -107q0 -59 -17.5 -108t-51 -84.5t-81 -55.5t-107.5 -20t-107.5 20t-81 55.5t-51 84.5t-17.5 108q0 58 17.5 107t51 84.5t81 55.5t107.5 20zM305 83q37 0 64 14t45 38t26.5 55t8.5 65q0 33 -8.5 64t-26.5 55t-45 38
t-64 14t-64 -14t-45 -38t-26.5 -55t-8.5 -64q0 -34 8.5 -65t26.5 -55t45 -38t64 -14z" />
    <glyph glyph-name="p" unicode="p" horiz-adv-x="629" 
d="M355 -13q-56 0 -90 18t-54 45h-20v-250h-113v709h110v-50h20q21 26 55.5 44.5t91.5 18.5q52 0 94 -20t71.5 -56t45 -85t15.5 -107t-16 -107t-45 -84.5t-71 -55.5t-94 -20zM329 426q-37 0 -63.5 -14t-44 -38t-25.5 -55t-8 -65q0 -33 8 -64t25.5 -55t44 -38t63.5 -14
q35 0 61 13t43.5 36t26 54t8.5 68t-8.5 68.5t-26 54.5t-43.5 36t-61 13z" />
    <glyph glyph-name="q" unicode="q" horiz-adv-x="629" 
d="M274 -13q-52 0 -94 20t-71 55.5t-45 84.5t-16 107t15.5 107t45 85t71 56t94.5 20q57 0 91.5 -18.5t55.5 -44.5h20v50h110v-709h-113v250h-20q-20 -27 -54 -45t-90 -18zM300 426q-35 0 -61 -13t-43.5 -36t-26 -54.5t-8.5 -68.5t8.5 -68t26 -54t43.5 -36t61 -13
q37 0 63.5 14t44 38t25.5 55t8 64q0 34 -8 65t-25.5 55t-44 38t-63.5 14z" />
    <glyph glyph-name="r" unicode="r" horiz-adv-x="419" 
d="M391 404h-43q-78 0 -117.5 -43t-39.5 -123v-238h-113v509h110v-60h20q16 21 49 40.5t92 19.5h42v-105z" />
    <glyph glyph-name="s" unicode="s" horiz-adv-x="531" 
d="M331 303q75 -12 117 -48.5t42 -105.5q0 -32 -14.5 -61.5t-43 -52t-69.5 -35.5t-93 -13q-108 0 -166 44.5t-66 122.5h113q7 -39 39 -56t78 -17q49 0 79 17t30 48q0 26 -17.5 40.5t-55.5 20.5l-102 16q-31 5 -57.5 16t-45.5 28.5t-30 42t-11 55.5q0 33 13 62t39 50t65.5 33
t92.5 12q92 0 145.5 -41.5t61.5 -109.5h-112q-5 29 -33 43t-66 14q-42 0 -67.5 -14.5t-25.5 -42.5q0 -43 66 -53z" />
    <glyph glyph-name="t" unicode="t" horiz-adv-x="421" 
d="M365 509v-96h-134v-255q0 -30 16 -45t58 -15h60v-98h-71q-42 0 -74.5 5.5t-55 20.5t-34.5 42t-12 71v274h-93v96h93v148h113v-148h134z" />
    <glyph glyph-name="u" unicode="u" horiz-adv-x="617" 
d="M184 509v-296q0 -125 112 -125q30 0 54.5 12t41 32t25.5 47.5t9 59.5v270h113v-509h-110v50h-20q-20 -26 -54.5 -44.5t-88.5 -18.5q-94 0 -144.5 55t-50.5 152v315h113z" />
    <glyph glyph-name="v" unicode="v" horiz-adv-x="561" 
d="M22 509h117l128 -394h32l128 394h112l-166 -509h-185z" />
    <glyph glyph-name="w" unicode="w" horiz-adv-x="754" 
d="M538 129h19l81 380h106l-108 -509h-159l-92 380h-20l-92 -380h-155l-108 509h106l81 -380h19l92 380h138z" />
    <glyph glyph-name="x" unicode="x" horiz-adv-x="577" 
d="M410 509h118l-138 -249l153 -260h-122l-118 201h-30l-119 -201h-120l153 260l-138 249h120l106 -190h30z" />
    <glyph glyph-name="y" unicode="y" horiz-adv-x="617" 
d="M539 25q0 -54 -18 -96t-51 -70.5t-80 -43.5t-104 -15h-188v98h175q152 0 152 149v21h-16q-20 -26 -54.5 -44.5t-88.5 -18.5q-94 0 -144.5 55t-50.5 152v297h113v-278q0 -125 112 -125q30 0 54.5 12t41 32t25.5 47.5t9 59.5v252h113v-484v0z" />
    <glyph glyph-name="z" unicode="z" horiz-adv-x="535" 
d="M49 0v116l283 277v20h-266v96h414v-115l-282 -278v-20h288v-96h-437z" />
    <glyph glyph-name="braceleft" unicode="{" horiz-adv-x="409" 
d="M188 299q26 -8 43.5 -34.5t17.5 -74.5v-143q0 -54 22 -78t67 -24h34v-86h-48q-80 0 -128 45t-48 126v139q0 46 -14 70.5t-53 24.5h-19v90h19q39 0 53 24.5t14 70.5v139q0 81 48 126t128 45h48v-86h-34q-45 0 -67 -24t-22 -78v-143q0 -48 -17.5 -74.5t-43.5 -34.5v-20z
" />
    <glyph glyph-name="bar" unicode="|" horiz-adv-x="261" 
d="M83 759h95v-900h-95v900z" />
    <glyph glyph-name="braceright" unicode="}" horiz-adv-x="409" 
d="M221 319q-26 8 -43.5 34.5t-17.5 74.5v143q0 54 -22 78t-67 24h-34v86h48q80 0 128 -45t48 -126v-139q0 -46 14 -70.5t53 -24.5h19v-90h-19q-39 0 -53 -24.5t-14 -70.5v-139q0 -81 -48 -126t-128 -45h-48v86h34q45 0 67 24t22 78v143q0 48 17.5 74.5t43.5 34.5v20z" />
    <glyph glyph-name="asciitilde" unicode="~" horiz-adv-x="671" 
d="M588 377q0 -86 -39 -133t-100 -47q-35 0 -66.5 15t-61.5 34q-23 15 -45 26.5t-45 11.5q-33 0 -48.5 -24t-15.5 -63h-84q0 87 39 133.5t99 46.5q39 0 71.5 -16.5t61.5 -35.5q23 -14 44 -24.5t41 -10.5q33 0 48.5 24t15.5 63h85z" />
    <glyph glyph-name="uni00A0" unicode="&#xa0;" horiz-adv-x="278" 
 />
    <glyph glyph-name="exclamdown" unicode="&#xa1;" horiz-adv-x="331" 
d="M106 -200v287l21 220h78l21 -220v-287h-120zM166 535l95 -95l-95 -95l-95 95z" />
    <glyph glyph-name="cent" unicode="&#xa2;" horiz-adv-x="568" 
d="M262 -10q-51 6 -90.5 28t-67 56.5t-42 80.5t-14.5 100t14.5 99.5t42 80t67 56.5t90.5 28v70h68v-69q81 -8 130 -53t60 -113h-112q-9 27 -28 45t-50 24v-338q34 6 54.5 26t27.5 52h112q-6 -36 -22 -66.5t-41 -53t-58 -36.5t-73 -18v-69h-68v70zM161 256q0 -30 5.5 -57.5
t18 -50t31.5 -38.5t46 -23v334q-54 -14 -77.5 -60t-23.5 -105z" />
    <glyph glyph-name="sterling" unicode="&#xa3;" horiz-adv-x="641" 
d="M606 102v-102h-553v102h18q39 0 54.5 23.5t15.5 65.5v88h-88v93h88v119q0 51 14.5 92t42.5 70t68.5 45t93.5 16q103 0 158.5 -57t58.5 -152h-116q-2 49 -25 77t-74 28q-55 0 -80 -32.5t-25 -86.5v-119h215v-93h-215v-80q0 -26 -4.5 -44t-21.5 -33v-20h375z" />
    <glyph glyph-name="currency" unicode="&#xa4;" horiz-adv-x="723" 
d="M517 71q-32 -25 -71.5 -38.5t-83.5 -13.5t-83.5 13.5t-72.5 38.5l-68 -67l-55 54l67 68q-24 33 -38 73t-14 84t13.5 83t38.5 72l-67 68l55 55l68 -67q33 24 72.5 37.5t83.5 13.5t83.5 -13.5t71.5 -37.5l68 67l55 -55l-67 -69q24 -32 37.5 -71t13.5 -83t-13.5 -83.5
t-37.5 -72.5l67 -69l-55 -54zM362 94q38 0 71 14.5t57 39.5t38 59.5t14 75.5q0 40 -14 74t-38 59t-57 39.5t-71 14.5t-71 -14.5t-58 -39.5t-39 -59t-14 -74q0 -41 14 -75.5t39 -59.5t58 -39.5t71 -14.5z" />
    <glyph glyph-name="yen" unicode="&#xa5;" horiz-adv-x="634" 
d="M93 373h94l-163 327h118l161 -325h28l161 325h119l-163 -327h93v-63h-124l-34 -67h158v-63h-166v-180h-116v180h-166v63h159l-34 67h-125v63z" />
    <glyph glyph-name="brokenbar" unicode="&#xa6;" horiz-adv-x="261" 
d="M83 759h95v-348h-95v348zM83 207h95v-348h-95v348z" />
    <glyph glyph-name="section" unicode="&#xa7;" horiz-adv-x="612" 
d="M226 379q-10 -4 -21.5 -11t-21 -18t-16 -25.5t-6.5 -32.5q0 -35 19.5 -55t59.5 -32l147 -43q9 4 20 11.5t21 18t16.5 24.5t6.5 32q0 35 -19 55t-59 32zM556 265q0 -27 -8.5 -49.5t-21 -40t-28 -29.5t-29.5 -18v-20q19 -16 32.5 -42.5t13.5 -67.5q0 -36 -15.5 -67.5
t-43.5 -55t-68 -36.5t-89 -13q-47 0 -87 13t-69 38.5t-46 63.5t-19 87h105q2 -51 32 -80.5t88 -29.5q55 0 80.5 25t25.5 57q0 59 -70 79l-133 38q-77 23 -113.5 59.5t-36.5 99.5q0 27 8.5 49.5t21.5 40t29 29t30 16.5v20q-21 17 -34 43.5t-13 68.5q0 37 15 68t42.5 54t67 36
t89.5 13q47 0 86.5 -13t68.5 -38t46 -62.5t19 -86.5h-105q-2 50 -31.5 79t-88.5 29q-54 0 -79 -24.5t-25 -56.5q0 -59 70 -79l133 -39q78 -23 114 -59.5t36 -98.5z" />
    <glyph glyph-name="dieresis" unicode="&#xa8;" horiz-adv-x="433" 
d="M395 656l-80 -80l-80 80l80 80zM198 656l-80 -80l-80 80l80 80z" />
    <glyph glyph-name="copyright" unicode="&#xa9;" 
d="M600 297q-5 -30 -18 -55t-34 -43.5t-49 -29t-63 -10.5q-44 0 -78.5 15t-57.5 41.5t-35 62.5t-12 78t12 78.5t35 63t57.5 41.5t78.5 15q67 0 109.5 -36t51.5 -93h-76q-14 62 -85 62q-28 0 -48.5 -10t-33.5 -27.5t-19 -41.5t-6 -52q0 -55 25.5 -92t81.5 -37q38 0 60.5 18.5
t28.5 51.5h75zM427 727q78 0 145.5 -28.5t117 -78t78 -117.5t28.5 -146t-28.5 -146t-78 -117.5t-117 -78t-145.5 -28.5t-145.5 28.5t-117 78t-78 117.5t-28.5 146t28.5 146t78.5 117.5t117 78t145 28.5zM427 46q66 0 122 24t97.5 65.5t64.5 98.5t23 123t-23 123t-64.5 99
t-97.5 65.5t-122 23.5t-122 -23.5t-97 -65.5t-64 -99t-23 -123t23 -123t64 -99t97 -65.5t122 -23.5z" />
    <glyph glyph-name="ordfeminine" unicode="&#xaa;" horiz-adv-x="434" 
d="M297 370h-13q-18 -20 -46 -32t-66 -12q-33 0 -58.5 10.5t-42.5 27.5t-25.5 40t-8.5 47q0 22 7.5 44t25 40t45.5 29t69 11h110v14q0 30 -19.5 47t-58.5 17q-69 0 -75 -49h-81q3 54 45 85.5t108 31.5q72 0 116.5 -33t44.5 -102v-251h-77v35zM193 394q42 0 71.5 25.5
t29.5 65.5v31h-93q-38 0 -61 -16.5t-23 -43.5q0 -30 21.5 -46t54.5 -16z" />
    <glyph glyph-name="guillemotleft" unicode="&#xab;" horiz-adv-x="611" 
d="M158 277l167 -180h-123l-147 154v70l147 155h123l-167 -180v-19zM389 277l167 -180h-123l-147 154v70l147 155h123l-167 -180v-19z" />
    <glyph glyph-name="logicalnot" unicode="&#xac;" horiz-adv-x="682" 
d="M504 303h-421v96h516v-295h-95v199z" />
    <glyph glyph-name="uni00AD" unicode="&#xad;" horiz-adv-x="383" 
d="M48 230v99h288v-99h-288z" />
    <glyph glyph-name="registered" unicode="&#xae;" 
d="M593 431q0 -74 -59 -102l62 -163h-79l-56 149h-102v-149h-74v381h177q63 0 97 -30.5t34 -85.5zM518 431q0 25 -16 37.5t-51 12.5h-92v-100h92q35 0 51 12.5t16 37.5zM427 727q78 0 145.5 -28.5t117 -78t78 -117.5t28.5 -146t-28.5 -146t-78 -117.5t-117 -78t-145.5 -28.5
t-145.5 28.5t-117 78t-78 117.5t-28.5 146t28.5 146t78.5 117.5t117 78t145 28.5zM427 46q66 0 122 24t97.5 65.5t64.5 98.5t23 123t-23 123t-64.5 99t-97.5 65.5t-122 23.5t-122 -23.5t-97 -65.5t-64 -99t-23 -123t23 -123t64 -99t97 -65.5t122 -23.5z" />
    <glyph glyph-name="macron" unicode="&#xaf;" horiz-adv-x="372" 
d="M40 618v77h292v-77h-292z" />
    <glyph glyph-name="degree" unicode="&#xb0;" horiz-adv-x="468" 
d="M430 523q0 -42 -15 -78.5t-41.5 -63t-62.5 -41.5t-78 -15t-78 15t-62 41.5t-41 63t-15 78.5t15 78.5t41 63t62 41.5t78 15t78 -15t62.5 -41.5t41.5 -63t15 -78.5zM233 399q26 0 47.5 9.5t37.5 26t24.5 39.5t8.5 49t-8.5 49t-24.5 40t-37.5 26.5t-47.5 9.5t-47.5 -9.5
t-37.5 -26.5t-24.5 -40t-8.5 -49t8.5 -49t24.5 -39.5t37.5 -26t47.5 -9.5z" />
    <glyph glyph-name="plusminus" unicode="&#xb1;" horiz-adv-x="677" 
d="M83 96h511v-96h-511v96zM290 557h97v-157h207v-96h-207v-157h-97v157h-207v96h207v157z" />
    <glyph glyph-name="twosuperior" unicode="&#xb2;" horiz-adv-x="366" 
d="M325 401v-68h-288v81l107 73q42 29 67 52.5t25 55.5q0 27 -16 41.5t-42 14.5q-29 0 -46.5 -14.5t-18.5 -45.5h-78q2 66 42.5 98t102.5 32q59 0 96.5 -31t37.5 -91q0 -42 -24 -75t-69 -65l-62 -44v-14h166z" />
    <glyph glyph-name="threesuperior" unicode="&#xb3;" horiz-adv-x="369" 
d="M237 568q37 -5 65.5 -33.5t28.5 -78.5q0 -30 -11 -54t-30.5 -41t-47 -26t-59.5 -9q-33 0 -60.5 9.5t-47 27t-30.5 41t-12 51.5h77q3 -29 23.5 -44t49.5 -15q32 0 51 16t19 45t-18.5 46t-50.5 17q-13 0 -21.5 -1t-15.5 -3v63l68 53v14h-155v68h254v-77l-77 -56v-13v0z" />
    <glyph glyph-name="acute" unicode="&#xb4;" horiz-adv-x="292" 
d="M140 582h-102l89 145h126z" />
    <glyph glyph-name="mu" unicode="&#xb5;" horiz-adv-x="624" 
d="M191 509v-296q0 -125 112 -125q30 0 54.5 12t41 32t25.5 47.5t9 59.5v270h113v-509h-110v50h-20q-20 -26 -54.5 -44.5t-88.5 -18.5q-45 0 -82 14v-201h-113v709h113z" />
    <glyph glyph-name="paragraph" unicode="&#xb6;" horiz-adv-x="684" 
d="M256 -177v491q-45 0 -85 11.5t-70 36t-47.5 62t-17.5 90.5q0 52 16 90t45 62.5t69.5 36t89.5 11.5h382v-82h-80v-809h-98v809h-106v-809h-98z" />
    <glyph glyph-name="periodcentered" unicode="&#xb7;" horiz-adv-x="276" 
d="M139 425l95 -95l-95 -95l-95 95z" />
    <glyph glyph-name="cedilla" unicode="&#xb8;" horiz-adv-x="280" 
d="M154 24l-31 -82h13q12 9 36 9q28 0 48.5 -22t20.5 -60q0 -17 -6 -33t-18.5 -28.5t-32 -20.5t-47.5 -8q-47 0 -71 23t-26 52h63q3 -10 11.5 -17t24.5 -7t26 9.5t10 26.5t-10 26.5t-26 9.5q-19 0 -31 -12h-58l51 134h53z" />
    <glyph glyph-name="onesuperior" unicode="&#xb9;" horiz-adv-x="333" 
d="M296 401v-68h-259v68h92v228h-14l-78 -45v75l95 55h76v-313h88z" />
    <glyph glyph-name="ordmasculine" unicode="&#xba;" horiz-adv-x="450" 
d="M225 721q44 0 79 -15t59 -41.5t37 -62.5t13 -78t-13 -78t-37 -63t-59 -42t-79 -15t-79 15t-59 42t-37 63t-13 78t13 78t37 62.5t59 41.5t79 15zM225 398q27 0 47.5 10.5t34 28t20 40.5t6.5 47t-6.5 47t-20 40t-34 27.5t-47.5 10.5t-47.5 -10.5t-34 -27.5t-20 -40
t-6.5 -47t6.5 -47t20 -40.5t34 -28t47.5 -10.5z" />
    <glyph glyph-name="guillemotright" unicode="&#xbb;" horiz-adv-x="611" 
d="M453 296l-167 180h123l147 -155v-70l-147 -154h-123l167 180v19zM222 296l-167 180h123l147 -155v-70l-147 -154h-123l167 180v19z" />
    <glyph glyph-name="onequarter" unicode="&#xbc;" horiz-adv-x="870" 
d="M186 0l424 700h88l-423 -700h-89zM296 401v-68h-259v68h92v228h-14l-78 -45v75l95 55h76v-313h88zM833 149v-68h-49v-81h-77v81h-186v76l169 224h94v-232h49zM709 149v142h-14l-95 -128v-14h109z" />
    <glyph glyph-name="onehalf" unicode="&#xbd;" horiz-adv-x="886" 
d="M186 0l424 700h88l-423 -700h-89zM296 401v-68h-259v68h92v228h-14l-78 -45v75l95 55h76v-313h88zM845 68v-68h-288v81l107 73q42 29 67 52.5t25 55.5q0 27 -16 41.5t-42 14.5q-29 0 -46.5 -14.5t-18.5 -45.5h-78q2 66 42.5 98t102.5 32q59 0 96.5 -31t37.5 -91
q0 -42 -24 -75t-69 -65l-62 -44v-14h166z" />
    <glyph glyph-name="threequarters" unicode="&#xbe;" horiz-adv-x="875" 
d="M190 0l424 700h88l-423 -700h-89zM838 149v-68h-49v-81h-77v81h-186v76l169 224h94v-232h49zM714 149v142h-14l-95 -128v-14h109zM237 568q37 -5 65.5 -33.5t28.5 -78.5q0 -30 -11 -54t-30.5 -41t-47 -26t-59.5 -9q-33 0 -60.5 9.5t-47 27t-30.5 41t-12 51.5h77
q3 -29 23.5 -44t49.5 -15q32 0 51 16t19 45t-18.5 46t-50.5 17q-13 0 -21.5 -1t-15.5 -3v63l68 53v14h-155v68h254v-77l-77 -56v-13v0z" />
    <glyph glyph-name="questiondown" unicode="&#xbf;" horiz-adv-x="559" 
d="M281 -209q-56 0 -98.5 15t-72 41.5t-44.5 63t-15 79.5q0 37 9.5 63.5t26 48t38.5 39.5t48 37q18 13 30 23t19.5 21.5t11 25.5t3.5 34v25h115v-25q0 -32 -6 -54.5t-18.5 -42t-32.5 -38t-48 -40.5q-18 -14 -32.5 -25.5t-25 -24.5t-16.5 -29t-6 -38q0 -19 7 -37t21.5 -31.5
t35.5 -22t48 -8.5q55 0 86.5 27.5t33.5 90.5h115q-1 -48 -17 -88t-45.5 -69t-72.5 -45t-98 -16zM294 535l95 -95l-95 -95l-95 95z" />
    <glyph glyph-name="Agrave" unicode="&#xc0;" horiz-adv-x="705" 
d="M495 205h-289l-66 -205h-122l240 714h188l241 -714h-125zM240 312h220l-93 285h-35zM187 896h129l89 -129h-106z" />
    <glyph glyph-name="Aacute" unicode="&#xc1;" horiz-adv-x="705" 
d="M495 205h-289l-66 -205h-122l240 714h188l241 -714h-125zM240 312h220l-93 285h-35zM401 767h-105l88 129h130z" />
    <glyph glyph-name="Acircumflex" unicode="&#xc2;" horiz-adv-x="705" 
d="M495 205h-289l-66 -205h-122l240 714h188l241 -714h-125zM240 312h220l-93 285h-35zM516 767h-100l-55 60h-20l-54 -60h-98l111 129h105z" />
    <glyph glyph-name="Atilde" unicode="&#xc3;" horiz-adv-x="705" 
d="M495 205h-289l-66 -205h-122l240 714h188l241 -714h-125zM240 312h220l-93 285h-35zM422 838q21 0 28.5 18t7.5 44h61q0 -65 -24.5 -101t-73.5 -36q-27 0 -46 11.5t-38 23.5q-15 10 -28 18.5t-30 8.5q-21 0 -28.5 -18t-7.5 -44h-61q0 65 24.5 101t73.5 36q28 0 49.5 -12
t39.5 -25q14 -10 26.5 -17.5t26.5 -7.5z" />
    <glyph glyph-name="Adieresis" unicode="&#xc4;" horiz-adv-x="705" 
d="M495 205h-289l-66 -205h-122l240 714h188l241 -714h-125zM240 312h220l-93 285h-35zM531 839l-80 -80l-80 80l80 80zM334 839l-80 -80l-80 80l80 80z" />
    <glyph glyph-name="Aring" unicode="&#xc5;" horiz-adv-x="705" 
d="M353 878q24 0 44.5 -8.5t35.5 -23.5t24 -35.5t9 -44.5q0 -31 -16 -58l236 -708h-123l-66 205h-293l-65 -205h-120l236 710q-16 26 -16 56q0 24 9 44.5t24.5 35.5t36.5 23.5t44 8.5zM238 312h224l-91 285h-43zM353 714q22 0 37.5 15t15.5 37q0 23 -15.5 38.5t-37.5 15.5
t-37.5 -15.5t-15.5 -38.5q0 -22 15.5 -37t37.5 -15z" />
    <glyph glyph-name="AE" unicode="&#xc6;" horiz-adv-x="1028" 
d="M507 206h-261l-107 -206h-132l380 714h582v-109h-342v-184h260v-107h-260v-205h355v-109h-475v206zM302 312h205v293h-52z" />
    <glyph glyph-name="Ccedilla" unicode="&#xc7;" horiz-adv-x="728" 
d="M679 216q-9 -51 -32.5 -93t-60 -72t-85.5 -47t-109 -17l-17 -45h13q12 9 36 9q29 0 49 -22t20 -60q0 -17 -6 -33t-18.5 -28.5t-32 -20.5t-47.5 -8q-47 0 -71 23t-26 52h63q3 -10 11.5 -17t24.5 -7t26 9.5t10 26.5t-10 26.5t-26 9.5q-19 0 -31 -12h-58l37 100
q-69 7 -122.5 37.5t-90 79t-55.5 112t-19 138.5q0 81 22.5 148.5t65.5 117t105.5 77t143.5 27.5q57 0 104.5 -15t83.5 -43t60 -66.5t34 -86.5h-126q-17 51 -55 76.5t-101 25.5q-55 0 -95.5 -21t-67 -56.5t-39.5 -83t-13 -100.5t13 -100.5t39 -83t66.5 -56.5t95.5 -21
q66 0 108.5 31.5t56.5 88.5h126z" />
    <glyph glyph-name="Egrave" unicode="&#xc8;" horiz-adv-x="659" 
d="M613 109v-109h-526v714h513v-109h-393v-184h311v-107h-311v-205h406zM201 896h129l89 -129h-106z" />
    <glyph glyph-name="Eacute" unicode="&#xc9;" horiz-adv-x="659" 
d="M613 109v-109h-526v714h513v-109h-393v-184h311v-107h-311v-205h406zM358 767h-105l88 129h130z" />
    <glyph glyph-name="Ecircumflex" unicode="&#xca;" horiz-adv-x="659" 
d="M613 109v-109h-526v714h513v-109h-393v-184h311v-107h-311v-205h406zM508 767h-100l-55 60h-20l-54 -60h-98l111 129h105z" />
    <glyph glyph-name="Edieresis" unicode="&#xcb;" horiz-adv-x="659" 
d="M613 109v-109h-526v714h513v-109h-393v-184h311v-107h-311v-205h406zM520 839l-80 -80l-80 80l80 80zM323 839l-80 -80l-80 80l80 80z" />
    <glyph glyph-name="Igrave" unicode="&#xcc;" horiz-adv-x="305" 
d="M212 714v-714h-120v714h120zM-10 896h129l89 -129h-106z" />
    <glyph glyph-name="Iacute" unicode="&#xcd;" horiz-adv-x="305" 
d="M212 714v-714h-120v714h120zM205 767h-105l88 129h130z" />
    <glyph glyph-name="Icircumflex" unicode="&#xce;" horiz-adv-x="305" 
d="M212 714v-714h-120v714h120zM318 767h-100l-55 60h-20l-54 -60h-98l111 129h105z" />
    <glyph glyph-name="Idieresis" unicode="&#xcf;" horiz-adv-x="305" 
d="M212 714v-714h-120v714h120zM332 839l-80 -80l-80 80l80 80zM135 839l-80 -80l-80 80l80 80z" />
    <glyph glyph-name="Eth" unicode="&#xd0;" horiz-adv-x="765" 
d="M20 412h80v302h283q82 0 144 -25.5t103 -72.5t62 -112.5t21 -146.5q0 -80 -21 -146t-62 -113t-103 -72.5t-144 -25.5h-283v318h-80v94zM373 109q60 0 101.5 19.5t67.5 53.5t37.5 79t11.5 96t-11.5 96.5t-37.5 79t-67.5 53t-101.5 19.5h-153v-193h205v-94h-205v-209h153z
" />
    <glyph glyph-name="Ntilde" unicode="&#xd1;" horiz-adv-x="774" 
d="M688 714v-714h-167l-300 542h-20v-542h-114v714h167l300 -542h20v542h114zM459 838q21 0 28.5 18t7.5 44h61q0 -65 -24.5 -101t-73.5 -36q-27 0 -46 11.5t-38 23.5q-15 10 -28 18.5t-30 8.5q-21 0 -28.5 -18t-7.5 -44h-61q0 65 24.5 101t73.5 36q28 0 49.5 -12t39.5 -25
q14 -10 26.5 -17.5t26.5 -7.5z" />
    <glyph glyph-name="Ograve" unicode="&#xd2;" horiz-adv-x="785" 
d="M393 727q83 0 146.5 -28.5t106.5 -78.5t65 -117.5t22 -145.5t-22 -145.5t-65 -117.5t-106.5 -78.5t-146.5 -28.5t-147 28.5t-107 78.5t-65 117.5t-22 145.5t22 145.5t65 117.5t107 78.5t147 28.5zM393 96q57 0 98 21t67.5 56.5t39.5 83t13 100.5t-13 100.5t-39.5 83
t-67.5 56.5t-98 21t-98.5 -21t-68 -56.5t-39.5 -83t-13 -100.5t13 -100.5t39.5 -83t68 -56.5t98.5 -21zM235 896h129l89 -129h-106z" />
    <glyph glyph-name="Oacute" unicode="&#xd3;" horiz-adv-x="785" 
d="M393 727q83 0 146.5 -28.5t106.5 -78.5t65 -117.5t22 -145.5t-22 -145.5t-65 -117.5t-106.5 -78.5t-146.5 -28.5t-147 28.5t-107 78.5t-65 117.5t-22 145.5t22 145.5t65 117.5t107 78.5t147 28.5zM393 96q57 0 98 21t67.5 56.5t39.5 83t13 100.5t-13 100.5t-39.5 83
t-67.5 56.5t-98 21t-98.5 -21t-68 -56.5t-39.5 -83t-13 -100.5t13 -100.5t39.5 -83t68 -56.5t98.5 -21zM442 767h-105l88 129h130z" />
    <glyph glyph-name="Ocircumflex" unicode="&#xd4;" horiz-adv-x="785" 
d="M393 727q83 0 146.5 -28.5t106.5 -78.5t65 -117.5t22 -145.5t-22 -145.5t-65 -117.5t-106.5 -78.5t-146.5 -28.5t-147 28.5t-107 78.5t-65 117.5t-22 145.5t22 145.5t65 117.5t107 78.5t147 28.5zM393 96q57 0 98 21t67.5 56.5t39.5 83t13 100.5t-13 100.5t-39.5 83
t-67.5 56.5t-98 21t-98.5 -21t-68 -56.5t-39.5 -83t-13 -100.5t13 -100.5t39.5 -83t68 -56.5t98.5 -21zM557 767h-100l-55 60h-20l-54 -60h-98l111 129h105z" />
    <glyph glyph-name="Otilde" unicode="&#xd5;" horiz-adv-x="785" 
d="M393 727q83 0 146.5 -28.5t106.5 -78.5t65 -117.5t22 -145.5t-22 -145.5t-65 -117.5t-106.5 -78.5t-146.5 -28.5t-147 28.5t-107 78.5t-65 117.5t-22 145.5t22 145.5t65 117.5t107 78.5t147 28.5zM393 96q57 0 98 21t67.5 56.5t39.5 83t13 100.5t-13 100.5t-39.5 83
t-67.5 56.5t-98 21t-98.5 -21t-68 -56.5t-39.5 -83t-13 -100.5t13 -100.5t39.5 -83t68 -56.5t98.5 -21zM465 838q21 0 28.5 18t7.5 44h61q0 -65 -24.5 -101t-73.5 -36q-27 0 -46 11.5t-38 23.5q-15 10 -28 18.5t-30 8.5q-21 0 -28.5 -18t-7.5 -44h-61q0 65 24.5 101t73.5 36
q28 0 49.5 -12t39.5 -25q14 -10 26.5 -17.5t26.5 -7.5z" />
    <glyph glyph-name="Odieresis" unicode="&#xd6;" horiz-adv-x="785" 
d="M393 727q83 0 146.5 -28.5t106.5 -78.5t65 -117.5t22 -145.5t-22 -145.5t-65 -117.5t-106.5 -78.5t-146.5 -28.5t-147 28.5t-107 78.5t-65 117.5t-22 145.5t22 145.5t65 117.5t107 78.5t147 28.5zM393 96q57 0 98 21t67.5 56.5t39.5 83t13 100.5t-13 100.5t-39.5 83
t-67.5 56.5t-98 21t-98.5 -21t-68 -56.5t-39.5 -83t-13 -100.5t13 -100.5t39.5 -83t68 -56.5t98.5 -21zM571 839l-80 -80l-80 80l80 80zM374 839l-80 -80l-80 80l80 80z" />
    <glyph glyph-name="multiply" unicode="&#xd7;" horiz-adv-x="650" 
d="M83 463l67 67l175 -175l175 174l67 -66l-174 -176l174 -176l-67 -67l-175 175l-174 -173l-67 66l173 175z" />
    <glyph glyph-name="Oslash" unicode="&#xd8;" horiz-adv-x="785" 
d="M393 727q61 0 111.5 -16t90.5 -45l39 48h101l-83 -102q40 -50 60.5 -115t20.5 -140q0 -78 -22 -145.5t-65 -117.5t-106.5 -78.5t-146.5 -28.5q-62 0 -112.5 15.5t-90.5 44.5l-39 -47h-101l83 101q-41 50 -61 115.5t-20 140.5q0 78 22 145.5t65 117.5t107 78.5t147 28.5z
M393 96q57 0 98 21t67.5 56.5t39.5 83t13 100.5q0 45 -9 85.5t-28 74.5l-311 -380q25 -20 57 -30.5t73 -10.5zM174 357q0 -45 9 -86t28 -74l311 380q-25 20 -57 30.5t-72 10.5q-57 0 -98.5 -21t-68 -56.5t-39.5 -83t-13 -100.5z" />
    <glyph glyph-name="Ugrave" unicode="&#xd9;" horiz-adv-x="750" 
d="M665 714v-455q0 -130 -75 -201t-215 -71t-215 71t-75 201v455h120v-452q0 -75 43.5 -120.5t126.5 -45.5q84 0 127 45.5t43 120.5v452h120zM225 896h129l89 -129h-106z" />
    <glyph glyph-name="Uacute" unicode="&#xda;" horiz-adv-x="750" 
d="M665 714v-455q0 -130 -75 -201t-215 -71t-215 71t-75 201v455h120v-452q0 -75 43.5 -120.5t126.5 -45.5q84 0 127 45.5t43 120.5v452h120zM405 767h-105l88 129h130z" />
    <glyph glyph-name="Ucircumflex" unicode="&#xdb;" horiz-adv-x="750" 
d="M665 714v-455q0 -130 -75 -201t-215 -71t-215 71t-75 201v455h120v-452q0 -75 43.5 -120.5t126.5 -45.5q84 0 127 45.5t43 120.5v452h120zM539 767h-100l-55 60h-20l-54 -60h-98l111 129h105z" />
    <glyph glyph-name="Udieresis" unicode="&#xdc;" horiz-adv-x="750" 
d="M665 714v-455q0 -130 -75 -201t-215 -71t-215 71t-75 201v455h120v-452q0 -75 43.5 -120.5t126.5 -45.5q84 0 127 45.5t43 120.5v452h120zM554 839l-80 -80l-80 80l80 80zM357 839l-80 -80l-80 80l80 80z" />
    <glyph glyph-name="Yacute" unicode="&#xdd;" horiz-adv-x="661" 
d="M519 714h124l-253 -451v-263h-120v263l-253 451h128l173 -307h28zM367 767h-105l88 129h130z" />
    <glyph glyph-name="Thorn" unicode="&#xde;" horiz-adv-x="665" 
d="M375 570q115 0 177.5 -56.5t62.5 -156.5t-62.5 -156.5t-177.5 -56.5h-168v-144h-120v714h120v-144h168zM357 250q75 0 105.5 28.5t30.5 79.5t-30.5 78.5t-105.5 27.5h-150v-214h150z" />
    <glyph glyph-name="germandbls" unicode="&#xdf;" horiz-adv-x="602" 
d="M437 383q27 -6 49.5 -21.5t39 -38.5t26 -52t9.5 -62q0 -101 -62 -155t-165 -54h-65v96h46q27 0 51 6t42 19.5t29 36.5t11 57q0 59 -37 91.5t-111 32.5h-14v96h14q60 0 85 29.5t25 68.5q0 47 -28.5 73.5t-77.5 26.5q-58 0 -85.5 -34.5t-27.5 -100.5v-498h-113v509
q0 103 60.5 161.5t168.5 58.5q48 0 87.5 -13.5t67.5 -38.5t43.5 -59t15.5 -75q0 -51 -23 -88.5t-61 -51.5v-20v0z" />
    <glyph glyph-name="agrave" unicode="&#xe0;" horiz-adv-x="629" 
d="M551 0h-110v50h-20q-21 -26 -55.5 -44.5t-91.5 -18.5q-53 0 -94.5 20t-71 56t-45 85t-15.5 107t15.5 107t45 84.5t71 55.5t94.5 20q57 0 91.5 -18t55.5 -44h20v49h110v-509zM300 426q-35 0 -61 -13t-43.5 -35.5t-26 -54t-8.5 -68.5t8.5 -68.5t26 -54.5t43.5 -36t61 -13
q37 0 63.5 14t44 38t25.5 55t8 65t-8 65t-25.5 54.5t-44 37.5t-63.5 14zM164 727h123l89 -145h-100z" />
    <glyph glyph-name="aacute" unicode="&#xe1;" horiz-adv-x="629" 
d="M551 0h-110v50h-20q-21 -26 -55.5 -44.5t-91.5 -18.5q-53 0 -94.5 20t-71 56t-45 85t-15.5 107t15.5 107t45 84.5t71 55.5t94.5 20q57 0 91.5 -18t55.5 -44h20v49h110v-509zM300 426q-35 0 -61 -13t-43.5 -35.5t-26 -54t-8.5 -68.5t8.5 -68.5t26 -54.5t43.5 -36t61 -13
q37 0 63.5 14t44 38t25.5 55t8 65t-8 65t-25.5 54.5t-44 37.5t-63.5 14zM346 582h-102l89 145h126z" />
    <glyph glyph-name="acircumflex" unicode="&#xe2;" horiz-adv-x="629" 
d="M551 0h-110v50h-20q-21 -26 -55.5 -44.5t-91.5 -18.5q-53 0 -94.5 20t-71 56t-45 85t-15.5 107t15.5 107t45 84.5t71 55.5t94.5 20q57 0 91.5 -18t55.5 -44h20v49h110v-509zM300 426q-35 0 -61 -13t-43.5 -35.5t-26 -54t-8.5 -68.5t8.5 -68.5t26 -54.5t43.5 -36t61 -13
q37 0 63.5 14t44 38t25.5 55t8 65t-8 65t-25.5 54.5t-44 37.5t-63.5 14zM476 582h-97l-59 73h-17l-58 -73h-96l112 145h104z" />
    <glyph glyph-name="atilde" unicode="&#xe3;" horiz-adv-x="629" 
d="M551 0h-110v50h-20q-21 -26 -55.5 -44.5t-91.5 -18.5q-53 0 -94.5 20t-71 56t-45 85t-15.5 107t15.5 107t45 84.5t71 55.5t94.5 20q57 0 91.5 -18t55.5 -44h20v49h110v-509zM300 426q-35 0 -61 -13t-43.5 -35.5t-26 -54t-8.5 -68.5t8.5 -68.5t26 -54.5t43.5 -36t61 -13
q37 0 63.5 14t44 38t25.5 55t8 65t-8 65t-25.5 54.5t-44 37.5t-63.5 14zM381 661q21 0 28.5 18t7.5 44h61q0 -65 -24.5 -101t-73.5 -36q-27 0 -46 11.5t-38 23.5q-15 10 -28 18.5t-30 8.5q-21 0 -28.5 -18t-7.5 -44h-61q0 65 24.5 101t73.5 36q28 0 49.5 -12t39.5 -25
q14 -10 26.5 -17.5t26.5 -7.5z" />
    <glyph glyph-name="adieresis" unicode="&#xe4;" horiz-adv-x="629" 
d="M551 0h-110v50h-20q-21 -26 -55.5 -44.5t-91.5 -18.5q-53 0 -94.5 20t-71 56t-45 85t-15.5 107t15.5 107t45 84.5t71 55.5t94.5 20q57 0 91.5 -18t55.5 -44h20v49h110v-509zM300 426q-35 0 -61 -13t-43.5 -35.5t-26 -54t-8.5 -68.5t8.5 -68.5t26 -54.5t43.5 -36t61 -13
q37 0 63.5 14t44 38t25.5 55t8 65t-8 65t-25.5 54.5t-44 37.5t-63.5 14zM482 656l-80 -80l-80 80l80 80zM285 656l-80 -80l-80 80l80 80z" />
    <glyph glyph-name="aring" unicode="&#xe5;" horiz-adv-x="629" 
d="M551 0h-110v50h-20q-21 -26 -55.5 -44.5t-91.5 -18.5q-53 0 -94.5 20t-71 56t-45 85t-15.5 107t15.5 107t45 84.5t71 55.5t94.5 20q57 0 91.5 -18t55.5 -44h20v49h110v-509zM300 426q-35 0 -61 -13t-43.5 -35.5t-26 -54t-8.5 -68.5t8.5 -68.5t26 -54.5t43.5 -36t61 -13
q37 0 63.5 14t44 38t25.5 55t8 65t-8 65t-25.5 54.5t-44 37.5t-63.5 14zM313 798q24 0 44.5 -8.5t35.5 -23.5t24 -35.5t9 -44.5q0 -23 -9 -43t-24 -35t-35.5 -24t-44.5 -9q-23 0 -44 9t-36.5 24t-24.5 35t-9 43q0 24 9 44.5t24.5 35.5t36.5 23.5t44 8.5zM313 634
q22 0 37.5 15t15.5 37q0 23 -15.5 38.5t-37.5 15.5t-37.5 -15.5t-15.5 -38.5q0 -22 15.5 -37t37.5 -15z" />
    <glyph glyph-name="ae" unicode="&#xe6;" horiz-adv-x="908" 
d="M492 241q2 -71 36.5 -114.5t102.5 -43.5q45 0 72 16.5t39 48.5h114q-15 -71 -70.5 -116t-154.5 -45q-63 0 -110 25t-78 68h-20q-29 -40 -79 -66.5t-116 -26.5q-46 0 -81 13.5t-59 36t-36 51.5t-12 61q0 87 56.5 131.5t150.5 44.5h137v15q0 43 -25 68t-78 25
q-45 0 -69.5 -16.5t-28.5 -45.5h-112q1 35 17.5 63t44 47.5t64.5 30t80 10.5q57 0 99 -18t68 -52h20q29 32 71.5 51t96.5 19t96.5 -19t72 -51.5t45 -76.5t15.5 -95v-39h-369zM384 241h-121q-54 0 -81.5 -21t-27.5 -59q0 -40 27 -61t74 -21q28 0 51.5 9.5t41 26t27 38.5
t9.5 48v40zM627 432q-57 0 -88.5 -30.5t-40.5 -76.5h248q-5 47 -35 77t-84 30z" />
    <glyph glyph-name="ccedilla" unicode="&#xe7;" horiz-adv-x="568" 
d="M524 163q-6 -39 -24.5 -71.5t-47 -55.5t-66.5 -36t-83 -13l-17 -45h13q12 9 36 9q29 0 49 -22t20 -60q0 -17 -6 -33t-18.5 -28.5t-32 -20.5t-47.5 -8q-47 0 -71 23t-26 52h63q3 -10 11.5 -17t24.5 -7t26 9.5t10 26.5t-10 26.5t-26 9.5q-19 0 -31 -12h-58l38 101
q-97 16 -150 87t-53 177q0 58 17 107.5t49.5 84.5t79.5 55t106 20q94 0 151.5 -46.5t68.5 -121.5h-112q-11 33 -36.5 52.5t-70.5 19.5q-38 0 -64.5 -14t-43.5 -37t-24.5 -54t-7.5 -65q0 -35 8 -66.5t24.5 -55t43 -37.5t64.5 -14q48 0 75.5 21t35.5 59h112z" />
    <glyph glyph-name="egrave" unicode="&#xe8;" horiz-adv-x="583" 
d="M536 245h-376q2 -78 38 -120t105 -42q46 0 73 17t38 47h115q-14 -70 -71 -115t-156 -45q-60 0 -107 20t-80 56t-50 85.5t-17 109.5t17.5 108.5t49.5 83t78.5 53.5t105.5 19q57 0 101 -19t74.5 -51t46 -76t15.5 -93v-38zM298 432q-60 0 -91.5 -29.5t-41.5 -73.5h255
q-5 43 -35.5 73t-86.5 30zM159 727h123l89 -145h-100z" />
    <glyph glyph-name="eacute" unicode="&#xe9;" horiz-adv-x="583" 
d="M536 245h-376q2 -78 38 -120t105 -42q46 0 73 17t38 47h115q-14 -70 -71 -115t-156 -45q-60 0 -107 20t-80 56t-50 85.5t-17 109.5t17.5 108.5t49.5 83t78.5 53.5t105.5 19q57 0 101 -19t74.5 -51t46 -76t15.5 -93v-38zM298 432q-60 0 -91.5 -29.5t-41.5 -73.5h255
q-5 43 -35.5 73t-86.5 30zM340 582h-102l89 145h126z" />
    <glyph glyph-name="ecircumflex" unicode="&#xea;" horiz-adv-x="583" 
d="M536 245h-376q2 -78 38 -120t105 -42q46 0 73 17t38 47h115q-14 -70 -71 -115t-156 -45q-60 0 -107 20t-80 56t-50 85.5t-17 109.5t17.5 108.5t49.5 83t78.5 53.5t105.5 19q57 0 101 -19t74.5 -51t46 -76t15.5 -93v-38zM298 432q-60 0 -91.5 -29.5t-41.5 -73.5h255
q-5 43 -35.5 73t-86.5 30zM463 582h-97l-59 73h-17l-58 -73h-96l112 145h104z" />
    <glyph glyph-name="edieresis" unicode="&#xeb;" horiz-adv-x="583" 
d="M536 245h-376q2 -78 38 -120t105 -42q46 0 73 17t38 47h115q-14 -70 -71 -115t-156 -45q-60 0 -107 20t-80 56t-50 85.5t-17 109.5t17.5 108.5t49.5 83t78.5 53.5t105.5 19q57 0 101 -19t74.5 -51t46 -76t15.5 -93v-38zM298 432q-60 0 -91.5 -29.5t-41.5 -73.5h255
q-5 43 -35.5 73t-86.5 30zM471 656l-80 -80l-80 80l80 80zM274 656l-80 -80l-80 80l80 80z" />
    <glyph glyph-name="igrave" unicode="&#xec;" horiz-adv-x="273" 
d="M192 0h-113v509h113v-509zM-20 727h123l89 -145h-100z" />
    <glyph glyph-name="iacute" unicode="&#xed;" horiz-adv-x="272" 
d="M192 0h-113v509h113v-509zM188 582h-102l89 145h126z" />
    <glyph glyph-name="icircumflex" unicode="&#xee;" horiz-adv-x="272" 
d="M192 0h-113v509h113v-509zM301 582h-97l-59 73h-17l-58 -73h-96l112 145h104z" />
    <glyph glyph-name="idieresis" unicode="&#xef;" horiz-adv-x="272" 
d="M192 0h-113v509h113v-509zM309 656l-80 -80l-80 80l80 80zM112 656l-80 -80l-80 80l80 80z" />
    <glyph glyph-name="eth" unicode="&#xf0;" horiz-adv-x="604" 
d="M139 618h150q-35 33 -70.5 60.5t-65.5 48.5h138q28 -20 59.5 -47t63.5 -62h128v-63h-78q39 -58 65.5 -130.5t26.5 -162.5q0 -59 -16 -109.5t-48 -87t-80 -57.5t-112 -21q-59 0 -105.5 19.5t-79 54t-50 81t-17.5 99.5q0 54 17 99.5t47 79t71 52t90 18.5q38 0 69.5 -10
t49.5 -27h20q-12 27 -28 52.5t-36 49.5h-209v63zM302 83q37 0 63.5 12.5t44 34t25.5 50t8 60.5t-8 61t-25.5 50.5t-44 34t-63.5 12.5t-64 -12.5t-44 -34t-25.5 -50.5t-8.5 -61t8.5 -60.5t25.5 -50t44 -34t64 -12.5z" />
    <glyph glyph-name="ntilde" unicode="&#xf1;" horiz-adv-x="620" 
d="M436 0v296q0 62 -29 93.5t-85 31.5q-30 0 -54.5 -12t-41.5 -32t-26 -48t-9 -59v-270h-113v509h110v-50h20q20 26 55 44.5t89 18.5q94 0 145.5 -55t51.5 -152v-315h-113zM386 661q21 0 28.5 18t7.5 44h61q0 -65 -24.5 -101t-73.5 -36q-27 0 -46 11.5t-38 23.5
q-15 10 -28 18.5t-30 8.5q-21 0 -28.5 -18t-7.5 -44h-61q0 65 24.5 101t73.5 36q28 0 49.5 -12t39.5 -25q14 -10 26.5 -17.5t26.5 -7.5z" />
    <glyph glyph-name="ograve" unicode="&#xf2;" horiz-adv-x="610" 
d="M305 522q60 0 107.5 -20t81 -55.5t51 -84.5t17.5 -107q0 -59 -17.5 -108t-51 -84.5t-81 -55.5t-107.5 -20t-107.5 20t-81 55.5t-51 84.5t-17.5 108q0 58 17.5 107t51 84.5t81 55.5t107.5 20zM305 83q37 0 64 14t45 38t26.5 55t8.5 65q0 33 -8.5 64t-26.5 55t-45 38
t-64 14t-64 -14t-45 -38t-26.5 -55t-8.5 -64q0 -34 8.5 -65t26.5 -55t45 -38t64 -14zM150 727h123l89 -145h-100z" />
    <glyph glyph-name="oacute" unicode="&#xf3;" horiz-adv-x="610" 
d="M305 522q60 0 107.5 -20t81 -55.5t51 -84.5t17.5 -107q0 -59 -17.5 -108t-51 -84.5t-81 -55.5t-107.5 -20t-107.5 20t-81 55.5t-51 84.5t-17.5 108q0 58 17.5 107t51 84.5t81 55.5t107.5 20zM305 83q37 0 64 14t45 38t26.5 55t8.5 65q0 33 -8.5 64t-26.5 55t-45 38
t-64 14t-64 -14t-45 -38t-26.5 -55t-8.5 -64q0 -34 8.5 -65t26.5 -55t45 -38t64 -14zM352 582h-102l89 145h126z" />
    <glyph glyph-name="ocircumflex" unicode="&#xf4;" horiz-adv-x="610" 
d="M305 522q60 0 107.5 -20t81 -55.5t51 -84.5t17.5 -107q0 -59 -17.5 -108t-51 -84.5t-81 -55.5t-107.5 -20t-107.5 20t-81 55.5t-51 84.5t-17.5 108q0 58 17.5 107t51 84.5t81 55.5t107.5 20zM305 83q37 0 64 14t45 38t26.5 55t8.5 65q0 33 -8.5 64t-26.5 55t-45 38
t-64 14t-64 -14t-45 -38t-26.5 -55t-8.5 -64q0 -34 8.5 -65t26.5 -55t45 -38t64 -14zM469 582h-97l-59 73h-17l-58 -73h-96l112 145h104z" />
    <glyph glyph-name="otilde" unicode="&#xf5;" horiz-adv-x="610" 
d="M305 522q60 0 107.5 -20t81 -55.5t51 -84.5t17.5 -107q0 -59 -17.5 -108t-51 -84.5t-81 -55.5t-107.5 -20t-107.5 20t-81 55.5t-51 84.5t-17.5 108q0 58 17.5 107t51 84.5t81 55.5t107.5 20zM305 83q37 0 64 14t45 38t26.5 55t8.5 65q0 33 -8.5 64t-26.5 55t-45 38
t-64 14t-64 -14t-45 -38t-26.5 -55t-8.5 -64q0 -34 8.5 -65t26.5 -55t45 -38t64 -14zM377 661q21 0 28.5 18t7.5 44h61q0 -65 -24.5 -101t-73.5 -36q-27 0 -46 11.5t-38 23.5q-15 10 -28 18.5t-30 8.5q-21 0 -28.5 -18t-7.5 -44h-61q0 65 24.5 101t73.5 36q28 0 49.5 -12
t39.5 -25q14 -10 26.5 -17.5t26.5 -7.5z" />
    <glyph glyph-name="odieresis" unicode="&#xf6;" horiz-adv-x="610" 
d="M305 522q60 0 107.5 -20t81 -55.5t51 -84.5t17.5 -107q0 -59 -17.5 -108t-51 -84.5t-81 -55.5t-107.5 -20t-107.5 20t-81 55.5t-51 84.5t-17.5 108q0 58 17.5 107t51 84.5t81 55.5t107.5 20zM305 83q37 0 64 14t45 38t26.5 55t8.5 65q0 33 -8.5 64t-26.5 55t-45 38
t-64 14t-64 -14t-45 -38t-26.5 -55t-8.5 -64q0 -34 8.5 -65t26.5 -55t45 -38t64 -14zM477 656l-80 -80l-80 80l80 80zM280 656l-80 -80l-80 80l80 80z" />
    <glyph glyph-name="divide" unicode="&#xf7;" horiz-adv-x="686" 
d="M274 17v124h130v-124h-130zM274 433v124h130v-124h-130zM83 239v96h511v-96h-511z" />
    <glyph glyph-name="oslash" unicode="&#xf8;" horiz-adv-x="610" 
d="M305 522q83 0 145 -39l22 26h95l-63 -75q28 -35 43 -80t15 -99q0 -59 -17.5 -108t-51 -84.5t-81 -55.5t-107.5 -20q-43 0 -79.5 10t-65.5 29l-22 -26h-95l63 75q-58 70 -58 180q0 58 17.5 107t51 84.5t81 55.5t107.5 20zM305 83q37 0 64 14t45 38t26.5 55t8.5 65
q0 48 -19 91l-204 -241q33 -22 79 -22zM161 255q0 -53 18 -93l204 241q-16 11 -35.5 17t-42.5 6q-37 0 -64 -14t-45 -38t-26.5 -55t-8.5 -64z" />
    <glyph glyph-name="ugrave" unicode="&#xf9;" horiz-adv-x="617" 
d="M184 509v-296q0 -125 112 -125q30 0 54.5 12t41 32t25.5 47.5t9 59.5v270h113v-509h-110v50h-20q-20 -26 -54.5 -44.5t-88.5 -18.5q-94 0 -144.5 55t-50.5 152v315h113zM148 727h123l89 -145h-100z" />
    <glyph glyph-name="uacute" unicode="&#xfa;" horiz-adv-x="617" 
d="M184 509v-296q0 -125 112 -125q30 0 54.5 12t41 32t25.5 47.5t9 59.5v270h113v-509h-110v50h-20q-20 -26 -54.5 -44.5t-88.5 -18.5q-94 0 -144.5 55t-50.5 152v315h113zM338 582h-102l89 145h126z" />
    <glyph glyph-name="ucircumflex" unicode="&#xfb;" horiz-adv-x="617" 
d="M184 509v-296q0 -125 112 -125q30 0 54.5 12t41 32t25.5 47.5t9 59.5v270h113v-509h-110v50h-20q-20 -26 -54.5 -44.5t-88.5 -18.5q-94 0 -144.5 55t-50.5 152v315h113zM469 582h-97l-59 73h-17l-58 -73h-96l112 145h104z" />
    <glyph glyph-name="udieresis" unicode="&#xfc;" horiz-adv-x="617" 
d="M184 509v-296q0 -125 112 -125q30 0 54.5 12t41 32t25.5 47.5t9 59.5v270h113v-509h-110v50h-20q-20 -26 -54.5 -44.5t-88.5 -18.5q-94 0 -144.5 55t-50.5 152v315h113zM477 656l-80 -80l-80 80l80 80zM280 656l-80 -80l-80 80l80 80z" />
    <glyph glyph-name="yacute" unicode="&#xfd;" horiz-adv-x="566" 
d="M542 25q0 -54 -18 -96t-51 -70.5t-80 -43.5t-104 -15h-188v98h175q152 0 152 149v21h-16q-20 -26 -54.5 -44.5t-88.5 -18.5q-94 0 -144.5 55t-50.5 152v297h113v-278q0 -125 112 -125q30 0 54.5 12t41 32t25.5 47.5t9 59.5v252h113v-484v0zM330 582h-102l89 145h126z" />
    <glyph glyph-name="thorn" unicode="&#xfe;" horiz-adv-x="629" 
d="M581 254q0 -58 -16 -107t-45 -84.5t-71 -55.5t-94 -20q-56 0 -90 18t-54 45h-20v-250h-113v927h113v-269h20q20 27 54 45t90 18q52 0 94 -20t71 -55.5t45 -84.5t16 -107zM468 254q0 37 -8.5 68t-26 54t-43.5 36t-61 13q-37 0 -63.5 -14t-44 -38t-25.5 -55t-8 -64t8 -64
t25.5 -55t44 -38t63.5 -14q35 0 61 13t43.5 36t26 54t8.5 68z" />
    <glyph glyph-name="ydieresis" unicode="&#xff;" horiz-adv-x="617" 
d="M539 25q0 -54 -18 -96t-51 -70.5t-80 -43.5t-104 -15h-188v98h175q152 0 152 149v21h-16q-20 -26 -54.5 -44.5t-88.5 -18.5q-94 0 -144.5 55t-50.5 152v297h113v-278q0 -125 112 -125q30 0 54.5 12t41 32t25.5 47.5t9 59.5v252h113v-484v0zM486 656l-80 -80l-80 80l80 80
zM289 656l-80 -80l-80 80l80 80z" />
    <glyph glyph-name="Amacron" unicode="&#x100;" horiz-adv-x="706" 
d="M495 205h-289l-66 -205h-122l240 714h188l241 -714h-125zM240 312h220l-93 285h-35zM206 801v75h292v-75h-292z" />
    <glyph glyph-name="amacron" unicode="&#x101;" horiz-adv-x="629" 
d="M551 0h-110v50h-20q-21 -26 -55.5 -44.5t-91.5 -18.5q-53 0 -94.5 20t-71 56t-45 85t-15.5 107t15.5 107t45 84.5t71 55.5t94.5 20q57 0 91.5 -18t55.5 -44h20v49h110v-509zM300 426q-35 0 -61 -13t-43.5 -35.5t-26 -54t-8.5 -68.5t8.5 -68.5t26 -54.5t43.5 -36t61 -13
q37 0 63.5 14t44 38t25.5 55t8 65t-8 65t-25.5 54.5t-44 37.5t-63.5 14zM166 618v77h292v-77h-292z" />
    <glyph glyph-name="Abreve" unicode="&#x102;" horiz-adv-x="705" 
d="M495 205h-289l-66 -205h-122l240 714h188l241 -714h-125zM240 312h220l-93 285h-35zM496 896q-1 -62 -38.5 -95.5t-105.5 -33.5q-67 0 -104 33.5t-39 95.5h79q0 -59 64 -59t66 59h78z" />
    <glyph glyph-name="abreve" unicode="&#x103;" horiz-adv-x="629" 
d="M551 0h-110v50h-20q-21 -26 -55.5 -44.5t-91.5 -18.5q-53 0 -94.5 20t-71 56t-45 85t-15.5 107t15.5 107t45 84.5t71 55.5t94.5 20q57 0 91.5 -18t55.5 -44h20v49h110v-509zM300 426q-35 0 -61 -13t-43.5 -35.5t-26 -54t-8.5 -68.5t8.5 -68.5t26 -54.5t43.5 -36t61 -13
q37 0 63.5 14t44 38t25.5 55t8 65t-8 65t-25.5 54.5t-44 37.5t-63.5 14zM451 727q0 -68 -37 -106.5t-106 -38.5t-106.5 38.5t-37.5 106.5h79q0 -35 15.5 -53.5t49.5 -18.5q33 0 49 18.5t16 53.5h78z" />
    <glyph glyph-name="Aogonek" unicode="&#x104;" horiz-adv-x="706" 
d="M495 205h-289l-66 -205h-122l240 714h188l241 -714h-1q-28 -14 -46.5 -35t-18.5 -46q0 -22 17.5 -35t49.5 -13v-71h-26q-66 0 -97.5 26t-31.5 70q0 30 20.5 59t55.5 45h-47zM240 312h220l-93 285h-35z" />
    <glyph glyph-name="aogonek" unicode="&#x105;" horiz-adv-x="629" 
d="M551 0q-28 -14 -46.5 -35t-18.5 -46q0 -22 17.5 -35t49.5 -13v-71h-26q-66 0 -97.5 26t-31.5 70q0 30 20.5 59t55.5 45h-33v50h-20q-21 -26 -55.5 -44.5t-91.5 -18.5q-53 0 -94.5 20t-71 56t-45 85t-15.5 107t15.5 107t45 84.5t71 55.5t94.5 20q57 0 91.5 -18t55.5 -44
h20v49h110v-509zM300 426q-35 0 -61 -13t-43.5 -35.5t-26 -54t-8.5 -68.5t8.5 -68.5t26 -54.5t43.5 -36t61 -13q37 0 63.5 14t44 38t25.5 55t8 65t-8 65t-25.5 54.5t-44 37.5t-63.5 14z" />
    <glyph glyph-name="Cacute" unicode="&#x106;" horiz-adv-x="728" 
d="M679 216q-9 -51 -33 -93t-61 -72t-86.5 -47t-110.5 -17q-81 0 -143.5 27.5t-105 77t-65 117t-22.5 148.5t22.5 148.5t65.5 117t105.5 77t143.5 27.5q57 0 104.5 -15t83.5 -43t60 -66.5t34 -86.5h-126q-17 51 -55 76.5t-101 25.5q-55 0 -95.5 -21t-67 -56.5t-39.5 -83
t-13 -100.5t13 -100.5t39 -83t66.5 -56.5t95.5 -21q66 0 108.5 31.5t56.5 88.5h126zM434 767h-105l88 129h130z" />
    <glyph glyph-name="cacute" unicode="&#x107;" horiz-adv-x="568" 
d="M524 163q-6 -39 -24.5 -71.5t-47.5 -56t-67.5 -36t-84.5 -12.5q-59 0 -106 20t-79.5 55.5t-49.5 84.5t-17 108q0 58 17 107.5t49.5 84.5t79.5 55t106 20q94 0 151.5 -46.5t68.5 -121.5h-112q-11 33 -36.5 52.5t-70.5 19.5q-38 0 -64.5 -14t-43.5 -37t-24.5 -54t-7.5 -65
q0 -35 8 -66.5t24.5 -55t43 -37.5t64.5 -14q48 0 75.5 21t35.5 59h112zM333 582h-102l89 145h126z" />
    <glyph glyph-name="Ccaron" unicode="&#x10c;" horiz-adv-x="728" 
d="M679 216q-9 -51 -33 -93t-61 -72t-86.5 -47t-110.5 -17q-81 0 -143.5 27.5t-105 77t-65 117t-22.5 148.5t22.5 148.5t65.5 117t105.5 77t143.5 27.5q57 0 104.5 -15t83.5 -43t60 -66.5t34 -86.5h-126q-17 51 -55 76.5t-101 25.5q-55 0 -95.5 -21t-67 -56.5t-39.5 -83
t-13 -100.5t13 -100.5t39 -83t66.5 -56.5t95.5 -21q66 0 108.5 31.5t56.5 88.5h126zM223 896h100l54 -60h20l55 60h98l-111 -129h-105z" />
    <glyph glyph-name="ccaron" unicode="&#x10d;" horiz-adv-x="568" 
d="M524 163q-6 -39 -24.5 -71.5t-47.5 -56t-67.5 -36t-84.5 -12.5q-59 0 -106 20t-79.5 55.5t-49.5 84.5t-17 108q0 58 17 107.5t49.5 84.5t79.5 55t106 20q94 0 151.5 -46.5t68.5 -121.5h-112q-11 33 -36.5 52.5t-70.5 19.5q-38 0 -64.5 -14t-43.5 -37t-24.5 -54t-7.5 -65
q0 -35 8 -66.5t24.5 -55t43 -37.5t64.5 -14q48 0 75.5 21t35.5 59h112zM136 727h97l58 -73h18l58 73h96l-112 -145h-104z" />
    <glyph glyph-name="Dcaron" unicode="&#x10e;" horiz-adv-x="753" 
d="M370 714q82 0 144 -25.5t103 -72.5t62 -112.5t21 -146.5q0 -80 -21 -146t-62 -113t-103 -72.5t-144 -25.5h-283v714h283zM360 109q60 0 101.5 19.5t67.5 53.5t37.5 79t11.5 96t-11.5 96.5t-37.5 79t-67.5 53t-101.5 19.5h-153v-496h153zM181 896h100l54 -60h20l55 60h98
l-111 -129h-105z" />
    <glyph glyph-name="dcaron" unicode="&#x10f;" horiz-adv-x="738" 
d="M274 522q56 0 90 -18t54 -45h20v268h113v-727h-110v50h-20q-21 -26 -55.5 -44.5t-91.5 -18.5q-53 0 -94.5 20t-71 56t-45 85t-15.5 107t16 107t45 84.5t71 55.5t94 20zM300 83q37 0 63.5 14t44 38t25.5 55t8 65q0 33 -8 64t-25.5 55t-44 38t-63.5 14q-35 0 -61 -13
t-43.5 -36t-26 -54t-8.5 -68t8.5 -68.5t26 -54.5t43.5 -36t61 -13zM638 616v111h131v-128l-64 -82h-73l64 82v17h-58z" />
    <glyph glyph-name="Dcroat" unicode="&#x110;" horiz-adv-x="765" 
d="M20 412h80v302h283q82 0 144 -25.5t103 -72.5t62 -112.5t21 -146.5q0 -80 -21 -146t-62 -113t-103 -72.5t-144 -25.5h-283v318h-80v94zM373 109q60 0 101.5 19.5t67.5 53.5t37.5 79t11.5 96t-11.5 96.5t-37.5 79t-67.5 53t-101.5 19.5h-153v-193h205v-94h-205v-209h153z
" />
    <glyph glyph-name="dcroat" unicode="&#x111;" horiz-adv-x="642" 
d="M274 522q56 0 90 -18t54 -45h20v116h-160v69h160v83h113v-83h77v-69h-77v-575h-110v50h-20q-21 -26 -55.5 -44.5t-91.5 -18.5q-53 0 -94.5 20t-71 56t-45 85t-15.5 107t16 107t45 84.5t71 55.5t94 20zM300 83q37 0 63.5 14t44 38t25.5 55t8 65q0 33 -8 64t-25.5 55
t-44 38t-63.5 14q-35 0 -61 -13t-43.5 -36t-26 -54t-8.5 -68t8.5 -68.5t26 -54.5t43.5 -36t61 -13z" />
    <glyph glyph-name="Emacron" unicode="&#x112;" horiz-adv-x="659" 
d="M613 109v-109h-526v714h513v-109h-393v-184h311v-107h-311v-205h406zM193 801v75h292v-75h-292z" />
    <glyph glyph-name="emacron" unicode="&#x113;" horiz-adv-x="583" 
d="M536 245h-376q2 -78 38 -120t105 -42q46 0 73 17t38 47h115q-14 -70 -71 -115t-156 -45q-60 0 -107 20t-80 56t-50 85.5t-17 109.5t17.5 108.5t49.5 83t78.5 53.5t105.5 19q57 0 101 -19t74.5 -51t46 -76t15.5 -93v-38zM298 432q-60 0 -91.5 -29.5t-41.5 -73.5h255
q-5 43 -35.5 73t-86.5 30zM149 618v77h292v-77h-292z" />
    <glyph glyph-name="Edotaccent" unicode="&#x116;" horiz-adv-x="659" 
d="M613 109v-109h-526v714h513v-109h-393v-184h311v-107h-311v-205h406zM289 790v106h120v-106h-120z" />
    <glyph glyph-name="edotaccent" unicode="&#x117;" horiz-adv-x="583" 
d="M536 245h-376q2 -78 38 -120t105 -42q46 0 73 17t38 47h115q-14 -70 -71 -115t-156 -45q-60 0 -107 20t-80 56t-50 85.5t-17 109.5t17.5 108.5t49.5 83t78.5 53.5t105.5 19q57 0 101 -19t74.5 -51t46 -76t15.5 -93v-38zM298 432q-60 0 -91.5 -29.5t-41.5 -73.5h255
q-5 43 -35.5 73t-86.5 30zM240 627v113h120v-113h-120z" />
    <glyph glyph-name="Eogonek" unicode="&#x118;" horiz-adv-x="659" 
d="M613 109v-109q-28 -14 -46.5 -35t-18.5 -46q0 -22 17.5 -35t49.5 -13v-71h-26q-66 0 -97.5 26t-31.5 70q0 30 20.5 59t55.5 45h-449v714h513v-109h-393v-184h311v-107h-311v-205h406z" />
    <glyph glyph-name="eogonek" unicode="&#x119;" horiz-adv-x="583" 
d="M536 245h-376q2 -78 38 -120t105 -42q89 0 111 64h115q-11 -51 -37 -82t-68 -53q-35 -18 -53 -38.5t-18 -51.5q0 -24 17.5 -37.5t49.5 -13.5v-71h-26q-66 0 -97.5 26t-31.5 70q0 27 15 50.5t40 40.5h-18q-60 0 -107 20t-80 56t-50 85.5t-17 109.5t17.5 108.5t49.5 83
t78.5 53.5t105.5 19q57 0 101 -19t74.5 -51t46 -76t15.5 -93v-38zM298 432q-60 0 -91.5 -29.5t-41.5 -73.5h255q-5 43 -35.5 73t-86.5 30z" />
    <glyph glyph-name="Ecaron" unicode="&#x11a;" horiz-adv-x="659" 
d="M613 109v-109h-526v714h513v-109h-393v-184h311v-107h-311v-205h406zM187 896h100l54 -60h20l55 60h98l-111 -129h-105z" />
    <glyph glyph-name="ecaron" unicode="&#x11b;" horiz-adv-x="583" 
d="M536 245h-376q2 -78 38 -120t105 -42q46 0 73 17t38 47h115q-14 -70 -71 -115t-156 -45q-60 0 -107 20t-80 56t-50 85.5t-17 109.5t17.5 108.5t49.5 83t78.5 53.5t105.5 19q57 0 101 -19t74.5 -51t46 -76t15.5 -93v-38zM298 432q-60 0 -91.5 -29.5t-41.5 -73.5h255
q-5 43 -35.5 73t-86.5 30zM138 727h97l58 -73h18l58 73h96l-112 -145h-104z" />
    <glyph glyph-name="uni0122" unicode="&#x122;" horiz-adv-x="757" 
d="M697 388v-78q0 -62 -17 -120t-53.5 -103t-95 -72.5t-141.5 -27.5t-146 28t-105.5 77.5t-64.5 117t-22 147.5t22 147.5t65 117t106.5 77.5t145.5 28q117 0 191 -56t94 -150h-125q-14 46 -53 71.5t-107 25.5q-56 0 -96.5 -20.5t-67.5 -55.5t-40 -83t-13 -102t13 -101.5
t39.5 -83.5t67.5 -56.5t97 -20.5q46 0 80.5 13.5t57.5 38.5t34.5 60.5t12.5 78.5h-195v102h316zM322 -226l62 64v17h-52v89h125v-106l-61 -64h-74z" />
    <glyph glyph-name="uni0123" unicode="&#x123;" horiz-adv-x="630" 
d="M552 509v-484q0 -54 -18 -96t-51 -70.5t-80 -43.5t-104 -15h-188v98h175q78 0 115 38t37 117v15h-19q-18 -26 -52 -44.5t-89 -18.5q-53 0 -95 19t-72 53.5t-46 82t-16 103.5q0 57 16 104.5t46 82t72.5 53.5t94.5 19q57 0 92 -19.5t52 -43.5h20v50h110zM301 101
q36 0 62.5 13t44 35.5t26.5 51.5t9 62t-9 62.5t-26.5 52t-44 35.5t-62.5 13q-66 0 -102.5 -45.5t-36.5 -117.5q0 -36 9.5 -65.5t27 -51t43.5 -33.5t59 -12zM377 746l-62 -64v-17h52v-89h-125v106l61 64h74z" />
    <glyph glyph-name="Itilde" unicode="&#x128;" horiz-adv-x="305" 
d="M212 714v-714h-120v714h120zM226 838q21 0 28.5 18t7.5 44h61q0 -65 -24.5 -101t-73.5 -36q-27 0 -46 11.5t-38 23.5q-15 10 -28 18.5t-30 8.5q-21 0 -28.5 -18t-7.5 -44h-61q0 65 24.5 101t73.5 36q28 0 49.5 -12t39.5 -25q14 -10 26.5 -17.5t26.5 -7.5z" />
    <glyph glyph-name="itilde" unicode="&#x129;" horiz-adv-x="272" 
d="M192 0h-113v509h113v-509zM209 661q21 0 28.5 18t7.5 44h61q0 -65 -24.5 -101t-73.5 -36q-27 0 -46 11.5t-38 23.5q-15 10 -28 18.5t-30 8.5q-21 0 -28.5 -18t-7.5 -44h-61q0 65 24.5 101t73.5 36q28 0 49.5 -12t39.5 -25q14 -10 26.5 -17.5t26.5 -7.5z" />
    <glyph glyph-name="Imacron" unicode="&#x12a;" horiz-adv-x="305" 
d="M212 714v-714h-120v714h120zM7 801v75h292v-75h-292z" />
    <glyph glyph-name="imacron" unicode="&#x12b;" horiz-adv-x="271" 
d="M16 613v77h239v-77h-239zM192 0h-113v509h113v-509z" />
    <glyph glyph-name="Iogonek" unicode="&#x12e;" horiz-adv-x="305" 
d="M212 714v-714q-28 -14 -46.5 -35t-18.5 -46q0 -22 17.5 -35t49.5 -13v-71h-26q-66 0 -97.5 26t-31.5 70q0 30 20.5 59t55.5 45h-43v714h120z" />
    <glyph glyph-name="iogonek" unicode="&#x12f;" horiz-adv-x="272" 
d="M192 0q-28 -14 -46.5 -35t-18.5 -46q0 -22 17.5 -35t49.5 -13v-71h-26q-66 0 -97.5 26t-31.5 70q0 30 20.5 59t55.5 45h-36v509h113v-509zM76 614v113h120v-113h-120z" />
    <glyph glyph-name="dotlessi" unicode="&#x131;" horiz-adv-x="272" 
d="M192 0h-113v509h113v-509z" />
    <glyph glyph-name="uni0136" unicode="&#x136;" horiz-adv-x="736" 
d="M87 714h120v-292h169l154 292h131l-182 -347l191 -367h-131l-164 313h-168v-313h-120v714zM320 -226l62 64v17h-52v89h125v-106l-61 -64h-74z" />
    <glyph glyph-name="uni0137" unicode="&#x137;" horiz-adv-x="576" 
d="M307 213h-116v-213h-113v714h113v-405h118l116 200h117l-142 -245l149 -264h-120zM247 -226l62 64v17h-52v89h125v-106l-61 -64h-74z" />
    <glyph glyph-name="kgreenlandic" unicode="&#x138;" horiz-adv-x="576" 
d="M439 0l-135 242h-20l-93 -98v-144h-113v509h113v-228l213 228h130l-159 -170l189 -339h-125z" />
    <glyph glyph-name="Lacute" unicode="&#x139;" horiz-adv-x="637" 
d="M596 113v-113h-509v714h120v-601h389zM199 767h-105l88 129h130z" />
    <glyph glyph-name="lacute" unicode="&#x13a;" horiz-adv-x="269" 
d="M191 727v-727h-113v727h113zM187 767h-105l88 129h130z" />
    <glyph glyph-name="uni013B" unicode="&#x13b;" horiz-adv-x="637" 
d="M596 113v-113h-509v714h120v-601h389zM272 -226l62 64v17h-52v89h125v-106l-61 -64h-74z" />
    <glyph glyph-name="uni013C" unicode="&#x13c;" horiz-adv-x="269" 
d="M191 727v-727h-113v727h113zM66 -226l62 64v17h-52v89h125v-106l-61 -64h-74z" />
    <glyph glyph-name="Lcaron" unicode="&#x13d;" horiz-adv-x="637" 
d="M596 113v-113h-509v714h120v-601h389zM374 603v111h131v-128l-64 -82h-73l64 82v17h-58z" />
    <glyph glyph-name="lcaron" unicode="&#x13e;" horiz-adv-x="377" 
d="M191 727v-727h-113v727h113zM277 616v111h131v-128l-64 -82h-73l64 82v17h-58z" />
    <glyph glyph-name="Lslash" unicode="&#x141;" horiz-adv-x="659" 
d="M618 113v-113h-509v287l-89 -36v102l89 35v326h120v-278l175 71v-101l-175 -71v-222h389z" />
    <glyph glyph-name="lslash" unicode="&#x142;" horiz-adv-x="355" 
d="M234 727v-281l98 44v-103l-98 -44v-343h-113v292l-98 -44v103l98 44v332h113z" />
    <glyph glyph-name="Nacute" unicode="&#x143;" horiz-adv-x="774" 
d="M688 714v-714h-167l-300 542h-20v-542h-114v714h167l300 -542h20v542h114zM431 767h-105l88 129h130z" />
    <glyph glyph-name="nacute" unicode="&#x144;" horiz-adv-x="620" 
d="M436 0v296q0 62 -29 93.5t-85 31.5q-30 0 -54.5 -12t-41.5 -32t-26 -48t-9 -59v-270h-113v509h110v-50h20q20 26 55 44.5t89 18.5q94 0 145.5 -55t51.5 -152v-315h-113zM360 582h-102l89 145h126z" />
    <glyph glyph-name="uni0145" unicode="&#x145;" horiz-adv-x="774" 
d="M688 714v-714h-167l-300 542h-20v-542h-114v714h167l300 -542h20v542h114zM315 -226l62 64v17h-52v89h125v-106l-61 -64h-74z" />
    <glyph glyph-name="uni0146" unicode="&#x146;" horiz-adv-x="620" 
d="M436 0v296q0 62 -29 93.5t-85 31.5q-30 0 -54.5 -12t-41.5 -32t-26 -48t-9 -59v-270h-113v509h110v-50h20q20 26 55 44.5t89 18.5q94 0 145.5 -55t51.5 -152v-315h-113zM244 -226l62 64v17h-52v89h125v-106l-61 -64h-74z" />
    <glyph glyph-name="Ncaron" unicode="&#x147;" horiz-adv-x="774" 
d="M688 714v-714h-167l-300 542h-20v-542h-114v714h167l300 -542h20v542h114zM224 896h100l54 -60h20l55 60h98l-111 -129h-105z" />
    <glyph glyph-name="ncaron" unicode="&#x148;" horiz-adv-x="620" 
d="M436 0v296q0 62 -29 93.5t-85 31.5q-30 0 -54.5 -12t-41.5 -32t-26 -48t-9 -59v-270h-113v509h110v-50h20q20 26 55 44.5t89 18.5q94 0 145.5 -55t51.5 -152v-315h-113zM152 727h97l58 -73h18l58 73h96l-112 -145h-104z" />
    <glyph glyph-name="Eng" unicode="&#x14a;" horiz-adv-x="774" 
d="M688 714v-702q0 -103 -58.5 -157.5t-156.5 -54.5h-57v101h53q48 0 76 22t31 77h-53l-302 540h-20v-540h-114v714h165l302 -540h20v540h114z" />
    <glyph glyph-name="eng" unicode="&#x14b;" horiz-adv-x="620" 
d="M436 296q0 62 -29 93.5t-85 31.5q-30 0 -54.5 -12t-41.5 -32t-26 -48t-9 -59v-270h-113v509h110v-50h20q20 26 55 44.5t89 18.5q94 0 145.5 -55t51.5 -152v-349q0 -90 -46 -128t-136 -38h-62v98h59q72 0 72 73v325v0z" />
    <glyph glyph-name="Omacron" unicode="&#x14c;" horiz-adv-x="786" 
d="M393 727q83 0 146.5 -28.5t106.5 -78.5t65 -117.5t22 -145.5t-22 -145.5t-65 -117.5t-106.5 -78.5t-146.5 -28.5t-147 28.5t-107 78.5t-65 117.5t-22 145.5t22 145.5t65 117.5t107 78.5t147 28.5zM393 96q57 0 98 21t67.5 56.5t39.5 83t13 100.5t-13 100.5t-39.5 83
t-67.5 56.5t-98 21t-98.5 -21t-68 -56.5t-39.5 -83t-13 -100.5t13 -100.5t39.5 -83t68 -56.5t98.5 -21zM247 801v75h292v-75h-292z" />
    <glyph glyph-name="omacron" unicode="&#x14d;" horiz-adv-x="610" 
d="M305 522q60 0 107.5 -20t81 -55.5t51 -84.5t17.5 -107q0 -59 -17.5 -108t-51 -84.5t-81 -55.5t-107.5 -20t-107.5 20t-81 55.5t-51 84.5t-17.5 108q0 58 17.5 107t51 84.5t81 55.5t107.5 20zM305 83q37 0 64 14t45 38t26.5 55t8.5 65q0 33 -8.5 64t-26.5 55t-45 38
t-64 14t-64 -14t-45 -38t-26.5 -55t-8.5 -64q0 -34 8.5 -65t26.5 -55t45 -38t64 -14zM159 618v77h292v-77h-292z" />
    <glyph glyph-name="Ohungarumlaut" unicode="&#x150;" horiz-adv-x="785" 
d="M393 727q83 0 146.5 -28.5t106.5 -78.5t65 -117.5t22 -145.5t-22 -145.5t-65 -117.5t-106.5 -78.5t-146.5 -28.5t-147 28.5t-107 78.5t-65 117.5t-22 145.5t22 145.5t65 117.5t107 78.5t147 28.5zM393 96q57 0 98 21t67.5 56.5t39.5 83t13 100.5t-13 100.5t-39.5 83
t-67.5 56.5t-98 21t-98.5 -21t-68 -56.5t-39.5 -83t-13 -100.5t13 -100.5t39.5 -83t68 -56.5t98.5 -21zM339 767h-92l77 129h115zM510 767h-91l78 129h114z" />
    <glyph glyph-name="ohungarumlaut" unicode="&#x151;" horiz-adv-x="610" 
d="M305 522q60 0 107.5 -20t81 -55.5t51 -84.5t17.5 -107q0 -59 -17.5 -108t-51 -84.5t-81 -55.5t-107.5 -20t-107.5 20t-81 55.5t-51 84.5t-17.5 108q0 58 17.5 107t51 84.5t81 55.5t107.5 20zM305 83q37 0 64 14t45 38t26.5 55t8.5 65q0 33 -8.5 64t-26.5 55t-45 38
t-64 14t-64 -14t-45 -38t-26.5 -55t-8.5 -64q0 -34 8.5 -65t26.5 -55t45 -38t64 -14zM249 582h-91l75 145h113zM421 582h-90l75 145h114z" />
    <glyph glyph-name="OE" unicode="&#x152;" horiz-adv-x="1088" 
d="M1042 109v-109h-475v46h-20q-32 -29 -77.5 -44t-94.5 -15q-75 0 -135 27t-101.5 76t-64 117t-22.5 150t22.5 150t64 117t101.5 76t135 27q49 0 94.5 -15t77.5 -44h20v46h462v-109h-342v-184h260v-106h-260v-206h355zM392 96q69 0 112 28t63 68v330q-20 40 -63 68t-112 28
q-56 0 -97 -21t-68 -56.5t-40 -83t-13 -100.5t13 -100.5t40 -83t68 -56.5t97 -21z" />
    <glyph glyph-name="oe" unicode="&#x153;" horiz-adv-x="972" 
d="M555 245q2 -74 36 -118t102 -44q45 0 72 16.5t39 47.5h114q-14 -71 -70 -115.5t-155 -44.5q-60 0 -107.5 24t-76.5 64h-20q-30 -41 -78 -64.5t-110 -23.5q-59 0 -106 20t-79.5 56t-50 85t-17.5 107q0 57 17.5 106t50 85t79.5 56t106 20q61 0 109 -23.5t79 -63.5h20
q28 39 76 63t111 24q54 0 96.5 -19t72 -51t45 -76t15.5 -93v-38h-370zM302 83q36 0 63 14t44 38t25.5 55t8.5 65q0 33 -8.5 64t-25.5 55t-44 38t-63 14t-63 -14t-44 -38t-25.5 -55t-8.5 -64q0 -34 8.5 -65t25.5 -55t44 -38t63 -14zM691 432q-58 0 -89.5 -29t-41.5 -74h248
q-4 44 -33.5 73.5t-83.5 29.5z" />
    <glyph glyph-name="Racute" unicode="&#x154;" horiz-adv-x="718" 
d="M207 284v-284h-120v714h326q116 0 179.5 -57.5t63.5 -157.5q0 -110 -76 -166q29 -14 47 -42.5t18 -67.5v-223h-120v196q0 44 -17.5 66t-56.5 22h-244zM207 390h181q80 0 113 27.5t33 81.5t-33 81.5t-113 27.5h-181v-218zM378 767h-105l88 129h130z" />
    <glyph glyph-name="racute" unicode="&#x155;" horiz-adv-x="424" 
d="M391 404h-43q-78 0 -117.5 -43t-39.5 -123v-238h-113v509h110v-60h20q16 21 49 40.5t92 19.5h42v-105zM250 582h-102l89 145h126z" />
    <glyph glyph-name="uni0156" unicode="&#x156;" horiz-adv-x="718" 
d="M207 284v-284h-120v714h326q116 0 179.5 -57.5t63.5 -157.5q0 -110 -76 -166q29 -14 47 -42.5t18 -67.5v-223h-120v196q0 44 -17.5 66t-56.5 22h-244zM207 390h181q80 0 113 27.5t33 81.5t-33 81.5t-113 27.5h-181v-218zM291 -226l62 64v17h-52v89h125v-106l-61 -64h-74z
" />
    <glyph glyph-name="uni0157" unicode="&#x157;" horiz-adv-x="424" 
d="M391 404h-43q-78 0 -117.5 -43t-39.5 -123v-238h-113v509h110v-60h20q16 21 49 40.5t92 19.5h42v-105zM65 -226l62 64v17h-52v89h125v-106l-61 -64h-74z" />
    <glyph glyph-name="Rcaron" unicode="&#x158;" horiz-adv-x="718" 
d="M207 284v-284h-120v714h326q116 0 179.5 -57.5t63.5 -157.5q0 -110 -76 -166q29 -14 47 -42.5t18 -67.5v-223h-120v196q0 44 -17.5 66t-56.5 22h-244zM207 390h181q80 0 113 27.5t33 81.5t-33 81.5t-113 27.5h-181v-218zM191 896h100l54 -60h20l55 60h98l-111 -129h-105z
" />
    <glyph glyph-name="rcaron" unicode="&#x159;" horiz-adv-x="424" 
d="M391 404h-43q-78 0 -117.5 -43t-39.5 -123v-238h-113v509h110v-60h20q16 21 49 40.5t92 19.5h42v-105zM70 727h97l58 -73h18l58 73h96l-112 -145h-104z" />
    <glyph glyph-name="Sacute" unicode="&#x15a;" horiz-adv-x="677" 
d="M428 410q42 -8 78 -23.5t62 -40.5t40.5 -60t14.5 -81q0 -43 -17.5 -82.5t-52.5 -69.5t-87 -48t-121 -18q-65 0 -117.5 16t-90.5 45t-60.5 70t-27.5 91h121q6 -32 22 -54.5t39.5 -36.5t53.5 -20t63 -6q69 0 111.5 29.5t42.5 80.5q0 45 -29 69t-77 32l-135 23
q-83 14 -133.5 62t-50.5 131q0 43 17 80.5t50 66t82 45t114 16.5q56 0 102.5 -14.5t81 -40.5t56 -63.5t27.5 -82.5h-122q-11 47 -46.5 71.5t-100.5 24.5q-63 0 -101.5 -26t-38.5 -74q0 -41 29.5 -61.5t71.5 -27.5zM369 767h-105l88 129h130z" />
    <glyph glyph-name="sacute" unicode="&#x15b;" horiz-adv-x="531" 
d="M333 303q75 -12 117 -48.5t42 -105.5q0 -32 -14.5 -61.5t-43 -52t-69.5 -35.5t-93 -13q-108 0 -166 44.5t-66 122.5h113q7 -39 39 -56t78 -17q49 0 79 17t30 48q0 26 -17.5 40.5t-55.5 20.5l-102 16q-31 5 -57.5 16t-45.5 28.5t-30 42t-11 55.5q0 33 13 62t39 50t65.5 33
t92.5 12q92 0 145.5 -41.5t61.5 -109.5h-112q-5 29 -33 43t-66 14q-42 0 -67.5 -14.5t-25.5 -42.5q0 -43 66 -53zM300 582h-102l89 145h126z" />
    <glyph glyph-name="Scedilla" unicode="&#x15e;" horiz-adv-x="674" 
d="M425 410q42 -8 78 -23.5t62 -40.5t40.5 -60t14.5 -81q0 -43 -17.5 -82.5t-52.5 -69.5t-87 -48t-121 -18h-7l-17 -45h13q12 9 36 9q28 0 48.5 -22t20.5 -60q0 -17 -6 -33t-18.5 -28.5t-32 -20.5t-47.5 -8q-47 0 -71 23t-26 52h63q3 -10 11.5 -17t24.5 -7t26 9.5t10 26.5
t-10 26.5t-26 9.5q-19 0 -31 -12h-58l38 101q-105 13 -166.5 71t-70.5 147h121q6 -32 22 -54.5t39.5 -36.5t53.5 -20t63 -6q69 0 111.5 29.5t42.5 80.5q0 45 -29 69t-77 32l-135 23q-83 14 -133.5 62t-50.5 131q0 43 17 80.5t50 66t82 45t114 16.5q56 0 102.5 -14.5
t81 -40.5t56 -63.5t27.5 -82.5h-122q-11 47 -46.5 71.5t-100.5 24.5q-63 0 -101.5 -26t-38.5 -74q0 -41 29.5 -61.5t71.5 -27.5z" />
    <glyph glyph-name="scedilla" unicode="&#x15f;" horiz-adv-x="531" 
d="M331 303q75 -12 117 -48.5t42 -105.5q0 -32 -14.5 -61.5t-43 -52t-69.5 -35.5t-93 -13h-7l-17 -45h13q12 9 36 9q28 0 48.5 -22t20.5 -60q0 -17 -6 -33t-18.5 -28.5t-32 -20.5t-47.5 -8q-47 0 -71 23t-26 52h63q3 -10 11.5 -17t24.5 -7t26 9.5t10 26.5t-10 26.5t-26 9.5
q-19 0 -31 -12h-58l38 101q-80 11 -123 53.5t-50 109.5h113q7 -39 39 -56t78 -17q49 0 79 17t30 48q0 26 -17.5 40.5t-55.5 20.5l-102 16q-31 5 -57.5 16t-45.5 28.5t-30 42t-11 55.5q0 33 13 62t39 50t65.5 33t92.5 12q92 0 145.5 -41.5t61.5 -109.5h-112q-5 29 -33 43
t-66 14q-42 0 -67.5 -14.5t-25.5 -42.5q0 -43 66 -53z" />
    <glyph glyph-name="Scaron" unicode="&#x160;" horiz-adv-x="677" 
d="M428 410q42 -8 78 -23.5t62 -40.5t40.5 -60t14.5 -81q0 -43 -17.5 -82.5t-52.5 -69.5t-87 -48t-121 -18q-65 0 -117.5 16t-90.5 45t-60.5 70t-27.5 91h121q6 -32 22 -54.5t39.5 -36.5t53.5 -20t63 -6q69 0 111.5 29.5t42.5 80.5q0 45 -29 69t-77 32l-135 23
q-83 14 -133.5 62t-50.5 131q0 43 17 80.5t50 66t82 45t114 16.5q56 0 102.5 -14.5t81 -40.5t56 -63.5t27.5 -82.5h-122q-11 47 -46.5 71.5t-100.5 24.5q-63 0 -101.5 -26t-38.5 -74q0 -41 29.5 -61.5t71.5 -27.5zM172 896h100l54 -60h20l55 60h98l-111 -129h-105z" />
    <glyph glyph-name="scaron" unicode="&#x161;" horiz-adv-x="531" 
d="M333 303q75 -12 117 -48.5t42 -105.5q0 -32 -14.5 -61.5t-43 -52t-69.5 -35.5t-93 -13q-108 0 -166 44.5t-66 122.5h113q7 -39 39 -56t78 -17q49 0 79 17t30 48q0 26 -17.5 40.5t-55.5 20.5l-102 16q-31 5 -57.5 16t-45.5 28.5t-30 42t-11 55.5q0 33 13 62t39 50t65.5 33
t92.5 12q92 0 145.5 -41.5t61.5 -109.5h-112q-5 29 -33 43t-66 14q-42 0 -67.5 -14.5t-25.5 -42.5q0 -43 66 -53zM106 727h97l58 -73h18l58 73h96l-112 -145h-104z" />
    <glyph glyph-name="uni0162" unicode="&#x162;" horiz-adv-x="611" 
d="M594 608h-228v-608h-120v608h-229v106h577v-106zM236 -226l62 64v17h-52v89h125v-106l-61 -64h-74z" />
    <glyph glyph-name="uni0163" unicode="&#x163;" horiz-adv-x="421" 
d="M365 509v-96h-134v-255q0 -30 16 -45t58 -15h60v-98h-71q-42 0 -74.5 5.5t-55 20.5t-34.5 42t-12 71v274h-93v96h93v148h113v-148h134zM169 -226l62 64v17h-52v89h125v-106l-61 -64h-74z" />
    <glyph glyph-name="Tcaron" unicode="&#x164;" horiz-adv-x="611" 
d="M594 608h-228v-608h-120v608h-229v106h577v-106zM142 896h100l54 -60h20l55 60h98l-111 -129h-105z" />
    <glyph glyph-name="tcaron" unicode="&#x165;" horiz-adv-x="458" 
d="M365 509v-96h-134v-251q0 -31 17 -47.5t59 -16.5h58v-98h-62q-43 0 -77 6t-58 22t-37 44.5t-13 72.5v268h-93v96h93v148h113v-148h134zM354 657v111h131v-128l-64 -82h-73l64 82v17h-58z" />
    <glyph glyph-name="Tbar" unicode="&#x166;" horiz-adv-x="611" 
d="M594 608h-228v-196h152v-94h-152v-318h-120v318h-154v94h154v196h-229v106h577v-106z" />
    <glyph glyph-name="tbar" unicode="&#x167;" horiz-adv-x="421" 
d="M365 509v-92h-134v-88h134v-92h-134v-79q0 -30 16 -45t58 -15h60v-98h-71q-42 0 -74.5 5.5t-55 20.5t-34.5 42t-12 71v98h-93v92h93v88h-93v92h93v148h113v-148h134z" />
    <glyph glyph-name="Utilde" unicode="&#x168;" horiz-adv-x="750" 
d="M665 714v-455q0 -130 -75 -201t-215 -71t-215 71t-75 201v455h120v-452q0 -75 43.5 -120.5t126.5 -45.5q84 0 127 45.5t43 120.5v452h120zM447 838q21 0 28.5 18t7.5 44h61q0 -65 -24.5 -101t-73.5 -36q-27 0 -46 11.5t-38 23.5q-15 10 -28 18.5t-30 8.5q-21 0 -28.5 -18
t-7.5 -44h-61q0 65 24.5 101t73.5 36q28 0 49.5 -12t39.5 -25q14 -10 26.5 -17.5t26.5 -7.5z" />
    <glyph glyph-name="utilde" unicode="&#x169;" horiz-adv-x="617" 
d="M184 509v-296q0 -125 112 -125q30 0 54.5 12t41 32t25.5 47.5t9 59.5v270h113v-509h-110v50h-20q-20 -26 -54.5 -44.5t-88.5 -18.5q-94 0 -144.5 55t-50.5 152v315h113zM376 661q21 0 28.5 18t7.5 44h61q0 -65 -24.5 -101t-73.5 -36q-27 0 -46 11.5t-38 23.5
q-15 10 -28 18.5t-30 8.5q-21 0 -28.5 -18t-7.5 -44h-61q0 65 24.5 101t73.5 36q28 0 49.5 -12t39.5 -25q14 -10 26.5 -17.5t26.5 -7.5z" />
    <glyph glyph-name="Umacron" unicode="&#x16a;" horiz-adv-x="750" 
d="M665 714v-455q0 -130 -75 -201t-215 -71t-215 71t-75 201v455h120v-452q0 -75 43.5 -120.5t126.5 -45.5q84 0 127 45.5t43 120.5v452h120zM229 801v75h292v-75h-292z" />
    <glyph glyph-name="umacron" unicode="&#x16b;" horiz-adv-x="617" 
d="M184 509v-296q0 -125 112 -125q30 0 54.5 12t41 32t25.5 47.5t9 59.5v270h113v-509h-110v50h-20q-20 -26 -54.5 -44.5t-88.5 -18.5q-94 0 -144.5 55t-50.5 152v315h113zM158 618v77h292v-77h-292z" />
    <glyph glyph-name="Uring" unicode="&#x16e;" horiz-adv-x="750" 
d="M665 714v-455q0 -130 -75 -201t-215 -71t-215 71t-75 201v455h120v-452q0 -75 43.5 -120.5t126.5 -45.5q84 0 127 45.5t43 120.5v452h120zM375 974q24 0 44.5 -8.5t35.5 -23.5t24 -35.5t9 -44.5q0 -23 -9 -43t-24 -35t-35.5 -24t-44.5 -9q-23 0 -44 9t-36.5 24t-24.5 35
t-9 43q0 24 9 44.5t24.5 35.5t36.5 23.5t44 8.5zM375 810q22 0 37.5 15t15.5 37q0 23 -15.5 38.5t-37.5 15.5t-37.5 -15.5t-15.5 -38.5q0 -22 15.5 -37t37.5 -15z" />
    <glyph glyph-name="uring" unicode="&#x16f;" horiz-adv-x="617" 
d="M184 509v-296q0 -125 112 -125q30 0 54.5 12t41 32t25.5 47.5t9 59.5v270h113v-509h-110v50h-20q-20 -26 -54.5 -44.5t-88.5 -18.5q-94 0 -144.5 55t-50.5 152v315h113zM304 798q24 0 44.5 -8.5t35.5 -23.5t24 -35.5t9 -44.5q0 -23 -9 -43t-24 -35t-35.5 -24t-44.5 -9
q-23 0 -44 9t-36.5 24t-24.5 35t-9 43q0 24 9 44.5t24.5 35.5t36.5 23.5t44 8.5zM304 634q22 0 37.5 15t15.5 37q0 23 -15.5 38.5t-37.5 15.5t-37.5 -15.5t-15.5 -38.5q0 -22 15.5 -37t37.5 -15z" />
    <glyph glyph-name="Uhungarumlaut" unicode="&#x170;" horiz-adv-x="750" 
d="M665 714v-455q0 -130 -75 -201t-215 -71t-215 71t-75 201v455h120v-452q0 -75 43.5 -120.5t126.5 -45.5q84 0 127 45.5t43 120.5v452h120zM325 767h-92l77 129h115zM496 767h-91l78 129h114z" />
    <glyph glyph-name="uhungarumlaut" unicode="&#x171;" horiz-adv-x="617" 
d="M184 509v-296q0 -125 112 -125q30 0 54.5 12t41 32t25.5 47.5t9 59.5v270h113v-509h-110v50h-20q-20 -26 -54.5 -44.5t-88.5 -18.5q-94 0 -144.5 55t-50.5 152v315h113zM237 582h-91l75 145h113zM409 582h-90l75 145h114z" />
    <glyph glyph-name="Uogonek" unicode="&#x172;" horiz-adv-x="750" 
d="M375 96q84 0 127 45.5t43 120.5v452h120v-455q0 -51 -11 -90.5t-31 -69.5t-47 -51.5t-60 -35.5q-48 -21 -74 -41t-26 -52q0 -22 17.5 -35t49.5 -13v-71h-26q-66 0 -97.5 26t-31.5 70q0 28 15.5 51t39.5 40h-8q-140 0 -215 71t-75 201v455h120v-452q0 -75 43.5 -120.5
t126.5 -45.5z" />
    <glyph glyph-name="uogonek" unicode="&#x173;" horiz-adv-x="617" 
d="M184 509v-296q0 -125 112 -125q30 0 54.5 12t41 32t25.5 47.5t9 59.5v270h113v-509q-28 -14 -46.5 -35t-18.5 -46q0 -22 17.5 -35t49.5 -13v-71h-26q-66 0 -97.5 26t-31.5 70q0 30 20.5 59t55.5 45h-33v50h-20q-20 -26 -54.5 -44.5t-88.5 -18.5q-94 0 -144.5 55
t-50.5 152v315h113z" />
    <glyph glyph-name="Ydieresis" unicode="&#x178;" horiz-adv-x="661" 
d="M519 714h124l-253 -451v-263h-120v263l-253 451h128l173 -307h28zM509 839l-80 -80l-80 80l80 80zM312 839l-80 -80l-80 80l80 80z" />
    <glyph glyph-name="Zacute" unicode="&#x179;" horiz-adv-x="656" 
d="M594 584l-397 -454v-21h412v-109h-563v130l398 454v21h-371v109h521v-130zM371 767h-105l88 129h130z" />
    <glyph glyph-name="zacute" unicode="&#x17a;" horiz-adv-x="535" 
d="M49 0v116l283 277v20h-266v96h414v-115l-282 -278v-20h288v-96h-437zM304 582h-102l89 145h126z" />
    <glyph glyph-name="Zdotaccent" unicode="&#x17b;" horiz-adv-x="656" 
d="M594 584l-397 -454v-21h412v-109h-563v130l398 454v21h-371v109h521v-130zM268 790v106h120v-106h-120z" />
    <glyph glyph-name="zdotaccent" unicode="&#x17c;" horiz-adv-x="535" 
d="M49 0v116l283 277v20h-266v96h414v-115l-282 -278v-20h288v-96h-437zM212 614v113h120v-113h-120z" />
    <glyph glyph-name="Zcaron" unicode="&#x17d;" horiz-adv-x="656" 
d="M594 584l-397 -454v-21h412v-109h-563v130l398 454v21h-371v109h521v-130zM165 896h100l54 -60h20l55 60h98l-111 -129h-105z" />
    <glyph glyph-name="zcaron" unicode="&#x17e;" horiz-adv-x="535" 
d="M49 0v116l283 277v20h-266v96h414v-115l-282 -278v-20h288v-96h-437zM111 727h97l58 -73h18l58 73h96l-112 -145h-104z" />
    <glyph glyph-name="florin" unicode="&#x192;" horiz-adv-x="432" 
d="M30 -200l95 540h-91v96h108l17 97q19 106 73 150t146 44h44v-96h-42q-52 0 -75.5 -29t-34.5 -83l-16 -83h113v-96h-129l-95 -540h-113z" />
    <glyph glyph-name="circumflex" unicode="&#x2c6;" horiz-adv-x="399" 
d="M363 582h-97l-59 73h-17l-58 -73h-96l112 145h104z" />
    <glyph glyph-name="caron" unicode="&#x2c7;" horiz-adv-x="399" 
d="M36 727h97l58 -73h18l58 73h96l-112 -145h-104z" />
    <glyph glyph-name="breve" unicode="&#x2d8;" horiz-adv-x="363" 
d="M325 727q0 -68 -37 -106.5t-106 -38.5t-106.5 38.5t-37.5 106.5h79q0 -35 15.5 -53.5t49.5 -18.5q33 0 49 18.5t16 53.5h78z" />
    <glyph glyph-name="dotaccent" unicode="&#x2d9;" horiz-adv-x="196" 
d="M38 614v113h120v-113h-120z" />
    <glyph glyph-name="ring" unicode="&#x2da;" horiz-adv-x="307" 
d="M154 798q24 0 44.5 -8.5t35.5 -23.5t24 -35.5t9 -44.5q0 -23 -9 -43t-24 -35t-35.5 -24t-44.5 -9q-23 0 -44 9t-36.5 24t-24.5 35t-9 43q0 24 9 44.5t24.5 35.5t36.5 23.5t44 8.5zM154 634q22 0 37.5 15t15.5 37q0 23 -15.5 38.5t-37.5 15.5t-37.5 -15.5t-15.5 -38.5
q0 -22 15.5 -37t37.5 -15z" />
    <glyph glyph-name="ogonek" unicode="&#x2db;" horiz-adv-x="234" 
d="M183 0q-28 -14 -46.5 -35t-18.5 -46q0 -22 17.5 -35t49.5 -13v-71h-26q-66 0 -97.5 26t-31.5 70q0 35 25.5 67.5t70.5 44.5z" />
    <glyph glyph-name="tilde" unicode="&#x2dc;" horiz-adv-x="410" 
d="M277 661q21 0 28.5 18t7.5 44h61q0 -65 -24.5 -101t-73.5 -36q-27 0 -46 11.5t-38 23.5q-15 10 -28 18.5t-30 8.5q-21 0 -28.5 -18t-7.5 -44h-61q0 65 24.5 101t73.5 36q28 0 49.5 -12t39.5 -25q14 -10 26.5 -17.5t26.5 -7.5z" />
    <glyph glyph-name="hungarumlaut" unicode="&#x2dd;" horiz-adv-x="440" 
d="M130 582h-91l75 145h113zM302 582h-90l75 145h114z" />
    <glyph glyph-name="uni03A9" unicode="&#x3a9;" horiz-adv-x="765" 
d="M588 98h123v-98h-284v96q31 20 60 47.5t52 63t37 78.5t14 95q0 56 -15 100.5t-42.5 75t-66 46.5t-84.5 16t-84.5 -16t-66 -46.5t-42.5 -75t-15 -100.5q0 -52 14 -95t37 -78.5t52 -63t60 -47.5v-96h-284v98h124v19q-23 19 -45 45.5t-40 60.5t-29 76t-11 91q0 74 22.5 136
t65.5 106.5t104 69.5t138 25t138.5 -25t104 -69.5t65 -106.5t22.5 -136q0 -49 -11 -91t-28.5 -76t-40 -60.5t-44.5 -45.5v-19z" />
    <glyph glyph-name="pi" unicode="&#x3c0;" horiz-adv-x="631" 
d="M546 0q-50 0 -82.5 11.5t-51 33t-25.5 52t-7 68.5v248h-163v-413h-113v413h-79v96h558v-96h-90v-248q0 -33 12.5 -51t40.5 -18h37v-96h-37z" />
    <glyph glyph-name="uni0401" unicode="&#x401;" horiz-adv-x="659" 
d="M613 109v-109h-526v714h513v-109h-393v-184h311v-107h-311v-205h406zM515 839l-80 -80l-80 80l80 80zM318 839l-80 -80l-80 80l80 80z" />
    <glyph glyph-name="uni0402" unicode="&#x402;" horiz-adv-x="813" 
d="M763 207q0 -57 -17 -98.5t-48.5 -68.5t-75.5 -40t-98 -13q-11 0 -28.5 1t-24.5 3v109q5 -2 17 -3t26 -1q69 0 99 29.5t30 80.5q0 25 -8 46t-27.5 36t-51.5 23.5t-80 8.5q-32 0 -71 -4t-73 -12v-304h-120v608h-195v106h566v-106h-251v-195q38 8 81.5 12t85.5 4
q74 0 124.5 -18t81.5 -48.5t44.5 -71t13.5 -84.5z" />
    <glyph glyph-name="uni0403" unicode="&#x403;" horiz-adv-x="631" 
d="M207 605v-605h-120v714h502v-109h-382zM363 767h-105l88 129h130z" />
    <glyph glyph-name="uni0404" unicode="&#x404;" horiz-adv-x="726" 
d="M677 203q-8 -48 -32 -87.5t-61.5 -68t-87 -44.5t-109.5 -16q-81 0 -143 28t-105 77.5t-65 117t-22 147.5t22 148t64.5 117.5t104.5 77t143 27.5q56 0 103.5 -14.5t84 -41.5t61 -64.5t34.5 -83.5h-125q-17 46 -56.5 71t-103.5 25q-47 0 -83 -15.5t-61.5 -42.5t-40 -64
t-19.5 -79h298v-107h-299q3 -45 17 -84.5t40 -69t63.5 -46t86.5 -16.5q65 0 108 28.5t57 79.5h126z" />
    <glyph glyph-name="uni0405" unicode="&#x405;" horiz-adv-x="677" 
d="M428 410q42 -8 78 -23.5t62 -40.5t40.5 -60t14.5 -81q0 -43 -17.5 -82.5t-52.5 -69.5t-87 -48t-121 -18q-65 0 -117.5 16t-90.5 45t-60.5 70t-27.5 91h121q6 -32 22 -54.5t39.5 -36.5t53.5 -20t63 -6q69 0 111.5 29.5t42.5 80.5q0 45 -29 69t-77 32l-135 23
q-83 14 -133.5 62t-50.5 131q0 43 17 80.5t50 66t82 45t114 16.5q56 0 102.5 -14.5t81 -40.5t56 -63.5t27.5 -82.5h-122q-11 47 -46.5 71.5t-100.5 24.5q-63 0 -101.5 -26t-38.5 -74q0 -41 29.5 -61.5t71.5 -27.5z" />
    <glyph glyph-name="uni0406" unicode="&#x406;" horiz-adv-x="304" 
d="M212 714v-714h-120v714h120z" />
    <glyph glyph-name="uni0407" unicode="&#x407;" horiz-adv-x="304" 
d="M212 714v-714h-120v714h120z" />
    <glyph glyph-name="uni0408" unicode="&#x408;" horiz-adv-x="575" 
d="M65 108h185q54 0 87 34t33 106v357h-305v109h425v-473q0 -114 -59 -177.5t-165 -63.5h-201v108z" />
    <glyph glyph-name="uni0409" unicode="&#x409;" horiz-adv-x="1132" 
d="M526 0v605h-252v-184q0 -130 -14 -212t-42.5 -128.5t-72.5 -63.5t-105 -17h-23v118h22q32 0 55.5 10.5t38.5 43.5t22 93t7 159v290h484v-258h180q122 0 189 -60t67 -167q0 -108 -67 -168.5t-189 -60.5h-300zM806 106q85 0 119.5 32.5t34.5 90.5q0 57 -34.5 89t-119.5 32
h-160v-244h160z" />
    <glyph glyph-name="uni040A" unicode="&#x40a;" horiz-adv-x="1160" 
d="M554 0v319h-347v-319h-120v714h120v-285h347v285h120v-258h180q122 0 189 -60t67 -167q0 -108 -67 -168.5t-189 -60.5h-300zM834 106q85 0 119.5 32.5t34.5 90.5q0 57 -34.5 89t-119.5 32h-160v-244h160z" />
    <glyph glyph-name="uni040B" unicode="&#x40b;" horiz-adv-x="819" 
d="M643 0v190q0 24 -2.5 47.5t-18 41.5t-49 29.5t-94.5 11.5q-38 0 -76 -5t-71 -13v-302h-120v608h-195v106h566v-106h-251v-197q38 9 84.5 13.5t86.5 4.5q94 0 146.5 -19.5t77.5 -52t30.5 -73t5.5 -82.5v-202h-120z" />
    <glyph glyph-name="uni040C" unicode="&#x40c;" horiz-adv-x="713" 
d="M87 714h120v-292h169l154 292h131l-182 -347l191 -367h-131l-164 313h-168v-313h-120v714zM397 767h-105l88 129h130z" />
    <glyph glyph-name="uni040E" unicode="&#x40e;" horiz-adv-x="662" 
d="M353 368l165 346h123l-342 -714h-122l102 214l-264 500h128l182 -346h28zM517 904q-4 -73 -53 -113.5t-129 -40.5q-79 0 -128 40.5t-53 113.5h92q2 -33 25.5 -54t63.5 -21t64 20.5t27 54.5h91z" />
    <glyph glyph-name="uni040F" unicode="&#x40f;" horiz-adv-x="759" 
d="M320 0h-233v714h120v-605h346v605h120v-714h-233v-175h-120v175z" />
    <glyph glyph-name="uni0410" unicode="&#x410;" horiz-adv-x="705" 
d="M495 205h-289l-66 -205h-122l240 714h188l241 -714h-125zM240 312h220l-93 285h-35z" />
    <glyph glyph-name="uni0411" unicode="&#x411;" horiz-adv-x="702" 
d="M408 433q117 0 180.5 -57t63.5 -159t-63.5 -159.5t-180.5 -57.5h-321v714h506v-109h-386v-172h201zM387 106q80 0 112 30t32 84q0 53 -32.5 83t-111.5 30h-180v-227h180z" />
    <glyph glyph-name="uni0412" unicode="&#x412;" horiz-adv-x="713" 
d="M565 364q21 -9 38.5 -25t31 -37t21 -46t7.5 -52q0 -44 -15 -81t-45 -64.5t-76 -43t-108 -15.5h-332v714h323q58 0 101.5 -15t72.5 -40t43.5 -59t14.5 -71q0 -48 -20.5 -87t-56.5 -58v-20zM399 421q66 0 93 25t27 70t-27 69.5t-93 24.5h-192v-189h192zM403 104
q75 0 106 29t31 79q0 51 -31 79t-106 28h-196v-215h196z" />
    <glyph glyph-name="uni0413" unicode="&#x413;" horiz-adv-x="631" 
d="M207 605v-605h-120v714h502v-109h-382z" />
    <glyph glyph-name="uni0414" unicode="&#x414;" horiz-adv-x="779" 
d="M753 109v-284h-117v175h-504v-175h-117v284h74q16 33 32 75.5t28 96.5t19.5 120t7.5 146v167h475v-605h102zM533 605h-245v-69q0 -151 -22.5 -257t-53.5 -170h321v496z" />
    <glyph glyph-name="uni0415" unicode="&#x415;" horiz-adv-x="659" 
d="M613 109v-109h-526v714h513v-109h-393v-184h311v-107h-311v-205h406z" />
    <glyph glyph-name="uni0416" unicode="&#x416;" horiz-adv-x="1052" 
d="M585 308v-308h-118v308h-143l-145 -308h-129l170 362l-161 352h129l136 -297h143v297h118v-297h143l136 297h129l-161 -352l170 -362h-129l-145 308h-143z" />
    <glyph glyph-name="uni0417" unicode="&#x417;" horiz-adv-x="678" 
d="M479 520q0 49 -39 73.5t-96 24.5q-129 0 -148 -96h-124q6 48 27.5 86t56.5 64.5t83 40.5t106 14q62 0 110 -15t80.5 -41t49.5 -61t17 -75q0 -60 -23.5 -95t-52.5 -50v-20q43 -16 72 -55.5t29 -110.5q0 -44 -18.5 -83.5t-54 -69t-88 -47t-120.5 -17.5q-140 0 -215 59.5
t-89 160.5h126q14 -56 59.5 -83.5t119.5 -27.5q70 0 112.5 29.5t42.5 82.5q0 49 -32.5 78.5t-109.5 29.5h-110v107h110q33 0 56 8t37 21t20 30.5t6 37.5z" />
    <glyph glyph-name="uni0418" unicode="&#x418;" horiz-adv-x="776" 
d="M201 714v-556h20l303 556h166v-714h-114v556h-20l-303 -556h-166v714h114z" />
    <glyph glyph-name="uni0419" unicode="&#x419;" horiz-adv-x="776" 
d="M201 714v-556h20l303 556h166v-714h-114v556h-20l-303 -556h-166v714h114zM570 904q-4 -73 -53 -113.5t-129 -40.5q-79 0 -128 40.5t-53 113.5h92q2 -33 25.5 -54t63.5 -21t64 20.5t27 54.5h91z" />
    <glyph glyph-name="uni041A" unicode="&#x41a;" horiz-adv-x="699" 
d="M87 714h120v-292h169l154 292h131l-182 -347l191 -367h-131l-164 313h-168v-313h-120v714z" />
    <glyph glyph-name="uni041B" unicode="&#x41b;" horiz-adv-x="743" 
d="M39 118q33 0 56 10.5t38 44.5t22 96t7 166v279h495v-714h-120v605h-263v-184q0 -130 -14 -212t-42.5 -128.5t-72.5 -63.5t-105 -17h-23v118h22z" />
    <glyph glyph-name="uni041C" unicode="&#x41c;" horiz-adv-x="868" 
d="M87 714h190l149 -324h20l148 324h188v-714h-114v580h-20l-156 -342h-115l-156 342h-20v-580h-114v714z" />
    <glyph glyph-name="uni041D" unicode="&#x41d;" horiz-adv-x="770" 
d="M684 714v-714h-120v312h-357v-312h-120v714h120v-290h357v290h120z" />
    <glyph glyph-name="uni041E" unicode="&#x41e;" horiz-adv-x="785" 
d="M393 727q83 0 146.5 -28.5t106.5 -78.5t65 -117.5t22 -145.5t-22 -145.5t-65 -117.5t-106.5 -78.5t-146.5 -28.5t-147 28.5t-107 78.5t-65 117.5t-22 145.5t22 145.5t65 117.5t107 78.5t147 28.5zM393 96q57 0 98 21t67.5 56.5t39.5 83t13 100.5t-13 100.5t-39.5 83
t-67.5 56.5t-98 21t-98.5 -21t-68 -56.5t-39.5 -83t-13 -100.5t13 -100.5t39.5 -83t68 -56.5t98.5 -21z" />
    <glyph glyph-name="uni041F" unicode="&#x41f;" horiz-adv-x="762" 
d="M676 714v-714h-120v605h-349v-605h-120v714h589z" />
    <glyph glyph-name="uni0420" unicode="&#x420;" horiz-adv-x="701" 
d="M401 714q120 0 185 -58.5t65 -161.5q0 -105 -65 -164t-185 -59h-194v-271h-120v714h314zM383 377q80 0 113 31t33 85q0 55 -33 85t-113 30h-176v-231h176z" />
    <glyph glyph-name="uni0421" unicode="&#x421;" horiz-adv-x="728" 
d="M679 216q-9 -51 -33 -93t-61 -72t-86.5 -47t-110.5 -17q-81 0 -143.5 27.5t-105 77t-65 117t-22.5 148.5t22.5 148.5t65.5 117t105.5 77t143.5 27.5q57 0 104.5 -15t83.5 -43t60 -66.5t34 -86.5h-126q-17 51 -55 76.5t-101 25.5q-55 0 -95.5 -21t-67 -56.5t-39.5 -83
t-13 -100.5t13 -100.5t39 -83t66.5 -56.5t95.5 -21q66 0 108.5 31.5t56.5 88.5h126z" />
    <glyph glyph-name="uni0422" unicode="&#x422;" horiz-adv-x="611" 
d="M594 608h-228v-608h-120v608h-229v106h577v-106z" />
    <glyph glyph-name="uni0423" unicode="&#x423;" horiz-adv-x="662" 
d="M353 368l165 346h123l-342 -714h-122l102 214l-264 500h128l182 -346h28z" />
    <glyph glyph-name="uni0424" unicode="&#x424;" horiz-adv-x="875" 
d="M506 654q73 0 132.5 -18t102.5 -54t66.5 -90t23.5 -125q0 -73 -23.5 -127t-66.5 -89.5t-102.5 -53t-132.5 -17.5h-11v-93h-116v93h-10q-74 0 -134 17.5t-102.5 53t-66 89.5t-23.5 127q0 71 23.5 125t66.5 90t103 54t133 18h10v83h116v-83h11zM379 184v366h-10
q-95 0 -150.5 -44t-55.5 -139q0 -94 55.5 -138.5t150.5 -44.5h10zM506 184q94 0 150 44.5t56 138.5t-56 138.5t-150 44.5h-11v-366h11z" />
    <glyph glyph-name="uni0425" unicode="&#x425;" horiz-adv-x="671" 
d="M498 714h123l-181 -342l210 -372h-130l-172 306h-29l-172 -306h-127l209 372l-180 342h125l148 -278h28z" />
    <glyph glyph-name="uni0426" unicode="&#x426;" horiz-adv-x="801" 
d="M657 0h-570v714h120v-605h345v605h120v-605h103v-284h-118v175z" />
    <glyph glyph-name="uni0427" unicode="&#x427;" horiz-adv-x="692" 
d="M175 714v-204q0 -24 2.5 -47.5t18 -41.5t49 -29.5t94.5 -11.5q38 0 76 5t71 13v316h120v-714h-120v289q-38 -9 -84.5 -13.5t-86.5 -4.5q-94 0 -146.5 19.5t-77.5 52t-30.5 73t-5.5 82.5v216h120z" />
    <glyph glyph-name="uni0428" unicode="&#x428;" horiz-adv-x="1030" 
d="M457 714h117v-605h253v605h117v-714h-857v714h117v-605h253v605z" />
    <glyph glyph-name="uni0429" unicode="&#x429;" horiz-adv-x="1072" 
d="M929 0h-842v714h117v-605h253v605h117v-605h253v605h117v-605h102v-284h-117v175z" />
    <glyph glyph-name="uni042A" unicode="&#x42a;" horiz-adv-x="802" 
d="M187 0v605h-182v109h302v-258h189q123 0 189.5 -60t66.5 -167q0 -108 -66.5 -168.5t-189.5 -60.5h-309zM476 106q85 0 119.5 32.5t34.5 90.5q0 57 -34.5 89t-119.5 32h-169v-244h169z" />
    <glyph glyph-name="uni042B" unicode="&#x42b;" horiz-adv-x="928" 
d="M842 714v-714h-121v714h121zM358 106q85 0 119.5 32.5t34.5 90.5q0 57 -34.5 89t-119.5 32h-151v-244h151zM87 0v714h120v-258h170q123 0 190 -60t67 -167q0 -108 -67 -168.5t-190 -60.5h-290z" />
    <glyph glyph-name="uni042C" unicode="&#x42c;" horiz-adv-x="702" 
d="M376 106q85 0 119.5 32.5t34.5 90.5q0 57 -34.5 89t-119.5 32h-169v-244h169zM87 0v714h120v-258h189q122 0 189 -60t67 -167q0 -108 -67 -168.5t-189 -60.5h-309z" />
    <glyph glyph-name="uni042D" unicode="&#x42d;" horiz-adv-x="720" 
d="M169 203q14 -51 57 -79.5t108 -28.5q49 0 86.5 16.5t63.5 46t40 69t17 84.5h-299v107h298q-5 42 -19.5 79t-40 64t-61.5 42.5t-83 15.5q-64 0 -103.5 -25t-56.5 -71h-125q10 46 34.5 83.5t61 64.5t84 41.5t103.5 14.5q81 0 143 -27.5t104.5 -77t64.5 -117.5t22 -148
t-22 -147.5t-65 -117t-105 -77.5t-143 -28q-60 0 -109.5 16t-87 44.5t-61.5 68t-32 87.5h126z" />
    <glyph glyph-name="uni042E" unicode="&#x42e;" horiz-adv-x="1059" 
d="M673 727q81 0 143.5 -28.5t105 -78.5t64 -117.5t21.5 -145.5t-21.5 -145.5t-64 -117.5t-105 -78.5t-143.5 -28.5q-76 0 -135 25t-101 68.5t-66 103t-30 128.5h-134v-312h-120v714h120v-290h137q8 65 33.5 120.5t67 96t99 63.5t129.5 23zM673 96q54 0 94 21t66 56.5
t38.5 83t12.5 100.5t-12.5 100.5t-38.5 83t-66 56.5t-94 21q-55 0 -95 -21t-66 -56.5t-38.5 -83t-12.5 -100.5t12.5 -100.5t38.5 -83t66 -56.5t95 -21z" />
    <glyph glyph-name="uni042F" unicode="&#x42f;" horiz-adv-x="716" 
d="M61 499q0 100 63.5 157.5t179.5 57.5h326v-714h-120v284h-206l-120 -284h-126l129 306q-62 23 -94 73t-32 120zM183 499q0 -54 33 -81.5t113 -27.5h181v218h-181q-80 0 -113 -27.5t-33 -81.5z" />
    <glyph glyph-name="uni0430" unicode="&#x430;" horiz-adv-x="629" 
d="M551 0h-110v50h-20q-21 -26 -55.5 -44.5t-91.5 -18.5q-53 0 -94.5 20t-71 56t-45 85t-15.5 107t15.5 107t45 84.5t71 55.5t94.5 20q57 0 91.5 -18t55.5 -44h20v49h110v-509zM300 426q-35 0 -61 -13t-43.5 -35.5t-26 -54t-8.5 -68.5t8.5 -68.5t26 -54.5t43.5 -36t61 -13
q37 0 63.5 14t44 38t25.5 55t8 65t-8 65t-25.5 54.5t-44 37.5t-63.5 14z" />
    <glyph glyph-name="uni0431" unicode="&#x431;" horiz-adv-x="614" 
d="M307 83q37 0 64.5 12.5t45.5 34t27 50t9 59.5t-9 59.5t-27 50.5t-45.5 34.5t-64.5 12.5q-38 0 -65.5 -12.5t-45.5 -34.5t-26.5 -50.5t-8.5 -59.5t8.5 -59.5t26.5 -50t45.5 -34t65.5 -12.5zM330 492q54 0 97.5 -18t74 -51t47.5 -79t17 -101q0 -57 -18 -104t-51.5 -80.5
t-81 -52.5t-106.5 -19q-60 0 -108.5 20t-82 59t-52 97t-18.5 134q0 65 7 126.5t29 111t61 84.5t104 47q9 2 30 5t43 7q26 4 54 9q29 5 41.5 12.5t14.5 27.5h102q-1 -23 -4.5 -43.5t-14.5 -37.5t-32 -30t-55 -20q-8 -2 -29 -5t-46 -7t-48 -8t-34 -6q-32 -6 -54 -19.5t-36 -33
t-22 -44.5t-12 -54h19q29 41 70 57t94 16z" />
    <glyph glyph-name="uni0432" unicode="&#x432;" horiz-adv-x="587" 
d="M464 260q35 -14 55 -46t20 -74q0 -69 -46.5 -104.5t-133.5 -35.5h-281v509h283q78 0 119.5 -34.5t41.5 -94.5q0 -38 -18 -64t-40 -37v-19zM338 86q49 0 68 18.5t19 47.5t-19 48t-68 19h-149v-133h149zM189 305h148q40 0 56 17.5t16 41.5q0 25 -16 42t-56 17h-148v-118z
" />
    <glyph glyph-name="uni0433" unicode="&#x433;" horiz-adv-x="505" 
d="M78 509h397v-96h-284v-413h-113v509z" />
    <glyph glyph-name="uni0434" unicode="&#x434;" horiz-adv-x="668" 
d="M642 96v-239h-108v143h-408v-143h-108v239h72q21 50 38 117.5t17 152.5v143h405v-413h92zM437 413h-189v-48q0 -86 -14 -152.5t-34 -116.5h237v317z" />
    <glyph glyph-name="uni0435" unicode="&#x435;" horiz-adv-x="583" 
d="M536 245h-376q2 -78 38 -120t105 -42q46 0 73 17t38 47h115q-14 -70 -71 -115t-156 -45q-60 0 -107 20t-80 56t-50 85.5t-17 109.5t17.5 108.5t49.5 83t78.5 53.5t105.5 19q57 0 101 -19t74.5 -51t46 -76t15.5 -93v-38zM298 432q-60 0 -91.5 -29.5t-41.5 -73.5h255
q-5 43 -35.5 73t-86.5 30z" />
    <glyph glyph-name="uni0436" unicode="&#x436;" horiz-adv-x="829" 
d="M153 0h-116l135 262l-128 247h115l105 -201h98v201h106v-201h97l105 201h115l-129 -247l137 -262h-117l-111 212h-97v-212h-106v212h-98z" />
    <glyph glyph-name="uni0437" unicode="&#x437;" horiz-adv-x="550" 
d="M370 365q0 31 -27 46t-72 15q-95 0 -109 -65h-105q8 79 68 120t152 41q49 0 87 -11.5t64.5 -31t40 -46t13.5 -56.5q0 -44 -16.5 -68.5t-36.5 -32.5v-20q28 -8 48.5 -34.5t20.5 -76.5q0 -33 -15 -62t-43.5 -50t-69 -33.5t-92.5 -12.5q-112 0 -171 44.5t-69 120.5h106
q6 -20 18.5 -33.5t29.5 -21.5t38 -11t44 -3q50 0 80.5 16t30.5 51q0 31 -21.5 47t-74.5 16h-87v92h82q46 0 66 16.5t20 43.5z" />
    <glyph glyph-name="uni0438" unicode="&#x438;" horiz-adv-x="630" 
d="M78 0v509h110v-334h20l214 334h130v-509h-110v334h-20l-217 -334h-127z" />
    <glyph glyph-name="uni0439" unicode="&#x439;" horiz-adv-x="630" 
d="M78 0v509h110v-334h20l214 334h130v-509h-110v334h-20l-217 -334h-127zM483 721q-4 -70 -47.5 -109t-121.5 -39t-121.5 39t-47.5 109h89q2 -32 21 -52t59 -20t59 20t21 52h89z" />
    <glyph glyph-name="uni043A" unicode="&#x43a;" horiz-adv-x="586" 
d="M307 213h-116v-213h-113v509h113v-200h118l116 200h117l-142 -245l149 -264h-120z" />
    <glyph glyph-name="uni043B" unicode="&#x43b;" horiz-adv-x="628" 
d="M23 107h18q25 0 43.5 9t30.5 31.5t17.5 60.5t5.5 95v206h412v-509h-113v413h-195v-113q0 -84 -12 -141.5t-37 -93t-62.5 -50.5t-89.5 -15h-18v107z" />
    <glyph glyph-name="uni043C" unicode="&#x43c;" horiz-adv-x="728" 
d="M78 509h157l120 -238h20l120 238h155v-509h-110v366h-20l-105 -206h-102l-105 206h-20v-366h-110v509z" />
    <glyph glyph-name="uni043D" unicode="&#x43d;" horiz-adv-x="628" 
d="M437 0v213h-246v-213h-113v509h113v-200h246v200h113v-509h-113z" />
    <glyph glyph-name="uni043E" unicode="&#x43e;" horiz-adv-x="610" 
d="M305 522q60 0 107.5 -20t81 -55.5t51 -84.5t17.5 -107q0 -59 -17.5 -108t-51 -84.5t-81 -55.5t-107.5 -20t-107.5 20t-81 55.5t-51 84.5t-17.5 108q0 58 17.5 107t51 84.5t81 55.5t107.5 20zM305 83q37 0 64 14t45 38t26.5 55t8.5 65q0 33 -8.5 64t-26.5 55t-45 38
t-64 14t-64 -14t-45 -38t-26.5 -55t-8.5 -64q0 -34 8.5 -65t26.5 -55t45 -38t64 -14z" />
    <glyph glyph-name="uni043F" unicode="&#x43f;" horiz-adv-x="624" 
d="M433 0v413h-242v-413h-113v509h468v-509h-113z" />
    <glyph glyph-name="uni0440" unicode="&#x440;" horiz-adv-x="629" 
d="M355 -13q-56 0 -90 18t-54 45h-20v-250h-113v709h110v-50h20q21 26 55.5 44.5t91.5 18.5q52 0 94 -20t71.5 -56t45 -85t15.5 -107t-16 -107t-45 -84.5t-71 -55.5t-94 -20zM329 426q-37 0 -63.5 -14t-44 -38t-25.5 -55t-8 -65q0 -33 8 -64t25.5 -55t44 -38t63.5 -14
q35 0 61 13t43.5 36t26 54t8.5 68t-8.5 68.5t-26 54.5t-43.5 36t-61 13z" />
    <glyph glyph-name="uni0441" unicode="&#x441;" horiz-adv-x="568" 
d="M524 163q-6 -39 -24.5 -71.5t-47.5 -56t-67.5 -36t-84.5 -12.5q-59 0 -106 20t-79.5 55.5t-49.5 84.5t-17 108q0 58 17 107.5t49.5 84.5t79.5 55t106 20q94 0 151.5 -46.5t68.5 -121.5h-112q-11 33 -36.5 52.5t-70.5 19.5q-38 0 -64.5 -14t-43.5 -37t-24.5 -54t-7.5 -65
q0 -35 8 -66.5t24.5 -55t43 -37.5t64.5 -14q48 0 75.5 21t35.5 59h112z" />
    <glyph glyph-name="uni0442" unicode="&#x442;" horiz-adv-x="516" 
d="M30 509h456v-96h-171v-413h-113v413h-172v96z" />
    <glyph glyph-name="uni0443" unicode="&#x443;" horiz-adv-x="566" 
d="M542 25q0 -54 -18 -96t-51 -70.5t-80 -43.5t-104 -15h-188v98h175q152 0 152 149v21h-16q-20 -26 -54.5 -44.5t-88.5 -18.5q-94 0 -144.5 55t-50.5 152v297h113v-278q0 -125 112 -125q30 0 54.5 12t41 32t25.5 47.5t9 59.5v252h113v-484v0z" />
    <glyph glyph-name="uni0444" unicode="&#x444;" horiz-adv-x="749" 
d="M430 -200h-111v200h-12q-62 0 -110.5 19.5t-81.5 53t-50 80t-17 102.5q0 55 17 101t49.5 80t80 53t109.5 20h15v218h111v-218h15q61 -1 109 -20t80.5 -53t49.5 -80t17 -101q0 -58 -18 -105t-52.5 -80.5t-85 -51.5t-115.5 -18v-200zM159 255q0 -33 9 -63t27 -52
t45.5 -35.5t65.5 -13.5h13v327h-12q-38 0 -66 -13.5t-46 -35.5t-27 -51.5t-9 -62.5zM441 91q38 0 66 13.5t46.5 35.5t27.5 52t9 63t-9 62.5t-27.5 51.5t-46.5 35.5t-66 13.5h-11v-327h11z" />
    <glyph glyph-name="uni0445" unicode="&#x445;" horiz-adv-x="577" 
d="M410 509h118l-138 -249l153 -260h-122l-118 201h-30l-119 -201h-120l153 260l-138 249h120l106 -190h30z" />
    <glyph glyph-name="uni0446" unicode="&#x446;" horiz-adv-x="659" 
d="M542 509v-413h91v-239h-107v143h-448v509h113v-413h238v413h113z" />
    <glyph glyph-name="uni0447" unicode="&#x447;" horiz-adv-x="577" 
d="M162 509v-147q0 -16 2.5 -32t13 -28.5t33 -20t63.5 -7.5q32 0 59 3.5t52 8.5v223h114v-509h-114v192q-32 -7 -71.5 -10.5t-71.5 -3.5q-67 0 -105.5 14.5t-58 38.5t-24.5 54.5t-5 61.5v162h113z" />
    <glyph glyph-name="uni0448" unicode="&#x448;" horiz-adv-x="835" 
d="M757 509v-509h-679v509h110v-413h175v413h109v-413h175v413h110z" />
    <glyph glyph-name="uni0449" unicode="&#x449;" horiz-adv-x="875" 
d="M757 509v-413h92v-239h-108v143h-663v509h110v-413h175v413h109v-413h175v413h110z" />
    <glyph glyph-name="uni044A" unicode="&#x44a;" horiz-adv-x="654" 
d="M18 509h262v-158h137q97 0 148 -46t51 -127q0 -82 -51 -130t-148 -48h-250v413h-149v96zM401 96q58 0 79.5 22t21.5 60q0 39 -21.5 60.5t-79.5 21.5h-121v-164h121z" />
    <glyph glyph-name="uni044B" unicode="&#x44b;" horiz-adv-x="786" 
d="M191 509v-158h127q97 0 147.5 -46t50.5 -127q0 -82 -50.5 -130t-147.5 -48h-240v509h113zM191 96h111q58 0 79.5 22t21.5 60q0 39 -21.5 60.5t-79.5 21.5h-111v-164zM708 509v-509h-113v509h113z" />
    <glyph glyph-name="uni044C" unicode="&#x44c;" horiz-adv-x="564" 
d="M191 351h137q97 0 147.5 -46t50.5 -127q0 -82 -50.5 -130t-147.5 -48h-250v509h113v-158zM312 96q58 0 79.5 22t21.5 60q0 39 -21.5 60.5t-79.5 21.5h-121v-164h121z" />
    <glyph glyph-name="uni044D" unicode="&#x44d;" horiz-adv-x="575" 
d="M155 155q8 -36 39 -54t81 -18q63 0 97.5 36t39.5 93h-203v92h202q-6 54 -39.5 88t-96.5 34q-96 0 -115 -65h-107q14 72 73 116.5t150 44.5q58 0 104.5 -19.5t79 -55t50 -84.5t17.5 -108q0 -60 -17.5 -109t-50 -84.5t-79.5 -55t-105 -19.5q-46 0 -84.5 12.5t-68.5 34.5
t-49 53t-26 68h108z" />
    <glyph glyph-name="uni044E" unicode="&#x44e;" horiz-adv-x="845" 
d="M543 522q58 0 105 -20.5t80 -56t51 -84.5t18 -106t-18 -106t-51 -85t-80 -56.5t-105 -20.5q-53 0 -96.5 17t-75.5 47t-52 71.5t-26 91.5h-104v-214h-111v509h111v-199h107q7 46 27.5 85t52.5 67.5t74 44t93 15.5zM543 83q36 0 63 14t44 38t25.5 55t8.5 65q0 33 -8.5 64
t-25.5 55t-44 38t-63 14q-37 0 -63.5 -14t-44 -38t-26 -55t-8.5 -64q0 -34 8.5 -65t26 -55t44 -38t63.5 -14z" />
    <glyph glyph-name="uni044F" unicode="&#x44f;" horiz-adv-x="587" 
d="M397 185h-134l-91 -185h-116l99 202q-46 17 -70 53.5t-24 89.5q0 76 49.5 120t143.5 44h256v-509h-113v185zM397 417h-133q-52 0 -71.5 -19t-19.5 -53q0 -35 19.5 -53.5t71.5 -18.5h133v144z" />
    <glyph glyph-name="uni0451" unicode="&#x451;" horiz-adv-x="583" 
d="M536 245h-376q2 -78 38 -120t105 -42q46 0 73 17t38 47h115q-14 -70 -71 -115t-156 -45q-60 0 -107 20t-80 56t-50 85.5t-17 109.5t17.5 108.5t49.5 83t78.5 53.5t105.5 19q57 0 101 -19t74.5 -51t46 -76t15.5 -93v-38zM298 432q-60 0 -91.5 -29.5t-41.5 -73.5h255
q-5 43 -35.5 73t-86.5 30zM471 649l-80 -80l-80 80l80 80zM274 649l-80 -80l-80 80l80 80z" />
    <glyph glyph-name="uni0452" unicode="&#x452;" horiz-adv-x="645" 
d="M461 257q0 62 -29 93.5t-85 31.5q-30 0 -54.5 -12t-41.5 -32t-26 -48t-9 -59v-231h-113v571h-77v73h77v83h113v-83h191v-73h-191v-151h20q20 26 53.5 44.5t87.5 18.5q94 0 145.5 -55t51.5 -152v-310q0 -90 -46 -128t-136 -38h-62v98h59q72 0 72 73v286v0z" />
    <glyph glyph-name="uni0453" unicode="&#x453;" horiz-adv-x="505" 
d="M78 509h397v-96h-284v-413h-113v509zM300 582h-102l89 145h126z" />
    <glyph glyph-name="uni0454" unicode="&#x454;" horiz-adv-x="572" 
d="M528 155q-7 -37 -26 -68t-49 -53t-68.5 -34.5t-84.5 -12.5q-58 0 -105 19.5t-79.5 55t-50 84.5t-17.5 109q0 59 17.5 108t50 84.5t79 55t104.5 19.5q91 0 150 -44.5t73 -116.5h-107q-19 65 -115 65q-63 0 -96.5 -34t-39.5 -88h202v-92h-203q5 -57 39.5 -93t97.5 -36
q50 0 81 18t39 54h108z" />
    <glyph glyph-name="uni0455" unicode="&#x455;" horiz-adv-x="531" 
d="M333 303q75 -12 117 -48.5t42 -105.5q0 -32 -14.5 -61.5t-43 -52t-69.5 -35.5t-93 -13q-108 0 -166 44.5t-66 122.5h113q7 -39 39 -56t78 -17q49 0 79 17t30 48q0 26 -17.5 40.5t-55.5 20.5l-102 16q-31 5 -57.5 16t-45.5 28.5t-30 42t-11 55.5q0 33 13 62t39 50t65.5 33
t92.5 12q92 0 145.5 -41.5t61.5 -109.5h-112q-5 29 -33 43t-66 14q-42 0 -67.5 -14.5t-25.5 -42.5q0 -43 66 -53z" />
    <glyph glyph-name="uni0456" unicode="&#x456;" horiz-adv-x="272" 
d="M192 0h-113v509h113v-509zM225 667l-89 -89l-89 89l89 89z" />
    <glyph glyph-name="uni0457" unicode="&#x457;" horiz-adv-x="272" 
d="M192 0h-113v509h113v-509zM309 656l-80 -80l-80 80l80 80zM112 656l-80 -80l-80 80l80 80z" />
    <glyph glyph-name="uni0458" unicode="&#x458;" horiz-adv-x="283" 
d="M204 -34q0 -90 -46 -128t-136 -38h-62v98h59q72 0 72 73v538h113v-543zM204 0h-113v509h113v-509zM237 667l-89 -89l-89 89l89 89z" />
    <glyph glyph-name="uni0459" unicode="&#x459;" horiz-adv-x="907" 
d="M23 107h18q25 0 43.5 9t30.5 31.5t17.5 60.5t5.5 95v206h403v-158h130q97 0 147.5 -46t50.5 -127q0 -82 -50.5 -130t-147.5 -48h-243v413h-186v-113q0 -84 -12 -141.5t-37 -93t-62.5 -50.5t-89.5 -15h-18v107zM655 96q58 0 79.5 22t21.5 60q0 39 -21.5 60.5t-79.5 21.5
h-114v-164h114z" />
    <glyph glyph-name="uni045A" unicode="&#x45a;" horiz-adv-x="899" 
d="M533 351h130q97 0 147.5 -46t50.5 -127q0 -82 -50.5 -130t-147.5 -48h-243v213h-229v-213h-113v509h113v-200h229v200h113v-158zM647 96q58 0 79.5 22t21.5 60q0 39 -21.5 60.5t-79.5 21.5h-114v-164h114z" />
    <glyph glyph-name="uni045B" unicode="&#x45b;" horiz-adv-x="644" 
d="M460 0v257q0 62 -29 93.5t-85 31.5q-30 0 -54.5 -12t-41.5 -32t-26 -48t-9 -59v-231h-113v571h-77v73h77v83h113v-83h191v-73h-191v-151h20q20 26 53.5 44.5t87.5 18.5q94 0 145.5 -55t51.5 -152v-276h-113z" />
    <glyph glyph-name="uni045C" unicode="&#x45c;" horiz-adv-x="579" 
d="M307 213h-116v-213h-113v509h113v-200h118l116 200h117l-142 -245l149 -264h-120zM330 582h-102l89 145h126z" />
    <glyph glyph-name="uni045E" unicode="&#x45e;" horiz-adv-x="566" 
d="M542 25q0 -54 -18 -96t-51 -70.5t-80 -43.5t-104 -15h-188v98h175q152 0 152 149v21h-16q-20 -26 -54.5 -44.5t-88.5 -18.5q-94 0 -144.5 55t-50.5 152v297h113v-278q0 -125 112 -125q30 0 54.5 12t41 32t25.5 47.5t9 59.5v252h113v-484v0zM451 721q-4 -70 -47.5 -109
t-121.5 -39t-121.5 39t-47.5 109h89q2 -32 21 -52t59 -20t59 20t21 52h89z" />
    <glyph glyph-name="uni045F" unicode="&#x45f;" horiz-adv-x="620" 
d="M542 509v-509h-178v-143h-108v143h-178v509h113v-413h238v413h113z" />
    <glyph glyph-name="uni0490" unicode="&#x490;" horiz-adv-x="631" 
d="M207 0h-120v714h390v150h112v-259h-382v-605z" />
    <glyph glyph-name="uni0491" unicode="&#x491;" horiz-adv-x="494" 
d="M464 637v-224h-273v-413h-113v509h279v128h107z" />
    <glyph glyph-name="uni0492" unicode="&#x492;" horiz-adv-x="662" 
d="M25 401h94v313h501v-109h-381v-204h225v-94h-225v-307h-120v307h-94v94z" />
    <glyph glyph-name="uni0493" unicode="&#x493;" horiz-adv-x="524" 
d="M21 269h81v240h392v-96h-279v-144h180v-85h-180v-184h-113v184h-81v85z" />
    <glyph glyph-name="uni049A" unicode="&#x49a;" horiz-adv-x="747" 
d="M87 714h120v-292h174l154 292h126l-182 -347l135 -259h107v-283h-118v175h-59l-163 313h-174v-313h-120v714z" />
    <glyph glyph-name="uni049B" unicode="&#x49b;" horiz-adv-x="616" 
d="M307 213h-116v-213h-113v509h113v-200h118l116 200h117l-142 -245l96 -169h94v-238h-108v143h-53z" />
    <glyph glyph-name="uni04A2" unicode="&#x4a2;" horiz-adv-x="812" 
d="M684 714v-605h102v-284h-117v175h-105v312h-357v-312h-120v714h120v-290h357v290h120z" />
    <glyph glyph-name="uni04A3" unicode="&#x4a3;" horiz-adv-x="667" 
d="M550 96h91v-239h-107v143h-97v213h-246v-213h-113v509h113v-200h246v200h113v-413z" />
    <glyph glyph-name="uni04AE" unicode="&#x4ae;" horiz-adv-x="661" 
d="M519 714h124l-253 -451v-263h-120v263l-253 451h128l173 -307h28z" />
    <glyph glyph-name="uni04AF" unicode="&#x4af;" horiz-adv-x="562" 
d="M22 509h117l128 -394h32l128 394h112l-166 -509h-36v-200h-113v200h-36z" />
    <glyph glyph-name="uni04B0" unicode="&#x4b0;" horiz-adv-x="661" 
d="M517 714h124l-216 -385h148v-94h-185v-235h-120v235h-180v94h143l-216 385h128l173 -307h28z" />
    <glyph glyph-name="uni04B1" unicode="&#x4b1;" horiz-adv-x="562" 
d="M74 45h99l-151 464h117l128 -394h32l128 394h112l-152 -464h98v-78h-148v-167h-113v167h-150v78z" />
    <glyph glyph-name="uni04BA" unicode="&#x4ba;" horiz-adv-x="693" 
d="M518 0v204q0 24 -2.5 47.5t-18 41.5t-49 29.5t-94.5 11.5q-38 0 -76 -5t-71 -13v-316h-120v714h120v-289q38 9 84.5 13.5t86.5 4.5q94 0 146.5 -19.5t77.5 -52t30.5 -73t5.5 -82.5v-216h-120z" />
    <glyph glyph-name="uni04BB" unicode="&#x4bb;" horiz-adv-x="620" 
d="M436 0v296q0 62 -29 93.5t-85 31.5q-30 0 -54.5 -12t-41.5 -32t-26 -48t-9 -59v-270h-113v727h113v-268h20q20 26 53.5 44.5t87.5 18.5q94 0 145.5 -55t51.5 -152v-315h-113z" />
    <glyph glyph-name="uni04D8" unicode="&#x4d8;" horiz-adv-x="765" 
d="M375 95q52 0 90.5 16.5t64.5 46t40 69t17 84.5h-413q1 -45 14 -84t37.5 -68.5t61.5 -46.5t88 -17zM373 727q83 0 146.5 -28.5t106.5 -78t65 -117t22 -146.5q0 -78 -21.5 -145.5t-64 -117.5t-105 -78.5t-144.5 -28.5q-78 0 -139 27.5t-102.5 78t-63 122t-21.5 160.5
q0 8 0.5 21t1.5 22h532q-5 43 -20.5 79.5t-41.5 63.5t-63.5 42.5t-86.5 15.5q-131 0 -163 -96h-125q10 46 34.5 84t61.5 64.5t85 41t106 14.5z" />
    <glyph glyph-name="uni04D9" unicode="&#x4d9;" horiz-adv-x="583" 
d="M48 253v17.5t1 17.5h373q-7 68 -44 103t-97 35q-48 0 -75 -16.5t-38 -48.5h-112q13 72 71.5 116.5t153.5 44.5q60 0 107 -20.5t79.5 -57t50 -86t17.5 -107.5q0 -59 -17.5 -107.5t-49.5 -83.5t-78.5 -54t-104.5 -19q-110 0 -173.5 69t-63.5 197zM286 77q60 0 95.5 32
t40.5 95h-263q1 -60 34 -93.5t93 -33.5z" />
    <glyph glyph-name="uni04E8" unicode="&#x4e8;" horiz-adv-x="785" 
d="M393 727q83 0 146.5 -28.5t106.5 -78.5t65 -117.5t22 -145.5t-22 -145.5t-65 -117.5t-106.5 -78.5t-146.5 -28.5t-147 28.5t-107 78.5t-65 117.5t-22 145.5t22 145.5t65 117.5t107 78.5t147 28.5zM393 96q51 0 89.5 16.5t65 45.5t41.5 68.5t20 84.5h-433q4 -45 19 -84.5
t42 -68.5t66 -45.5t90 -16.5zM393 618q-50 0 -87.5 -15t-63.5 -41.5t-42 -63.5t-22 -80h429q-6 43 -22 79.5t-42 63.5t-63.5 42t-86.5 15z" />
    <glyph glyph-name="uni04E9" unicode="&#x4e9;" horiz-adv-x="610" 
d="M305 522q60 0 107.5 -20t81 -55.5t51 -84.5t17.5 -107q0 -59 -17.5 -108t-51 -84.5t-81 -55.5t-107.5 -20t-107.5 20t-81 55.5t-51 84.5t-17.5 108q0 58 17.5 107t51 84.5t81 55.5t107.5 20zM305 83q63 0 98.5 37t42.5 94h-282q7 -57 42.5 -94t98.5 -37zM305 426
q-63 0 -98 -37t-43 -91h281q-7 54 -42.5 91t-97.5 37z" />
    <glyph glyph-name="endash" unicode="&#x2013;" horiz-adv-x="619" 
d="M46 234v91h526v-91h-526z" />
    <glyph glyph-name="emdash" unicode="&#x2014;" horiz-adv-x="878" 
d="M46 234v91h785v-91h-785z" />
    <glyph glyph-name="quoteleft" unicode="&#x2018;" horiz-adv-x="276" 
d="M194 714h65l-73 -263h-141z" />
    <glyph glyph-name="quoteright" unicode="&#x2019;" horiz-adv-x="276" 
d="M82 451h-65l73 263h141z" />
    <glyph glyph-name="quotesinglbase" unicode="&#x201a;" horiz-adv-x="276" 
d="M62 -129h-65l73 263h141z" />
    <glyph glyph-name="quotedblleft" unicode="&#x201c;" horiz-adv-x="475" 
d="M194 714h65l-73 -263h-141zM393 714h65l-73 -263h-141z" />
    <glyph glyph-name="quotedblright" unicode="&#x201d;" horiz-adv-x="475" 
d="M82 451h-65l73 263h141zM281 451h-65l73 263h141z" />
    <glyph glyph-name="quotedblbase" unicode="&#x201e;" horiz-adv-x="475" 
d="M62 -129h-65l73 263h141zM261 -129h-65l73 263h141z" />
    <glyph glyph-name="dagger" unicode="&#x2020;" horiz-adv-x="549" 
d="M42 419v95h181v200h104v-200h181v-95h-181v-571h-104v571h-181z" />
    <glyph glyph-name="daggerdbl" unicode="&#x2021;" horiz-adv-x="549" 
d="M42 419v95h181v200h104v-200h181v-95h-181v-273h181v-95h-181v-203h-104v203h-181v95h181v273h-181z" />
    <glyph glyph-name="bullet" unicode="&#x2022;" horiz-adv-x="422" 
d="M64 356q0 30 11.5 57t31.5 47t47 31.5t57 11.5t57 -11.5t47 -31.5t31.5 -47t11.5 -57t-11.5 -57t-31.5 -47t-47 -31.5t-57 -11.5t-57 11.5t-47 31.5t-31.5 47t-11.5 57z" />
    <glyph glyph-name="ellipsis" unicode="&#x2026;" horiz-adv-x="811" 
d="M138 161l95 -95l-95 -95l-95 95zM404 161l95 -95l-95 -95l-95 95zM673 161l95 -95l-95 -95l-95 95z" />
    <glyph glyph-name="perthousand" unicode="&#x2030;" horiz-adv-x="1253" 
d="M184 0l424 700h89l-423 -700h-90zM206 714q41 0 72 -15t51.5 -40.5t30.5 -60t10 -73.5q0 -40 -10 -74.5t-30.5 -60t-51.5 -40t-72 -14.5t-71.5 14.5t-51 40t-30.5 60t-10 74.5q0 39 10 73.5t30.5 60t51 40.5t71.5 15zM206 409q43 0 63 32.5t20 83.5q0 50 -20 83t-63 33
q-42 0 -62 -33t-20 -83q0 -51 20 -83.5t62 -32.5zM674 365q41 0 71.5 -15t51 -40.5t31 -60t10.5 -73.5q0 -40 -10.5 -74.5t-31 -60t-51 -40t-71.5 -14.5t-72 14.5t-51.5 40t-30.5 60t-10 74.5q0 39 10 73.5t30.5 60t51.5 40.5t72 15zM674 60q42 0 62.5 32.5t20.5 83.5
q0 50 -20.5 83t-62.5 33q-43 0 -63 -33t-20 -83q0 -51 20 -83.5t63 -32.5zM1046 365q41 0 71.5 -15t51 -40.5t31 -60t10.5 -73.5q0 -40 -10.5 -74.5t-31 -60t-51 -40t-71.5 -14.5t-71.5 14.5t-51 40t-31 60t-10.5 74.5q0 39 10.5 73.5t31 60t51 40.5t71.5 15zM1046 60
q43 0 63 32.5t20 83.5q0 50 -20 83t-63 33t-63 -33t-20 -83q0 -51 20 -83.5t63 -32.5z" />
    <glyph glyph-name="guilsinglleft" unicode="&#x2039;" horiz-adv-x="380" 
d="M158 277l167 -180h-123l-147 154v70l147 155h123l-167 -180v-19z" />
    <glyph glyph-name="guilsinglright" unicode="&#x203a;" horiz-adv-x="380" 
d="M222 296l-167 180h123l147 -155v-70l-147 -154h-123l167 180v19z" />
    <glyph glyph-name="fraction" unicode="&#x2044;" horiz-adv-x="237" 
d="M-140 0l424 700h88l-423 -700h-89z" />
    <glyph glyph-name="Euro" unicode="&#x20ac;" horiz-adv-x="688" 
d="M397 256h-167q11 -82 52 -123.5t108 -41.5q57 0 92 31t43 89h114q-14 -103 -79 -163.5t-171 -60.5q-110 0 -182.5 68t-92.5 201h-85l21 63h58q-3 33 0 67h-79l21 63h65q10 64 34 113t59.5 83t81 51.5t99.5 17.5q102 0 166 -56t79 -153h-116q-9 51 -40.5 78t-88.5 27
q-64 0 -104.5 -41.5t-53.5 -119.5h232l-21 -63h-218q-1 -11 -1.5 -30.5t0.5 -36.5h195z" />
    <glyph glyph-name="uni20B4" unicode="&#x20b4;" horiz-adv-x="671" 
d="M35 320h601v-63h-415q-9 -24 -9 -52q0 -57 38.5 -85.5t97.5 -28.5q53 0 90.5 21.5t49.5 74.5h117q-14 -91 -78 -145.5t-179 -54.5q-62 0 -109 17t-78.5 46t-48 67.5t-16.5 82.5q0 30 9 57h-70v63zM448 450q7 11 12 25t5 34q0 51 -33.5 76t-84.5 25q-54 0 -84 -21.5
t-39 -63.5h-115q10 86 73.5 137.5t165.5 51.5q56 0 99 -16t72.5 -43.5t45 -63.5t15.5 -76q0 -35 -14 -65h70v-63h-601v63h413z" />
    <glyph glyph-name="uni20B8" unicode="&#x20b8;" horiz-adv-x="538" 
d="M17 570h504v-63h-194v-507h-116v507h-194v63zM17 700h504v-63h-504v63z" />
    <glyph glyph-name="uni20BD" unicode="&#x20bd;" horiz-adv-x="696" 
d="M36 371h95v329h273q116 0 179 -56t63 -157q0 -102 -63 -159t-179 -57h-157v-67h209v-63h-209v-141h-116v141h-95v63h95v67h-95v100zM387 371q78 0 110.5 31t32.5 85t-32.5 84t-110.5 30h-140v-230h140z" />
    <glyph glyph-name="uni2116" unicode="&#x2116;" horiz-adv-x="1155" 
d="M675 700v-700h-160l-298 534h-20v-534h-110v700h160l298 -534h20v534h110zM770 206v71h328v-71h-328zM933 714q41 0 72 -15t51.5 -40.5t30.5 -60t10 -73.5q0 -40 -10 -74.5t-30.5 -60t-51.5 -40t-72 -14.5t-71.5 14.5t-51 40t-30.5 60t-10 74.5q0 39 10 73.5t30.5 60
t51 40.5t71.5 15zM933 409q43 0 63 32.5t20 83.5q0 50 -20 83t-63 33q-42 0 -62 -33t-20 -83q0 -51 20 -83.5t62 -32.5z" />
    <glyph glyph-name="trademark" unicode="&#x2122;" horiz-adv-x="856" 
d="M596 553h12l72 161h115v-379h-70v294h-13l-75 -163h-71l-76 163h-12v-294h-71v379h115zM343 647h-123v-312h-74v312h-123v67h320v-67z" />
    <glyph glyph-name="Omega" unicode="&#x2126;" horiz-adv-x="764" 
d="M588 98h123v-98h-284v96q31 20 60 47.5t52 63t37 78.5t14 95q0 56 -15 100.5t-42.5 75t-66 46.5t-84.5 16t-84.5 -16t-66 -46.5t-42.5 -75t-15 -100.5q0 -52 14 -95t37 -78.5t52 -63t60 -47.5v-96h-284v98h124v19q-23 19 -45 45.5t-40 60.5t-29 76t-11 91q0 74 22.5 136
t65.5 106.5t104 69.5t138 25t138.5 -25t104 -69.5t65 -106.5t22.5 -136q0 -49 -11 -91t-28.5 -76t-40 -60.5t-44.5 -45.5v-19z" />
    <glyph glyph-name="arrowleft" unicode="&#x2190;" horiz-adv-x="814" 
d="M434 509l-185 -186v-20h509v-98h-509v-20l185 -185h-135l-255 254l255 255h135z" />
    <glyph glyph-name="arrowup" unicode="&#x2191;" horiz-adv-x="675" 
d="M83 458l255 256l254 -255v-135l-185 185h-20v-509h-98v509h-20l-186 -185v134z" />
    <glyph glyph-name="arrowright" unicode="&#x2192;" horiz-adv-x="814" 
d="M515 509l255 -255l-255 -254h-135l185 185v20h-509v98h509v20l-185 186h135z" />
    <glyph glyph-name="arrowdown" unicode="&#x2193;" horiz-adv-x="675" 
d="M592 256l-255 -256l-254 255v135l185 -185h20v509h98v-509h20l186 185v-134z" />
    <glyph glyph-name="uni2196" unicode="&#x2196;" horiz-adv-x="706" 
d="M83 352v362h360l96 -96h-262l-14 -15l360 -359l-69 -70l-360 360l-14 -14v-262z" />
    <glyph glyph-name="uni2197" unicode="&#x2197;" horiz-adv-x="706" 
d="M526 258v262l-14 14l-360 -360l-69 70l360 359l-14 15h-262l96 96h360v-362z" />
    <glyph glyph-name="uni2198" unicode="&#x2198;" horiz-adv-x="706" 
d="M180 456v-262l14 -14l360 360l69 -70l-360 -359l14 -15h262l-96 -96h-360v362z" />
    <glyph glyph-name="uni2199" unicode="&#x2199;" horiz-adv-x="706" 
d="M623 362v-362h-360l-96 96h262l14 15l-360 359l69 70l360 -360l14 14v262z" />
    <glyph glyph-name="partialdiff" unicode="&#x2202;" horiz-adv-x="604" 
d="M302 83q37 0 63.5 12.5t44 34t25.5 50t8 60.5t-8 61t-25.5 50.5t-44 34t-63.5 12.5t-64 -12.5t-44 -34t-25.5 -50.5t-8.5 -61t8.5 -60.5t25.5 -50t44 -34t64 -12.5zM291 727q39 -27 85.5 -69.5t86 -100t66.5 -131.5t27 -164q0 -59 -16 -109.5t-48 -87t-80 -57.5t-112 -21
q-59 0 -105.5 19.5t-79 54t-50 81t-17.5 99.5q0 54 17 99.5t47 79t71 52t90 18.5q38 0 69.5 -10t49.5 -27h20q-19 44 -49.5 84t-66.5 75t-73.5 64t-69.5 51h138z" />
    <glyph glyph-name="Delta" unicode="&#x2206;" horiz-adv-x="646" 
d="M605 117v-117h-565v117l222 597h122zM504 117l-171 468h-20l-171 -468v-20h362v20z" />
    <glyph glyph-name="product" unicode="&#x220f;" horiz-adv-x="610" 
d="M386 -200v820h-162v-820h-101v820h-96v94h556v-94h-96v-820h-101z" />
    <glyph glyph-name="summation" unicode="&#x2211;" horiz-adv-x="562" 
d="M536 104v-104h-500v124l188 223v20l-180 223v124h474v-104h-337v-20l168 -213v-41l-175 -212v-20h362z" />
    <glyph glyph-name="minus" unicode="&#x2212;" horiz-adv-x="677" 
d="M83 239v96h511v-96h-511z" />
    <glyph glyph-name="uni2215" unicode="&#x2215;" horiz-adv-x="512" 
d="M0 0l424 700h88l-423 -700h-89z" />
    <glyph glyph-name="radical" unicode="&#x221a;" horiz-adv-x="655" 
d="M131 509l117 -391h20l186 596h174v-87h-104l-199 -627h-136l-156 509h98z" />
    <glyph glyph-name="infinity" unicode="&#x221e;" horiz-adv-x="918" 
d="M469 324q18 19 39 40.5t46 39t54 29t63 11.5q36 0 66 -11.5t52 -32.5t34 -51t12 -67t-12 -67t-34 -51t-52 -32.5t-66 -11.5q-34 0 -63 11.5t-54 29t-46 38.5t-39 41h-20q-18 -20 -39 -41t-46 -38.5t-54 -29t-63 -11.5q-36 0 -66 11.5t-52 32.5t-34 51t-12 67t12 67t34 51
t52 32.5t66 11.5q34 0 63 -11.5t54 -29t46 -39t39 -40.5h20zM418 282q-16 19 -34 39t-39 36t-44.5 26t-50.5 10q-46 0 -79 -28.5t-33 -82.5t33 -82.5t79 -28.5q27 0 50.5 10t44.5 26t39 35.5t34 39.5zM500 282q16 -20 34 -39.5t39 -35.5t44.5 -26t50.5 -10q46 0 79 28.5
t33 82.5t-33 82.5t-79 28.5q-27 0 -50.5 -10t-44.5 -26t-39 -36t-34 -39z" />
    <glyph glyph-name="integral" unicode="&#x222b;" horiz-adv-x="497" 
d="M485 727v-96h-41q-52 0 -76.5 -29t-33.5 -82l-93 -526q-9 -53 -27.5 -90t-45.5 -60t-63.5 -33.5t-81.5 -10.5h-44v96h40q53 0 77.5 29t33.5 82l92 526q19 106 73.5 150t145.5 44h44z" />
    <glyph glyph-name="approxequal" unicode="&#x2248;" horiz-adv-x="671" 
d="M588 494q0 -86 -39 -133t-100 -47q-35 0 -66.5 15t-61.5 34q-23 15 -45 26.5t-45 11.5q-33 0 -48.5 -24t-15.5 -63h-84q0 87 39 133.5t99 46.5q39 0 71.5 -16.5t61.5 -35.5q23 -14 44 -24.5t41 -10.5q33 0 48.5 24t15.5 63h85zM588 277q0 -86 -39 -133t-100 -47
q-35 0 -66.5 15t-61.5 34q-23 15 -45 26.5t-45 11.5q-33 0 -48.5 -24t-15.5 -63h-84q0 87 39 133.5t99 46.5q39 0 71.5 -16.5t61.5 -35.5q23 -14 44 -24.5t41 -10.5q33 0 48.5 24t15.5 63h85z" />
    <glyph glyph-name="notequal" unicode="&#x2260;" horiz-adv-x="677" 
d="M594 136h-302l-77 -120h-102l77 120h-107v97h169l69 107h-238v97h301l77 120h102l-77 -120h108v-97h-171l-69 -107h240v-97z" />
    <glyph glyph-name="lessequal" unicode="&#x2264;" horiz-adv-x="677" 
d="M83 96h511v-96h-511v96zM83 293v106l511 158v-99l-355 -102v-20l355 -102v-99z" />
    <glyph glyph-name="greaterequal" unicode="&#x2265;" horiz-adv-x="677" 
d="M83 135v99l355 102v20l-355 102v99l511 -158v-106zM594 0h-511v96h511v-96z" />
    <glyph glyph-name="uni2460" unicode="&#x2460;" 
d="M427 727q78 0 145.5 -28.5t117 -78t78 -117.5t28.5 -146t-28.5 -146t-78 -117.5t-117 -78t-145.5 -28.5t-145.5 28.5t-117 78t-78 117.5t-28.5 146t28.5 146t78.5 117.5t117 78t145 28.5zM427 46q66 0 122 24t97.5 65.5t64.5 98.5t23 123t-23 123t-64.5 99t-97.5 65.5
t-122 23.5t-122 -23.5t-97 -65.5t-64 -99t-23 -123t23 -123t64 -99t97 -65.5t122 -23.5zM571 234v-68h-259v68h92v228h-14l-78 -45v75l95 55h76v-313h88z" />
    <glyph glyph-name="uni2461" unicode="&#x2461;" 
d="M427 727q78 0 145.5 -28.5t117 -78t78 -117.5t28.5 -146t-28.5 -146t-78 -117.5t-117 -78t-145.5 -28.5t-145.5 28.5t-117 78t-78 117.5t-28.5 146t28.5 146t78.5 117.5t117 78t145 28.5zM427 46q66 0 122 24t97.5 65.5t64.5 98.5t23 123t-23 123t-64.5 99t-97.5 65.5
t-122 23.5t-122 -23.5t-97 -65.5t-64 -99t-23 -123t23 -123t64 -99t97 -65.5t122 -23.5zM577 234v-68h-288v81l107 73q42 29 67 52.5t25 55.5q0 27 -16 41.5t-42 14.5q-29 0 -46.5 -14.5t-18.5 -45.5h-78q2 66 42.5 98t102.5 32q59 0 96.5 -31t37.5 -91q0 -42 -24 -75
t-69 -65l-62 -44v-14h166z" />
    <glyph glyph-name="uni2462" unicode="&#x2462;" 
d="M427 727q78 0 145.5 -28.5t117 -78t78 -117.5t28.5 -146t-28.5 -146t-78 -117.5t-117 -78t-145.5 -28.5t-145.5 28.5t-117 78t-78 117.5t-28.5 146t28.5 146t78.5 117.5t117 78t145 28.5zM427 46q66 0 122 24t97.5 65.5t64.5 98.5t23 123t-23 123t-64.5 99t-97.5 65.5
t-122 23.5t-122 -23.5t-97 -65.5t-64 -99t-23 -123t23 -123t64 -99t97 -65.5t122 -23.5zM483 401q37 -5 65.5 -33.5t28.5 -78.5q0 -30 -11 -54t-30.5 -41t-47 -26t-59.5 -9q-33 0 -60.5 9.5t-47 27t-30.5 41t-12 51.5h77q3 -29 23.5 -44t49.5 -15q32 0 51 16t19 45t-18.5 46
t-50.5 17q-13 0 -21.5 -1t-15.5 -3v63l68 53v14h-155v68h254v-77l-77 -56v-13v0z" />
    <glyph glyph-name="uni2463" unicode="&#x2463;" 
d="M427 727q78 0 145.5 -28.5t117 -78t78 -117.5t28.5 -146t-28.5 -146t-78 -117.5t-117 -78t-145.5 -28.5t-145.5 28.5t-117 78t-78 117.5t-28.5 146t28.5 146t78.5 117.5t117 78t145 28.5zM427 46q66 0 122 24t97.5 65.5t64.5 98.5t23 123t-23 123t-64.5 99t-97.5 65.5
t-122 23.5t-122 -23.5t-97 -65.5t-64 -99t-23 -123t23 -123t64 -99t97 -65.5t122 -23.5zM574 315v-68h-49v-81h-77v81h-186v76l169 224h94v-232h49zM450 315v142h-14l-95 -128v-14h109z" />
    <glyph glyph-name="uni2464" unicode="&#x2464;" 
d="M427 727q78 0 145.5 -28.5t117 -78t78 -117.5t28.5 -146t-28.5 -146t-78 -117.5t-117 -78t-145.5 -28.5t-145.5 28.5t-117 78t-78 117.5t-28.5 146t28.5 146t78.5 117.5t117 78t145 28.5zM427 46q66 0 122 24t97.5 65.5t64.5 98.5t23 123t-23 123t-64.5 99t-97.5 65.5
t-122 23.5t-122 -23.5t-97 -65.5t-64 -99t-23 -123t23 -123t64 -99t97 -65.5t122 -23.5zM448 428q28 0 52 -10t41.5 -27.5t27 -41.5t9.5 -51q0 -32 -11 -57.5t-30 -43.5t-46 -28t-58 -10q-71 0 -108 36.5t-41 91.5h78q4 -29 22 -43.5t47 -14.5q31 0 49.5 18t18.5 50
q0 31 -18 49t-48 18q-44 0 -68 -30h-72l20 213h242v-68h-182l-6 -73h14q11 9 27.5 15.5t39.5 6.5z" />
    <glyph glyph-name="uni2465" unicode="&#x2465;" 
d="M427 727q78 0 145.5 -28.5t117 -78t78 -117.5t28.5 -146t-28.5 -146t-78 -117.5t-117 -78t-145.5 -28.5t-145.5 28.5t-117 78t-78 117.5t-28.5 146t28.5 146t78.5 117.5t117 78t145 28.5zM427 46q66 0 122 24t97.5 65.5t64.5 98.5t23 123t-23 123t-64.5 99t-97.5 65.5
t-122 23.5t-122 -23.5t-97 -65.5t-64 -99t-23 -123t23 -123t64 -99t97 -65.5t122 -23.5zM446 421q27 0 51 -9.5t42 -26t28 -39.5t10 -51q0 -29 -10 -53.5t-28.5 -43t-45 -29t-59.5 -10.5q-34 0 -62.5 10t-49.5 32.5t-32.5 58.5t-11.5 88q0 43 9 81t28.5 65.5t49.5 43.5
t72 16q53 0 87.5 -30t42.5 -75h-77q-11 40 -55 40q-33 0 -55 -24.5t-27 -72.5h14q11 11 30.5 20t48.5 9zM432 225q29 0 48 17.5t19 50.5q0 32 -19.5 48.5t-48.5 16.5t-48.5 -16.5t-19.5 -48.5q0 -33 20 -50.5t49 -17.5z" />
    <glyph glyph-name="uni2466" unicode="&#x2466;" 
d="M427 727q78 0 145.5 -28.5t117 -78t78 -117.5t28.5 -146t-28.5 -146t-78 -117.5t-117 -78t-145.5 -28.5t-145.5 28.5t-117 78t-78 117.5t-28.5 146t28.5 146t78.5 117.5t117 78t145 28.5zM427 46q66 0 122 24t97.5 65.5t64.5 98.5t23 123t-23 123t-64.5 99t-97.5 65.5
t-122 23.5t-122 -23.5t-97 -65.5t-64 -99t-23 -123t23 -123t64 -99t97 -65.5t122 -23.5zM570 547v-75l-158 -306h-82l156 299v14h-185v68h269z" />
    <glyph glyph-name="uni2467" unicode="&#x2467;" 
d="M427 727q78 0 145.5 -28.5t117 -78t78 -117.5t28.5 -146t-28.5 -146t-78 -117.5t-117 -78t-145.5 -28.5t-145.5 28.5t-117 78t-78 117.5t-28.5 146t28.5 146t78.5 117.5t117 78t145 28.5zM427 46q66 0 122 24t97.5 65.5t64.5 98.5t23 123t-23 123t-64.5 99t-97.5 65.5
t-122 23.5t-122 -23.5t-97 -65.5t-64 -99t-23 -123t23 -123t64 -99t97 -65.5t122 -23.5zM428 492q-28 0 -45 -13.5t-17 -35.5t17 -35.5t45 -13.5q26 0 43.5 13.5t17.5 35.5t-17.5 35.5t-43.5 13.5zM428 224q35 0 54 16.5t19 40.5q0 23 -19 39t-54 16t-54.5 -16t-19.5 -39
q0 -24 19.5 -40.5t54.5 -16.5zM334 375q-14 8 -28.5 26t-14.5 49q0 45 37 74.5t100 29.5t99.5 -29.5t36.5 -74.5q0 -30 -14 -48.5t-29 -26.5v-13q20 -9 39 -30.5t19 -59.5q0 -23 -10 -43.5t-29.5 -36t-48 -24.5t-64.5 -9t-64 9t-47.5 24.5t-29.5 36t-10 43.5q0 38 19 59.5
t39 30.5v13z" />
    <glyph glyph-name="uni2468" unicode="&#x2468;" 
d="M427 727q78 0 145.5 -28.5t117 -78t78 -117.5t28.5 -146t-28.5 -146t-78 -117.5t-117 -78t-145.5 -28.5t-145.5 28.5t-117 78t-78 117.5t-28.5 146t28.5 146t78.5 117.5t117 78t145 28.5zM427 46q66 0 122 24t97.5 65.5t64.5 98.5t23 123t-23 123t-64.5 99t-97.5 65.5
t-122 23.5t-122 -23.5t-97 -65.5t-64 -99t-23 -123t23 -123t64 -99t97 -65.5t122 -23.5zM408 293q-27 0 -51 9.5t-42 26t-28 39.5t-10 51q0 29 10 53.5t28.5 43t45 29t59.5 10.5q34 0 62.5 -10t49.5 -32.5t32.5 -58.5t11.5 -88q0 -43 -9 -81t-28.5 -65.5t-49.5 -43.5
t-72 -16q-53 0 -87.5 30t-42.5 75h77q11 -40 55 -40q33 0 55 24.5t27 72.5h-14q-11 -11 -30.5 -20t-48.5 -9zM422 489q-29 0 -48 -17.5t-19 -50.5q0 -32 19.5 -48.5t48.5 -16.5t48.5 16.5t19.5 48.5q0 33 -20 50.5t-49 17.5z" />
    <glyph glyph-name="lozenge" unicode="&#x25ca;" horiz-adv-x="554" 
d="M499 357l-171 -357h-101l-172 357l172 357h101zM390 357l-103 229h-20l-103 -229l103 -229h20z" />
    <glyph glyph-name="circle" unicode="&#x25cb;" 
d="M427 727q78 0 145.5 -28.5t117 -78t78 -117.5t28.5 -146t-28.5 -146t-78 -117.5t-117 -78t-145.5 -28.5t-145.5 28.5t-117 78t-78 117.5t-28.5 146t28.5 146t78.5 117.5t117 78t145 28.5zM427 46q66 0 122 24t97.5 65.5t64.5 98.5t23 123t-23 123t-64.5 99t-97.5 65.5
t-122 23.5t-122 -23.5t-97 -65.5t-64 -99t-23 -123t23 -123t64 -99t97 -65.5t122 -23.5z" />
    <glyph glyph-name="H18533" unicode="&#x25cf;" 
d="M58 357q0 78 28.5 146t78.5 117.5t117 78t145 28.5t145 -28.5t117 -78t78.5 -117.5t28.5 -146t-28.5 -146t-78.5 -117.5t-117 -78t-145 -28.5t-145 28.5t-117 78t-78.5 117.5t-28.5 146z" />
    <glyph glyph-name="uni2776" unicode="&#x2776;" 
d="M427 727q78 0 145.5 -28.5t117 -78t78 -117.5t28.5 -146t-28.5 -146t-78 -117.5t-117 -78t-145.5 -28.5t-145.5 28.5t-117 78t-78 117.5t-28.5 146t28.5 146t78.5 117.5t117 78t145 28.5zM483 234v313h-76l-95 -55v-75l78 45h14v-228h-92v-68h259v68h-88z" />
    <glyph glyph-name="uni2777" unicode="&#x2777;" 
d="M427 727q78 0 145.5 -28.5t117 -78t78 -117.5t28.5 -146t-28.5 -146t-78 -117.5t-117 -78t-145.5 -28.5t-145.5 28.5t-117 78t-78 117.5t-28.5 146t28.5 146t78.5 117.5t117 78t145 28.5zM411 234v14l62 44q45 32 69 65t24 75q0 60 -37.5 91t-96.5 31q-62 0 -102.5 -32
t-42.5 -98h78q1 31 18.5 45.5t46.5 14.5q26 0 42 -14.5t16 -41.5q0 -32 -25 -55.5t-67 -52.5l-107 -73v-81h288v68h-166z" />
    <glyph glyph-name="uni2778" unicode="&#x2778;" 
d="M427 727q78 0 145.5 -28.5t117 -78t78 -117.5t28.5 -146t-28.5 -146t-78 -117.5t-117 -78t-145.5 -28.5t-145.5 28.5t-117 78t-78 117.5t-28.5 146t28.5 146t78.5 117.5t117 78t145 28.5zM483 414l77 56v77h-254v-68h155v-14l-68 -53v-63q7 2 15.5 3t21.5 1
q32 0 50.5 -17t18.5 -46t-19 -45t-51 -16q-29 0 -49.5 15t-23.5 44h-77q1 -28 12 -51.5t30.5 -41t47 -27t60.5 -9.5q32 0 59.5 9t47 26t30.5 41t11 54q0 50 -28.5 78.5t-65.5 33.5v13z" />
    <glyph glyph-name="uni2779" unicode="&#x2779;" 
d="M525 315v232h-94l-169 -224v-76h186v-81h77v81h49v68h-49zM341 315v14l95 128h14v-142h-109zM427 727q78 0 145.5 -28.5t117 -78t78 -117.5t28.5 -146t-28.5 -146t-78 -117.5t-117 -78t-145.5 -28.5t-145.5 28.5t-117 78t-78 117.5t-28.5 146t28.5 146t78.5 117.5t117 78
t145 28.5z" />
    <glyph glyph-name="uni277A" unicode="&#x277a;" 
d="M427 727q78 0 145.5 -28.5t117 -78t78 -117.5t28.5 -146t-28.5 -146t-78 -117.5t-117 -78t-145.5 -28.5t-145.5 28.5t-117 78t-78 117.5t-28.5 146t28.5 146t78.5 117.5t117 78t145 28.5zM448 428q-23 0 -39.5 -6.5t-27.5 -15.5h-14l6 73h182v68h-242l-20 -213h72
q24 30 68 30q30 0 48 -18t18 -49q0 -32 -18.5 -50t-49.5 -18q-29 0 -47 14.5t-22 43.5h-78q4 -55 41 -91.5t108 -36.5q31 0 58 10t46 28t30 43.5t11 57.5q0 27 -9.5 51t-27 41.5t-41.5 27.5t-52 10z" />
    <glyph glyph-name="uni277B" unicode="&#x277b;" 
d="M446 421q-29 0 -48.5 -9t-30.5 -20h-14q5 48 27 72.5t55 24.5q44 0 55 -40h77q-8 45 -42.5 75t-87.5 30q-42 0 -72 -16t-49.5 -43.5t-28.5 -65.5t-9 -81q0 -52 11.5 -88t32.5 -58.5t49.5 -32.5t62.5 -10q33 0 59.5 10.5t45 29t28.5 43t10 53.5q0 28 -10 51t-28 39.5
t-42 26t-51 9.5zM432 225q-29 0 -49 17.5t-20 50.5q0 32 19.5 48.5t48.5 16.5t48.5 -16.5t19.5 -48.5q0 -33 -19 -50.5t-48 -17.5zM427 727q78 0 145.5 -28.5t117 -78t78 -117.5t28.5 -146t-28.5 -146t-78 -117.5t-117 -78t-145.5 -28.5t-145.5 28.5t-117 78t-78 117.5
t-28.5 146t28.5 146t78.5 117.5t117 78t145 28.5z" />
    <glyph glyph-name="uni277C" unicode="&#x277c;" 
d="M427 727q78 0 145.5 -28.5t117 -78t78 -117.5t28.5 -146t-28.5 -146t-78 -117.5t-117 -78t-145.5 -28.5t-145.5 28.5t-117 78t-78 117.5t-28.5 146t28.5 146t78.5 117.5t117 78t145 28.5zM301 547v-68h185v-14l-156 -299h82l158 306v75h-269z" />
    <glyph glyph-name="uni277D" unicode="&#x277d;" 
d="M428 492q26 0 43.5 -13.5t17.5 -35.5t-17.5 -35.5t-43.5 -13.5q-28 0 -45 13.5t-17 35.5t17 35.5t45 13.5zM428 224q-35 0 -54.5 16.5t-19.5 40.5q0 23 19.5 39t54.5 16t54 -16t19 -39q0 -24 -19 -40.5t-54 -16.5zM334 362q-20 -9 -39 -30.5t-19 -59.5q0 -23 10 -43.5
t29.5 -36t47.5 -24.5t64 -9t64.5 9t48 24.5t29.5 36t10 43.5q0 38 -19 59.5t-39 30.5v13q15 8 29 26.5t14 48.5q0 45 -36.5 74.5t-99.5 29.5t-100 -29.5t-37 -74.5q0 -31 14.5 -49t28.5 -26v-13zM427 727q78 0 145.5 -28.5t117 -78t78 -117.5t28.5 -146t-28.5 -146
t-78 -117.5t-117 -78t-145.5 -28.5t-145.5 28.5t-117 78t-78 117.5t-28.5 146t28.5 146t78.5 117.5t117 78t145 28.5z" />
    <glyph glyph-name="uni277E" unicode="&#x277e;" 
d="M408 293q29 0 48.5 9t30.5 20h14q-5 -48 -27 -72.5t-55 -24.5q-44 0 -55 40h-77q8 -45 42.5 -75t87.5 -30q42 0 72 16t49.5 43.5t28.5 65t9 81.5q0 52 -11.5 88t-32.5 58.5t-49.5 32.5t-62.5 10q-33 0 -59.5 -10.5t-45 -29t-28.5 -43.5t-10 -53t10 -51t28 -39.5t42 -26
t51 -9.5zM422 489q29 0 49 -17.5t20 -50.5q0 -32 -19.5 -48.5t-48.5 -16.5t-48.5 16.5t-19.5 48.5q0 33 19 50.5t48 17.5zM427 727q78 0 145.5 -28.5t117 -78t78 -117.5t28.5 -146t-28.5 -146t-78 -117.5t-117 -78t-145.5 -28.5t-145.5 28.5t-117 78t-78 117.5t-28.5 146
t28.5 146t78.5 117.5t117 78t145 28.5z" />
    <glyph glyph-name="commaaccent" unicode="&#xf6c3;" horiz-adv-x="201" 
d="M36 -226l62 64v17h-52v89h125v-106l-61 -64h-74z" />
    <glyph glyph-name="ff" unicode="&#xfb00;" horiz-adv-x="773" 
d="M229 0h-113v413h-91v96h91v52q0 90 46 128t136 38h75v-98h-72q-72 0 -72 -73v-47h255v52q0 90 46 128t136 38h75v-98h-72q-72 0 -72 -73v-47h136v-96h-136v-413h-113v413h-255v-413z" />
    <glyph glyph-name="a.ss03" horiz-adv-x="572" 
d="M395 49h-20q-23 -29 -60.5 -45.5t-90.5 -16.5q-44 0 -78.5 13.5t-58 37t-35.5 53.5t-12 63q0 30 11 60.5t35 55t62.5 40t93.5 15.5h150v15q0 42 -25.5 67.5t-81.5 25.5q-49 0 -74 -17t-28 -45h-112q2 35 18 63t44 47.5t65.5 30t82.5 10.5q49 0 90 -11t69.5 -33.5
t44.5 -57.5t16 -82v-338h-106v49zM257 79q28 0 53 9.5t43 26.5t28.5 39.5t10.5 48.5v38h-130q-54 0 -81 -21.5t-27 -60.5q0 -38 27 -59t76 -21z" />
    <glyph glyph-name="agrave.ss03" horiz-adv-x="572" 
d="M395 49h-20q-23 -29 -60.5 -45.5t-90.5 -16.5q-44 0 -78.5 13.5t-58 37t-35.5 53.5t-12 63q0 30 11 60.5t35 55t62.5 40t93.5 15.5h150v15q0 42 -25.5 67.5t-81.5 25.5q-49 0 -74 -17t-28 -45h-112q2 35 18 63t44 47.5t65.5 30t82.5 10.5q49 0 90 -11t69.5 -33.5
t44.5 -57.5t16 -82v-338h-106v49zM257 79q28 0 53 9.5t43 26.5t28.5 39.5t10.5 48.5v38h-130q-54 0 -81 -21.5t-27 -60.5q0 -38 27 -59t76 -21zM144 727h123l89 -145h-100z" />
    <glyph glyph-name="aacute.ss03" horiz-adv-x="572" 
d="M395 49h-20q-23 -29 -60.5 -45.5t-90.5 -16.5q-44 0 -78.5 13.5t-58 37t-35.5 53.5t-12 63q0 30 11 60.5t35 55t62.5 40t93.5 15.5h150v15q0 42 -25.5 67.5t-81.5 25.5q-49 0 -74 -17t-28 -45h-112q2 35 18 63t44 47.5t65.5 30t82.5 10.5q49 0 90 -11t69.5 -33.5
t44.5 -57.5t16 -82v-338h-106v49zM257 79q28 0 53 9.5t43 26.5t28.5 39.5t10.5 48.5v38h-130q-54 0 -81 -21.5t-27 -60.5q0 -38 27 -59t76 -21zM318 582h-102l89 145h126z" />
    <glyph glyph-name="acircumflex.ss03" horiz-adv-x="572" 
d="M395 49h-20q-23 -29 -60.5 -45.5t-90.5 -16.5q-44 0 -78.5 13.5t-58 37t-35.5 53.5t-12 63q0 30 11 60.5t35 55t62.5 40t93.5 15.5h150v15q0 42 -25.5 67.5t-81.5 25.5q-49 0 -74 -17t-28 -45h-112q2 35 18 63t44 47.5t65.5 30t82.5 10.5q49 0 90 -11t69.5 -33.5
t44.5 -57.5t16 -82v-338h-106v49zM257 79q28 0 53 9.5t43 26.5t28.5 39.5t10.5 48.5v38h-130q-54 0 -81 -21.5t-27 -60.5q0 -38 27 -59t76 -21zM454 582h-97l-59 73h-17l-58 -73h-96l112 145h104z" />
    <glyph glyph-name="atilde.ss03" horiz-adv-x="572" 
d="M395 49h-20q-23 -29 -60.5 -45.5t-90.5 -16.5q-44 0 -78.5 13.5t-58 37t-35.5 53.5t-12 63q0 30 11 60.5t35 55t62.5 40t93.5 15.5h150v15q0 42 -25.5 67.5t-81.5 25.5q-49 0 -74 -17t-28 -45h-112q2 35 18 63t44 47.5t65.5 30t82.5 10.5q49 0 90 -11t69.5 -33.5
t44.5 -57.5t16 -82v-338h-106v49zM257 79q28 0 53 9.5t43 26.5t28.5 39.5t10.5 48.5v38h-130q-54 0 -81 -21.5t-27 -60.5q0 -38 27 -59t76 -21zM360 661q21 0 28.5 18t7.5 44h61q0 -65 -24.5 -101t-73.5 -36q-27 0 -46 11.5t-38 23.5q-15 10 -28 18.5t-30 8.5
q-21 0 -28.5 -18t-7.5 -44h-61q0 65 24.5 101t73.5 36q28 0 49.5 -12t39.5 -25q14 -10 26.5 -17.5t26.5 -7.5z" />
    <glyph glyph-name="adieresis.ss03" horiz-adv-x="572" 
d="M395 49h-20q-23 -29 -60.5 -45.5t-90.5 -16.5q-44 0 -78.5 13.5t-58 37t-35.5 53.5t-12 63q0 30 11 60.5t35 55t62.5 40t93.5 15.5h150v15q0 42 -25.5 67.5t-81.5 25.5q-49 0 -74 -17t-28 -45h-112q2 35 18 63t44 47.5t65.5 30t82.5 10.5q49 0 90 -11t69.5 -33.5
t44.5 -57.5t16 -82v-338h-106v49zM257 79q28 0 53 9.5t43 26.5t28.5 39.5t10.5 48.5v38h-130q-54 0 -81 -21.5t-27 -60.5q0 -38 27 -59t76 -21zM470 656l-80 -80l-80 80l80 80zM273 656l-80 -80l-80 80l80 80z" />
    <glyph glyph-name="aring.ss03" horiz-adv-x="572" 
d="M395 49h-20q-23 -29 -60.5 -45.5t-90.5 -16.5q-44 0 -78.5 13.5t-58 37t-35.5 53.5t-12 63q0 30 11 60.5t35 55t62.5 40t93.5 15.5h150v15q0 42 -25.5 67.5t-81.5 25.5q-49 0 -74 -17t-28 -45h-112q2 35 18 63t44 47.5t65.5 30t82.5 10.5q49 0 90 -11t69.5 -33.5
t44.5 -57.5t16 -82v-338h-106v49zM257 79q28 0 53 9.5t43 26.5t28.5 39.5t10.5 48.5v38h-130q-54 0 -81 -21.5t-27 -60.5q0 -38 27 -59t76 -21zM291 798q24 0 44.5 -8.5t35.5 -23.5t24 -35.5t9 -44.5q0 -23 -9 -43t-24 -35t-35.5 -24t-44.5 -9q-23 0 -44 9t-36.5 24
t-24.5 35t-9 43q0 24 9 44.5t24.5 35.5t36.5 23.5t44 8.5zM291 634q22 0 37.5 15t15.5 37q0 23 -15.5 38.5t-37.5 15.5t-37.5 -15.5t-15.5 -38.5q0 -22 15.5 -37t37.5 -15z" />
    <glyph glyph-name="amacron.ss03" horiz-adv-x="572" 
d="M395 49h-20q-23 -29 -60.5 -45.5t-90.5 -16.5q-44 0 -78.5 13.5t-58 37t-35.5 53.5t-12 63q0 30 11 60.5t35 55t62.5 40t93.5 15.5h150v15q0 42 -25.5 67.5t-81.5 25.5q-49 0 -74 -17t-28 -45h-112q2 35 18 63t44 47.5t65.5 30t82.5 10.5q49 0 90 -11t69.5 -33.5
t44.5 -57.5t16 -82v-338h-106v49zM257 79q28 0 53 9.5t43 26.5t28.5 39.5t10.5 48.5v38h-130q-54 0 -81 -21.5t-27 -60.5q0 -38 27 -59t76 -21zM146 618v77h292v-77h-292z" />
    <glyph glyph-name="abreve.ss03" horiz-adv-x="572" 
d="M395 49h-20q-23 -29 -60.5 -45.5t-90.5 -16.5q-44 0 -78.5 13.5t-58 37t-35.5 53.5t-12 63q0 30 11 60.5t35 55t62.5 40t93.5 15.5h150v15q0 42 -25.5 67.5t-81.5 25.5q-49 0 -74 -17t-28 -45h-112q2 35 18 63t44 47.5t65.5 30t82.5 10.5q49 0 90 -11t69.5 -33.5
t44.5 -57.5t16 -82v-338h-106v49zM257 79q28 0 53 9.5t43 26.5t28.5 39.5t10.5 48.5v38h-130q-54 0 -81 -21.5t-27 -60.5q0 -38 27 -59t76 -21zM432 727q0 -68 -37 -106.5t-106 -38.5t-106.5 38.5t-37.5 106.5h79q0 -35 15.5 -53.5t49.5 -18.5q33 0 49 18.5t16 53.5h78z" />
    <glyph glyph-name="aogonek.ss03" horiz-adv-x="572" 
d="M395 49h-20q-23 -29 -60.5 -45.5t-90.5 -16.5q-44 0 -78.5 13.5t-58 37t-35.5 53.5t-12 63q0 30 11 60.5t35 55t62.5 40t93.5 15.5h150v15q0 42 -25.5 67.5t-81.5 25.5q-49 0 -74 -17t-28 -45h-112q2 35 18 63t44 47.5t65.5 30t82.5 10.5q49 0 90 -11t69.5 -33.5
t44.5 -57.5t16 -82v-338q-28 -14 -46.5 -35t-18.5 -46q0 -22 17.5 -35t49.5 -13v-71h-26q-66 0 -97.5 26t-31.5 70q0 30 20.5 59t55.5 45h-29v49zM257 79q28 0 53 10t43 27t28.5 40t10.5 50v39h-130q-54 0 -81 -22t-27 -62q0 -39 27 -60.5t76 -21.5z" />
    <glyph glyph-name="uni0430.ss03" horiz-adv-x="572" 
d="M395 49h-20q-23 -29 -60.5 -45.5t-90.5 -16.5q-44 0 -78.5 13.5t-58 37t-35.5 53.5t-12 63q0 30 11 60.5t35 55t62.5 40t93.5 15.5h150v15q0 42 -25.5 67.5t-81.5 25.5q-49 0 -74 -17t-28 -45h-112q2 35 18 63t44 47.5t65.5 30t82.5 10.5q49 0 90 -11t69.5 -33.5
t44.5 -57.5t16 -82v-338h-106v49zM257 79q28 0 53 9.5t43 26.5t28.5 39.5t10.5 48.5v38h-130q-54 0 -81 -21.5t-27 -60.5q0 -38 27 -59t76 -21z" />
    <glyph glyph-name="zero.numr" horiz-adv-x="384" 
d="M347 523q0 -51 -11.5 -88t-32.5 -61.5t-49.5 -36t-61.5 -11.5q-34 0 -62.5 11.5t-49 36t-32 61.5t-11.5 88q0 103 43.5 150.5t111.5 47.5q33 0 61.5 -11.5t49.5 -35.5t32.5 -61.5t11.5 -89.5zM192 396q21 0 35.5 10.5t24 27.5t13.5 40t4 49t-4 49t-13.5 40.5t-24 28
t-35.5 10.5q-22 0 -36.5 -10.5t-23.5 -28t-13 -40.5t-4 -49t4 -49t13 -40t23.5 -27.5t36.5 -10.5z" />
    <glyph glyph-name="one.numr" horiz-adv-x="333" 
d="M296 401v-68h-259v68h92v228h-14l-78 -45v75l95 55h76v-313h88z" />
    <glyph glyph-name="two.numr" horiz-adv-x="366" 
d="M325 401v-68h-288v81l107 73q42 29 67 52.5t25 55.5q0 27 -16 41.5t-42 14.5q-29 0 -46.5 -14.5t-18.5 -45.5h-78q2 66 42.5 98t102.5 32q59 0 96.5 -31t37.5 -91q0 -42 -24 -75t-69 -65l-62 -44v-14h166z" />
    <glyph glyph-name="three.numr" horiz-adv-x="369" 
d="M237 568q37 -5 65.5 -33.5t28.5 -78.5q0 -30 -11 -54t-30.5 -41t-47 -26t-59.5 -9q-33 0 -60.5 9.5t-47 27t-30.5 41t-12 51.5h77q3 -29 23.5 -44t49.5 -15q32 0 51 16t19 45t-18.5 46t-50.5 17q-13 0 -21.5 -1t-15.5 -3v63l68 53v14h-155v68h254v-77l-77 -56v-13v0z" />
    <glyph glyph-name="four.numr" horiz-adv-x="382" 
d="M345 482v-68h-49v-81h-77v81h-186v76l169 224h94v-232h49zM221 482v142h-14l-95 -128v-14h109z" />
    <glyph glyph-name="five.numr" horiz-adv-x="368" 
d="M201 595q28 0 52 -10t41.5 -27.5t27 -41.5t9.5 -51q0 -32 -11 -57.5t-30 -43.5t-46 -28t-58 -10q-71 0 -108 36.5t-41 91.5h78q4 -29 22 -43.5t47 -14.5q31 0 49.5 18t18.5 50q0 31 -18 49t-48 18q-44 0 -68 -30h-72l20 213h242v-68h-182l-6 -73h14q11 9 27.5 15.5
t39.5 6.5z" />
    <glyph glyph-name="six.numr" horiz-adv-x="373" 
d="M205 588q27 0 51 -9.5t42 -26t28 -39.5t10 -51q0 -29 -10 -53.5t-28.5 -43t-45 -29t-59.5 -10.5q-34 0 -62.5 10t-49.5 32.5t-32.5 58.5t-11.5 88q0 43 9 81t28.5 65.5t49.5 43.5t72 16q53 0 87.5 -30t42.5 -75h-77q-11 40 -55 40q-33 0 -55 -24.5t-27 -72.5h14
q11 11 30.5 20t48.5 9zM191 392q29 0 48 17.5t19 50.5q0 32 -19.5 48.5t-48.5 16.5t-48.5 -16.5t-19.5 -48.5q0 -33 20 -50.5t49 -17.5z" />
    <glyph glyph-name="seven.numr" horiz-adv-x="343" 
d="M306 714v-75l-158 -306h-82l156 299v14h-185v68h269z" />
    <glyph glyph-name="eight.numr" horiz-adv-x="377" 
d="M189 659q-28 0 -45 -13.5t-17 -35.5t17 -35.5t45 -13.5q26 0 43.5 13.5t17.5 35.5t-17.5 35.5t-43.5 13.5zM189 391q35 0 54 16.5t19 40.5q0 23 -19 39t-54 16t-54.5 -16t-19.5 -39q0 -24 19.5 -40.5t54.5 -16.5zM95 542q-14 8 -28.5 26t-14.5 49q0 45 37 74.5t100 29.5
t99.5 -29.5t36.5 -74.5q0 -30 -14 -48.5t-29 -26.5v-13q20 -9 39 -30.5t19 -59.5q0 -23 -10 -43.5t-29.5 -36t-48 -24.5t-64.5 -9t-64 9t-47.5 24.5t-29.5 36t-10 43.5q0 38 19 59.5t39 30.5v13z" />
    <glyph glyph-name="nine.numr" horiz-adv-x="373" 
d="M168 459q-27 0 -51 9.5t-42 26t-28 39.5t-10 51q0 29 10 53.5t28.5 43t45 29t59.5 10.5q34 0 62.5 -10t49.5 -32.5t32.5 -58.5t11.5 -88q0 -43 -9 -81t-28.5 -65.5t-49.5 -43.5t-72 -16q-53 0 -87.5 30t-42.5 75h77q11 -40 55 -40q33 0 55 24.5t27 72.5h-14
q-11 -11 -30.5 -20t-48.5 -9zM182 655q-29 0 -48 -17.5t-19 -50.5q0 -32 19.5 -48.5t48.5 -16.5t48.5 16.5t19.5 48.5q0 33 -20 50.5t-49 17.5z" />
    <glyph glyph-name="zero.dnom" horiz-adv-x="384" 
d="M347 190q0 -51 -11.5 -88t-32.5 -61.5t-49.5 -36t-61.5 -11.5q-34 0 -62.5 11.5t-49 36t-32 61.5t-11.5 88q0 103 43.5 150.5t111.5 47.5q33 0 61.5 -11.5t49.5 -35.5t32.5 -61.5t11.5 -89.5zM192 63q21 0 35.5 10.5t24 27.5t13.5 40t4 49t-4 49t-13.5 40.5t-24 28
t-35.5 10.5q-22 0 -36.5 -10.5t-23.5 -28t-13 -40.5t-4 -49t4 -49t13 -40t23.5 -27.5t36.5 -10.5z" />
    <glyph glyph-name="one.dnom" horiz-adv-x="333" 
d="M296 68v-68h-259v68h92v228h-14l-78 -45v75l95 55h76v-313h88z" />
    <glyph glyph-name="two.dnom" horiz-adv-x="362" 
d="M325 68v-68h-288v81l107 73q42 29 67 52.5t25 55.5q0 27 -16 41.5t-42 14.5q-29 0 -46.5 -14.5t-18.5 -45.5h-78q2 66 42.5 98t102.5 32q59 0 96.5 -31t37.5 -91q0 -42 -24 -75t-69 -65l-62 -44v-14h166z" />
    <glyph glyph-name="three.dnom" horiz-adv-x="369" 
d="M237 235q37 -5 65.5 -33.5t28.5 -78.5q0 -30 -11 -54t-30.5 -41t-47 -26t-59.5 -9q-33 0 -60.5 9.5t-47 27t-30.5 41t-12 51.5h77q3 -29 23.5 -44t49.5 -15q32 0 51 16t19 45t-18.5 46t-50.5 17q-13 0 -21.5 -1t-15.5 -3v63l68 53v14h-155v68h254v-77l-77 -56v-13v0z" />
    <glyph glyph-name="four.dnom" horiz-adv-x="382" 
d="M345 149v-68h-49v-81h-77v81h-186v76l169 224h94v-232h49zM221 149v142h-14l-95 -128v-14h109z" />
    <glyph glyph-name="five.dnom" horiz-adv-x="368" 
d="M201 262q28 0 52 -10t41.5 -27.5t27 -41.5t9.5 -51q0 -32 -11 -57.5t-30 -43.5t-46 -28t-58 -10q-71 0 -108 36.5t-41 91.5h78q4 -29 22 -43.5t47 -14.5q31 0 49.5 18t18.5 50q0 31 -18 49t-48 18q-44 0 -68 -30h-72l20 213h242v-68h-182l-6 -73h14q11 9 27.5 15.5
t39.5 6.5z" />
    <glyph glyph-name="six.dnom" horiz-adv-x="373" 
d="M205 255q27 0 51 -9.5t42 -26t28 -39.5t10 -51q0 -29 -10 -53.5t-28.5 -43t-45 -29t-59.5 -10.5q-34 0 -62.5 10t-49.5 32.5t-32.5 58.5t-11.5 88q0 43 9 81t28.5 65.5t49.5 43.5t72 16q53 0 87.5 -30t42.5 -75h-77q-11 40 -55 40q-33 0 -55 -24.5t-27 -72.5h14
q11 11 30.5 20t48.5 9zM191 59q29 0 48 17.5t19 50.5q0 32 -19.5 48.5t-48.5 16.5t-48.5 -16.5t-19.5 -48.5q0 -33 20 -50.5t49 -17.5z" />
    <glyph glyph-name="seven.dnom" horiz-adv-x="343" 
d="M306 381v-75l-158 -306h-82l156 299v14h-185v68h269z" />
    <glyph glyph-name="eight.dnom" horiz-adv-x="377" 
d="M189 326q-28 0 -45 -13.5t-17 -35.5t17 -35.5t45 -13.5q26 0 43.5 13.5t17.5 35.5t-17.5 35.5t-43.5 13.5zM189 58q35 0 54 16.5t19 40.5q0 23 -19 39t-54 16t-54.5 -16t-19.5 -39q0 -24 19.5 -40.5t54.5 -16.5zM95 209q-14 8 -28.5 26t-14.5 49q0 45 37 74.5t100 29.5
t99.5 -29.5t36.5 -74.5q0 -30 -14 -48.5t-29 -26.5v-13q20 -9 39 -30.5t19 -59.5q0 -23 -10 -43.5t-29.5 -36t-48 -24.5t-64.5 -9t-64 9t-47.5 24.5t-29.5 36t-10 43.5q0 38 19 59.5t39 30.5v13z" />
    <glyph glyph-name="nine.dnom" horiz-adv-x="373" 
d="M168 126q-27 0 -51 9.5t-42 26t-28 39.5t-10 51q0 29 10 53.5t28.5 43t45 29t59.5 10.5q34 0 62.5 -10t49.5 -32.5t32.5 -58.5t11.5 -88q0 -43 -9 -81t-28.5 -65.5t-49.5 -43.5t-72 -16q-53 0 -87.5 30t-42.5 75h77q11 -40 55 -40q33 0 55 24.5t27 72.5h-14
q-11 -11 -30.5 -20t-48.5 -9zM182 322q-29 0 -48 -17.5t-19 -50.5q0 -32 19.5 -48.5t48.5 -16.5t48.5 16.5t19.5 48.5q0 33 -20 50.5t-49 17.5z" />
    <glyph glyph-name="zero.onum" horiz-adv-x="616" 
d="M309 522q56 0 104 -19t83 -53.5t55 -84t20 -110.5t-20 -110.5t-55 -84.5t-83 -54t-104 -19q-57 0 -105 19t-83 54t-55 84.5t-20 110.5t20 110.5t55 84t83 53.5t105 19zM309 87q73 0 110.5 46.5t37.5 121.5t-37.5 121t-110.5 46q-74 0 -112 -46t-38 -121q0 -37 9.5 -68
t28.5 -53t47 -34.5t65 -12.5z" />
    <glyph glyph-name="one.onum" horiz-adv-x="486" 
d="M60 100h142v295h-20l-122 -77v114l122 77h134v-409h129v-100h-385v100z" />
    <glyph glyph-name="two.onum" horiz-adv-x="552" 
d="M508 0h-463v117l185 89q35 17 61.5 31.5t44.5 30t27 32.5t9 40q0 37 -27 59.5t-77 22.5q-55 0 -84.5 -26t-28.5 -80h-114q0 43 15 80.5t44 65.5t72 44t98 16q54 0 94.5 -15t67.5 -39t40 -55t13 -64q0 -60 -32 -100.5t-80 -65.5l-124 -64v-19h259v-100z" />
    <glyph glyph-name="three.onum" horiz-adv-x="584" 
d="M503 509v-118l-153 -131v-19q39 -2 73.5 -16.5t59.5 -40.5t39.5 -63.5t14.5 -85.5q0 -55 -19 -98.5t-52.5 -74t-80.5 -46.5t-103 -16q-57 0 -103 16.5t-79.5 46t-52.5 69t-21 85.5h114q5 -54 45 -85.5t97 -31.5q63 0 102.5 36.5t39.5 98.5q0 60 -37 96.5t-105 36.5
q-37 0 -62 -6v100l151 129v20h-298v98h430z" />
    <glyph glyph-name="four.onum" horiz-adv-x="623" 
d="M581 100v-100h-92v-191h-112v191h-340v122l310 387h142v-409h92zM381 100v289h-20l-213 -269v-20h233z" />
    <glyph glyph-name="five.onum" horiz-adv-x="610" 
d="M333 285q51 0 92.5 -17.5t71 -48.5t46 -73.5t16.5 -93.5q0 -57 -18.5 -103.5t-51.5 -79.5t-78.5 -51t-100.5 -18q-60 0 -106 16.5t-78 46t-49.5 69t-20.5 85.5h113q7 -57 43.5 -87t93.5 -30q63 0 101.5 40.5t38.5 107.5t-38.5 106t-99.5 39q-41 0 -72.5 -14.5
t-52.5 -45.5h-111l31 376h416v-98h-326l-13 -171h19q23 20 54 32.5t80 12.5z" />
    <glyph glyph-name="six.onum" horiz-adv-x="607" 
d="M340 460q48 0 89 -16.5t71.5 -47t47.5 -72.5t17 -93q0 -50 -17 -94.5t-48.5 -77.5t-77 -52.5t-103.5 -19.5t-106.5 18.5t-84 59.5t-55.5 107.5t-20 161.5q0 81 16 150.5t49.5 120.5t85 80t122.5 29q46 0 84 -13.5t66.5 -37.5t46.5 -56t24 -69h-113q-11 36 -37 57.5
t-73 21.5q-72 0 -114 -57t-47 -162h20q17 21 55.5 41.5t101.5 20.5zM317 85q58 0 96.5 36t38.5 106q0 69 -39 104t-97 35t-97 -35.5t-39 -102.5q0 -34 10.5 -60.5t29 -45t43.5 -28t54 -9.5z" />
    <glyph glyph-name="seven.onum" horiz-adv-x="561" 
d="M219 -191h-119l291 581v19h-342v100h461v-120z" />
    <glyph glyph-name="eight.onum" horiz-adv-x="620" 
d="M463 360q17 -6 36 -20t35 -34.5t26.5 -48.5t10.5 -63q0 -43 -17.5 -80.5t-51 -65.5t-82 -44.5t-109.5 -16.5q-62 0 -110.5 16.5t-82 44.5t-51 65.5t-17.5 80.5q0 35 10.5 63t26 48.5t34.5 34.5t37 20v20q-14 6 -29 18.5t-27.5 31t-21 42.5t-8.5 54q0 41 17 75.5t48 59.5
t75 39t99 14q54 0 98 -14t75 -39t48 -59.5t17 -75.5q0 -30 -8.5 -54t-21 -42.5t-28 -31t-28.5 -18.5v-20zM311 622q-27 0 -50.5 -7.5t-41 -21t-27.5 -33t-10 -43.5t10 -43t27.5 -33t41 -21.5t50.5 -7.5t50.5 7.5t40.5 21.5t27 33t10 43q0 48 -37 76.5t-91 28.5zM311 85
q70 0 108.5 33t38.5 85t-38.5 85.5t-108.5 33.5q-71 0 -109.5 -33.5t-38.5 -85.5t38.5 -85t109.5 -33z" />
    <glyph glyph-name="nine.onum" horiz-adv-x="607" 
d="M265 49q-48 0 -89 16.5t-71 47t-47 72.5t-17 93t17 95.5t48.5 77.5t77 52t102.5 19q58 0 106.5 -18.5t84 -60t55.5 -107.5t20 -161q0 -81 -16 -149.5t-49 -119t-84.5 -78.5t-122.5 -28q-46 0 -84.5 13.5t-67 37.5t-46 56.5t-23.5 69.5h113q10 -37 36 -58t73 -21
q72 0 114.5 54t47.5 159h-20q-18 -21 -56.5 -41.5t-101.5 -20.5zM289 424q-59 0 -97 -36t-38 -106q0 -69 39 -104t97 -35q57 0 96 35.5t39 102.5q0 34 -10.5 60.5t-29 45t-43.5 28t-53 9.5z" />
    <glyph glyph-name="zero.tnum" horiz-adv-x="630" 
d="M314 714q57 0 106 -21t84.5 -65.5t56 -113.5t20.5 -164t-20.5 -163.5t-56 -113t-84.5 -65.5t-106 -21t-105.5 21t-84 65.5t-55.5 113t-20 163.5t20 164t55.5 113.5t84 65.5t105.5 21zM166 350q0 -49 6 -92.5t21 -78.5l198 406q-31 25 -77 25q-41 0 -69.5 -20.5t-46 -56
t-25 -82.5t-7.5 -101zM314 91q42 0 70.5 20.5t46 55.5t25.5 82.5t8 100.5q0 50 -7 92.5t-21 77.5l-198 -405q16 -11 34.5 -17.5t41.5 -6.5z" />
    <glyph glyph-name="one.tnum" horiz-adv-x="630" 
d="M63 102h216v479h-20l-148 -93v117l149 95h135v-598h175v-102h-507v102z" />
    <glyph glyph-name="two.tnum" horiz-adv-x="630" 
d="M62 498q3 54 22 94.5t51.5 67.5t76 40.5t95.5 13.5q111 0 173 -59t62 -160q0 -40 -11 -73.5t-32.5 -64.5t-54.5 -62.5t-76 -66.5l-128 -106v-20h318v-102h-493v121l203 162q42 34 72 60.5t49 50.5t27.5 48t8.5 51q0 59 -33.5 88.5t-87.5 29.5q-51 0 -85.5 -27.5
t-40.5 -85.5h-116v0z" />
    <glyph glyph-name="three.tnum" horiz-adv-x="630" 
d="M527 700v-119l-151 -131v-21q39 -2 73 -16.5t59 -40.5t39.5 -63.5t14.5 -86.5q0 -55 -19 -98.5t-53 -74t-81.5 -46.5t-103.5 -16t-102.5 16.5t-79.5 46t-52.5 69t-21.5 86.5h117q5 -54 44 -84t95 -30q65 0 103 35t38 96q0 60 -36 96t-104 36q-38 0 -63 -6v102l150 131v20
h-296v99h430z" />
    <glyph glyph-name="four.tnum" horiz-adv-x="630" 
d="M588 259v-102h-91v-157h-113v157h-340v127l307 416h146v-441h91zM387 259v309h-20l-208 -289v-20h228z" />
    <glyph glyph-name="five.tnum" horiz-adv-x="630" 
d="M344 474q50 0 92 -17.5t72 -49t46.5 -74.5t16.5 -94q0 -57 -18.5 -103.5t-51.5 -79.5t-79 -51t-101 -18q-60 0 -106 16.5t-78 46t-50 69t-21 86.5h116q7 -57 42.5 -85.5t92.5 -28.5q63 0 100 39t37 106q0 66 -37 105t-98 39q-41 0 -72 -14t-53 -45h-112l31 379h417v-99
h-325l-13 -173h20q23 19 53 32.5t79 13.5z" />
    <glyph glyph-name="six.tnum" horiz-adv-x="630" 
d="M347 461q48 0 89 -17t72 -47t48.5 -72.5t17.5 -93.5q0 -50 -17 -94.5t-49 -77.5t-78 -52.5t-104 -19.5t-107 18.5t-85 59.5t-56 107.5t-20 161.5q0 81 16 150.5t50 120.5t86 80t123 29q46 0 84.5 -13.5t67 -37.5t46.5 -56t24 -69h-115q-11 36 -36.5 56.5t-72.5 20.5
q-72 0 -114 -56t-47 -161h20q9 10 22.5 21t33 20.5t44.5 15.5t57 6zM324 87q57 0 95 35.5t38 104.5t-38.5 103t-95.5 34t-95.5 -34.5t-38.5 -101.5q0 -68 39 -104.5t96 -36.5z" />
    <glyph glyph-name="seven.tnum" horiz-adv-x="630" 
d="M251 0h-124l292 579v20h-341v101h462v-120z" />
    <glyph glyph-name="eight.tnum" horiz-adv-x="630" 
d="M469 360q17 -6 36 -20t35 -34.5t26.5 -48.5t10.5 -63q0 -43 -17.5 -80.5t-51 -65.5t-82 -44.5t-110.5 -16.5t-111 16.5t-82.5 44.5t-51 65.5t-17.5 80.5q0 35 10.5 63t26.5 48.5t35 34.5t36 20v20q-14 6 -29 18.5t-27.5 31t-21 42.5t-8.5 54q0 41 17 75.5t48.5 59.5
t75.5 39t99 14q54 0 98.5 -14t75.5 -39t48 -59.5t17 -75.5q0 -30 -8.5 -54t-21.5 -42.5t-28 -31t-28 -18.5v-20zM316 620q-54 0 -90.5 -27.5t-36.5 -75.5t36.5 -76t90.5 -28t90 28t36 76t-36 75.5t-90 27.5zM316 87q70 0 108 33t38 85t-38 85t-108 33q-71 0 -108.5 -33
t-37.5 -85t37.5 -85t108.5 -33z" />
    <glyph glyph-name="nine.tnum" horiz-adv-x="630" 
d="M283 240q-48 0 -89 17t-72 47t-48.5 72.5t-17.5 93.5q0 50 17 94.5t49 77.5t78 52.5t104 19.5t107 -18.5t85 -59.5t56 -107.5t20 -161.5q0 -81 -16 -150.5t-50 -120.5t-86 -80t-123 -29q-46 0 -84.5 13.5t-67 37.5t-46.5 56t-24 69h115q11 -36 36.5 -56.5t72.5 -20.5
q72 0 114 56t47 161h-20q-9 -10 -22.5 -21t-33 -20.5t-44.5 -15.5t-57 -6zM306 614q-57 0 -95 -35.5t-38 -104.5t38.5 -103t95.5 -34t95.5 34.5t38.5 101.5q0 68 -39 104.5t-96 36.5z" />
    <glyph glyph-name="dollar.tnum" horiz-adv-x="630" 
d="M349 798v-86q91 -8 146 -61t65 -135h-112q-8 38 -32 62t-67 31v-198l45 -9q40 -8 73.5 -23.5t58 -40t38.5 -58t14 -78.5q0 -41 -14.5 -78t-43.5 -66t-71.5 -47.5t-99.5 -22.5v-86h-67v87q-103 10 -162.5 68t-68.5 150h113q8 -52 40.5 -79.5t77.5 -35.5v221l-33 5
q-38 6 -70 21t-55.5 39t-36.5 57t-13 75q0 38 13 72.5t39 61.5t65 45t91 23v86h67zM349 301v-210q54 5 85 34t31 74q0 41 -25 65.5t-69 32.5zM282 609q-45 -8 -70 -33t-25 -64q0 -38 26.5 -59.5t68.5 -29.5v186z" />
    <glyph glyph-name="Euro.tnum" horiz-adv-x="630" 
d="M359 256h-155q23 -165 152 -165q57 0 89 33t40 87h114q-16 -103 -77.5 -163.5t-165.5 -60.5q-108 0 -178.5 68.5t-88.5 200.5h-74l21 63h46q-1 14 -1 31t2 36h-68l21 63h53q20 128 90.5 196.5t175.5 68.5q101 0 161 -56.5t77 -152.5h-116q-8 48 -37 76.5t-84 28.5
q-62 0 -100.5 -41t-50.5 -120h220l-21 -63h-206q-2 -16 -2 -34t2 -33h182z" />
    <glyph glyph-name="sterling.tnum" horiz-adv-x="630" 
d="M588 102v-102h-543v102h18q35 0 50 23.5t15 65.5v88h-83v93h83v119q0 51 14.5 92t42.5 70t68.5 45t92.5 16q101 0 156 -57t58 -152h-116q-2 49 -24 77t-73 28q-53 0 -77.5 -31t-24.5 -84v-123h211v-93h-211v-80q0 -26 -4.5 -44t-21.5 -33v-20h369z" />
    <glyph glyph-name="yen.tnum" horiz-adv-x="630" 
d="M98 373h88l-157 327h118l153 -327h28l153 327h119l-157 -327h87v-63h-117l-33 -67h150v-63h-158v-180h-116v180h-158v63h151l-33 67h-118v63z" />
    <glyph glyph-name="uni20BD.tnum" horiz-adv-x="630" 
d="M361 700q116 0 179 -56t63 -157q0 -102 -63 -159t-179 -57h-127v-67h198v-63h-198v-141h-116v141h-82v63h82v67h-82v100h82v329h243zM346 371q78 0 109.5 31.5t31.5 85.5t-31.5 83.5t-109.5 29.5h-112v-230h112z" />
    <glyph glyph-name="uni20B4.tnum" horiz-adv-x="630" 
d="M592 320v-63h-384q-5 -12 -7 -24.5t-2 -27.5q0 -55 35 -84.5t89 -29.5q51 0 84.5 22.5t45.5 73.5h118q-15 -90 -77.5 -145t-171.5 -55q-59 0 -104 17t-75 46t-45 67t-15 80q0 15 2 30.5t7 29.5h-54v63h554zM416 450q8 11 13 25.5t5 34.5q0 47 -28.5 73.5t-76.5 26.5
q-52 0 -78.5 -22t-36.5 -63h-115q5 42 23.5 77t48.5 59.5t70 38.5t88 14q53 0 94 -16t69 -43.5t42.5 -64t14.5 -76.5q0 -35 -13 -64h56v-63h-554v63h378z" />
    <glyph glyph-name="uni20B8.tnum" horiz-adv-x="630" 
d="M63 570h504v-63h-195v-507h-115v507h-194v63zM63 700h504v-63h-504v63z" />
    <glyph glyph-name="cent.tnum" horiz-adv-x="578" 
d="M267 -10q-51 6 -90.5 28t-67 56.5t-42 80.5t-14.5 100t14.5 99.5t42 80t67 56.5t90.5 28v70h68v-69q81 -8 130 -53t60 -113h-112q-9 27 -28 45t-50 24v-338q34 6 54.5 26t27.5 52h112q-6 -36 -22 -66.5t-41 -53t-58 -36.5t-73 -18v-69h-68v70zM166 256q0 -30 5.5 -57.5
t18 -50t31.5 -38.5t46 -23v334q-54 -14 -77.5 -60t-23.5 -105z" />
    <glyph glyph-name="circumflex.cap" horiz-adv-x="399" 
d="M363 767h-100l-55 60h-20l-54 -60h-98l111 129h105z" />
    <glyph glyph-name="dieresis.cap" horiz-adv-x="433" 
d="M395 839l-80 -80l-80 80l80 80zM198 839l-80 -80l-80 80l80 80z" />
    <glyph glyph-name="acute.cap" horiz-adv-x="297" 
d="M145 767h-105l88 129h130z" />
    <glyph glyph-name="grave.cap" horiz-adv-x="297" 
d="M40 896h129l89 -129h-106z" />
    <glyph glyph-name="ring.cap" horiz-adv-x="307" 
d="M154 968q24 0 44.5 -8.5t35.5 -23.5t24 -35.5t9 -44.5q0 -23 -9 -43t-24 -35t-35.5 -24t-44.5 -9q-23 0 -44 9t-36.5 24t-24.5 35t-9 43q0 24 9 44.5t24.5 35.5t36.5 23.5t44 8.5zM154 804q22 0 37.5 15t15.5 37q0 23 -15.5 38.5t-37.5 15.5t-37.5 -15.5t-15.5 -38.5
q0 -22 15.5 -37t37.5 -15z" />
    <glyph glyph-name="caron.cap" horiz-adv-x="399" 
d="M36 896h100l54 -60h20l55 60h98l-111 -129h-105z" />
    <glyph glyph-name="dotaccent.cap" horiz-adv-x="196" 
d="M38 790v106h120v-106h-120z" />
    <glyph glyph-name="breve.cap" horiz-adv-x="363" 
d="M325 896q-1 -62 -38.5 -95.5t-105.5 -33.5q-67 0 -104 33.5t-39 95.5h79q0 -59 64 -59t66 59h78z" />
    <glyph glyph-name="hungarumlaut.cap" horiz-adv-x="442" 
d="M131 767h-92l77 129h115zM302 767h-91l78 129h114z" />
    <glyph glyph-name="tilde.cap" horiz-adv-x="411" 
d="M277 838q21 0 28.5 18t7.5 44h61q0 -65 -24.5 -101t-73.5 -36q-27 0 -46 11.5t-38 23.5q-15 10 -28 18.5t-30 8.5q-21 0 -28.5 -18t-7.5 -44h-61q0 65 24.5 101t73.5 36q28 0 49.5 -12t39.5 -25q14 -10 26.5 -17.5t26.5 -7.5z" />
    <glyph glyph-name="macron.cap" horiz-adv-x="372" 
d="M40 801v75h292v-75h-292z" />
    <glyph glyph-name="cyrbreve" horiz-adv-x="438" 
d="M388 721q-4 -70 -47.5 -109t-121.5 -39t-121.5 39t-47.5 109h89q2 -32 21 -52t59 -20t59 20t21 52h89z" />
    <glyph glyph-name="cyrbreve.cap" horiz-adv-x="443" 
d="M403 904q-4 -73 -53 -113.5t-129 -40.5q-79 0 -128 40.5t-53 113.5h92q2 -33 25.5 -54t63.5 -21t64 20.5t27 54.5h91z" />
    <glyph glyph-name="hyphen.case" horiz-adv-x="380" 
d="M47 315v99h288v-99h-288z" />
    <glyph glyph-name="endash.case" horiz-adv-x="619" 
d="M46 319v91h526v-91h-526z" />
    <glyph glyph-name="emdash.case" horiz-adv-x="878" 
d="M46 319v91h785v-91h-785z" />
    <glyph glyph-name="emdash.ss02.case" horiz-adv-x="1444" 
d="M46 319v91h1352v-91h-1352z" />
    <glyph glyph-name="bracketleft.case" horiz-adv-x="353" 
d="M73 -93v900h224v-86h-123v-728h123v-86h-224z" />
    <glyph glyph-name="bracketright.case" horiz-adv-x="353" 
d="M56 -93v86h123v728h-123v86h224v-900h-224z" />
    <glyph glyph-name="braceleft.case" horiz-adv-x="409" 
d="M188 347q26 -8 43.5 -34.5t17.5 -74.5v-143q0 -54 22 -78t67 -24h34v-86h-48q-80 0 -128 45t-48 126v139q0 46 -14 70.5t-53 24.5h-19v90h19q39 0 53 24.5t14 70.5v139q0 81 48 126t128 45h48v-86h-34q-45 0 -67 -24t-22 -78v-143q0 -48 -17.5 -74.5t-43.5 -34.5v-20z
" />
    <glyph glyph-name="braceright.case" horiz-adv-x="409" 
d="M221 367q-26 8 -43.5 34.5t-17.5 74.5v143q0 54 -22 78t-67 24h-34v86h48q80 0 128 -45t48 -126v-139q0 -46 14 -70.5t53 -24.5h19v-90h-19q-39 0 -53 -24.5t-14 -70.5v-139q0 -81 -48 -126t-128 -45h-48v86h34q45 0 67 24t22 78v143q0 48 17.5 74.5t43.5 34.5v20z" />
    <glyph glyph-name="parenleft.case" horiz-adv-x="310" 
d="M148 360q0 -76 13.5 -141.5t36 -121.5t51 -103t58.5 -87h-104q-31 37 -59.5 83.5t-50.5 103t-35 123t-13 143.5q0 76 12.5 141.5t34 121t49 101.5t57.5 83h104q-29 -39 -56.5 -86t-49 -102.5t-35 -119.5t-13.5 -139z" />
    <glyph glyph-name="parenright.case" horiz-adv-x="310" 
d="M162 360q0 75 -13.5 139t-35 119.5t-49 102.5t-56.5 86h104q30 -37 57.5 -83t49 -101.5t34 -121t12.5 -141.5q0 -77 -13 -143.5t-35 -123t-50.5 -103t-59.5 -83.5h-104q30 40 58.5 87t51 103t36 121.5t13.5 141.5z" />
    <glyph glyph-name="guillemotright.case" horiz-adv-x="611" 
d="M453 362l-167 180h123l147 -155v-70l-147 -154h-123l167 180v19zM222 362l-167 180h123l147 -155v-70l-147 -154h-123l167 180v19z" />
    <glyph glyph-name="guillemotleft.case" horiz-adv-x="611" 
d="M158 343l167 -180h-123l-147 154v70l147 155h123l-167 -180v-19zM389 343l167 -180h-123l-147 154v70l147 155h123l-167 -180v-19z" />
    <glyph glyph-name="guilsinglright.case" horiz-adv-x="380" 
d="M222 362l-167 180h123l147 -155v-70l-147 -154h-123l167 180v19z" />
    <glyph glyph-name="guilsinglleft.case" horiz-adv-x="380" 
d="M158 343l167 -180h-123l-147 154v70l147 155h123l-167 -180v-19z" />
    <glyph glyph-name="exclamdown.case" horiz-adv-x="330" 
d="M107 0v292l21 220h78l21 -220v-292h-120zM73 648l95 95l95 -95l-95 -95z" />
    <glyph glyph-name="questiondown.case" horiz-adv-x="563" 
d="M289 -13q-55 0 -98 15t-72.5 41.5t-44.5 63t-15 79.5q0 37 9.5 63.5t26 48t39 39.5t47.5 37q18 13 30 23t19.5 21.5t11 25.5t3.5 34v34h115v-34q0 -31 -6 -54t-18.5 -42.5t-32.5 -38t-48 -40.5q-18 -13 -32.5 -25t-25 -25t-16.5 -29t-6 -38q0 -19 7 -37t21.5 -31.5
t35.5 -22t48 -8.5q55 0 86.5 27.5t33.5 90.5h115q-1 -48 -17 -88t-45.5 -69t-72 -45t-98.5 -16zM302 553l-95 95l95 95l95 -95z" />
    <glyph glyph-name="t.ss04" horiz-adv-x="393" 
d="M118 0v413h-93v96h93v148h113v-148h134v-96h-134v-413h-113z" />
    <glyph glyph-name="tcaron.ss04" horiz-adv-x="428" 
d="M327 657v111h125v-128l-65 -82h-67l65 82v17h-58zM118 0v413h-93v96h93v148h113v-148h134v-96h-134v-413h-113z" />
    <glyph glyph-name="uni0163.ss04" horiz-adv-x="393" 
d="M118 0v413h-93v96h93v148h113v-148h134v-96h-134v-413h-113zM104 -226l62 64v17h-52v89h125v-106l-61 -64h-74z" />
    <glyph glyph-name="Y.ss05" horiz-adv-x="662" 
d="M353 368l165 346h123l-342 -714h-122l102 214l-264 500h128l182 -346h28z" />
    <glyph glyph-name="Yacute.ss05" horiz-adv-x="662" 
d="M353 368l165 346h123l-342 -714h-122l102 214l-264 500h128l182 -346h28zM382 767h-105l88 129h130z" />
    <glyph glyph-name="Ydieresis.ss05" horiz-adv-x="662" 
d="M353 368l165 346h123l-342 -714h-122l102 214l-264 500h128l182 -346h28zM516 839l-80 -80l-80 80l80 80zM319 839l-80 -80l-80 80l80 80z" />
    <glyph glyph-name="ampersand.ss06" horiz-adv-x="669" 
d="M638 325h-68v-104q0 -52 -19 -95t-53.5 -74t-82.5 -48t-106 -17q-60 0 -109 15.5t-83.5 44t-53 68t-18.5 86.5q0 36 9.5 64.5t25 49.5t35 34.5t38.5 19.5v20q-32 14 -56.5 48t-24.5 91q0 43 17.5 77.5t47.5 58.5t71.5 37t89.5 13q99 0 156 -46t68 -124h-114
q-20 72 -112 72q-51 0 -81 -25.5t-30 -67.5q0 -45 30 -72.5t89 -27.5h45v-98h-45q-66 0 -105 -28t-39 -90q0 -57 41 -88t108 -31q72 0 109.5 34.5t37.5 98.5v202h182v-98z" />
    <glyph glyph-name="zero.ss07" horiz-adv-x="636" 
d="M317 714q57 0 106 -21t84.5 -65.5t56 -113.5t20.5 -164t-20.5 -163.5t-56 -113t-84.5 -65.5t-106 -21t-105.5 21t-84 65.5t-55.5 113t-20 163.5t20 164t55.5 113.5t84 65.5t105.5 21zM169 350q0 -49 6 -92.5t21 -78.5l198 406q-31 25 -77 25q-41 0 -69.5 -20.5t-46 -56
t-25 -82.5t-7.5 -101zM317 91q42 0 70.5 20.5t46 55.5t25.5 82.5t8 100.5q0 50 -7 92.5t-21 77.5l-198 -405q16 -11 34.5 -17.5t41.5 -6.5z" />
    <glyph glyph-name="emdash.ss02" horiz-adv-x="1444" 
d="M46 234v91h1352v-91h-1352z" />
    <glyph glyph-name="uni0423.ss08" horiz-adv-x="662" 
d="M132 116h30q38 0 61 13t40 47l20 41l-263 497h128l181 -344h28l164 344h122l-264 -554q-20 -43 -41 -73.5t-46 -49.5t-56 -28t-71 -9h-33v116z" />
    <glyph glyph-name="uni040E.ss08" horiz-adv-x="662" 
d="M132 116h30q38 0 61 13t40 47l20 41l-263 497h128l181 -344h28l164 344h122l-264 -554q-20 -43 -41 -73.5t-46 -49.5t-56 -28t-71 -9h-33v116zM516 904q-4 -73 -53 -113.5t-129 -40.5q-79 0 -128 40.5t-53 113.5h92q2 -33 25.5 -54t63.5 -21t64 20.5t27 54.5h91z" />
    <glyph glyph-name="quotedbl.ss01" horiz-adv-x="317" 
d="M80 714h34v-241h-34v241zM203 714h34v-241h-34v241z" />
    <glyph glyph-name="numbersign.ss01" horiz-adv-x="555" 
d="M332 208h-159l-36 -208h-34l36 208h-104v31h111l37 222h-102v31h108l37 208h34l-38 -208h161l37 208h34l-37 -208h103v-31h-109l-38 -222h102v-31h-108l-36 -208h-35zM179 239h160l38 222h-160z" />
    <glyph glyph-name="quotesingle.ss01" horiz-adv-x="194" 
d="M80 714h34v-241h-34v241z" />
    <glyph glyph-name="parenleft.ss01" horiz-adv-x="238" 
d="M232 759q-81 -103 -114.5 -215.5t-33.5 -234.5t33.5 -234.5t114.5 -215.5h-43q-76 103 -107.5 215.5t-31.5 234.5q0 123 32 235t108 215h42v0z" />
    <glyph glyph-name="parenright.ss01" horiz-adv-x="240" 
d="M6 759h42q76 -103 108 -215t32 -235q0 -122 -31.5 -234.5t-107.5 -215.5h-43q81 103 114.5 215.5t33.5 234.5t-33.5 234.5t-114.5 215.5z" />
    <glyph glyph-name="bracketleft.ss01" horiz-adv-x="258" 
d="M80 -141v900h118v-31h-84v-838h84v-31h-118z" />
    <glyph glyph-name="bracketright.ss01" horiz-adv-x="258" 
d="M60 -141v31h84v838h-84v31h118v-900h-118z" />
    <glyph glyph-name="braceleft.ss01" horiz-adv-x="337" 
d="M137 300q17 -7 26.5 -26.5t9.5 -64.5v-215q0 -54 21 -79t73 -25h30v-31h-30q-60 0 -94 30t-34 106v204q0 46 -7.5 70.5t-38.5 24.5h-13v30h13q31 0 38.5 24.5t7.5 70.5v204q0 76 34 106t94 30h30v-31h-30q-52 0 -73 -25t-21 -79v-215q0 -45 -9.5 -64.5t-26.5 -26.5v-18z
" />
    <glyph glyph-name="braceright.ss01" horiz-adv-x="337" 
d="M200 318q-17 7 -26.5 26.5t-9.5 64.5v215q0 54 -21 79t-73 25h-30v31h30q60 0 94 -30t34 -106v-204q0 -46 7.5 -70.5t38.5 -24.5h13v-30h-13q-31 0 -38.5 -24.5t-7.5 -70.5v-204q0 -76 -34 -106t-94 -30h-30v31h30q52 0 73 25t21 79v215q0 45 9.5 64.5t26.5 26.5v18z" />
    <glyph glyph-name="asterisk.ss01" horiz-adv-x="452" 
d="M243 714l-1 -180l170 60l10 -35l-170 -55l107 -141l-28 -23l-105 147l-105 -147l-28 23l108 142l-171 54l11 35l169 -60l-1 180h34z" />
    <glyph glyph-name="plus.ss01" horiz-adv-x="678" 
d="M323 542h33v-239h239v-31h-239v-240h-33v240h-240v31h240v239z" />
    <glyph glyph-name="minus.ss01" horiz-adv-x="678" 
d="M83 272v31h512v-31h-512z" />
    <glyph glyph-name="less.ss01" horiz-adv-x="670" 
d="M587 48l-504 216v44l504 216v-33l-454 -196v-18l454 -196v-33z" />
    <glyph glyph-name="equal.ss01" horiz-adv-x="676" 
d="M593 175h-510v31h510v-31zM593 367h-510v31h510v-31z" />
    <glyph glyph-name="greater.ss01" horiz-adv-x="670" 
d="M83 81l454 196v18l-454 196v33l504 -216v-44l-504 -216v33z" />
    <glyph glyph-name="hyphen.ss01" horiz-adv-x="384" 
d="M48 264v31h288v-31h-288z" />
    <glyph glyph-name="endash.ss01" horiz-adv-x="619" 
d="M46 264v31h526v-31h-526z" />
    <glyph glyph-name="emdash.ss01" horiz-adv-x="878" 
d="M46 264v31h785v-31h-785z" />
    <glyph glyph-name="emdash.ss01.ss02" horiz-adv-x="1444" 
d="M46 264v31h1352v-31h-1352z" />
    <glyph glyph-name="underscore.ss01" horiz-adv-x="509" 
d="M-1 -120v31h511v-31h-511z" />
    <glyph glyph-name="slash.ss01" horiz-adv-x="365" 
d="M0 -141l302 900h33l-299 -900h-36z" />
    <glyph glyph-name="bar.ss01" horiz-adv-x="214" 
d="M90 759h34v-900h-34v900z" />
    <glyph glyph-name="backslash.ss01" horiz-adv-x="365" 
d="M329 -141l-299 900h33l302 -900h-36z" />
    <glyph glyph-name="degree.ss01" horiz-adv-x="461" 
d="M40 523q0 43 14.5 79t40 62.5t60.5 41.5t75 15t75 -15t61 -41.5t40.5 -62.5t14.5 -79q0 -42 -14.5 -78.5t-40.5 -62.5t-61 -41t-75 -15t-75 15t-60.5 41t-40 62.5t-14.5 78.5zM74 523q0 -35 11.5 -65.5t32.5 -53t49.5 -35t62.5 -12.5t63 12.5t50 35t32.5 53t11.5 65.5
q0 36 -11.5 66.5t-32.5 53t-50 35t-63 12.5t-62.5 -12.5t-49.5 -35t-32.5 -53t-11.5 -66.5z" />
    <glyph glyph-name="guillemotleft.ss01" horiz-adv-x="484" 
d="M91 277l172 -180h-42l-166 169v39l166 171h42l-172 -181v-18zM257 277l172 -180h-42l-166 169v39l166 171h42l-172 -181v-18z" />
    <glyph glyph-name="guillemotright.ss01" horiz-adv-x="485" 
d="M394 295l-173 181h42l167 -170v-39l-165 -170h-42l171 180v18zM228 295l-173 181h42l167 -170v-39l-165 -170h-42l171 180v18z" />
    <glyph glyph-name="guilsinglleft.ss01" horiz-adv-x="318" 
d="M91 277l172 -180h-42l-166 169v39l166 171h42l-172 -181v-18z" />
    <glyph glyph-name="guilsinglright.ss01" horiz-adv-x="318" 
d="M227 295l-172 181h42l166 -171v-39l-166 -169h-42l172 180v18z" />
    <glyph glyph-name="quoteleft.ss01" horiz-adv-x="234" 
d="M139 610v-102h-64v119l48 87h31l-48 -87v-17h33z" />
    <glyph glyph-name="quoteright.ss01" horiz-adv-x="234" 
d="M90 612v102h64v-119l-48 -87h-31l48 87v17h-33z" />
    <glyph glyph-name="quotesinglbase.ss01" horiz-adv-x="234" 
d="M90 0v102h64v-119l-48 -87h-31l48 87v17h-33z" />
    <glyph glyph-name="quotedblleft.ss01" horiz-adv-x="371" 
d="M276 610v-102h-64v119l48 87h31l-48 -87v-17h33zM139 610v-102h-64v119l48 87h31l-48 -87v-17h33z" />
    <glyph glyph-name="quotedblright.ss01" horiz-adv-x="371" 
d="M90 612v102h64v-119l-48 -87h-31l48 87v17h-33zM227 612v102h64v-119l-48 -87h-31l48 87v17h-33z" />
    <glyph glyph-name="quotedblbase.ss01" horiz-adv-x="371" 
d="M90 0v102h64v-119l-48 -87h-31l48 87v17h-33zM227 0v102h64v-119l-48 -87h-31l48 87v17h-33z" />
    <glyph glyph-name="arrowleft.ss01" horiz-adv-x="814" 
d="M345 509l-218 -219v-20h631v-31h-631v-21l218 -218h-46l-255 254l255 255h46z" />
    <glyph glyph-name="arrowup.ss01" horiz-adv-x="675" 
d="M592 413l-218 220h-19v-633h-34v633h-19l-219 -221v46l255 256l254 -255v-46z" />
    <glyph glyph-name="arrowright.ss01" horiz-adv-x="814" 
d="M515 509l255 -255l-255 -254h-46l218 218v21h-631v31h631v20l-218 219h46z" />
    <glyph glyph-name="arrowdown.ss01" horiz-adv-x="675" 
d="M592 255l-254 -255l-255 256v46l219 -221h19v633h34v-633h19l218 220v-46z" />
    <glyph glyph-name="uni2196.ss01" horiz-adv-x="682" 
d="M476 682h-309l-13 -14l445 -447l-23 -23l-447 446l-13 -14v-310l-33 33v361h361z" />
    <glyph glyph-name="uni2197.ss01" horiz-adv-x="682" 
d="M238 714h361v-361l-33 -33v310l-13 14l-447 -446l-23 23l445 447l-13 14h-309z" />
    <glyph glyph-name="uni2198.ss01" horiz-adv-x="682" 
d="M444 0h-361v361l33 33v-310l13 -14l447 446l23 -23l-445 -447l13 -14h309z" />
    <glyph glyph-name="uni2199.ss01" horiz-adv-x="682" 
d="M206 32h309l13 14l-445 447l23 23l447 -446l13 14v310l33 -33v-361h-361z" />
    <glyph glyph-name="parenleft.ss01.case" horiz-adv-x="238" 
d="M232 807q-81 -103 -114.5 -215.5t-33.5 -234.5t33.5 -234.5t114.5 -215.5h-43q-76 103 -107.5 215.5t-31.5 234.5q0 123 32 235t108 215h42v0z" />
    <glyph glyph-name="parenright.ss01.case" horiz-adv-x="238" 
d="M6 807h42q76 -103 108 -215t32 -235q0 -122 -31.5 -234.5t-107.5 -215.5h-43q81 103 114.5 215.5t33.5 234.5t-33.5 234.5t-114.5 215.5z" />
    <glyph glyph-name="bracketleft.ss01.case" horiz-adv-x="258" 
d="M80 -93v900h118v-31h-84v-838h84v-31h-118z" />
    <glyph glyph-name="bracketright.ss01.case" horiz-adv-x="258" 
d="M60 -93v31h84v838h-84v31h118v-900h-118z" />
    <glyph glyph-name="braceleft.ss01.case" horiz-adv-x="337" 
d="M137 348q17 -7 26.5 -26.5t9.5 -64.5v-215q0 -54 21 -79t73 -25h30v-31h-30q-60 0 -94 30t-34 106v204q0 46 -7.5 70.5t-38.5 24.5h-13v30h13q31 0 38.5 24.5t7.5 70.5v204q0 76 34 106t94 30h30v-31h-30q-52 0 -73 -25t-21 -79v-215q0 -45 -9.5 -64.5t-26.5 -26.5v-18z
" />
    <glyph glyph-name="braceright.ss01.case" horiz-adv-x="337" 
d="M200 366q-17 7 -26.5 26.5t-9.5 64.5v215q0 54 -21 79t-73 25h-30v31h30q60 0 94 -30t34 -106v-204q0 -46 7.5 -70.5t38.5 -24.5h13v-30h-13q-31 0 -38.5 -24.5t-7.5 -70.5v-204q0 -76 -34 -106t-94 -30h-30v31h30q52 0 73 25t21 79v215q0 45 9.5 64.5t26.5 26.5v18z" />
    <glyph glyph-name="guillemotleft.ss01.case" horiz-adv-x="484" 
d="M91 343l172 -180h-42l-166 169v39l166 171h42l-172 -181v-18zM257 343l172 -180h-42l-166 169v39l166 171h42l-172 -181v-18z" />
    <glyph glyph-name="guillemotright.ss01.case" horiz-adv-x="485" 
d="M394 361l-173 181h42l167 -170v-39l-165 -170h-42l171 180v18zM228 361l-173 181h42l167 -170v-39l-165 -170h-42l171 180v18z" />
    <glyph glyph-name="guilsinglleft.ss01.case" horiz-adv-x="318" 
d="M91 343l172 -180h-42l-166 169v39l166 171h42l-172 -181v-18z" />
    <glyph glyph-name="guilsinglright.ss01.case" horiz-adv-x="318" 
d="M227 361l-172 181h42l166 -171v-39l-166 -169h-42l172 180v18z" />
    <glyph glyph-name="hyphen.ss01.case" horiz-adv-x="384" 
d="M48 349v31h288v-31h-288z" />
    <glyph glyph-name="endash.ss01.case" horiz-adv-x="619" 
d="M46 349v31h526v-31h-526z" />
    <glyph glyph-name="emdash.ss01.case" horiz-adv-x="878" 
d="M46 349v31h785v-31h-785z" />
    <glyph glyph-name="emdash.ss01.ss02.case" horiz-adv-x="1445" 
d="M46 349v31h1352v-31h-1352z" />
    <glyph glyph-name="tbar.ss04" horiz-adv-x="393" 
d="M118 0v237h-93v92h93v88h-93v92h93v148h113v-148h134v-92h-134v-88h134v-92h-134v-237h-113z" />
    <glyph glyph-name="at.case" horiz-adv-x="976" 
d="M700 -9q-57 -36 -122.5 -56t-143.5 -20q-89 0 -160 28t-120.5 78t-76 120.5t-26.5 156.5q0 107 36 199t101.5 159t156 105t198.5 38q78 0 147.5 -24t122 -69t83 -110t30.5 -147q0 -62 -16 -118t-46 -98.5t-74 -67.5t-101 -25q-46 0 -71 15.5t-37 43.5h-18
q-18 -21 -49 -40t-80 -19q-75 0 -118 45t-43 130q0 49 15.5 95.5t43.5 81.5t67.5 56.5t88.5 21.5q40 0 67.5 -15.5t37.5 -32.5h18l8 34h92l-44 -254q-2 -10 -3.5 -24t-1.5 -25q0 -27 11 -39t37 -12q25 0 51.5 15t48.5 44.5t36 74.5t14 105q0 66 -21 121t-62.5 94t-103 61
t-141.5 22q-84 0 -159.5 -31t-132.5 -87.5t-90 -135.5t-33 -175q0 -66 17.5 -127t56 -107t100 -73.5t150.5 -27.5q65 0 123 18t109 51zM458 218q27 0 49.5 13t39 35.5t25.5 53.5t9 67q0 33 -7.5 54t-20 32t-27.5 15t-30 4q-28 0 -50.5 -14.5t-38 -38t-24 -53.5t-8.5 -62
q0 -50 20.5 -78t62.5 -28z" />
    <glyph glyph-name="W.ss10" horiz-adv-x="902" 
d="M528 495l113 -355h20l71 574h115l-90 -714h-180l-116 381h-20l-117 -381h-180l-89 714h117l70 -574h20l112 355h154z" />
    <glyph glyph-name="w.ss10" horiz-adv-x="723" 
d="M426 366l75 -233h20l53 376h108l-74 -509h-152l-84 256h-20l-85 -256h-153l-73 509h109l54 -376h20l76 233h126z" />
    <glyph glyph-name="y.ss08" horiz-adv-x="546" 
d="M227 23l-210 486h115l138 -317h25l126 317h112l-222 -553q-18 -44 -34.5 -74t-36.5 -48t-47 -26t-66 -8h-52v98h47q19 0 31.5 4.5t22 14t17 24.5t16.5 37z" />
    <glyph glyph-name="uni0443.ss08" horiz-adv-x="546" 
d="M227 23l-210 486h115l138 -317h25l126 317h112l-222 -553q-18 -44 -34.5 -74t-36.5 -48t-47 -26t-66 -8h-52v98h47q19 0 31.5 4.5t22 14t17 24.5t16.5 37z" />
    <glyph glyph-name="tt" horiz-adv-x="789" 
d="M733 509v-96h-134v-255q0 -30 16 -45t58 -15h60v-98h-71q-42 0 -74.5 5.5t-55 20.5t-34.5 42t-12 71v274h-255v-255q0 -30 16 -45t58 -15h60v-98h-71q-42 0 -74.5 5.5t-55 20.5t-34.5 42t-12 71v274h-93v96h93v148h113v-148h255v148h113v-148h134z" />
    </font>
</defs>
</svg>
