<?xml version="1.0" standalone="no"?>
<!DOCTYPE svg PUBLIC "-//W3C//DTD SVG 20010904//EN"
 "http://www.w3.org/TR/2001/REC-SVG-20010904/DTD/svg10.dtd">
<svg version="1.0" xmlns="http://www.w3.org/2000/svg"
 width="480.000000pt" height="480.000000pt" viewBox="0 0 480.000000 480.000000"
 preserveAspectRatio="xMidYMid meet">
<metadata>
Created by potrace 1.11, written by Peter Selinger 2001-2013
</metadata>
<g transform="translate(0.000000,480.000000) scale(0.100000,-0.100000)"
fill="#000000" stroke="none">
<path d="M2704 4644 l-155 -156 23 -25 c56 -60 279 -278 287 -281 5 -2 77 66
160 149 129 130 149 154 139 168 -7 8 -77 80 -156 158 l-142 143 -156 -156z"/>
<path d="M1473 4627 c-73 -73 -133 -136 -133 -141 0 -4 61 -69 136 -144 l136
-135 139 139 139 139 -138 138 c-75 75 -139 137 -142 137 -3 0 -65 -60 -137
-133z"/>
<path d="M362 4588 l-102 -103 105 -104 106 -104 104 105 104 104 -102 102
c-56 56 -105 102 -107 102 -3 0 -51 -46 -108 -102z"/>
<path d="M4016 3280 l-170 -170 35 -36 c26 -27 301 -301 312 -311 2 -1 80 76
175 171 l172 173 -170 172 c-94 94 -174 171 -178 171 -4 0 -83 -77 -176 -170z"/>
<path d="M2696 3259 l-149 -151 156 -156 157 -157 157 157 156 156 -151 151
c-83 83 -156 151 -164 150 -7 0 -80 -68 -162 -150z"/>
<path d="M1472 3247 c-72 -73 -132 -136 -132 -140 0 -4 61 -68 136 -143 l136
-135 67 68 c37 37 100 100 139 139 l71 71 -136 137 c-74 75 -138 136 -142 136
-3 0 -66 -60 -139 -133z"/>
<path d="M363 3209 l-102 -100 104 -106 105 -106 100 101 c55 56 100 105 100
109 0 9 -190 203 -199 203 -4 0 -52 -45 -108 -101z"/>
<path d="M4019 1864 c-90 -91 -166 -167 -169 -170 -5 -5 331 -344 342 -344 4
0 84 77 178 171 l171 170 -169 170 c-93 93 -173 169 -179 169 -5 0 -84 -74
-174 -166z"/>
<path d="M2701 1846 l-154 -155 156 -156 157 -157 157 157 157 156 -154 154
c-85 85 -157 155 -160 155 -3 0 -75 -69 -159 -154z"/>
<path d="M1469 1830 l-136 -139 133 -133 c74 -73 138 -134 143 -136 5 -2 70
59 144 134 l136 136 -140 139 c-77 76 -140 139 -142 138 -1 0 -63 -63 -138
-139z"/>
<path d="M367 1796 l-105 -104 100 -101 c55 -56 104 -101 108 -101 4 0 53 45
108 101 l101 101 -52 52 c-29 28 -75 75 -104 104 l-51 53 -105 -105z"/>
<path d="M2704 470 c-82 -83 -151 -153 -152 -155 -2 -2 66 -74 152 -159 l156
-156 156 156 156 156 -153 154 c-85 85 -156 154 -160 154 -3 0 -73 -68 -155
-150z"/>
<path d="M1469 450 l-137 -138 139 -138 c76 -76 140 -136 143 -134 94 89 266
265 266 273 0 9 -265 278 -272 276 -2 0 -64 -63 -139 -139z"/>
<path d="M366 418 l-105 -104 104 -105 104 -105 102 102 c56 55 102 104 101
108 -1 4 -46 52 -101 108 l-100 100 -105 -104z"/>
</g>
</svg>
