<svg xmlns="http://www.w3.org/2000/svg"><defs><font id="DermaticaFormular-Light" horiz-adv-x="860"><font-face font-family="Dermatica Formular" font-weight="300" panose-1="2 0 0 0 0 0 0 0 0 0" ascent="778" descent="-222" x-height="500" cap-height="714" bbox="-134 -215 1395 966" underline-thickness="50" underline-position="-150" unicode-range="U+000D-FB02"/><glyph glyph-name="fi" unicode="fi" horiz-adv-x="619" d="M531 0h-63v444H195V0h-63v444H28v56h104v74q0 78 38.5 115.5T287 727h61v-56h-59q-51 0-72.5-24T195 570v-70h336V0zm-31 748l62-62-62-62-62 62z"/><glyph glyph-name="fl" unicode="fl" horiz-adv-x="613" d="M528 0h-63v444H195V0h-63v444H28v56h104v74q0 78 38.5 115.5T287 727h61v-56h-59q-51 0-72.5-24T195 570v-70h270v227h63V0z"/><glyph glyph-name=".notdef" horiz-adv-x="532" d="M60 714h412V0H60v714zM406 60v594H126V60h280z"/><glyph glyph-name=".null" horiz-adv-x="0"/><glyph glyph-name="nonmarkingreturn" horiz-adv-x="278"/><glyph glyph-name="NULL" horiz-adv-x="0"/><glyph glyph-name="NULL" horiz-adv-x="0"/><glyph glyph-name="space" horiz-adv-x="278"/><glyph glyph-name="exclam" unicode="!" horiz-adv-x="302" d="M184 714V417l-13-239h-41l-12 239v297h66zm-33-595l67-67-67-67-67 67z"/><glyph glyph-name="quotedbl" unicode="&quot;" horiz-adv-x="366" d="M80 714h63V473H80v241zm143 0h63V473h-63v241z"/><glyph glyph-name="numbersign" unicode="#" horiz-adv-x="581" d="M336 200H191L156 0H99l35 200H35v52h109l34 196H78v52h109l36 200h56l-36-200h146l36 200h56l-36-200h101v-52H436l-34-196h101v-52H393L358 0h-57zm-136 52h146l34 196H234z"/><glyph glyph-name="dollar" unicode="$" horiz-adv-x="635" d="M389 383q87-17 134.5-65.5T571 188q0-38-15.5-73t-45-62.5T439 8t-95-20v-86h-51v87Q193-3 133.5 50T61 188h65q13-65 58.5-99.5T293 47v294l-39 8q-78 17-122.5 61T87 525q0 35 14 68t41 58.5 65 42 86 19.5v85h51v-86q89-9 142-59t64-122h-64q-11 51-45.5 83T344 654V393zm-45-53V45q34 2 64 13.5T459.5 89t34 44 12.5 55q0 59-35 91.5T374 324zM152 525q0-46 26-73.5t90-41.5l25-6v251q-62-5-101.5-40T152 525z"/><glyph glyph-name="percent" unicode="%" horiz-adv-x="872" d="M192 0l424 700h64L257 0h-65zm17 714q39 0 69-15t50-41 30-60 10-73-10-73-30-60-50-41-69-15q-40 0-69.5 15T90 392t-30 60-10 73 10 73 30 60 49.5 41 69.5 15zm0-327q25 0 44 10.5t32 29 19 44 6 54.5-6 54.5-19 44-32 29-44 10.5q-26 0-44.5-10.5t-31.5-29-19-44-6-54.5 6-54.5 19-44 31.5-29T209 387zm454-22q39 0 69-15t50-41 30-60 10-73-10-73-30-60-50-41-69-15q-40 0-69.5 15T544 43t-30 60-10 73 10 73 30 60 49.5 41 69.5 15zm0-327q25 0 44 10.5t32 29 19 44 6 54.5-6 54.5-19 44-32 29-44 10.5q-26 0-44.5-10.5t-31.5-29-19-44-6-54.5 6-54.5 19-44 31.5-29T663 38z"/><glyph glyph-name="ampersand" unicode="&amp;" horiz-adv-x="697" d="M607 321q-6-54-24-102t-46-89L662 0h-84l-70 73h-19q-42-41-94-63.5T286-13q-48 0-89 12.5T125.5 37t-48 61T60 182q0 63 30.5 108.5T163 364l31 20v20l-21 23q-31 32-46 63.5T112 564q0 32 11.5 59.5T156 671t51 31.5 66 11.5 67-10.5 54-30 36-46.5 13-61q0-47-27-83.5T341 412l-44-31 198-206q19 32 30.5 69.5T542 321h65zM282 45q54 0 99 21.5t78 58.5L246 349l-41-26q-39-26-61-61t-22-80q0-33 13-58.5t35-43T221 54t61-9zm-23 376l47 33q35 25 53.5 51.5T378 565q0 21-8.5 38t-23 28.5-33 18T274 656q-45 0-71-23.5T177 564q0-34 15.5-60.5T228 454z"/><glyph glyph-name="quotesingle" unicode="'" horiz-adv-x="223" d="M80 714h63V473H80v241z"/><glyph glyph-name="parenleft" unicode="(" horiz-adv-x="271" d="M113 314q0-75 12.5-140t34-121T210-51t62-90h-64q-34 40-63 89T94.5 53.5 60.5 175 48 314q0 71 11.5 134.5t32 119 48 103.5 59.5 88h64q-32-41-59-88.5t-47.5-102-32-118T113 314z"/><glyph glyph-name="parenright" unicode=")" horiz-adv-x="271" d="M158 314q0 73-11.5 136.5t-32 118-47.5 102T8 759h64q32-40 59.5-88t48-103.5 32-119T223 314q0-74-12.5-139t-34-121.5T126-52t-63-89H-1q33 42 62 90t50.5 104 34 121T158 314z"/><glyph glyph-name="asterisk" unicode="*" horiz-adv-x="467" d="M261 714l-5-173 164 59 17-54-165-50 105-136-45-34-99 142-98-142-45 34 105 137-165 49 17 54 163-59-4 173h55z"/><glyph glyph-name="plus" unicode="+" horiz-adv-x="684" d="M315 534h54V309h225v-54H369V30h-54v225H90v54h225v225z"/><glyph glyph-name="comma" unicode="," horiz-adv-x="244" d="M65-104H18l56 206h108z"/><glyph glyph-name="hyphen" unicode="-" horiz-adv-x="360" d="M50 247v57h260v-57H50z"/><glyph glyph-name="period" unicode="." horiz-adv-x="244" d="M122 119l67-67-67-67-67 67z"/><glyph glyph-name="slash" unicode="/" horiz-adv-x="393" d="M0-141l302 900h61L64-141H0z"/><glyph glyph-name="zero" unicode="0" horiz-adv-x="616" d="M308 714q54 0 100-21.5t79.5-66.5T540 512.5 559 350t-19-162.5-52.5-113-79.5-66T308-13 208 8.5t-79.5 66-52.5 113T57 350t19 162.5T128.5 626t79.5 66.5T308 714zm0-669q91 0 138.5 78T494 350t-47.5 227.5T308 656t-138.5-78.5T122 350t47.5-227T308 45z"/><glyph glyph-name="one" unicode="1" horiz-adv-x="493" d="M61 58h170v572h-19L60 528v70l152 102h84V58h157V0H61v58z"/><glyph glyph-name="two" unicode="2" horiz-adv-x="567" d="M52 514q4 52 23.5 89.5t50 62T195 702t82 12q49 0 89.5-14t69.5-40.5 45-65 16-88.5q0-45-14.5-82.5t-40-71-59.5-66-74-67.5L145 79V58h372V0H55v79l208 179q45 38 77 69t52.5 60 30 58 9.5 62q0 72-42 110.5T276 656q-65 0-108-35t-51-107H52z"/><glyph glyph-name="three" unicode="3" horiz-adv-x="555" d="M474 700v-78L283 452v-20q48 0 88.5-14.5t70.5-42 46.5-68T505 215q0-54-18-96.5t-50-72T361 2t-95-15-93.5 15.5-73 42.5T51 109t-21 80h65q3-33 17-59.5t37-45 53-29T266 45q38 0 70 11.5T391 90t36 53.5 13 71.5q0 75-44.5 118.5T267 377q-16 0-32-1.5t-27-4.5v82l187 169v20H81v58h393z"/><glyph glyph-name="four" unicode="4" horiz-adv-x="603" d="M556 229v-58H456V0h-65v171H40v78l311 451h105V229h100zm-165 0v404h-20L111 249v-20h280z"/><glyph glyph-name="five" unicode="5" horiz-adv-x="583" d="M302 469q55 0 97.5-19t71-51 43-74.5T528 235q0-57-16.5-102.5t-47.5-78-74-50T295-13q-56 0-98.5 15.5t-72 42.5T79 109t-19 80h65q8-72 53-108t114-36q38 0 69.5 12.5t54 36.5 35 58.5T463 231q0 38-11.5 71t-33 57-52.5 38-70 14q-103 0-151-72H76l31 361h387v-58H161l-18-225h20q26 24 58.5 38t80.5 14z"/><glyph glyph-name="six" unicode="6" horiz-adv-x="581" d="M313 452q48 0 89-17t70.5-47 46.5-71.5 17-91.5-15.5-93.5-45-75.5T403 5.5 306-13q-55 0-100.5 18T127 63.5 75.5 169 57 328q0 80 15.5 150T120 600.5t81 83T317 714q43 0 77-12t59-33.5 41-50.5 23-63h-65q-15 49-47 75t-87 26q-47 0-82.5-20T175 579.5 136.5 492 121 380h20q10 12 26 24.5t37.5 23T253 445t60 7zm-8-407q36 0 66 11.5t52.5 34 35 55T471 221t-13 75-35.5 54-53 33-66.5 11q-35 0-65.5-11.5t-53-33.5-35.5-54-13-73q0-42 13-75t36-55.5T239 57t66-12z"/><glyph glyph-name="seven" unicode="7" horiz-adv-x="538" d="M171 0h-69l313 622v20H50v58h433v-78z"/><glyph glyph-name="eight" unicode="8" horiz-adv-x="602" d="M140 525q0-32 13-56.5t35-41 51-25 62-8.5 62 8.5 51 25 35 41 13 56.5-13 56.5-35 41-51 25-62 8.5-62-8.5-51-25-35-41-13-56.5zM301 45q39 0 72 10t57.5 28.5T469 129t14 60q0 34-13.5 61T432 296t-57.5 29.5T301 336t-73.5-10.5T170 296t-37.5-46-13.5-61q0-33 14-60t38.5-45.5T229 55t72-10zm247 141q0-44-18-80.5t-51-63-78.5-41T301-13 201.5 1.5t-78.5 41-51 63T54 186q0 37 11.5 65.5T95 301t39.5 34.5T175 357v20q-15 8-32.5 21T110 429t-25 42.5T75 526q0 42 17 77t47 59.5 71.5 38T301 714t90.5-13.5 72-38T511 603t17-77q0-30-10-54.5T492.5 429t-33-31-32.5-21v-20q19-8 40.5-21.5T507 301t29.5-49.5T548 186z"/><glyph glyph-name="nine" unicode="9" horiz-adv-x="581" d="M268 249q-48 0-89 17t-70.5 47T62 384.5 45 476t15.5 93.5 45 75.5 72.5 50.5 97 18.5q55 0 100.5-18t78.5-58.5T505.5 532 524 373q0-80-15.5-150T461 100.5t-81-83T264-13q-43 0-77 12t-59 33.5T87 83t-23 63h65q15-49 47-75t87-26q47 0 82.5 20t60.5 56.5 38.5 87.5T460 321h-20q-10-12-26-24.5t-37.5-23T328 256t-60-7zm8 407q-36 0-66-11.5t-52.5-34-35-55T110 480t13-75 35.5-54 53-33 66.5-11q35 0 65.5 11.5t53 33.5 35.5 54 13 73q0 42-13 75t-36 55.5-54 34.5-66 12z"/><glyph glyph-name="colon" unicode=":" horiz-adv-x="244" d="M122 119l67-67-67-67-67 67zm0 398l67-67-67-67-67 67z"/><glyph glyph-name="semicolon" unicode=";" horiz-adv-x="244" d="M65-104H18l56 206h108zm57 621l67-67-67-67-67 67z"/><glyph glyph-name="less" unicode="&lt;" horiz-adv-x="684" d="M594 34L90 253v57l504 219v-57L177 291v-20L594 91V34z"/><glyph glyph-name="equal" unicode="=" horiz-adv-x="684" d="M594 157H90v54h504v-54zm0 196H90v54h504v-54z"/><glyph glyph-name="greater" unicode="&gt;" horiz-adv-x="684" d="M90 91l417 180v20L90 472v57l504-219v-57L90 34v57z"/><glyph glyph-name="question" unicode="?" horiz-adv-x="534" d="M262 727q43 0 80-13t64.5-37 43-58.5T465 540q0-39-9-67.5t-26-51-41-43.5-54-45q-15-12-26-22t-18-22.5-10.5-30T277 214v-36h-63v36q0 34 5.5 57.5T236 313t27 33 37 33q23 19 41.5 35t32 33.5 21 39.5 7.5 53q0 25-9 49.5t-27 43-44 30-60 11.5q-68 0-106-34t-43-111H50q5 97 62.5 147.5T262 727zm-16-608l67-67-67-67-67 67z"/><glyph glyph-name="at" unicode="@" horiz-adv-x="978" d="M700-115q-57-36-122-55.5T437-190q-89 0-159.5 28t-120 78.5T82 37 56 192q0 106 36 198t100.5 159.5 154.5 106T546 694q76 0 144-22t119.5-65.5 82-107T922 354q0-58-15.5-114.5T861 138t-73.5-72.5T689 38q-38 0-60.5 14.5T595 95h-18q-9-9-21-19t-28-18.5-36-14-45-5.5q-75 0-117.5 48.5T287 219q0 49 15 94t43 78.5 67.5 53.5 89.5 20q42 0 71.5-17t39.5-34h18l8 37h56l-44-254q-2-11-3-21-2-8-2.5-17t-.5-15q0-52 51-52 30 0 59.5 18t53 51 37.5 79.5T860 345q0 66-21.5 120.5t-63 92.5-102 59T535 638q-86 0-161.5-31.5T241 518t-90-137.5T118 202q0-66 18-127t57-107.5T293.5-107 443-135q65 0 122.5 18.5T674-66zM454 92q33 0 60 14.5t46.5 40.5 30.5 62 11 79q0 40-10 64t-25 37-34 17.5-37 4.5q-34 0-61-17t-46-44-29-61.5-10-69.5q0-25 5.5-48t17.5-40.5 32-28T454 92z"/><glyph glyph-name="A" unicode="A" horiz-adv-x="673" d="M498 231H172L90 0H21l259 714h112L652 0h-71zm-304 60h283L351 644h-31z"/><glyph glyph-name="B" unicode="B" horiz-adv-x="692" d="M539 369q49-23 76.5-68.5T643 199q0-42-15-78.5t-45-63-75-42T403 0H94v714h302q56 0 98-14t70.5-38.5 42.5-57 14-68.5q0-48-20-86t-62-61v-20zm-379 35h239q33 0 61.5 6t49.5 20.5 33 39 12 62.5q0 33-13.5 56.5t-35.5 38-50 21-58 6.5H160V404zM403 60q34 0 65.5 7T524 91t38.5 45 14.5 69q0 39-14 65.5t-37.5 43-55 23.5-66.5 7H160V60h243z"/><glyph glyph-name="C" unicode="C" horiz-adv-x="710" d="M659 193q-11-45-34.5-83t-58-65.5T486 2 383-13q-79 0-139.5 28.5t-102 78-63 117.5T57 357t21.5 146 63 117.5 102.5 78T384 727q104 0 174.5-51T651 535h-70q-23 63-69 97.5T384 667q-68 0-117.5-26T185 571.5t-47-99T123 357t15-116 46.5-99 81-69T383 47q82 0 133.5 40T588 193h71z"/><glyph glyph-name="D" unicode="D" horiz-adv-x="735" d="M349 714q82 0 143.5-25.5t103-72.5 62-112.5T678 357q0-80-20.5-146t-62-113-103-72.5T349 0H94v714h255zm7-654q70 0 118.5 24t79 64.5T598 243t14 114-14 114-44.5 94.5-79 64.5T356 654H160V60h196z"/><glyph glyph-name="E" unicode="E" horiz-adv-x="646" d="M596 60V0H94v714h485v-60H160V402h341v-60H160V60h436z"/><glyph glyph-name="F" unicode="F" horiz-adv-x="628" d="M160 654V392h345v-60H160V0H94v714h488v-60H160z"/><glyph glyph-name="G" unicode="G" horiz-adv-x="737" d="M367 370h310v-65q0-62-16-119T610 84.5t-91-71T383-13 242 16 140 95.5 78 213 57 357q0 78 21.5 145.5t63 117.5T244 698.5 385 727q107 0 177.5-51T654 535h-69q-19 60-66.5 96T385 667q-69 0-118.5-26T185 572t-47-99-15-116q0-59 14.5-115t46-99.5 81-69.5T383 47q58 0 100.5 18.5T554 116t41.5 75.5T609 285v25H367v60z"/><glyph glyph-name="H" unicode="H" horiz-adv-x="753" d="M659 714V0h-66v338H160V0H94v714h66V400h433v314h66z"/><glyph glyph-name="I" unicode="I" horiz-adv-x="268" d="M167 714V0h-66v714h66z"/><glyph glyph-name="J" unicode="J" horiz-adv-x="574" d="M60 714h422V241q0-114-59-177.5T258 0H60v62h210q64 0 105 44.5T416 243v411H60v60z"/><glyph glyph-name="K" unicode="K" horiz-adv-x="659" d="M94 714h66V399h216l164 315h74L434 367 623 0h-73L375 339H160V0H94v714z"/><glyph glyph-name="L" unicode="L" horiz-adv-x="611" d="M571 62V0H94v714h66V62h411z"/><glyph glyph-name="M" unicode="M" horiz-adv-x="849" d="M94 714h116l207-370h19l202 370h117V0h-66v644h-20L460 269h-70L180 644h-20V0H94v714z"/><glyph glyph-name="N" unicode="N" horiz-adv-x="757" d="M663 714V0H543L180 644h-20V0H94v714h120L577 70h20v644h66z"/><glyph glyph-name="O" unicode="O" horiz-adv-x="768" d="M384 727q80 0 141-29t102.5-79.5 62.5-118T711 357q0-77-21-144T627.5 95.5 525 16 384-13 242.5 16 140 95.5 78 213 57 357q0 76 21 143.5t62 118T242.5 698 384 727zm0-680q69 0 118.5 26.5t81 70 46.5 99T645 357t-15 114.5-46.5 99-81 70T384 667t-118.5-26.5-81-70-46.5-99T123 357t15-114.5 46.5-99 81-70T384 47z"/><glyph glyph-name="P" unicode="P" horiz-adv-x="676" d="M387 714q114 0 174.5-55.5T622 506t-60.5-152.5T387 298H160V0H94v714h293zm-11-356q50 0 84.5 10.5t55.5 30 30.5 46.5 9.5 61-9.5 61-30.5 46.5-55.5 30T376 654H160V358h216z"/><glyph glyph-name="Q" unicode="Q" horiz-adv-x="768" d="M384 727q80 0 141-29t102.5-79.5 62.5-118T711 357q0-78-21.5-146T625 92L725-63h-74L579 49q-38-29-86.5-45.5T384-13q-80 0-141.5 29T140 95.5 78 213 57 357q0 76 21 143.5t62 118T242.5 698 384 727zm0-680q51 0 91.5 14.5T546 102L415 309h70l103-160q29 43 43 97t14 111q0 59-15 114.5t-46.5 99-81 70T384 667t-118.5-26.5-81-70-46.5-99T123 357t15-114.5 46.5-99 81-70T384 47z"/><glyph glyph-name="R" unicode="R" horiz-adv-x="702" d="M631 512q0-127-101-176 40-18 55.5-47.5T601 216V0h-66v209q0 53-33 77t-96 24H160V0H94v714h308q111 0 170-53.5T631 512zm-66 0q0 33-9 59t-29.5 44.5T473 644t-81 10H160V370h232q48 0 81 10t53.5 28.5T556 453t9 59z"/><glyph glyph-name="S" unicode="S" horiz-adv-x="649" d="M410 388q39-8 72.5-22t58-37.5 38-56.5 13.5-79q0-38-16-75t-49-66-83-47-117-18q-61 0-110 15.5T132 45t-57.5 64.5T48 191h68q10-40 30-67.5T194 79t63-24.5 75-7.5 75 9.5 61.5 28 42 45.5 15.5 62q0 32-10.5 54.5t-29 38.5-43.5 25.5-55 15.5l-126 24q-41 8-74.5 21.5T130 407t-37 52.5T80 532q0 40 15.5 75.5t46.5 62 75.5 42T321 727q55 0 99-13.5t76-38 52-59 26-75.5h-66q-14 60-58 93t-132 33q-35 0-66-9t-54.5-26-37.5-41.5-14-56.5q0-30 12-50.5t30.5-35 42.5-23 48-12.5z"/><glyph glyph-name="T" unicode="T" horiz-adv-x="585" d="M566 656H326V0h-66v656H19v58h547v-58z"/><glyph glyph-name="U" unicode="U" horiz-adv-x="732" d="M640 714V252q0-124-70.5-194.5T366-13 162.5 57.5 92 252v462h66V251q0-46 13.5-83.5T211 103t65-41.5T366 47t90 14.5 65 41.5 39.5 64.5T574 251v463h66z"/><glyph glyph-name="V" unicode="V" horiz-adv-x="657" d="M21 714h71L309 70h41l217 644h69L395 0H262z"/><glyph glyph-name="W" unicode="W" horiz-adv-x="894" d="M390 714h115L664 70h20l131 644h68L736 0H615L456 644h-20L276 0H158L11 714h68L210 70h20z"/><glyph glyph-name="X" unicode="X" horiz-adv-x="630" d="M502 714h72L384 377 606 0h-74L334 337h-39L97 0H24l222 377L56 714h73l167-295h39z"/><glyph glyph-name="Y" unicode="Y" horiz-adv-x="628" d="M329 373l203 341h75L347 279V0h-66v279L21 714h76l204-341h28z"/><glyph glyph-name="Z" unicode="Z" horiz-adv-x="636" d="M572 634L128 80V60h458V0H50v81l444 553v20H76v60h496v-80z"/><glyph glyph-name="bracketleft" unicode="[" horiz-adv-x="301" d="M80-141v900h161v-54h-98V-87h98v-54H80z"/><glyph glyph-name="backslash" unicode="\" horiz-adv-x="393" d="M329-141L30 759h61l302-900h-64z"/><glyph glyph-name="bracketright" unicode="]" horiz-adv-x="301" d="M60-141v54h98v792H60v54h161v-900H60z"/><glyph glyph-name="asciicircum" unicode="^" horiz-adv-x="530" d="M44 302l195 389h52l195-389h-58L273 614h-16L102 302H44z"/><glyph glyph-name="underscore" unicode="_" horiz-adv-x="502" d="M-1-125v54h504v-54H-1z"/><glyph glyph-name="grave" unicode="`" horiz-adv-x="241" d="M40 727h78l83-145h-56z"/><glyph glyph-name="a" unicode="a" horiz-adv-x="604" d="M276 513q62 0 101.5-21t60.5-48h20v56h61V0h-61v56h-20q-21-26-60.5-47.5T276-13q-53 0-94 20.5T112 63t-44 83-15 104 15 104 44 83.5 70 55.5 94 20zm8-470q46 0 78.5 17.5T416 107t30.5 66.5T456 250q0 40-9.5 77T416 393t-53.5 46.5T284 457q-41 0-72.5-15T159 399.5 127 334t-11-84 11-84 32-65.5T211.5 58 284 43z"/><glyph glyph-name="b" unicode="b" horiz-adv-x="604" d="M328 513q52 0 93.5-20t70.5-55.5 44-83.5 15-104-15-104-44-83-70.5-55.5T328-13q-62 0-101.5 21.5T166 56h-20V0H85v727h63V444h20q21 27 59.5 48T328 513zm-8-470q41 0 72.5 15t52.5 42.5 32 65.5 11 84-11 84-32 65.5-52.5 42.5-72.5 15q-46 0-78.5-17.5T188 393t-30.5-66-9.5-77q0-39 9.5-76.5T188 107t53.5-46.5T320 43z"/><glyph glyph-name="c" unicode="c" horiz-adv-x="541" d="M495 143q-15-69-66.5-112.5T292-13q-58 0-102.5 20.5t-75 56.5-46 84T53 250q0 55 15.5 103t46 83.5 75 56T292 513q87 0 137-43t64-109h-63q-14 43-47 69.5T292 457q-47 0-80.5-16.5t-54.5-45-31-65.5-10-78 10-78.5 31.5-66.5T212 60.5 292 43q60 0 94.5 27.5T432 143h63z"/><glyph glyph-name="d" unicode="d" horiz-adv-x="604" d="M276 513q62 0 100.5-21t59.5-48h20v283h63V0h-61v56h-20q-21-26-60.5-47.5T276-13q-53 0-94 20.5T112 63t-44 83-15 104 15 104 44 83.5 70 55.5 94 20zm8-470q46 0 78.5 17.5T416 107t30.5 66.5T456 250q0 40-9.5 77T416 393t-53.5 46.5T284 457q-41 0-72.5-15T159 399.5 127 334t-11-84 11-84 32-65.5T211.5 58 284 43z"/><glyph glyph-name="e" unicode="e" horiz-adv-x="558" d="M505 261H116v-14q0-47 12.5-84.5t35.5-64 55-41T291 43q58 0 93.5 23.5T432 131h63q-6-30-21.5-56.5t-41-46-61-30.5T291-13q-58 0-102.5 21T114 65.5 68.5 151 53 256q0 57 16 104.5t46.5 81T190 494t100 19q54 0 94.5-19.5t67.5-52 40-74.5 13-86v-20zM288 457q-39 0-68-12t-50-31.5-33.5-44.5-16.5-52h320q-2 27-12.5 52T398 413.5 351.5 445 288 457z"/><glyph glyph-name="f" unicode="f" horiz-adv-x="380" d="M195 500h145v-56H195V0h-63v444H28v56h104v74q0 78 38.5 115.5T287 727h61v-56h-59q-51 0-72.5-24T195 570v-70z"/><glyph glyph-name="g" unicode="g" horiz-adv-x="604" d="M519 36q0-115-62.5-175.5T279-200H100v56h191q85 0 125 43.5T456 34v35h-20q-22-27-61-48T277 0q-52 0-93.5 19.5t-70.5 54-44.5 81T53 256t15.5 102 44.5 81.5 70.5 54T277 513q61 0 100-21.5t61-47.5h20v56h61V36zM284 56q45 0 77.5 16.5T415 117t31 64 10 75-10 75.5-31 64-53.5 44.5-77.5 17q-80 0-124-55t-44-146q0-45 11.5-82t33-63T213 70.5 284 56z"/><glyph glyph-name="h" unicode="h" horiz-adv-x="592" d="M452 0v307q0 150-139 150-37 0-67.5-15t-52-40-33.5-58.5-12-69.5V0H85v727h63V444h20q20 29 59.5 49t91.5 20q94 0 145-52.5T515 318V0h-63z"/><glyph glyph-name="i" unicode="i" horiz-adv-x="239" d="M151 0H88v500h63V0zm-31 748l62-62-62-62-62 62z"/><glyph glyph-name="j" unicode="j" horiz-adv-x="250" d="M100 500h63V-47q0-78-38.5-115.5T8-200h-56v56H6q51 0 72.5 24T100-43v543zm33 248l62-62-62-62-62 62z"/><glyph glyph-name="k" unicode="k" horiz-adv-x="539" d="M294 230H148V0H85v727h63V286h148l126 214h70L350 259 499 0h-73z"/><glyph glyph-name="l" unicode="l" horiz-adv-x="233" d="M148 0H85v727h63V0z"/><glyph glyph-name="m" unicode="m" horiz-adv-x="829" d="M588 513q84 0 124-50.5T752 327V0h-63v326q0 131-104 131-64 0-99.5-44T450 297V0h-63v327q0 130-104 130-32 0-57-14t-42.5-38-26.5-56-9-68V0H85v500h61v-48h20q18 27 48.5 44t78.5 17q88 0 133-70h20q25 33 59.5 51.5T588 513z"/><glyph glyph-name="n" unicode="n" horiz-adv-x="592" d="M452 0v307q0 150-139 150-37 0-67.5-15t-52-40-33.5-58.5-12-69.5V0H85v500h61v-56h20q20 29 60.5 49t92.5 20q94 0 145-52.5T515 318V0h-63z"/><glyph glyph-name="o" unicode="o" horiz-adv-x="588" d="M294 513q58 0 103-20.5t75.5-56.5 46.5-84 16-102-16-102-46.5-84T397 7.5 294-13q-59 0-103.5 20.5T115 64t-46.5 84T53 250t15.5 102 46.5 84 75.5 56.5T294 513zm0-470q45 0 78.5 17.5T428 107t33 66.5 11 76.5-11 76.5-33 66.5-55.5 46.5T294 457q-46 0-79.5-17.5T159 393t-32.5-66.5T116 250t10.5-76.5T159 107t55.5-46.5T294 43z"/><glyph glyph-name="p" unicode="p" horiz-adv-x="604" d="M328-13q-62 0-100.5 21T168 56h-20v-256H85v700h61v-56h20q21 26 60.5 47.5T328 513q52 0 93.5-20.5T492 437t44-83.5T551 250q0-56-15-104t-44-83.5T421.5 7 328-13zm-8 470q-46 0-78.5-17.5T188 393t-30.5-66.5T148 250q0-40 9.5-77t30.5-66 53.5-46.5T320 43q41 0 72.5 15t52.5 42.5 32 65.5 11 84-11 84-32 65.5-52.5 42.5-72.5 15z"/><glyph glyph-name="q" unicode="q" horiz-adv-x="604" d="M276-13q-53 0-94 20t-70 55.5T68 146 53 250q0 55 15 103.5t44 83.5 70 55.5 94 20.5q62 0 101.5-21.5T438 444h20v56h61v-700h-63V56h-20q-21-27-59.5-48T276-13zm8 470q-41 0-72.5-15T159 399.5 127 334t-11-84 11-84 32-65.5T211.5 58 284 43q46 0 78.5 17.5T416 107t30.5 66 9.5 77q0 39-9.5 76.5T416 393t-53.5 46.5T284 457z"/><glyph glyph-name="r" unicode="r" horiz-adv-x="377" d="M347 442h-34q-36 0-66.5-12t-52-34.5-34-55.5-12.5-76V0H85v500h61v-61h20q22 26 58.5 43.5T312 500h35v-58z"/><glyph glyph-name="s" unicode="s" horiz-adv-x="501" d="M316 279q65-11 103-43.5t38-96.5q0-28-12.5-55.5t-37.5-49T344.5 0 258-13q-102 0-155.5 42T41 139h62q8-49 49.5-72.5T252 43q62 0 102 23t40 71q0 35-23 55t-73 28l-97 17q-62 10-100.5 41.5T62 369q0 30 12 56t36 45.5 60.5 31T255 513q82 0 131-38t57-101h-62q-2 21-14 36.5t-30 26-41 15.5-47 5q-54 0-89-21.5T125 372q0-32 21.5-50t69.5-26z"/><glyph glyph-name="t" unicode="t" horiz-adv-x="398" d="M339 500v-56H197V134q0-43 21-60.5T293 56h46V0h-51q-39 0-68 5.5T172 25t-28.5 38-9.5 61v320H28v56h106v155h63V500h142z"/><glyph glyph-name="u" unicode="u" horiz-adv-x="589" d="M140 500V193q0-150 137-150 37 0 67 15t51.5 40 33.5 58.5 12 69.5v274h63V0h-61v56h-20q-20-29-60-49t-92-20q-94 0-144 52.5T77 182v318h63z"/><glyph glyph-name="v" unicode="v" horiz-adv-x="522" d="M24 500h67L246 62h33l155 438h64L321 0H201z"/><glyph glyph-name="w" unicode="w" horiz-adv-x="717" d="M524 62h20l98 438h64L594 0H477L366 438h-19L238 0H123L11 500h64l98-438h20l109 438h111z"/><glyph glyph-name="x" unicode="x" horiz-adv-x="531" d="M408 500h69L331 256 494 0h-72L282 221h-33L109 0H38l163 256L55 500h70l125-209h33z"/><glyph glyph-name="y" unicode="y" horiz-adv-x="589" d="M423 69q-20-29-60-49T271 0q-94 0-144 52.5T77 195v305h63V206q0-150 137-150 37 0 67 15t51.5 40 33.5 58.5 12 69.5v261h63V36q0-115-62.5-175.5T264-200H85v56h191q85 0 125 43.5T441 34v35h-18z"/><glyph glyph-name="z" unicode="z" horiz-adv-x="504" d="M50 0v76l325 349v19H67v56h387v-75L129 76V56h325V0H50z"/><glyph glyph-name="braceleft" unicode="{" horiz-adv-x="375" d="M163 299q23-8 36.5-32t13.5-70V9q0-54 25-75t64-21h33v-54h-33q-32 0-60 9t-48.5 27.5-32 46.5T150 8v177q0 46-11 71.5T90 282H80v54h10q38 0 49 25.5t11 71.5v177q0 38 11.5 66t32 46.5T242 750t60 9h33v-54h-33q-39 0-64-21t-25-75V421q0-46-13.5-70T163 319v-20z"/><glyph glyph-name="bar" unicode="|" horiz-adv-x="243" d="M90 759h63v-900H90v900z"/><glyph glyph-name="braceright" unicode="}" horiz-adv-x="375" d="M212 319q-23 8-36.5 32T162 421v188q0 54-25 75t-64 21H40v54h33q32 0 60-9t48.5-27.5 32-46.5 11.5-66V433q0-46 11-71.5t49-25.5h10v-54h-10q-38 0-49-25.5T225 185V8q0-38-11.5-66t-32-46.5T133-132t-60-9H40v54h33q39 0 64 21t25 75v188q0 46 13.5 70t36.5 32v20z"/><glyph glyph-name="asciitilde" unicode="~" horiz-adv-x="669" d="M578 357q0-72-36-111t-88-39q-35 0-67 15t-65 37q-25 16-49.5 29T220 301q-36 0-55-25.5T146 207H91q0 72 36.5 111t88.5 39q21 0 39.5-5.5t35.5-14 33-18.5 31-20q24-15 48-25.5t47-10.5q36 0 55 25.5t19 68.5h54z"/><glyph glyph-name="uni00A0" horiz-adv-x="278"/><glyph glyph-name="exclamdown" unicode="¡" horiz-adv-x="302" d="M118-200V83l12 239h41l13-239v-283h-66zm32 717l67-67-67-67-67 67z"/><glyph glyph-name="cent" unicode="¢" horiz-adv-x="541" d="M495 143q-14-65-60.5-107T313-12v-68h-51v69q-51 5-90 27.5T106.5 74t-40 80T53 250t13.5 96 40 80 65.5 57.5 90 27.5v69h51v-68q39-3 69-15t52.5-32 37-46.5T493 361h-63q-13 38-41 64t-76 31V44q51 5 79.5 31t39.5 68h63zM116 252q0-38 8.5-72.5t26-62.5 45-47T262 45v410q-39-5-66.5-23.5t-45.5-46-26-62-8-71.5z"/><glyph glyph-name="sterling" unicode="£" horiz-adv-x="630" d="M590 58V0H65v58h21q38 0 55 24t17 70v138H65v58h93v156q0 103 55 156.5T360 714q88 0 139.5-50T554 519h-64q-1 30-8 55t-22.5 43.5-40 28.5-59.5 10q-38 0-64-12.5T254 610t-23.5-48.5T223 503V348h217v-58H223V161q0-24-3.5-44.5T198 78V58h392z"/><glyph glyph-name="currency" unicode="¤" horiz-adv-x="725" d="M526 77q-34-27-75-42.5T363 19t-88.5 15.5T199 77l-68-67-41 41 67 68q-27 34-42.5 75.5T99 283t15.5 88 42.5 75l-67 68 41 41 68-67q34 26 75.5 41.5T363 545t88-15.5 75-41.5l68 67 41-41-67-68q26-34 41.5-75t15.5-88-15.5-88.5T568 119l67-68-41-41zm-163-4q42 0 78.5 16t63 44.5 42 66.5 15.5 83q0 44-15.5 82t-42 66-63 44-78.5 16-78.5-16-64-44-43-66-15.5-82q0-45 15.5-83t43-66.5 64-44.5T363 73z"/><glyph glyph-name="yen" unicode="¥" horiz-adv-x="596" d="M114 348h101L21 700h70l193-352h28l193 352h70L380 348h102v-52H351l-21-38v-40h152v-52H330V0h-65v166H114v52h151v40l-21 38H114v52z"/><glyph glyph-name="brokenbar" unicode="¦" horiz-adv-x="243" d="M90 759h63V417H90v342zm0-558h63v-342H90v342z"/><glyph glyph-name="section" unicode="§" horiz-adv-x="578" d="M434 100q20-16 33.5-41.5T481-11q0-35-14.5-65t-41-52-62.5-34-79-12q-44 0-81.5 12.5T138-124 95-62.5 78 21h64q2-60 37.5-98.5T285-116q32 0 56.5 9t41 23.5 25 33.5 8.5 39q0 76-76 98l-136 42q-81 26-112.5 62.5T60 284q0 26 7.5 47.5t19.5 39 27 30 30 19.5v20q-20 16-33.5 41.5T97 551q0 35 14 65t39 51.5 60.5 34T290 714t81-13 64-37.5 42.5-61T495 519h-64q-2 60-37 98.5T289 656q-32 0-56-9t-40-23.5-23.5-33.5-7.5-39q0-73 75-97l137-43q81-26 112.5-62.5T518 256q0-26-7.5-48T491 169t-27-29.5-30-19.5v-20zm-58 38q10 5 23.5 14t25.5 22 20 31.5 8 42.5q0 45-24.5 68T356 354l-154 48q-10-5-23.5-14T153 366t-20-31.5-8-42.5q0-45 24.5-68.5T222 186z"/><glyph glyph-name="dieresis" unicode="¨" horiz-adv-x="325" d="M75 726l58-58-58-58-58 58zm174 0l58-58-58-58-58 58z"/><glyph glyph-name="copyright" unicode="©" d="M599 295q-4-28-16.5-53t-33-43.5-47.5-29-60-10.5q-43 0-76 15.5t-56 42-35 62.5-12 77q0 42 12 78t35 63 56 42 76 15q62 0 103.5-35t49.5-92h-53q-8 37-31.5 59T442 508q-33 0-57-12.5T345.5 462 323 413.5t-7-57.5 7-57 22.5-47.5T385 219t57-12q46 0 71 25t33 63h53zm198 62q0-77-28.5-144T690 95.5 573 16 430-13q-77 0-143.5 29T170 95.5 91.5 213 63 357q0 76 28.5 143.5t78.5 118T286.5 698 430 727q76 0 143-29t117-79.5 78.5-118T797 357zm-55 0q0 66-24 124t-66 101-99 68-123 25-123-25-99-68-66-101-24-124 24-124 66-101 99-68 123-25 123 25 99 68 66 101 24 124z"/><glyph glyph-name="ordfeminine" unicode="ª" horiz-adv-x="425" d="M307 377h-5q-19-22-51-36.5T178 326q-34 0-60 10.5T75 364t-26 39-9 46q0 23 7.5 45t24 39.5 44 28T182 572h123v21q0 33-22 55.5T212 671q-42 0-65-17.5T122 607H65q4 55 44.5 84.5T211 721q69 0 109-33.5t40-93.5V333h-53v44zm-123-2q24 0 46 8.5t38.5 23.5 26.5 35 10 43v40H194q-47 0-73-21t-26-53q0-35 25.5-55.5T184 375z"/><glyph glyph-name="guillemotleft" unicode="«" horiz-adv-x="526" d="M117 272l158-168h-71L60 252v59l144 149h71L117 292v-20zm191 0l158-168h-71L251 252v59l144 149h71L308 292v-20z"/><glyph glyph-name="logicalnot" unicode="¬" horiz-adv-x="683" d="M540 325H90v53h503V111h-53v214z"/><glyph glyph-name="uni00AD" unicode="­" horiz-adv-x="360" d="M50 247v57h260v-57H50z"/><glyph glyph-name="registered" unicode="®" d="M797 357q0-77-28.5-144T690 95.5 573 16 430-13q-77 0-143.5 29T170 95.5 91.5 213 63 357q0 76 28.5 143.5t78.5 118T286.5 698 430 727q76 0 143-29t117-79.5 78.5-118T797 357zm-55 0q0 66-24 124t-66 101-99 68-123 25-123-25-99-68-66-101-24-124 24-124 66-101 99-68 123-25 123 25 99 68 66 101 24 124zm-154 80q0-75-63-100l67-171h-55l-62 161H346V166h-52v381h170q60 0 92-29t32-81zm-52 0q0 30-18 46.5T457 500H346V374h111q43 0 61 16.5t18 46.5z"/><glyph glyph-name="macron" unicode="¯" horiz-adv-x="354" d="M40 633v54h274v-54H40z"/><glyph glyph-name="degree" unicode="°" horiz-adv-x="475" d="M40 523q0 42 15 78.5t41.5 63T159 706t78 15 78.5-15 63-41.5 41.5-63 15-78.5-15-78-41.5-62.5-63-41.5-78.5-15-78 15-62.5 41.5T55 445t-15 78zm55 0q0-32 10.5-59.5t29-47.5 44.5-32 58-12 58.5 12 45 32 29 47.5T380 523t-10.5 59.5-29 48-45 32.5-58.5 12-58-12-44.5-32.5-29-48T95 523z"/><glyph glyph-name="plusminus" unicode="±" horiz-adv-x="684" d="M90 54h504V0H90v54zm225 480h54V354h225v-54H369V120h-54v180H91v54h224v180z"/><glyph glyph-name="twosuperior" unicode="²" horiz-adv-x="358" d="M318 382v-49H41v61l117 88q38 28 64.5 55t26.5 65q0 32-19 51t-53 19q-80 0-82-77H40q1 33 12 57t30 39.5 43.5 22.5 51.5 7q54 0 90.5-30t36.5-89q0-41-25.5-74.5T207 458l-84-65v-11h195z"/><glyph glyph-name="threesuperior" unicode="³" horiz-adv-x="367" d="M220 572q45-7 75.5-37.5T326 453q0-30-11-54t-30-40-45.5-24.5T183 326q-62 0-101 35t-42 89h54q3-35 28.5-55t60.5-20q38 0 63 20.5t25 57.5q0 35-23 56t-64 21q-13 0-19.5-.5T149 527v55l83 70v13H69v49h242v-53l-91-76v-13z"/><glyph glyph-name="acute" unicode="´" horiz-adv-x="241" d="M97 582H39l83 145h80z"/><glyph glyph-name="mu" unicode="µ" horiz-adv-x="597" d="M148 500V193q0-150 137-150 37 0 67 15t51.5 40 33.5 58.5 12 69.5v274h63V0h-61v56h-20q-20-29-60-49t-92-20q-82 0-131 41v-228H85v700h63z"/><glyph glyph-name="paragraph" unicode="¶" horiz-adv-x="632" d="M260-177v491q-45 0-85 11.5t-70 36-47.5 62T40 514q0 52 16 90t45 62.5 69.5 36T260 714h322v-50h-80v-841h-60v841H320v-841h-60z"/><glyph glyph-name="periodcentered" unicode="·" horiz-adv-x="244" d="M122 383l67-67-67-67-67 67z"/><glyph glyph-name="cedilla" unicode="¸" horiz-adv-x="248" d="M139 23l-34-86h13q5 3 12 5.5t17 2.5q26 0 45-21t19-54q0-14-5-28.5t-15.5-26T163-203t-40-7q-38 0-60 19.5T39-146h48q7-22 36-22 17 0 27.5 10t10.5 28q0 17-10 27t-26 10q-10 0-18-3t-13-8H46L96 23h43z"/><glyph glyph-name="onesuperior" unicode="¹" horiz-adv-x="329" d="M289 382v-49H40v49h97v267h-13l-83-50v57l93 58h58V382h97z"/><glyph glyph-name="ordmasculine" unicode="º" horiz-adv-x="442" d="M221 721q44 0 77.5-15.5t56.5-42 35-62.5 12-77-12-77-35-63-56.5-42.5T221 326t-77.5 15.5T87 384t-35 63-12 77 12 77 35 62.5 56.5 42T221 721zm0-346q32 0 55.5 13t39.5 34 23.5 47.5T347 524t-7.5 54.5-23.5 47-39.5 33T221 671t-55.5-12.5-39.5-33-23.5-47T95 524t7.5-54.5T126 422t39.5-34 55.5-13z"/><glyph glyph-name="guillemotright" unicode="»" horiz-adv-x="526" d="M409 292L251 460h71l144-149v-59L322 104h-71l158 168v20zm-191 0L60 460h71l144-149v-59L131 104H60l158 168v20z"/><glyph glyph-name="onequarter" unicode="¼" horiz-adv-x="861" d="M194 0l424 700h61L256 0h-62zm627 139V90h-55V0h-55v90H514v53l177 238h75V139h55zm-110 0v172h-13L580 152v-13h131zM289 382v-49H40v49h97v267h-13l-83-50v57l93 58h58V382h97z"/><glyph glyph-name="onehalf" unicode="½" horiz-adv-x="864" d="M194 0l424 700h61L256 0h-62zm95 382v-49H40v49h97v267h-13l-83-50v57l93 58h58V382h97zM824 49V0H547v61l117 88q38 28 64.5 55t26.5 65q0 32-19 51t-53 19q-80 0-82-77h-55q1 33 12 57t30 39.5 43.5 22.5 51.5 7q54 0 90.5-30t36.5-89q0-41-25.5-74.5T713 125l-84-65V49h195z"/><glyph glyph-name="threequarters" unicode="¾" horiz-adv-x="864" d="M197 0l424 700h61L259 0h-62zm627 139V90h-55V0h-55v90H517v53l177 238h75V139h55zm-110 0v172h-13L583 152v-13h131zM219 572q45-7 75.5-37.5T325 453q0-30-11-54t-30-40-45.5-24.5T182 326q-62 0-101 35t-42 89h54q3-35 28.5-55t60.5-20q38 0 63 20.5t25 57.5q0 35-23 56t-64 21q-13 0-19.5-.5T148 527v55l83 70v13H68v49h242v-53l-91-76v-13z"/><glyph glyph-name="questiondown" unicode="¿" horiz-adv-x="528" d="M259-206q-43 0-80 13t-64.5 37-43 58.5T56-19q0 39 9 66.5t26 50 41 43 54 44.5q15 12 26 22t18 22.5 10.5 30T244 304v18h63v-18q0-35-5.5-58.5t-16-41.5-27-33-37.5-32q-23-19-41.5-34.5t-32-32.5-21-38.5T119-19q0-26 9-50t27-42.5 44-30 60-11.5q68 0 106 34T408-8h63q-5-97-62.5-147.5T259-206zm16 723l67-67-67-67-67 67z"/><glyph glyph-name="Agrave" unicode="À" horiz-adv-x="673" d="M498 231H172L90 0H21l259 714h112L652 0h-71zm-304 60h283L351 644h-31zm6 605h80l83-129h-58z"/><glyph glyph-name="Aacute" unicode="Á" horiz-adv-x="673" d="M498 231H172L90 0H21l259 714h112L652 0h-71zm-304 60h283L351 644h-31zm171 476h-58l83 129h80z"/><glyph glyph-name="Acircumflex" unicode="Â" horiz-adv-x="673" d="M498 231H172L90 0H21l259 714h112L652 0h-71zm-304 60h283L351 644h-31zm106 605h74l105-129h-66l-65 79h-20l-65-79h-68z"/><glyph glyph-name="Atilde" unicode="Ã" horiz-adv-x="673" d="M498 231H172L90 0H21l259 714h112L652 0h-71zm-304 60h283L351 644h-31zm215 531q25 0 32.5 23.5T449 898h48q0-132-89-132-26 0-45.5 12T324 807q-13 11-29.5 23.5T259 843q-13 0-21-6.5T225.5 819t-6-24.5T218 766h-48q0 132 90 132 29 0 50-13.5t40-29.5q16-13 29.5-23t29.5-10z"/><glyph glyph-name="Adieresis" unicode="Ä" horiz-adv-x="673" d="M498 231H172L90 0H21l259 714h112L652 0h-71zm-304 60h283L351 644h-31zm55 611l58-58-58-58-58 58zm174 0l58-58-58-58-58 58z"/><glyph glyph-name="Aring" unicode="Å" horiz-adv-x="673" d="M498 231H172L90 0H21l250 689q-19 14-29.5 35.5T231 772q0 22 8.5 41t23 33 33.5 22.5 41 8.5 41-8.5 33-22.5 22.5-33 8.5-41q0-26-11-47.5T401 688L652 0h-71zm-304 60h283L351 644h-31zm143 423q25 0 41.5 16t16.5 42q0 25-16.5 41.5T337 830q-26 0-42-16.5T279 772q0-26 16-42t42-16z"/><glyph glyph-name="AE" unicode="Æ" horiz-adv-x="992" d="M925 714v-60H556V402h291v-60H556V60h386V0H490v231H207L86 0H10l382 714h533zM238 291h252v363h-61z"/><glyph glyph-name="Ccedilla" unicode="Ç" horiz-adv-x="710" d="M659 193q-11-45-34.5-83t-58-65.5T486 2 383-13q-3 0-5.5.5t-4.5.5l-20-51h13q5 3 12 5.5t17 2.5q26 0 45-21t19-54q0-14-5-28.5t-15.5-26T411-203t-40-7q-38 0-60 19.5T287-146h48q7-22 36-22 17 0 27.5 10t10.5 28q0 17-10 27t-26 10q-10 0-18-3t-13-8h-48l37 95q-66 9-117.5 40.5t-86 80-52.5 111T57 357q0 78 21.5 146t63 117.5 102.5 78T384 727q104 0 174.5-51T651 535h-70q-23 63-69 97.5T384 667q-68 0-117.5-26T185 571.5t-47-99T123 357t15-116 46.5-99 81-69T383 47q82 0 133.5 40T588 193h71z"/><glyph glyph-name="Egrave" unicode="È" horiz-adv-x="646" d="M596 60V0H94v714h485v-60H160V402h341v-60H160V60h436zM225 896h80l83-129h-58z"/><glyph glyph-name="Eacute" unicode="É" horiz-adv-x="646" d="M596 60V0H94v714h485v-60H160V402h337v-60H160V60h436zM329 767h-56l83 129h78z"/><glyph glyph-name="Ecircumflex" unicode="Ê" horiz-adv-x="646" d="M596 60V0H94v714h485v-60H160V402h341v-60H160V60h436zM297 896h74l105-129h-66l-65 79h-20l-65-79h-68z"/><glyph glyph-name="Edieresis" unicode="Ë" horiz-adv-x="646" d="M596 60V0H94v714h485v-60H160V402h341v-60H160V60h436zM242 902l58-58-58-58-58 58zm174 0l58-58-58-58-58 58z"/><glyph glyph-name="Igrave" unicode="Ì" horiz-adv-x="268" d="M167 714V0h-66v714h66zM1 896h80l83-129h-58z"/><glyph glyph-name="Iacute" unicode="Í" horiz-adv-x="268" d="M167 714V0h-66v714h66zm-3 53h-58l83 129h80z"/><glyph glyph-name="Icircumflex" unicode="Î" horiz-adv-x="268" d="M167 714V0h-66v714h66zM98 896h74l105-129h-66l-65 79h-20l-65-79H-7z"/><glyph glyph-name="Idieresis" unicode="Ï" horiz-adv-x="268" d="M167 714V0h-66v714h66zM48 902l58-58-58-58-58 58zm174 0l58-58-58-58-58 58z"/><glyph glyph-name="Eth" unicode="Ð" horiz-adv-x="759" d="M20 400h98v314h255q82 0 143.5-25.5t103-72.5 62-112.5T702 357q0-80-20.5-146t-62-113-103-72.5T373 0H118v344H20v56zM380 60q70 0 118.5 24t79 64.5T622 243t14 114-14 114-44.5 94.5-79 64.5T380 654H184V400h234v-56H184V60h196z"/><glyph glyph-name="Ntilde" unicode="Ñ" horiz-adv-x="757" d="M663 714V0H543L180 644h-20V0H94v714h120L577 70h20v644h66zM453 822q25 0 32.5 23.5T493 898h48q0-132-89-132-26 0-45.5 12T368 807q-13 11-29.5 23.5T303 843q-13 0-21-6.5T269.5 819t-6-24.5T262 766h-48q0 132 90 132 29 0 50-13.5t40-29.5q16-13 29.5-23t29.5-10z"/><glyph glyph-name="Ograve" unicode="Ò" horiz-adv-x="768" d="M384 727q80 0 141-29t102.5-79.5 62.5-118T711 357q0-77-21-144T627.5 95.5 525 16 384-13 242.5 16 140 95.5 78 213 57 357q0 76 21 143.5t62 118T242.5 698 384 727zm0-680q69 0 118.5 26.5t81 70 46.5 99T645 357t-15 114.5-46.5 99-81 70T384 667t-118.5-26.5-81-70-46.5-99T123 357t15-114.5 46.5-99 81-70T384 47zM262 896h80l83-129h-58z"/><glyph glyph-name="Oacute" unicode="Ó" horiz-adv-x="768" d="M384 727q80 0 141-29t102.5-79.5 62.5-118T711 357q0-77-21-144T627.5 95.5 525 16 384-13 242.5 16 140 95.5 78 213 57 357q0 76 21 143.5t62 118T242.5 698 384 727zm0-680q69 0 118.5 26.5t81 70 46.5 99T645 357t-15 114.5-46.5 99-81 70T384 667t-118.5-26.5-81-70-46.5-99T123 357t15-114.5 46.5-99 81-70T384 47zm25 720h-58l83 129h80z"/><glyph glyph-name="Ocircumflex" unicode="Ô" horiz-adv-x="768" d="M384 727q80 0 141-29t102.5-79.5 62.5-118T711 357q0-77-21-144T627.5 95.5 525 16 384-13 242.5 16 140 95.5 78 213 57 357q0 76 21 143.5t62 118T242.5 698 384 727zm0-680q69 0 118.5 26.5t81 70 46.5 99T645 357t-15 114.5-46.5 99-81 70T384 667t-118.5-26.5-81-70-46.5-99T123 357t15-114.5 46.5-99 81-70T384 47zm-37 849h74l105-129h-66l-65 79h-20l-65-79h-68z"/><glyph glyph-name="Otilde" unicode="Õ" horiz-adv-x="768" d="M384 727q80 0 141-29t102.5-79.5 62.5-118T711 357q0-77-21-144T627.5 95.5 525 16 384-13 242.5 16 140 95.5 78 213 57 357q0 76 21 143.5t62 118T242.5 698 384 727zm0-680q69 0 118.5 26.5t81 70 46.5 99T645 357t-15 114.5-46.5 99-81 70T384 667t-118.5-26.5-81-70-46.5-99T123 357t15-114.5 46.5-99 81-70T384 47zm75 775q25 0 32.5 23.5T499 898h48q0-132-89-132-26 0-45.5 12T374 807q-13 11-29.5 23.5T309 843q-13 0-21-6.5T275.5 819t-6-24.5T268 766h-48q0 132 90 132 29 0 50-13.5t40-29.5q16-13 29.5-23t29.5-10z"/><glyph glyph-name="Odieresis" unicode="Ö" horiz-adv-x="768" d="M384 727q80 0 141-29t102.5-79.5 62.5-118T711 357q0-77-21-144T627.5 95.5 525 16 384-13 242.5 16 140 95.5 78 213 57 357q0 76 21 143.5t62 118T242.5 698 384 727zm0-680q69 0 118.5 26.5t81 70 46.5 99T645 357t-15 114.5-46.5 99-81 70T384 667t-118.5-26.5-81-70-46.5-99T123 357t15-114.5 46.5-99 81-70T384 47zm-88 855l58-58-58-58-58 58zm174 0l58-58-58-58-58 58z"/><glyph glyph-name="multiply" unicode="×" horiz-adv-x="632" d="M90 471l37 37 189-189 189 189 37-37-189-189L542 93l-37-37-189 188L127 56 90 93l188 189z"/><glyph glyph-name="Oslash" unicode="Ø" horiz-adv-x="768" d="M384 727q65 0 117-19t91-54l49 60h73l-83-100q40-51 60-116.5T711 357q0-77-21-144T627.5 95.5 525 16 384-13q-65 0-117 19t-91 53L128 0H55l82 99q-40 51-60 117T57 357q0 76 21 143.5t62 118T242.5 698 384 727zM123 357q0-57 13.5-110.5T179 150l373 456q-31 28-72.5 44.5T384 667q-69 0-118.5-26.5t-81-70-46.5-99T123 357zM384 47q69 0 118.5 26.5t81 70 46.5 99T645 357q0 57-13.5 109.5T589 562L216 107q31-28 72.5-44T384 47z"/><glyph glyph-name="Ugrave" unicode="Ù" horiz-adv-x="732" d="M640 714V252q0-124-70.5-194.5T366-13 162.5 57.5 92 252v462h66V251q0-46 13.5-83.5T211 103t65-41.5T366 47t90 14.5 65 41.5 39.5 64.5T574 251v463h66zM254 896h80l83-129h-58z"/><glyph glyph-name="Uacute" unicode="Ú" horiz-adv-x="732" d="M640 714V252q0-124-70.5-194.5T366-13 162.5 57.5 92 252v462h66V251q0-46 13.5-83.5T211 103t65-41.5T366 47t90 14.5 65 41.5 39.5 64.5T574 251v463h66zm-269 53h-58l83 129h80z"/><glyph glyph-name="Ucircumflex" unicode="Û" horiz-adv-x="732" d="M640 714V252q0-124-70.5-194.5T366-13 162.5 57.5 92 252v462h66V251q0-46 13.5-83.5T211 103t65-41.5T366 47t90 14.5 65 41.5 39.5 64.5T574 251v463h66zM329 896h74l105-129h-66l-65 79h-20l-65-79h-68z"/><glyph glyph-name="Udieresis" unicode="Ü" horiz-adv-x="732" d="M640 714V252q0-124-70.5-194.5T366-13 162.5 57.5 92 252v462h66V251q0-46 13.5-83.5T211 103t65-41.5T366 47t90 14.5 65 41.5 39.5 64.5T574 251v463h66zM279 902l58-58-58-58-58 58zm174 0l58-58-58-58-58 58z"/><glyph glyph-name="Yacute" unicode="Ý" horiz-adv-x="628" d="M329 373l203 341h75L347 279V0h-66v279L21 714h76l204-341h28zm10 394h-58l83 129h80z"/><glyph glyph-name="Thorn" unicode="Þ" horiz-adv-x="633" d="M355 556q109 0 166.5-52.5T579 357q0-93-57.5-145.5T355 159H160V0H94v714h66V556h195zm-10-337q93 0 130.5 37.5T513 357q0 64-37.5 101.5T345 496H160V219h185z"/><glyph glyph-name="germandbls" unicode="ß" horiz-adv-x="576" d="M400 382q27-5 50.5-19t41.5-36 28.5-51.5T531 211q0-52-16.5-91.5t-46.5-66-72-40T303 0h-60v56h53q31 0 62 6t55.5 23 39.5 46 15 76q0 71-47.5 111.5T279 359h-16v56h16q43 0 72.5 10t47.5 27.5 25.5 40T432 539q0 60-36.5 96T295 671q-73 0-110-42.5T148 509V0H85v509q0 100 54 159t156 59q48 0 85-14t62.5-38 39-56.5T495 549q0-57-25-95t-70-52v-20z"/><glyph glyph-name="agrave" unicode="à" horiz-adv-x="605" d="M277 513q62 0 101.5-21t60.5-48h20v56h61V0h-61v56h-20q-21-26-60.5-47.5T277-13q-53 0-94 20.5T113 63t-44 83-15 104 15 104 44 83.5 70 55.5 94 20zm8-470q46 0 78.5 17.5T417 107t30.5 66.5T457 250q0 40-9.5 77T417 393t-53.5 46.5T285 457q-41 0-72.5-15T160 399.5 128 334t-11-84 11-84 32-65.5T212.5 58 285 43zM167 727h78l83-145h-56z"/><glyph glyph-name="aacute" unicode="á" horiz-adv-x="605" d="M277 513q62 0 101.5-21t60.5-48h20v56h61V0h-61v56h-20q-21-26-60.5-47.5T277-13q-53 0-94 20.5T113 63t-44 83-15 104 15 104 44 83.5 70 55.5 94 20zm8-470q46 0 78.5 17.5T417 107t30.5 66.5T457 250q0 40-9.5 77T417 393t-53.5 46.5T285 457q-41 0-72.5-15T160 399.5 128 334t-11-84 11-84 32-65.5T212.5 58 285 43zm28 539h-58l83 145h80z"/><glyph glyph-name="acircumflex" unicode="â" horiz-adv-x="605" d="M277 513q62 0 101.5-21t60.5-48h20v56h61V0h-61v56h-20q-21-26-60.5-47.5T277-13q-53 0-94 20.5T113 63t-44 83-15 104 15 104 44 83.5 70 55.5 94 20zm8-470q46 0 78.5 17.5T417 107t30.5 66.5T457 250q0 40-9.5 77T417 393t-53.5 46.5T285 457q-41 0-72.5-15T160 399.5 128 334t-11-84 11-84 32-65.5T212.5 58 285 43zm148 539h-65l-68 95h-20l-68-95h-63l105 145h74z"/><glyph glyph-name="atilde" unicode="ã" horiz-adv-x="605" d="M277 513q62 0 101.5-21t60.5-48h20v56h61V0h-61v56h-20q-21-26-60.5-47.5T277-13q-53 0-94 20.5T113 63t-44 83-15 104 15 104 44 83.5 70 55.5 94 20zm8-470q46 0 78.5 17.5T417 107t30.5 66.5T457 250q0 40-9.5 77T417 393t-53.5 46.5T285 457q-41 0-72.5-15T160 399.5 128 334t-11-84 11-84 32-65.5T212.5 58 285 43zm82 602q25 0 32.5 23.5T407 721h48q0-132-89-132-26 0-45.5 12T282 630q-13 11-29.5 23.5T217 666q-13 0-21-6.5T183.5 642t-6-24.5T176 589h-48q0 132 90 132 29 0 50-13.5t40-29.5q16-13 29.5-23t29.5-10z"/><glyph glyph-name="adieresis" unicode="ä" horiz-adv-x="605" d="M277 513q62 0 101.5-21t60.5-48h20v56h61V0h-61v56h-20q-21-26-60.5-47.5T277-13q-53 0-94 20.5T113 63t-44 83-15 104 15 104 44 83.5 70 55.5 94 20zm8-470q46 0 78.5 17.5T417 107t30.5 66.5T457 250q0 40-9.5 77T417 393t-53.5 46.5T285 457q-41 0-72.5-15T160 399.5 128 334t-11-84 11-84 32-65.5T212.5 58 285 43zm-82 683l58-58-58-58-58 58zm174 0l58-58-58-58-58 58z"/><glyph glyph-name="aring" unicode="å" horiz-adv-x="604" d="M276 513q62 0 101.5-21t60.5-48h20v56h61V0h-61v56h-20q-21-26-60.5-47.5T276-13q-53 0-94 20.5T112 63t-44 83-15 104 15 104 44 83.5 70 55.5 94 20zm8-470q46 0 78.5 17.5T416 107t30.5 66.5T456 250q0 40-9.5 77T416 393t-53.5 46.5T284 457q-41 0-72.5-15T159 399.5 127 334t-11-84 11-84 32-65.5T211.5 58 284 43zm2 750q22 0 41-8.5t33-22.5 22.5-33 8.5-41-8.5-41-22.5-33.5-33-23-41-8.5-41 8.5-33.5 23-23 33.5-8.5 41 8.5 41 23 33 33.5 22.5 41 8.5zm0-163q25 0 41.5 16t16.5 42q0 25-16.5 41.5T286 746q-26 0-42-16.5T228 688q0-26 16-42t42-16z"/><glyph glyph-name="ae" unicode="æ" horiz-adv-x="894" d="M460 256v-7q0-46 12-84t34.5-65 54-42T631 43q58 0 92.5 23t47.5 65h63q-6-30-21.5-56.5t-41-46T711-2t-80-11q-66 0-113 27.5T442 88h-21q-12-19-30.5-37t-43-32.5-55-23T226-13Q181-13 147.5.5T91 36 56.5 87 45 148q0 30 10 59t32 52.5 57 38 86 14.5h168v30q0 48-31 81.5T266 457q-60 0-90.5-22.5T141 374H78q3 33 18 59t39.5 43.5 58 27T267 513q59 0 101.5-20.5T434 435h21q29 36 73 57t101 21q53 0 93-19.5t66.5-52T828 367t13-86v-25H460zm-214 0q-68 0-103-29t-35-76q0-51 35-79.5T235 43q34 0 64 11.5t52 32 34.5 49T398 198v58H246zm381 201q-38 0-66-12.5T513 412t-32-46-17-54h312q-2 28-12.5 54T734 412.5 688.5 445 627 457z"/><glyph glyph-name="ccedilla" unicode="ç" horiz-adv-x="541" d="M495 143q-15-69-66.5-112.5T291-13l-20-50h13q5 3 12 5.5t17 2.5q26 0 45-21t19-54q0-14-5-28.5t-15.5-26T329-203t-40-7q-38 0-60 19.5T205-146h48q7-22 36-22 17 0 27.5 10t10.5 28q0 17-10 27t-26 10q-10 0-18-3t-13-8h-48l37 95q-48 7-84.5 30T103 78.5 65.5 157 53 250q0 55 15.5 103t46 83.5 75 56T292 513q87 0 137-43t64-109h-63q-14 43-47 69.5T292 457q-47 0-80.5-16.5t-54.5-45-31-65.5-10-78 10-78.5 31.5-66.5T212 60.5 292 43q60 0 94.5 27.5T432 143h63z"/><glyph glyph-name="egrave" unicode="è" horiz-adv-x="558" d="M505 261H116v-14q0-47 12.5-84.5t35.5-64 55-41T291 43q58 0 93.5 23.5T432 131h63q-6-30-21.5-56.5t-41-46-61-30.5T291-13q-58 0-102.5 21T114 65.5 68.5 151 53 256q0 57 16 104.5t46.5 81T190 494t100 19q54 0 94.5-19.5t67.5-52 40-74.5 13-86v-20zM288 457q-39 0-68-12t-50-31.5-33.5-44.5-16.5-52h320q-2 27-12.5 52T398 413.5 351.5 445 288 457zM175 727h78l83-145h-56z"/><glyph glyph-name="eacute" unicode="é" horiz-adv-x="558" d="M505 261H116v-14q0-47 12.5-84.5t35.5-64 55-41T291 43q58 0 93.5 23.5T432 131h63q-6-30-21.5-56.5t-41-46-61-30.5T291-13q-58 0-102.5 21T114 65.5 68.5 151 53 256q0 57 16 104.5t46.5 81T190 494t100 19q54 0 94.5-19.5t67.5-52 40-74.5 13-86v-20zM288 457q-39 0-68-12t-50-31.5-33.5-44.5-16.5-52h320q-2 27-12.5 52T398 413.5 351.5 445 288 457zm19 125h-58l83 145h80z"/><glyph glyph-name="ecircumflex" unicode="ê" horiz-adv-x="558" d="M505 261H116v-14q0-47 12.5-84.5t35.5-64 55-41T291 43q58 0 93.5 23.5T432 131h63q-6-30-21.5-56.5t-41-46-61-30.5T291-13q-58 0-102.5 21T114 65.5 68.5 151 53 256q0 57 16 104.5t46.5 81T190 494t100 19q54 0 94.5-19.5t67.5-52 40-74.5 13-86v-20zM288 457q-39 0-68-12t-50-31.5-33.5-44.5-16.5-52h320q-2 27-12.5 52T398 413.5 351.5 445 288 457zm146 125h-65l-68 95h-20l-68-95h-63l105 145h74z"/><glyph glyph-name="edieresis" unicode="ë" horiz-adv-x="558" d="M505 261H116v-14q0-47 12.5-84.5t35.5-64 55-41T291 43q58 0 93.5 23.5T432 131h63q-6-30-21.5-56.5t-41-46-61-30.5T291-13q-58 0-102.5 21T114 65.5 68.5 151 53 256q0 57 16 104.5t46.5 81T190 494t100 19q54 0 94.5-19.5t67.5-52 40-74.5 13-86v-20zM288 457q-39 0-68-12t-50-31.5-33.5-44.5-16.5-52h320q-2 27-12.5 52T398 413.5 351.5 445 288 457zm-87 269l58-58-58-58-58 58zm174 0l58-58-58-58-58 58z"/><glyph glyph-name="igrave" unicode="ì" horiz-adv-x="239" d="M151 0H88v500h63V0zM-13 727h78l83-145H92z"/><glyph glyph-name="iacute" unicode="í" horiz-adv-x="239" d="M151 0H88v500h63V0zm0 582H93l83 145h80z"/><glyph glyph-name="icircumflex" unicode="î" horiz-adv-x="239" d="M151 0H88v500h63V0zm111 582h-65l-68 95h-20l-68-95h-63L83 727h74z"/><glyph glyph-name="idieresis" unicode="ï" horiz-adv-x="239" d="M151 0H88v500h63V0zM33 726l58-58-58-58-58 58zm174 0l58-58-58-58-58 58z"/><glyph glyph-name="eth" unicode="ð" horiz-adv-x="582" d="M144 602h174q-36 38-74 68.5T171 727h81q30-23 67-53.5t72-71.5h122v-48h-83q42-59 70.5-133T529 255q0-56-14.5-105t-44-85T396 8 289-13q-56 0-99.5 19.5t-74 53T69 137t-16 93 16 93 46.5 77 74 52.5T287 472q40 0 74.5-12.5T418 425h20q-15 35-35 67.5T360 554H144v48zM291 43q46 0 79.5 15.5t55 41 31.5 59 10 70.5-10 70.5-31.5 59.5-55 41.5T291 416q-47 0-80-15.5T156 359t-32-59.5-10-70.5 10-70.5 32-59 55-41T291 43z"/><glyph glyph-name="ntilde" unicode="ñ" horiz-adv-x="592" d="M452 0v307q0 150-139 150-37 0-67.5-15t-52-40-33.5-58.5-12-69.5V0H85v500h61v-56h20q20 29 60.5 49t92.5 20q94 0 145-52.5T515 318V0h-63zm-76 645q25 0 32.5 23.5T416 721h48q0-132-89-132-26 0-45.5 12T291 630q-13 11-29.5 23.5T226 666q-13 0-21-6.5T192.5 642t-6-24.5T185 589h-48q0 132 90 132 29 0 50-13.5t40-29.5q16-13 29.5-23t29.5-10z"/><glyph glyph-name="ograve" unicode="ò" horiz-adv-x="588" d="M294 513q58 0 103-20.5t75.5-56.5 46.5-84 16-102-16-102-46.5-84T397 7.5 294-13q-59 0-103.5 20.5T115 64t-46.5 84T53 250t15.5 102 46.5 84 75.5 56.5T294 513zm0-470q45 0 78.5 17.5T428 107t33 66.5 11 76.5-11 76.5-33 66.5-55.5 46.5T294 457q-46 0-79.5-17.5T159 393t-32.5-66.5T116 250t10.5-76.5T159 107t55.5-46.5T294 43zM171 727h78l83-145h-56z"/><glyph glyph-name="oacute" unicode="ó" horiz-adv-x="588" d="M294 513q58 0 103-20.5t75.5-56.5 46.5-84 16-102-16-102-46.5-84T397 7.5 294-13q-59 0-103.5 20.5T115 64t-46.5 84T53 250t15.5 102 46.5 84 75.5 56.5T294 513zm0-470q45 0 78.5 17.5T428 107t33 66.5 11 76.5-11 76.5-33 66.5-55.5 46.5T294 457q-46 0-79.5-17.5T159 393t-32.5-66.5T116 250t10.5-76.5T159 107t55.5-46.5T294 43zm29 539h-58l83 145h80z"/><glyph glyph-name="ocircumflex" unicode="ô" horiz-adv-x="588" d="M294 513q58 0 103-20.5t75.5-56.5 46.5-84 16-102-16-102-46.5-84T397 7.5 294-13q-59 0-103.5 20.5T115 64t-46.5 84T53 250t15.5 102 46.5 84 75.5 56.5T294 513zm0-470q45 0 78.5 17.5T428 107t33 66.5 11 76.5-11 76.5-33 66.5-55.5 46.5T294 457q-46 0-79.5-17.5T159 393t-32.5-66.5T116 250t10.5-76.5T159 107t55.5-46.5T294 43zm142 539h-65l-68 95h-20l-68-95h-63l105 145h74z"/><glyph glyph-name="otilde" unicode="õ" horiz-adv-x="588" d="M294 513q58 0 103-20.5t75.5-56.5 46.5-84 16-102-16-102-46.5-84T397 7.5 294-13q-59 0-103.5 20.5T115 64t-46.5 84T53 250t15.5 102 46.5 84 75.5 56.5T294 513zm0-470q45 0 78.5 17.5T428 107t33 66.5 11 76.5-11 76.5-33 66.5-55.5 46.5T294 457q-46 0-79.5-17.5T159 393t-32.5-66.5T116 250t10.5-76.5T159 107t55.5-46.5T294 43zm75 602q25 0 32.5 23.5T409 721h48q0-132-89-132-26 0-45.5 12T284 630q-13 11-29.5 23.5T219 666q-13 0-21-6.5T185.5 642t-6-24.5T178 589h-48q0 132 90 132 29 0 50-13.5t40-29.5q16-13 29.5-23t29.5-10z"/><glyph glyph-name="odieresis" unicode="ö" horiz-adv-x="588" d="M294 513q58 0 103-20.5t75.5-56.5 46.5-84 16-102-16-102-46.5-84T397 7.5 294-13q-59 0-103.5 20.5T115 64t-46.5 84T53 250t15.5 102 46.5 84 75.5 56.5T294 513zm0-470q45 0 78.5 17.5T428 107t33 66.5 11 76.5-11 76.5-33 66.5-55.5 46.5T294 457q-46 0-79.5-17.5T159 393t-32.5-66.5T116 250t10.5-76.5T159 107t55.5-46.5T294 43zm-87 683l58-58-58-58-58 58zm174 0l58-58-58-58-58 58z"/><glyph glyph-name="divide" unicode="÷" horiz-adv-x="684" d="M90 255v54h504v-54H90zm214 178v101h76V433h-76zm0-403v101h76V30h-76z"/><glyph glyph-name="oslash" unicode="ø" horiz-adv-x="588" d="M294 513q45 0 82-12.5t66-35.5l29 35h69l-61-72q27-35 41.5-81t14.5-97q0-54-16-102t-46.5-84T397 7.5 294-13q-45 0-81.5 12T147 33L119 0H50l59 71q-28 35-42 81t-14 98q0 54 15.5 102t46.5 84 75.5 56.5T294 513zM116 250q0-35 8.5-69t25.5-62l253 300q-21 18-48 28t-61 10q-46 0-79.5-17.5T159 393t-32.5-66.5T116 250zM294 43q45 0 78.5 17.5T428 107t33 66.5 11 76.5q0 35-8.5 68T438 379L185 79q21-17 48-26.5t61-9.5z"/><glyph glyph-name="ugrave" unicode="ù" horiz-adv-x="589" d="M140 500V193q0-150 137-150 37 0 67 15t51.5 40 33.5 58.5 12 69.5v274h63V0h-61v56h-20q-20-29-60-49t-92-20q-94 0-144 52.5T77 182v318h63zm38 227h78l83-145h-56z"/><glyph glyph-name="uacute" unicode="ú" horiz-adv-x="589" d="M140 500V193q0-150 137-150 37 0 67 15t51.5 40 33.5 58.5 12 69.5v274h63V0h-61v56h-20q-20-29-60-49t-92-20q-94 0-144 52.5T77 182v318h63zm160 82h-58l83 145h80z"/><glyph glyph-name="ucircumflex" unicode="û" horiz-adv-x="589" d="M140 500V193q0-150 137-150 37 0 67 15t51.5 40 33.5 58.5 12 69.5v274h63V0h-61v56h-20q-20-29-60-49t-92-20q-94 0-144 52.5T77 182v318h63zm289 82h-65l-68 95h-20l-68-95h-63l105 145h74z"/><glyph glyph-name="udieresis" unicode="ü" horiz-adv-x="589" d="M140 500V193q0-150 137-150 37 0 67 15t51.5 40 33.5 58.5 12 69.5v274h63V0h-61v56h-20q-20-29-60-49t-92-20q-94 0-144 52.5T77 182v318h63zm63 226l58-58-58-58-58 58zm174 0l58-58-58-58-58 58z"/><glyph glyph-name="yacute" unicode="ý" horiz-adv-x="589" d="M423 69q-20-29-60-49T271 0q-94 0-144 52.5T77 195v305h63V206q0-150 137-150 37 0 67 15t51.5 40 33.5 58.5 12 69.5v261h63V36q0-115-62.5-175.5T264-200H85v56h191q85 0 125 43.5T441 34v35h-18zM295 582h-58l83 145h80z"/><glyph glyph-name="thorn" unicode="þ" horiz-adv-x="605" d="M329-13q-62 0-101 21t-60 48h-20v-256H85v927h63V444h20q20 26 59 47.5T329 513q52 0 93.5-20.5T493 437t44-83.5T552 250q0-56-15-104t-44-83.5T422.5 7 329-13zm-8 470q-46 0-78.5-17.5T189 393t-31-66.5-10-76.5q0-40 10-77t31-66 53.5-46.5T321 43q41 0 72.5 15t52.5 42.5 32 65.5 11 84-11 84-32 65.5-52.5 42.5-72.5 15z"/><glyph glyph-name="ydieresis" unicode="ÿ" horiz-adv-x="589" d="M423 69q-20-29-60-49T271 0q-94 0-144 52.5T77 195v305h63V206q0-150 137-150 37 0 67 15t51.5 40 33.5 58.5 12 69.5v261h63V36q0-115-62.5-175.5T264-200H85v56h191q85 0 125 43.5T441 34v35h-18zM202 726l58-58-58-58-58 58zm174 0l58-58-58-58-58 58z"/><glyph glyph-name="Amacron" unicode="Ā" horiz-adv-x="673" d="M498 231H172L90 0H21l259 714h112L652 0h-71zm-304 60h283L351 644h-31zm5 526v54h274v-54H199z"/><glyph glyph-name="amacron" unicode="ā" horiz-adv-x="604" d="M276 513q62 0 101.5-21t60.5-48h20v56h61V0h-61v56h-20q-21-26-60.5-47.5T276-13q-53 0-94 20.5T112 63t-44 83-15 104 15 104 44 83.5 70 55.5 94 20zm8-470q46 0 78.5 17.5T416 107t30.5 66.5T456 250q0 40-9.5 77T416 393t-53.5 46.5T284 457q-41 0-72.5-15T159 399.5 127 334t-11-84 11-84 32-65.5T211.5 58 284 43zM158 633v54h274v-54H158z"/><glyph glyph-name="Abreve" unicode="Ă" horiz-adv-x="673" d="M498 231H172L90 0H21l259 714h112L652 0h-71zm-304 60h283L351 644h-31zm279 605v-12q0-28-11-50t-29.5-37-43-22.5T337 767t-52.5 7.5-43 22.5-29.5 37-11 50v12h56v-11q0-31 23-49t57-18 57 18 23 49v11h56z"/><glyph glyph-name="abreve" unicode="ă" horiz-adv-x="604" d="M276 513q62 0 101.5-21t60.5-48h20v56h61V0h-61v56h-20q-21-26-60.5-47.5T276-13q-53 0-94 20.5T112 63t-44 83-15 104 15 104 44 83.5 70 55.5 94 20zm8-470q46 0 78.5 17.5T416 107t30.5 66.5T456 250q0 40-9.5 77T416 393t-53.5 46.5T284 457q-41 0-72.5-15T159 399.5 127 334t-11-84 11-84 32-65.5T211.5 58 284 43zm158 684v-14q0-32-11-56t-29.5-41-43-25.5T306 582t-52.5 8.5-43 25.5-29.5 41-11 56v14h55v-13q0-37 23-59t58-22 58 22 23 59v13h55z"/><glyph glyph-name="Aogonek" unicode="Ą" horiz-adv-x="673" d="M498 231H172L90 0H21l259 714h112L652 0q-31-16-54-41.5T575-96q0-28 21.5-42t57.5-15v-47h-17q-53 0-86.5 23T517-105q0 33 20 62t44 43zm-304 60h283L351 644h-31z"/><glyph glyph-name="aogonek" unicode="ą" horiz-adv-x="604" d="M276 513q62 0 101.5-21t60.5-48h20v56h61V0q-31-16-54-41.5T442-96q0-28 21.5-42t57.5-15v-47h-17q-53 0-86.5 23T384-105q0 17 6.5 33.5t17 31T431-15t27 17v54h-20q-21-26-60.5-47.5T276-13q-53 0-94 20.5T112 63t-44 83-15 104 15 104 44 83.5 70 55.5 94 20zm8-470q46 0 78.5 17.5T416 107t30.5 66.5T456 250q0 40-9.5 77T416 393t-53.5 46.5T284 457q-41 0-72.5-15T159 399.5 127 334t-11-84 11-84 32-65.5T211.5 58 284 43z"/><glyph glyph-name="Cacute" unicode="Ć" horiz-adv-x="710" d="M659 193q-11-45-34.5-83t-58-65.5T486 2 383-13q-79 0-139.5 28.5t-102 78-63 117.5T57 357t21.5 146 63 117.5 102.5 78T384 727q104 0 174.5-51T651 535h-70q-23 63-69 97.5T384 667q-68 0-117.5-26T185 571.5t-47-99T123 357t15-116 46.5-99 81-69T383 47q82 0 133.5 40T588 193h71zM396 767h-58l83 129h80z"/><glyph glyph-name="cacute" unicode="ć" horiz-adv-x="541" d="M495 143q-15-69-66.5-112.5T292-13q-58 0-102.5 20.5t-75 56.5-46 84T53 250q0 55 15.5 103t46 83.5 75 56T292 513q87 0 137-43t64-109h-63q-14 43-47 69.5T292 457q-47 0-80.5-16.5t-54.5-45-31-65.5-10-78 10-78.5 31.5-66.5T212 60.5 292 43q60 0 94.5 27.5T432 143h63zM299 582h-58l83 145h80z"/><glyph glyph-name="Ccaron" unicode="Č" horiz-adv-x="710" d="M659 193q-11-45-34.5-83t-58-65.5T486 2 383-13q-79 0-139.5 28.5t-102 78-63 117.5T57 357t21.5 146 63 117.5 102.5 78T384 727q104 0 174.5-51T651 535h-70q-23 63-69 97.5T384 667q-68 0-117.5-26T185 571.5t-47-99T123 357t15-116 46.5-99 81-69T383 47q82 0 133.5 40T588 193h71zM229 896h68l65-79h20l65 79h66L408 767h-74z"/><glyph glyph-name="ccaron" unicode="č" horiz-adv-x="541" d="M495 143q-15-69-66.5-112.5T292-13q-58 0-102.5 20.5t-75 56.5-46 84T53 250q0 55 15.5 103t46 83.5 75 56T292 513q87 0 137-43t64-109h-63q-14 43-47 69.5T292 457q-47 0-80.5-16.5t-54.5-45-31-65.5-10-78 10-78.5 31.5-66.5T212 60.5 292 43q60 0 94.5 27.5T432 143h63zM147 727h65l68-95h20l68 95h63L326 582h-74z"/><glyph glyph-name="Dcaron" unicode="Ď" horiz-adv-x="735" d="M349 714q82 0 143.5-25.5t103-72.5 62-112.5T678 357q0-80-20.5-146t-62-113-103-72.5T349 0H94v714h255zm7-654q70 0 118.5 24t79 64.5T598 243t14 114-14 114-44.5 94.5-79 64.5T356 654H160V60h196zM190 896h68l65-79h20l65 79h66L369 767h-74z"/><glyph glyph-name="dcaron" unicode="ď" horiz-adv-x="668" d="M614 635v92h84V618l-44-67h-43l44 67v17h-41zM276 513q62 0 100.5-21t59.5-48h20v283h63V0h-61v56h-20q-21-26-60.5-47.5T276-13q-53 0-94 20.5T112 63t-44 83-15 104 15 104 44 83.5 70 55.5 94 20zm8-470q46 0 78.5 17.5T416 107t30.5 66.5T456 250q0 40-9.5 77T416 393t-53.5 46.5T284 457q-41 0-72.5-15T159 399.5 127 334t-11-84 11-84 32-65.5T211.5 58 284 43z"/><glyph glyph-name="Dcroat" unicode="Đ" horiz-adv-x="759" d="M20 400h98v314h255q82 0 143.5-25.5t103-72.5 62-112.5T702 357q0-80-20.5-146t-62-113-103-72.5T373 0H118v344H20v56zM380 60q70 0 118.5 24t79 64.5T622 243t14 114-14 114-44.5 94.5-79 64.5T380 654H184V400h234v-56H184V60h196z"/><glyph glyph-name="dcroat" unicode="đ" horiz-adv-x="613" d="M276 513q62 0 100.5-21t59.5-48h20v142H296v50h160v91h63v-91h84v-50h-84V0h-61v56h-20q-21-26-60.5-47.5T276-13q-53 0-94 20.5T112 63t-44 83-15 104 15 104 44 83.5 70 55.5 94 20zm8-470q46 0 78.5 17.5T416 107t30.5 66.5T456 250q0 40-9.5 77T416 393t-53.5 46.5T284 457q-41 0-72.5-15T159 399.5 127 334t-11-84 11-84 32-65.5T211.5 58 284 43z"/><glyph glyph-name="Emacron" unicode="Ē" horiz-adv-x="646" d="M596 60V0H94v714h485v-60H160V402h341v-60H160V60h436zM196 817v54h274v-54H196z"/><glyph glyph-name="emacron" unicode="ē" horiz-adv-x="558" d="M505 261H116v-14q0-47 12.5-84.5t35.5-64 55-41T291 43q58 0 93.5 23.5T432 131h63q-6-30-21.5-56.5t-41-46-61-30.5T291-13q-58 0-102.5 21T114 65.5 68.5 151 53 256q0 57 16 104.5t46.5 81T190 494t100 19q54 0 94.5-19.5t67.5-52 40-74.5 13-86v-20zM288 457q-39 0-68-12t-50-31.5-33.5-44.5-16.5-52h320q-2 27-12.5 52T398 413.5 351.5 445 288 457zM152 633v54h274v-54H152z"/><glyph glyph-name="Edotaccent" unicode="Ė" horiz-adv-x="646" d="M596 60V0H94v714h485v-60H160V402h341v-60H160V60h436zM346 908l64-64-64-65-64 65z"/><glyph glyph-name="edotaccent" unicode="ė" horiz-adv-x="558" d="M505 261H116v-14q0-47 12.5-84.5t35.5-64 55-41T291 43q58 0 93.5 23.5T432 131h63q-6-30-21.5-56.5t-41-46-61-30.5T291-13q-58 0-102.5 21T114 65.5 68.5 151 53 256q0 57 16 104.5t46.5 81T190 494t100 19q54 0 94.5-19.5t67.5-52 40-74.5 13-86v-20zM288 457q-39 0-68-12t-50-31.5-33.5-44.5-16.5-52h320q-2 27-12.5 52T398 413.5 351.5 445 288 457zm2 267l64-64-64-65-64 65z"/><glyph glyph-name="Eogonek" unicode="Ę" horiz-adv-x="646" d="M596 60V0q-31-16-54-41.5T519-96q0-28 21.5-42t57.5-15v-47h-17q-53 0-86.5 23T461-105q0 33 21.5 62T530 0H94v714h485v-60H160V402h341v-60H160V60h436z"/><glyph glyph-name="eogonek" unicode="ę" horiz-adv-x="558" d="M505 261H116v-14q0-47 12.5-84.5t35.5-64 55-41T291 43q58 0 93.5 23.5T432 131h63q-8-45-34.5-75.5T381 1q-34-16-57-42t-23-55q0-28 21.5-42t57.5-15v-47h-17q-53 0-86.5 23T243-105q0 27 15 51.5T296-13q-60 0-105.5 21t-76 57.5-46 85.5T53 256q0 57 16 104.5t46.5 81T190 494t100 19q54 0 94.5-19.5t67.5-52 40-74.5 13-86v-20zM288 457q-39 0-68-12t-50-31.5-33.5-44.5-16.5-52h320q-2 27-12.5 52T398 413.5 351.5 445 288 457z"/><glyph glyph-name="Ecaron" unicode="Ě" horiz-adv-x="646" d="M596 60V0H94v714h485v-60H160V402h341v-60H160V60h436zM203 896h68l65-79h20l65 79h66L382 767h-74z"/><glyph glyph-name="ecaron" unicode="ě" horiz-adv-x="558" d="M505 261H116v-14q0-47 12.5-84.5t35.5-64 55-41T291 43q58 0 93.5 23.5T432 131h63q-6-30-21.5-56.5t-41-46-61-30.5T291-13q-58 0-102.5 21T114 65.5 68.5 151 53 256q0 57 16 104.5t46.5 81T190 494t100 19q54 0 94.5-19.5t67.5-52 40-74.5 13-86v-20zM288 457q-39 0-68-12t-50-31.5-33.5-44.5-16.5-52h320q-2 27-12.5 52T398 413.5 351.5 445 288 457zM137 727h65l68-95h20l68 95h63L316 582h-74z"/><glyph glyph-name="uni0122" unicode="Ģ" horiz-adv-x="737" d="M367 370h310v-65q0-62-16-119T610 84.5t-91-71T383-13 242 16 140 95.5 78 213 57 357q0 78 21.5 145.5t63 117.5T244 698.5 385 727q107 0 177.5-51T654 535h-69q-19 60-66.5 96T385 667q-69 0-118.5-26T185 572t-47-99-15-116q0-59 14.5-115t46-99.5 81-69.5T383 47q58 0 100.5 18.5T554 116t41.5 75.5T609 285v25H367v60zm-26-585l49 60v17h-41v79h84v-96l-48-60h-44z"/><glyph glyph-name="uni0123" unicode="ģ" horiz-adv-x="605" d="M520 36q0-115-62.5-175.5T280-200H101v56h191q85 0 125 43.5T457 34v35h-20q-22-27-61-48T278 0q-52 0-93.5 19.5t-70.5 54-44.5 81T54 256t15.5 102 44.5 81.5 70.5 54T278 513q61 0 100-21.5t61-47.5h20v56h61V36zM285 56q45 0 77.5 16.5T416 117t31 64 10 75-10 75.5-31 64-53.5 44.5-77.5 17q-80 0-124-55t-44-146q0-45 11.5-82t33-63T214 70.5 285 56zm66 671l-49-60v-17h41v-79h-84v96l48 60h44z"/><glyph glyph-name="Itilde" unicode="Ĩ" horiz-adv-x="268" d="M167 714V0h-66v714h66zm43 108q25 0 32.5 23.5T250 898h48q0-132-89-132-26 0-45.5 12T125 807q-13 11-29.5 23.5T60 843q-13 0-21-6.5T26.5 819t-6-24.5T19 766h-48q0 132 90 132 29 0 50-13.5t40-29.5q16-13 29.5-23t29.5-10z"/><glyph glyph-name="itilde" unicode="ĩ" horiz-adv-x="239" d="M151 0H88v500h63V0zm45 645q25 0 32.5 23.5T236 721h48q0-132-89-132-26 0-45.5 12T111 630q-13 11-29.5 23.5T46 666q-13 0-21-6.5T12.5 642t-6-24.5T5 589h-48q0 132 90 132 29 0 50-13.5t40-29.5q16-13 29.5-23t29.5-10z"/><glyph glyph-name="Imacron" unicode="Ī" horiz-adv-x="268" d="M167 714V0h-66v714h66zM-2 817v54h274v-54H-2z"/><glyph glyph-name="imacron" unicode="ī" horiz-adv-x="239" d="M151 0H88v500h63V0zM12 633v54h214v-54H12z"/><glyph glyph-name="Iogonek" unicode="Į" horiz-adv-x="268" d="M167 714V0q-31-16-54-41.5T90-96q0-28 21.5-42t57.5-15v-47h-17q-53 0-86.5 23T32-105q0 33 21.5 62T101 0v714h66z"/><glyph glyph-name="iogonek" unicode="į" horiz-adv-x="239" d="M151 0q-31-16-54-41.5T74-96q0-28 21.5-42t57.5-15v-47h-17q-53 0-86.5 23T16-105q0 17 6.5 33T39-42t23 25T88 1v499h63V0zM81 640v87h77v-87H81z"/><glyph glyph-name="dotlessi" unicode="ı" horiz-adv-x="239" d="M151 0H88v500h63V0z"/><glyph glyph-name="uni0136" unicode="Ķ" horiz-adv-x="715" d="M94 714h66V399h216l164 315h74L434 367 623 0h-73L375 339H160V0H94v714zm229-929l49 60v17h-41v79h84v-96l-48-60h-44z"/><glyph glyph-name="uni0137" unicode="ķ" horiz-adv-x="534" d="M294 230H148V0H85v727h63V286h148l126 214h70L350 259 499 0h-73zm-47-445l49 60v17h-41v79h84v-96l-48-60h-44z"/><glyph glyph-name="kgreenlandic" unicode="ĸ" horiz-adv-x="534" d="M449 0L294 278h-20L148 143V0H85v500h63V227l256 273h79L332 340 521 0h-72z"/><glyph glyph-name="Lacute" unicode="Ĺ" horiz-adv-x="611" d="M571 62V0H94v714h66V62h411zM157 767H99l83 129h80z"/><glyph glyph-name="lacute" unicode="ĺ" horiz-adv-x="233" d="M148 0H85v727h63V0zm0 767H90l83 129h80z"/><glyph glyph-name="uni013B" unicode="Ļ" horiz-adv-x="611" d="M571 62V0H94v714h66V62h411zM285-215l49 60v17h-41v79h84v-96l-48-60h-44z"/><glyph glyph-name="uni013C" unicode="ļ" horiz-adv-x="233" d="M148 0H85v727h63V0zM67-215l49 60v17H75v79h84v-96l-48-60H67z"/><glyph glyph-name="Lcaron" unicode="Ľ" horiz-adv-x="611" d="M363 622v92h84V605l-44-67h-43l44 67v17h-41zM571 62V0H94v714h66V62h411z"/><glyph glyph-name="lcaron" unicode="ľ" horiz-adv-x="298" d="M244 635v92h84V618l-44-67h-43l44 67v17h-41zM148 0H85v727h63V0z"/><glyph glyph-name="Lslash" unicode="Ł" horiz-adv-x="626" d="M586 62V0H109v326l-89-36v61l89 36v327h66V414l173 70v-61l-173-70V62h411z"/><glyph glyph-name="lslash" unicode="ł" horiz-adv-x="323" d="M193 0h-63v329L30 284v62l100 45v336h63V419l100 46v-62l-100-46V0z"/><glyph glyph-name="Nacute" unicode="Ń" horiz-adv-x="757" d="M663 714V0H543L180 644h-20V0H94v714h120L577 70h20v644h66zm-261 53h-58l83 129h80z"/><glyph glyph-name="nacute" unicode="ń" horiz-adv-x="592" d="M452 0v307q0 150-139 150-37 0-67.5-15t-52-40-33.5-58.5-12-69.5V0H85v500h61v-56h20q20 29 60.5 49t92.5 20q94 0 145-52.5T515 318V0h-63zM324 582h-58l83 145h80z"/><glyph glyph-name="uni0145" unicode="Ņ" horiz-adv-x="757" d="M663 714V0H543L180 644h-20V0H94v714h120L577 70h20v644h66zM319-215l49 60v17h-41v79h84v-96l-48-60h-44z"/><glyph glyph-name="uni0146" unicode="ņ" horiz-adv-x="592" d="M452 0v307q0 150-139 150-37 0-67.5-15t-52-40-33.5-58.5-12-69.5V0H85v500h61v-56h20q20 29 60.5 49t92.5 20q94 0 145-52.5T515 318V0h-63zM250-215l49 60v17h-41v79h84v-96l-48-60h-44z"/><glyph glyph-name="Ncaron" unicode="Ň" horiz-adv-x="757" d="M663 714V0H543L180 644h-20V0H94v714h120L577 70h20v644h66zM236 896h68l65-79h20l65 79h66L415 767h-74z"/><glyph glyph-name="ncaron" unicode="ň" horiz-adv-x="592" d="M452 0v307q0 150-139 150-37 0-67.5-15t-52-40-33.5-58.5-12-69.5V0H85v500h61v-56h20q20 29 60.5 49t92.5 20q94 0 145-52.5T515 318V0h-63zM158 727h65l68-95h20l68 95h63L337 582h-74z"/><glyph glyph-name="Eng" unicode="Ŋ" horiz-adv-x="757" d="M180 644h-20V0H94v714h120L577 70h20v644h66V28q0-106-54-167t-150-61h-61v60h61q27 0 51 8t42.5 25.5 30 44T595 0h-52z"/><glyph glyph-name="eng" unicode="ŋ" horiz-adv-x="592" d="M452 307q0 150-139 150-37 0-67.5-15t-52-40-33.5-58.5-12-69.5V0H85v500h61v-56h20q20 29 60.5 49t92.5 20q94 0 145-52.5T515 318V-47q0-78-38.5-115.5T360-200h-56v56h54q51 0 72.5 24T452-43v350z"/><glyph glyph-name="Omacron" unicode="Ō" horiz-adv-x="768" d="M384 727q80 0 141-29t102.5-79.5 62.5-118T711 357q0-77-21-144T627.5 95.5 525 16 384-13 242.5 16 140 95.5 78 213 57 357q0 76 21 143.5t62 118T242.5 698 384 727zm0-680q69 0 118.5 26.5t81 70 46.5 99T645 357t-15 114.5-46.5 99-81 70T384 667t-118.5-26.5-81-70-46.5-99T123 357t15-114.5 46.5-99 81-70T384 47zM247 817v54h274v-54H247z"/><glyph glyph-name="omacron" unicode="ō" horiz-adv-x="588" d="M294 513q58 0 103-20.5t75.5-56.5 46.5-84 16-102-16-102-46.5-84T397 7.5 294-13q-59 0-103.5 20.5T115 64t-46.5 84T53 250t15.5 102 46.5 84 75.5 56.5T294 513zm0-470q45 0 78.5 17.5T428 107t33 66.5 11 76.5-11 76.5-33 66.5-55.5 46.5T294 457q-46 0-79.5-17.5T159 393t-32.5-66.5T116 250t10.5-76.5T159 107t55.5-46.5T294 43zM157 633v54h274v-54H157z"/><glyph glyph-name="Ohungarumlaut" unicode="Ő" horiz-adv-x="768" d="M384 727q80 0 141-29t102.5-79.5 62.5-118T711 357q0-77-21-144T627.5 95.5 525 16 384-13 242.5 16 140 95.5 78 213 57 357q0 76 21 143.5t62 118T242.5 698 384 727zm0-680q69 0 118.5 26.5t81 70 46.5 99T645 357t-15 114.5-46.5 99-81 70T384 667t-118.5-26.5-81-70-46.5-99T123 357t15-114.5 46.5-99 81-70T384 47zm-61 720h-58l77 129h80zm150 0h-58l77 129h80z"/><glyph glyph-name="ohungarumlaut" unicode="ő" horiz-adv-x="588" d="M294 513q58 0 103-20.5t75.5-56.5 46.5-84 16-102-16-102-46.5-84T397 7.5 294-13q-59 0-103.5 20.5T115 64t-46.5 84T53 250t15.5 102 46.5 84 75.5 56.5T294 513zm0-470q45 0 78.5 17.5T428 107t33 66.5 11 76.5-11 76.5-33 66.5-55.5 46.5T294 457q-46 0-79.5-17.5T159 393t-32.5-66.5T116 250t10.5-76.5T159 107t55.5-46.5T294 43zm-67 539h-58l77 145h80zm150 0h-58l77 145h80z"/><glyph glyph-name="OE" unicode="Œ" horiz-adv-x="1083" d="M1033 60V0H581v53h-20q-33-35-81-50.5T384-13q-80 0-141.5 29T140 95.5 78 213 57 357q0 76 21 143.5t62 118T242.5 698 384 727q48 0 96-15t81-50h20v52h435v-60H647V402h291v-60H647V60h386zM382 47q42 0 74.5 10T514 83.5t41.5 38.5 25.5 45v381q-9 23-26 44.5t-41.5 38T456 657t-74 10q-69 0-118-26.5t-80.5-70-46-99T123 357t14.5-114.5 46-99 80.5-70T382 47z"/><glyph glyph-name="oe" unicode="œ" horiz-adv-x="962" d="M528 261v-12q0-46 12-84t34-65 53.5-42T698 43q58 0 93 23.5t48 64.5h63q-6-30-22-56.5t-41.5-46T778-2t-80-11q-66 0-114 28.5T507 92h-21q-29-48-78.5-76.5T290-13q-57 0-101.5 20.5T114 64t-45.5 84T53 250t15.5 102 45.5 84 74.5 56.5T290 513q66 0 114.5-27t78.5-73h23q29 47 77.5 73.5T698 513q53 0 92.5-19.5t66-52T896 367t13-86v-20H528zM290 43q45 0 77.5 17.5T422 107t32.5 66.5T465 250t-10.5 76.5T422 393t-54.5 46.5T290 457t-77.5-17.5-54-46.5-32-66.5T116 250t10.5-76.5 32-66.5 54-46.5T290 43zm406 414q-38 0-66.5-12T581 413.5 548.5 369 531 317h313q-2 27-12 52t-29 44.5-45.5 31.5-61.5 12z"/><glyph glyph-name="Racute" unicode="Ŕ" horiz-adv-x="702" d="M631 512q0-127-101-176 40-18 55.5-47.5T601 216V0h-66v209q0 53-33 77t-96 24H160V0H94v714h308q111 0 170-53.5T631 512zm-66 0q0 33-9 59t-29.5 44.5T473 644t-81 10H160V370h232q48 0 81 10t53.5 28.5T556 453t9 59zM336 767h-58l83 129h80z"/><glyph glyph-name="racute" unicode="ŕ" horiz-adv-x="379" d="M347 442h-34q-36 0-66.5-12t-52-34.5-34-55.5-12.5-76V0H85v500h61v-61h20q22 26 58.5 43.5T312 500h35v-58zM214 582h-58l83 145h80z"/><glyph glyph-name="uni0156" unicode="Ŗ" horiz-adv-x="702" d="M631 512q0-127-101-176 40-18 55.5-47.5T601 216V0h-66v209q0 53-33 77t-96 24H160V0H94v714h308q111 0 170-53.5T631 512zm-66 0q0 33-9 59t-29.5 44.5T473 644t-81 10H160V370h232q48 0 81 10t53.5 28.5T556 453t9 59zM298-215l49 60v17h-41v79h84v-96l-48-60h-44z"/><glyph glyph-name="uni0157" unicode="ŗ" horiz-adv-x="379" d="M347 442h-34q-36 0-66.5-12t-52-34.5-34-55.5-12.5-76V0H85v500h61v-61h20q22 26 58.5 43.5T312 500h35v-58zM70-215l49 60v17H78v79h84v-96l-48-60H70z"/><glyph glyph-name="Rcaron" unicode="Ř" horiz-adv-x="702" d="M631 512q0-127-101-176 40-18 55.5-47.5T601 216V0h-66v209q0 53-33 77t-96 24H160V0H94v714h308q111 0 170-53.5T631 512zm-66 0q0 33-9 59t-29.5 44.5T473 644t-81 10H160V370h232q48 0 81 10t53.5 28.5T556 453t9 59zM201 896h68l65-79h20l65 79h66L380 767h-74z"/><glyph glyph-name="rcaron" unicode="ř" horiz-adv-x="379" d="M347 442h-34q-36 0-66.5-12t-52-34.5-34-55.5-12.5-76V0H85v500h61v-61h20q22 26 58.5 43.5T312 500h35v-58zM69 727h65l68-95h20l68 95h63L248 582h-74z"/><glyph glyph-name="Sacute" unicode="Ś" horiz-adv-x="653" d="M410 388q39-8 72.5-22t58-37.5 38-56.5 13.5-79q0-38-16-75t-49-66-83-47-117-18q-61 0-110 15.5T132 45t-57.5 64.5T48 191h68q10-40 30-67.5T194 79t63-24.5 75-7.5 75 9.5 61.5 28 42 45.5 15.5 62q0 32-10.5 54.5t-29 38.5-43.5 25.5-55 15.5l-126 24q-41 8-74.5 21.5T130 407t-37 52.5T80 532q0 40 15.5 75.5t46.5 62 75.5 42T321 727q55 0 99-13.5t76-38 52-59 26-75.5h-66q-14 60-58 93t-132 33q-35 0-66-9t-54.5-26-37.5-41.5-14-56.5q0-30 12-50.5t30.5-35 42.5-23 48-12.5zm-77 379h-58l83 129h80z"/><glyph glyph-name="sacute" unicode="ś" horiz-adv-x="501" d="M316 279q65-11 103-43.5t38-96.5q0-28-12.5-55.5t-37.5-49T344.5 0 258-13q-102 0-155.5 42T41 139h62q8-49 49.5-72.5T252 43q62 0 102 23t40 71q0 35-23 55t-73 28l-97 17q-62 10-100.5 41.5T62 369q0 30 12 56t36 45.5 60.5 31T255 513q82 0 131-38t57-101h-62q-2 21-14 36.5t-30 26-41 15.5-47 5q-54 0-89-21.5T125 372q0-32 21.5-50t69.5-26zm-55 303h-58l83 145h80z"/><glyph glyph-name="Scedilla" unicode="Ş" horiz-adv-x="649" d="M410 388q39-8 72.5-22t58-37.5 38-56.5 13.5-79q0-38-16-75t-49-66-82.5-47T328-13l-20-50h13q5 3 12 5.5t17 2.5q26 0 45-21t19-54q0-14-5-28.5t-15.5-26T366-203t-40-7q-38 0-60 19.5T242-146h48q7-22 36-22 17 0 27.5 10t10.5 28q0 17-10 27t-26 10q-10 0-18-3t-13-8h-48l36 93q-52 5-93.5 22t-72 43.5-49 61.5T48 191h68q10-40 30-67.5T194 79t63-24.5 75-7.5 75 9.5 61.5 28 42 45.5 15.5 62q0 32-10.5 54.5t-29 38.5-43.5 25.5-55 15.5l-126 24q-41 8-74.5 21.5T130 407t-37 52.5T80 532q0 40 15.5 75.5t46.5 62 75.5 42T321 727q55 0 99-13.5t76-38 52-59 26-75.5h-66q-14 60-58 93t-132 33q-35 0-66-9t-54.5-26-37.5-41.5-14-56.5q0-30 12-50.5t30.5-35 42.5-23 48-12.5z"/><glyph glyph-name="scedilla" unicode="ş" horiz-adv-x="501" d="M316 279q65-11 103-43.5t38-96.5q0-28-12.5-55.5t-37.5-49T344.5 0 258-13h-9l-20-50h13q5 3 12 5.5t17 2.5q26 0 45-21t19-54q0-14-5-28.5t-15.5-26T287-203t-40-7q-38 0-60 19.5T163-146h48q7-22 36-22 17 0 27.5 10t10.5 28q0 17-10 27t-26 10q-10 0-18-3t-13-8h-48l37 95Q129 1 88.5 40.5T41 139h62q8-49 49.5-72.5T252 43q62 0 102 23t40 71q0 35-23 55t-73 28l-97 17q-62 10-100.5 41.5T62 369q0 30 12 56t36 45.5 60.5 31T255 513q82 0 131-38t57-101h-62q-2 21-14 36.5t-30 26-41 15.5-47 5q-54 0-89-21.5T125 372q0-32 21.5-50t69.5-26z"/><glyph glyph-name="Scaron" unicode="Š" horiz-adv-x="653" d="M410 388q39-8 72.5-22t58-37.5 38-56.5 13.5-79q0-38-16-75t-49-66-83-47-117-18q-61 0-110 15.5T132 45t-57.5 64.5T48 191h68q10-40 30-67.5T194 79t63-24.5 75-7.5 75 9.5 61.5 28 42 45.5 15.5 62q0 32-10.5 54.5t-29 38.5-43.5 25.5-55 15.5l-126 24q-41 8-74.5 21.5T130 407t-37 52.5T80 532q0 40 15.5 75.5t46.5 62 75.5 42T321 727q55 0 99-13.5t76-38 52-59 26-75.5h-66q-14 60-58 93t-132 33q-35 0-66-9t-54.5-26-37.5-41.5-14-56.5q0-30 12-50.5t30.5-35 42.5-23 48-12.5zM181 896h68l65-79h20l65 79h66L360 767h-74z"/><glyph glyph-name="scaron" unicode="š" horiz-adv-x="501" d="M316 279q65-11 103-43.5t38-96.5q0-28-12.5-55.5t-37.5-49T344.5 0 258-13q-102 0-155.5 42T41 139h62q8-49 49.5-72.5T252 43q62 0 102 23t40 71q0 35-23 55t-73 28l-97 17q-62 10-100.5 41.5T62 369q0 30 12 56t36 45.5 60.5 31T255 513q82 0 131-38t57-101h-62q-2 21-14 36.5t-30 26-41 15.5-47 5q-54 0-89-21.5T125 372q0-32 21.5-50t69.5-26zM110 727h65l68-95h20l68 95h63L289 582h-74z"/><glyph glyph-name="uni0162" unicode="Ţ" horiz-adv-x="585" d="M566 656H326V0h-66v656H19v58h547v-58zM243-215l49 60v17h-41v79h84v-96l-48-60h-44z"/><glyph glyph-name="uni0163" unicode="ţ" horiz-adv-x="398" d="M339 500v-56H197V134q0-43 21-60.5T293 56h46V0h-51q-39 0-68 5.5T172 25t-28.5 38-9.5 61v320H28v56h106v155h63V500h142zM178-215l49 60v17h-41v79h84v-96l-48-60h-44z"/><glyph glyph-name="Tcaron" unicode="Ť" horiz-adv-x="585" d="M566 656H326V0h-66v656H19v58h547v-58zM150 896h68l65-79h20l65 79h66L329 767h-74z"/><glyph glyph-name="tcaron" unicode="ť" horiz-adv-x="410" d="M337 635v92h84V618l-44-67h-43l44 67v17h-41zm2-135v-56H197V138q0-43 21.5-62.5T296 56h43V0h-48q-40 0-69.5 6t-49 21-29 39.5T134 128v316H28v56h106v155h63V500h142z"/><glyph glyph-name="Tbar" unicode="Ŧ" horiz-adv-x="585" d="M566 656H326V400h167v-56H326V0h-66v344H92v56h168v256H19v58h547v-58z"/><glyph glyph-name="tbar" unicode="ŧ" horiz-adv-x="398" d="M134 315v129H28v56h106v155h63V500h142v-56H197V315h142v-56H197V135q0-43 21-61t76-18h45V0h-50q-40 0-69 5.5t-48 20T143.5 64t-9.5 61v134H28v56h106z"/><glyph glyph-name="Utilde" unicode="Ũ" horiz-adv-x="732" d="M640 714V252q0-124-70.5-194.5T366-13 162.5 57.5 92 252v462h66V251q0-46 13.5-83.5T211 103t65-41.5T366 47t90 14.5 65 41.5 39.5 64.5T574 251v463h66zM441 822q25 0 32.5 23.5T481 898h48q0-132-89-132-26 0-45.5 12T356 807q-13 11-29.5 23.5T291 843q-13 0-21-6.5T257.5 819t-6-24.5T250 766h-48q0 132 90 132 29 0 50-13.5t40-29.5q16-13 29.5-23t29.5-10z"/><glyph glyph-name="utilde" unicode="ũ" horiz-adv-x="589" d="M140 500V193q0-150 137-150 37 0 67 15t51.5 40 33.5 58.5 12 69.5v274h63V0h-61v56h-20q-20-29-60-49t-92-20q-94 0-144 52.5T77 182v318h63zm226 145q25 0 32.5 23.5T406 721h48q0-132-89-132-26 0-45.5 12T281 630q-13 11-29.5 23.5T216 666q-13 0-21-6.5T182.5 642t-6-24.5T175 589h-48q0 132 90 132 29 0 50-13.5t40-29.5q16-13 29.5-23t29.5-10z"/><glyph glyph-name="Umacron" unicode="Ū" horiz-adv-x="732" d="M640 714V252q0-124-70.5-194.5T366-13 162.5 57.5 92 252v462h66V251q0-46 13.5-83.5T211 103t65-41.5T366 47t90 14.5 65 41.5 39.5 64.5T574 251v463h66zM229 817v54h274v-54H229z"/><glyph glyph-name="umacron" unicode="ū" horiz-adv-x="589" d="M140 500V193q0-150 137-150 37 0 67 15t51.5 40 33.5 58.5 12 69.5v274h63V0h-61v56h-20q-20-29-60-49t-92-20q-94 0-144 52.5T77 182v318h63zm12 133v54h274v-54H152z"/><glyph glyph-name="Uring" unicode="Ů" horiz-adv-x="732" d="M640 714V252q0-124-70.5-194.5T366-13 162.5 57.5 92 252v462h66V251q0-46 13.5-83.5T211 103t65-41.5T366 47t90 14.5 65 41.5 39.5 64.5T574 251v463h66zM367 966q22 0 41-8.5t33-22.5 22.5-33 8.5-41-8.5-41-22.5-33.5-33-23-41-8.5-41 8.5-33.5 23-23 33.5-8.5 41 8.5 41 23 33 33.5 22.5 41 8.5zm0-163q25 0 41.5 16t16.5 42q0 25-16.5 41.5T367 919q-26 0-42-16.5T309 861q0-26 16-42t42-16z"/><glyph glyph-name="uring" unicode="ů" horiz-adv-x="589" d="M140 500V193q0-150 137-150 37 0 67 15t51.5 40 33.5 58.5 12 69.5v274h63V0h-61v56h-20q-20-29-60-49t-92-20q-94 0-144 52.5T77 182v318h63zm150 293q22 0 41-8.5t33-22.5 22.5-33 8.5-41-8.5-41-22.5-33.5-33-23-41-8.5-41 8.5-33.5 23-23 33.5-8.5 41 8.5 41 23 33 33.5 22.5 41 8.5zm0-163q25 0 41.5 16t16.5 42q0 25-16.5 41.5T290 746q-26 0-42-16.5T232 688q0-26 16-42t42-16z"/><glyph glyph-name="Uhungarumlaut" unicode="Ű" horiz-adv-x="732" d="M640 714V252q0-124-70.5-194.5T366-13 162.5 57.5 92 252v462h66V251q0-46 13.5-83.5T211 103t65-41.5T366 47t90 14.5 65 41.5 39.5 64.5T574 251v463h66zm-342 53h-58l77 129h80zm150 0h-58l77 129h80z"/><glyph glyph-name="uhungarumlaut" unicode="ű" horiz-adv-x="589" d="M140 500V193q0-150 137-150 37 0 67 15t51.5 40 33.5 58.5 12 69.5v274h63V0h-61v56h-20q-20-29-60-49t-92-20q-94 0-144 52.5T77 182v318h63zm79 82h-58l77 145h80zm150 0h-58l77 145h80z"/><glyph glyph-name="Uogonek" unicode="Ų" horiz-adv-x="732" d="M640 714V252q0-91-36.5-152.5T496 10q-20-8-39-17.5t-34-22T398.5-58 389-96q0-28 21.5-42t57.5-15v-47h-17q-53 0-86.5 23T331-105q0 27 15 51.5T381-13h-15q-133 0-203.5 70.5T92 252v462h66V251q0-46 13.5-83.5T211 103t65-41.5T366 47t90 14.5 65 41.5 39.5 64.5T574 251v463h66z"/><glyph glyph-name="uogonek" unicode="ų" horiz-adv-x="589" d="M443 56h-20q-20-29-60-49t-92-20q-94 0-144 52.5T77 182v318h63V193q0-150 137-150 37 0 67 15t51.5 40 33.5 58.5 12 69.5v274h63V0q-31-16-54-41.5T427-96q0-28 21.5-42t57.5-15v-47h-17q-53 0-86.5 23T369-105q0 17 6.5 33.5t17 31T416-15t27 17v54z"/><glyph glyph-name="Ydieresis" unicode="Ÿ" horiz-adv-x="628" d="M329 373l203 341h75L347 279V0h-66v279L21 714h76l204-341h28zM227 902l58-58-58-58-58 58zm174 0l58-58-58-58-58 58z"/><glyph glyph-name="Zacute" unicode="Ź" horiz-adv-x="636" d="M572 634L128 80V60h458V0H50v81l444 553v20H76v60h496v-80zM343 767h-58l83 129h80z"/><glyph glyph-name="zacute" unicode="ź" horiz-adv-x="504" d="M50 0v76l325 349v19H67v56h387v-75L129 76V56h325V0H50zm232 582h-58l83 145h80z"/><glyph glyph-name="Zdotaccent" unicode="Ż" horiz-adv-x="636" d="M572 634L128 80V60h458V0H50v81l444 553v20H76v60h496v-80zM319 908l64-64-64-65-64 65z"/><glyph glyph-name="zdotaccent" unicode="ż" horiz-adv-x="504" d="M50 0v76l325 349v19H67v56h387v-75L129 76V56h325V0H50zm202 724l64-64-64-65-64 65z"/><glyph glyph-name="Zcaron" unicode="Ž" horiz-adv-x="636" d="M572 634L128 80V60h458V0H50v81l444 553v20H76v60h496v-80zM176 896h68l65-79h20l65 79h66L355 767h-74z"/><glyph glyph-name="zcaron" unicode="ž" horiz-adv-x="504" d="M50 0v76l325 349v19H67v56h387v-75L129 76V56h325V0H50zm60 727h65l68-95h20l68 95h63L289 582h-74z"/><glyph glyph-name="florin" unicode="ƒ" horiz-adv-x="413" d="M46-200l99 562H50v56h105l26 148q15 85 61 123t126 38h35v-56h-41q-56 0-83-32t-36-83l-25-138h127v-56H208l-99-562H46z"/><glyph glyph-name="circumflex" unicode="ˆ" horiz-adv-x="360" d="M322 582h-65l-68 95h-20l-68-95H38l105 145h74z"/><glyph glyph-name="caron" unicode="ˇ" horiz-adv-x="360" d="M38 727h65l68-95h20l68 95h63L217 582h-74z"/><glyph glyph-name="breve" unicode="˘" horiz-adv-x="352" d="M312 727v-14q0-32-11-56t-29.5-41-43-25.5T176 582t-52.5 8.5-43 25.5T51 657t-11 56v14h55v-13q0-37 23-59t58-22 58 22 23 59v13h55z"/><glyph glyph-name="dotaccent" unicode="˙" horiz-adv-x="149" d="M74 724l64-64-64-65-64 65z"/><glyph glyph-name="ring" unicode="˚" horiz-adv-x="291" d="M146 793q22 0 41-8.5t33-22.5 22.5-33 8.5-41-8.5-41-22.5-33.5-33-23-41-8.5-41 8.5-33.5 23-23 33.5-8.5 41 8.5 41 23 33 33.5 22.5 41 8.5zm0-163q25 0 41.5 16t16.5 42q0 25-16.5 41.5T146 746q-26 0-42-16.5T88 688q0-26 16-42t42-16z"/><glyph glyph-name="ogonek" unicode="˛" horiz-adv-x="216" d="M158 0q-31-16-54-41.5T81-96q0-28 21.5-42t57.5-15v-47h-17q-53 0-86.5 23T23-105q0 19 7.5 36.5T50-36t27 26 29 16z"/><glyph glyph-name="tilde" unicode="˜" horiz-adv-x="405" d="M278 645q25 0 32.5 23.5T318 721h48q0-132-89-132-26 0-45.5 12T193 630q-13 11-29.5 23.5T128 666q-13 0-21-6.5T94.5 642t-6-24.5T87 589H39q0 132 90 132 29 0 50-13.5t40-29.5q16-13 29.5-23t29.5-10z"/><glyph glyph-name="hungarumlaut" unicode="˝" horiz-adv-x="379" d="M94 582H36l77 145h80zm150 0h-58l77 145h80z"/><glyph glyph-name="uni03A9" unicode="Ω" horiz-adv-x="752" d="M554 60h139V0H426v59q31 18 66.5 46.5t66 68.5 50.5 92.5T629 385q0 65-18.5 117.5t-51.5 89-79.5 56T376 667t-103.5-19.5-79.5-56-51.5-89T123 385q0-66 20-118.5t50.5-92.5 66-68.5T326 59V0H59v60h139v20q-22 19-46.5 48T106 195.5 71 282 57 388q0 76 22.5 138.5t64.5 107 101 69T376 727t131-24.5 101-69 64.5-107T695 388q0-58-14-106t-35-86.5-45.5-67.5T554 80V60z"/><glyph glyph-name="pi" unicode="π" horiz-adv-x="603" d="M516 0q-66 0-93.5 33T395 130v314H172V0h-63v444H28v56h523v-56h-93V130q0-38 16-56t55-18h22V0h-35z"/><glyph glyph-name="uni0401" unicode="Ё" horiz-adv-x="646" d="M596 60V0H94v714h485v-60H160V402h341v-60H160V60h436zM242 902l58-58-58-58-58 58zm174 0l58-58-58-58-58 58z"/><glyph glyph-name="uni0402" unicode="Ђ" horiz-adv-x="788" d="M734 200q0-45-13.5-84t-42-67.5-72-45T504-13q-11-1-21 0-8 0-17 1t-15 3v56q8-2 18-3t28-1q47 0 79.5 12t53 33 29.5 49.5 9 62.5q0 35-9.5 64t-33 50-63.5 32.5T461 358q-42 0-88-5.5T285 337V0h-66v656H19v58h527v-58H285V398q43 9 92 14.5t93 5.5q72 0 122-16.5t81.5-46 46-69.5 14.5-86z"/><glyph glyph-name="uni0403" unicode="Ѓ" horiz-adv-x="617" d="M161 654V0H95v714h476v-60H161zm176 113h-58l83 129h80z"/><glyph glyph-name="uni0404" unicode="Є" horiz-adv-x="709" d="M658 187q-11-44-35-81t-59.5-63.5-81.5-41T381-13q-79 0-139.5 29T140 95 78 212.5 57 357q0 78 21 145.5T140 620t101.5 78.5T381 727q51 0 95-13t78.5-37 58.5-58.5 36-77.5h-70q-22 60-69.5 93T381 667q-62 0-108-22t-77.5-59-48.5-85.5T125 399h362v-60H124q2-57 17.5-110t47-93.5 79-64.5T381 47q81 0 134 38t72 102h71z"/><glyph glyph-name="uni0405" unicode="Ѕ" horiz-adv-x="653" d="M410 388q39-8 72.5-22t58-37.5 38-56.5 13.5-79q0-38-16-75t-49-66-83-47-117-18q-61 0-110 15.5T132 45t-57.5 64.5T48 191h68q10-40 30-67.5T194 79t63-24.5 75-7.5 75 9.5 61.5 28 42 45.5 15.5 62q0 32-10.5 54.5t-29 38.5-43.5 25.5-55 15.5l-126 24q-41 8-74.5 21.5T130 407t-37 52.5T80 532q0 40 15.5 75.5t46.5 62 75.5 42T321 727q55 0 99-13.5t76-38 52-59 26-75.5h-66q-14 60-58 93t-132 33q-35 0-66-9t-54.5-26-37.5-41.5-14-56.5q0-30 12-50.5t30.5-35 42.5-23 48-12.5z"/><glyph glyph-name="uni0406" unicode="І" horiz-adv-x="268" d="M167 714V0h-66v714h66z"/><glyph glyph-name="uni0407" unicode="Ї" horiz-adv-x="268" d="M167 714V0h-66v714h66zM48 902l58-58-58-58-58 58zm174 0l58-58-58-58-58 58z"/><glyph glyph-name="uni0408" unicode="Ј" horiz-adv-x="574" d="M60 714h422V241q0-114-59-177.5T258 0H60v62h210q64 0 105 44.5T416 243v411H60v60z"/><glyph glyph-name="uni0409" unicode="Љ" horiz-adv-x="1103" d="M27 66q36 0 62.5 14.5t44 56 26.5 116 9 193.5v268h428V429h210q117 0 179.5-57t62.5-158q0-100-62.5-157T807 0H531v654H233V446q0-133-11.5-219T185 90.5 121 20 27 0H10v66h17zm768-6q52 0 88 11t58 31 32 49 10 64-10 63.5-32 48.5-58 31-88 11H597V60h198z"/><glyph glyph-name="uni040A" unicode="Њ" horiz-adv-x="1155" d="M583 0v351H160V0H94v714h66V413h423v301h66V413h219q112 0 172.5-55t60.5-152-60.5-151.5T868 0H583zm275 60q98 0 137.5 39.5T1035 206q0 33-9 60t-30 45.5-55 29-83 10.5H649V60h209z"/><glyph glyph-name="uni040B" unicode="Ћ" horiz-adv-x="794" d="M668 0v205q0 28-3 55.5t-21 49-57 35T476 358q-53 0-101-5.5T285 337V0h-66v656H19v58h527v-58H285V398q21 4 46 8t50.5 6.5 50 4T477 418q93 0 144.5-19.5t76.5-51 30.5-71.5 5.5-81V0h-66z"/><glyph glyph-name="uni040C" unicode="Ќ" horiz-adv-x="670" d="M95 714h66V399h216l164 315h74L435 367 624 0h-73L376 339H161V0H95v714zm232 53h-58l83 129h80z"/><glyph glyph-name="uni040E" unicode="Ў" horiz-adv-x="608" d="M179 0l102 215L17 714h74l211-398h28l189 398h71L249 0h-70zm293 904q0-38-13.5-67T422 788t-53.5-30-65.5-10q-34 0-64.5 10t-53 30-36 49-13.5 67h58q0-48 31-75t78-27q48 0 79.5 27t31.5 75h58z"/><glyph glyph-name="uni040F" unicode="Џ" horiz-adv-x="742" d="M338 0H94v714h66V60h422v654h66V0H404v-175h-66V0z"/><glyph glyph-name="uni0410" unicode="А" horiz-adv-x="673" d="M498 231H172L90 0H21l259 714h112L652 0h-71zm-304 60h283L351 644h-31z"/><glyph glyph-name="uni0411" unicode="Б" horiz-adv-x="676" d="M387 416q114 0 174.5-55.5T622 208 561.5 55.5 387 0H94v714h476v-60H160V416h227zM376 60q50 0 84.5 10.5t55.5 30 30.5 46.5 9.5 61-9.5 61-30.5 46.5-55.5 30T376 356H160V60h216z"/><glyph glyph-name="uni0412" unicode="В" horiz-adv-x="692" d="M539 369q49-23 76.5-68.5T643 199q0-42-15-78.5t-45-63-75-42T403 0H94v714h302q56 0 98-14t70.5-38.5 42.5-57 14-68.5q0-48-20-86t-62-61v-20zm-379 35h239q33 0 61.5 6t49.5 20.5 33 39 12 62.5q0 33-13.5 56.5t-35.5 38-50 21-58 6.5H160V404zM403 60q34 0 65.5 7T524 91t38.5 45 14.5 69q0 39-14 65.5t-37.5 43-55 23.5-66.5 7H160V60h243z"/><glyph glyph-name="uni0413" unicode="Г" horiz-adv-x="617" d="M161 654V0H95v714h476v-60H161z"/><glyph glyph-name="uni0414" unicode="Д" horiz-adv-x="741" d="M713 60v-235h-66V0H76v-175H10V60h74q16 38 33 87.5T148 260t22.5 140 8.5 170v144h431V60h103zM544 654H245v-84q0-89-8-166t-20.5-140.5-28-114.5T158 60h386v594z"/><glyph glyph-name="uni0415" unicode="Е" horiz-adv-x="646" d="M596 60V0H94v714h485v-60H160V402h341v-60H160V60h436z"/><glyph glyph-name="uni0416" unicode="Ж" horiz-adv-x="1006" d="M536 334V0h-66v334H289L132 0H60l170 362L69 714h73l147-320h181v320h66V394h181l147 320h73L776 362 946 0h-72L717 334H536z"/><glyph glyph-name="uni0417" unicode="З" horiz-adv-x="645" d="M502 532q0 32-13 57t-35.5 42.5-54 26.5-67.5 9q-84 0-126.5-34.5T149 541H82q12 85 77 135.5T330 727q60 0 104.5-15.5t74.5-41 44.5-59.5 14.5-70q0-60-24.5-94.5T485 394v-20q22-10 42-24t35-35 23.5-49.5T594 199q0-41-16.5-79t-49-67.5-81-47.5T334-13q-63 0-112 14.5t-84.5 41-57.5 63T49 187h69q19-71 75.5-105.5T335 47q43 0 78.5 10.5t61 30 39.5 48 14 63.5q0 32-9 58.5t-29.5 46-54.5 30-84 10.5H233v60h119q42 0 70.5 10.5t46 28.5 25.5 41 8 48z"/><glyph glyph-name="uni0418" unicode="И" horiz-adv-x="756" d="M160 714V70h21l365 644h116V0h-66v644h-20L210 0H94v714h66z"/><glyph glyph-name="uni0419" unicode="Й" horiz-adv-x="756" d="M546 904q0-38-13.5-67T496 788t-53.5-30-65.5-10q-34 0-64.5 10t-53 30-36 49-13.5 67h58q0-48 31-75t78-27q48 0 79.5 27t31.5 75h58zM160 714V70h21l365 644h116V0h-66v644h-20L210 0H94v714h66z"/><glyph glyph-name="uni041A" unicode="К" horiz-adv-x="659" d="M94 714h66V399h216l164 315h74L434 367 623 0h-73L375 339H160V0H94v714z"/><glyph glyph-name="uni041B" unicode="Л" horiz-adv-x="711" d="M27 66q36 0 62.5 14.5t44 56 26.5 116 9 193.5v268h448V0h-66v654H233V446q0-133-11.5-219T185 90.5 121 20 27 0H10v66h17z"/><glyph glyph-name="uni041C" unicode="М" horiz-adv-x="849" d="M94 714h116l207-370h19l202 370h117V0h-66v644h-20L460 269h-70L180 644h-20V0H94v714z"/><glyph glyph-name="uni041D" unicode="Н" horiz-adv-x="753" d="M659 714V0h-66v338H160V0H94v714h66V400h433v314h66z"/><glyph glyph-name="uni041E" unicode="О" horiz-adv-x="768" d="M384 727q80 0 141-29t102.5-79.5 62.5-118T711 357q0-77-21-144T627.5 95.5 525 16 384-13 242.5 16 140 95.5 78 213 57 357q0 76 21 143.5t62 118T242.5 698 384 727zm0-680q69 0 118.5 26.5t81 70 46.5 99T645 357t-15 114.5-46.5 99-81 70T384 667t-118.5-26.5-81-70-46.5-99T123 357t15-114.5 46.5-99 81-70T384 47z"/><glyph glyph-name="uni041F" unicode="П" horiz-adv-x="746" d="M652 714V0h-66v654H160V0H94v714h558z"/><glyph glyph-name="uni0420" unicode="Р" horiz-adv-x="676" d="M387 714q114 0 174.5-55.5T622 506t-60.5-152.5T387 298H160V0H94v714h293zm-11-356q50 0 84.5 10.5t55.5 30 30.5 46.5 9.5 61-9.5 61-30.5 46.5-55.5 30T376 654H160V358h216z"/><glyph glyph-name="uni0421" unicode="С" horiz-adv-x="710" d="M659 193q-11-45-34.5-83t-58-65.5T486 2 383-13q-79 0-139.5 28.5t-102 78-63 117.5T57 357t21.5 146 63 117.5 102.5 78T384 727q104 0 174.5-51T651 535h-70q-23 63-69 97.5T384 667q-68 0-117.5-26T185 571.5t-47-99T123 357t15-116 46.5-99 81-69T383 47q82 0 133.5 40T588 193h71z"/><glyph glyph-name="uni0422" unicode="Т" horiz-adv-x="585" d="M566 656H326V0h-66v656H19v58h547v-58z"/><glyph glyph-name="uni0423" unicode="У" horiz-adv-x="608" d="M179 0l102 215L17 714h74l211-398h28l189 398h71L249 0h-70z"/><glyph glyph-name="uni0424" unicode="Ф" horiz-adv-x="834" d="M463 656q74 0 134.5-18t103-54.5 66-90.5T790 367q0-74-23.5-128t-66-90-103-53.5T463 78h-13v-91h-66v91h-13q-74 0-134.5 17.5T133 149t-66 90-23 128q0 72 23.5 126t66 90.5 103 54.5T371 656h13v81h66v-81h13zm-79-518v458h-13q-120 0-190.5-56.5T110 367t70.5-172.5T371 138h13zm79 0q60 0 108 14t82 42.5 52.5 71.5T724 367q0 116-70.5 172.5T463 596h-13V138h13z"/><glyph glyph-name="uni0425" unicode="Х" horiz-adv-x="628" d="M502 714h72L384 377 606 0h-74L334 337h-39L97 0H24l222 377L56 714h73l167-295h39z"/><glyph glyph-name="uni0426" unicode="Ц" horiz-adv-x="778" d="M684 0H94v714h66V60h421v654h66V60h103v-235h-66V0z"/><glyph glyph-name="uni0427" unicode="Ч" horiz-adv-x="669" d="M126 714V509q0-28 3-55.5t21-49 57-35T318 356q53 0 101 5.5t90 15.5v337h66V0h-66v316q-21-5-46-8.5t-50.5-6-50-4T317 296q-93 0-144.5 19.5t-76.5 51T65.5 438 60 519v195h66z"/><glyph glyph-name="uni0428" unicode="Ш" horiz-adv-x="990" d="M462 714h66V60h302v654h66V0H94v714h66V60h302v654z"/><glyph glyph-name="uni0429" unicode="Щ" horiz-adv-x="1027" d="M933 0H94v714h66V60h302v654h66V60h302v654h66V60h103v-235h-66V0z"/><glyph glyph-name="uni042A" unicode="Ъ" horiz-adv-x="765" d="M183 0v654H0v60h249V429h220q117 0 179.5-57T711 214q0-100-62.5-157T469 0H183zm274 60q52 0 88 11t58 31 32 49 10 64-10 63.5-32 48.5-58 31-88 11H249V60h208z"/><glyph glyph-name="uni042B" unicode="Ы" horiz-adv-x="875" d="M358 60q52 0 88 11t58 31 32 49 10 64-10 63.5-32 48.5-58 31-88 11H160V60h198zM94 0v714h66V429h210q117 0 179.5-57T612 214q0-100-62.5-157T370 0H94zm687 714V0h-66v714h66z"/><glyph glyph-name="uni042C" unicode="Ь" horiz-adv-x="676" d="M368 60q52 0 88 11t58 31 32 49 10 64-10 63.5-32 48.5-58 31-88 11H160V60h208zM94 0v714h66V429h220q117 0 179.5-57T622 214q0-100-62.5-157T380 0H94z"/><glyph glyph-name="uni042D" unicode="Э" horiz-adv-x="708" d="M121 187q19-64 72-102t134-38q66 0 113.5 24t79 64.5 47 93.5T584 339H221v60h362q-5 53-22 101.5T512.5 586 435 645t-108 22q-81 0-128.5-33T129 541H59q12 43 36 77.5t58.5 58.5 78.5 37 95 13q79 0 139.5-28.5T568 620t62-117.5T651 357q0-77-21-144.5T568 95 466.5 16 327-13q-55 0-101 14.5t-81.5 41T85 106t-35 81h71z"/><glyph glyph-name="uni042E" unicode="Ю" horiz-adv-x="1012" d="M637 727q78 0 137.5-29t99.5-79.5 60.5-118T955 357q0-77-20.5-144T874 95.5 774.5 16 637-13q-76 0-134 27.5t-98 75T343.5 201 319 338H160V0H94v714h66V400h161q5 69 28 128.5T412 632t96.5 69.5T637 727zm0-680q67 0 115 26.5t78.5 70 44.5 99T889 357t-14 114.5-44.5 99-78.5 70T637 667t-115-26.5-78.5-70-44.5-99T385 357t14-114.5 44.5-99 78.5-70T637 47z"/><glyph glyph-name="uni042F" unicode="Я" horiz-adv-x="710" d="M79 512q0 95 59 148.5T308 714h308V0h-66v310H292l-16 1L143 0H73l137 323q-64 21-97.5 69T79 512zm66 0q0-33 9-59t29.5-44.5T237 380t81-10h232v284H318q-48 0-81-10t-53.5-28.5T154 571t-9-59z"/><glyph glyph-name="uni0430" unicode="а" horiz-adv-x="605" d="M277 513q62 0 101.5-21t60.5-48h20v56h61V0h-61v56h-20q-21-26-60.5-47.5T277-13q-53 0-94 20.5T113 63t-44 83-15 104 15 104 44 83.5 70 55.5 94 20zm8-470q46 0 78.5 17.5T417 107t30.5 66.5T457 250q0 40-9.5 77T417 393t-53.5 46.5T285 457q-41 0-72.5-15T160 399.5 128 334t-11-84 11-84 32-65.5T212.5 58 285 43z"/><glyph glyph-name="uni0431" unicode="б" horiz-adv-x="592" d="M303 498q58 0 102-20t74-54.5 45-81.5 15-100-16-99.5-47-81T400 7 297-13q-117 0-180.5 78T53 286q0 69 6.5 130T87 526t60 83.5T251 660q13 3 32.5 7t39 7.5 37 6.5 28.5 5q14 3 23 5.5t14.5 6.5 8.5 11 4 18h63q-1-21-6-37t-16-29-29.5-21.5T402 625q-11-2-30-5.5t-41-7-43-8-36-7.5q-34-8-58-24.5t-39.5-39-24-50.5-12.5-59h19q33 42 73.5 58t92.5 16zm-8-455q45 0 79 17t56.5 44.5 34 63.5 11.5 74-11.5 74-34 64-56.5 45-79 17q-46 0-79.5-17T160 380t-33-64-11-74 11-74 33-63.5T215.5 60 295 43z"/><glyph glyph-name="uni0432" unicode="в" horiz-adv-x="554" d="M423 252q37-10 59-38.5t22-76.5q0-69-46-103T327 0H85v500h244q75 0 116-33t41-93q0-38-20-64.5T423 272v-20zM333 56q61 0 84.5 25t23.5 61q0 18-5.5 33.5t-18 27.5-33.5 19-51 7H148V56h185zM148 285h182q52 0 72.5 24t20.5 55q0 16-4.5 30.5T403 420t-29 17.5-44 6.5H148V285z"/><glyph glyph-name="uni0433" unicode="г" horiz-adv-x="480" d="M85 500h363v-56H148V0H85v500z"/><glyph glyph-name="uni0434" unicode="д" horiz-adv-x="639" d="M609 56v-199h-63V0H88v-143H25V56h63q13 25 26 58t23 72 16.5 84 6.5 96v134h356V56h93zM453 444H220v-78q0-102-19-180.5T156 56h297v388z"/><glyph glyph-name="uni0435" unicode="е" horiz-adv-x="558" d="M505 261H116v-14q0-47 12.5-84.5t35.5-64 55-41T291 43q58 0 93.5 23.5T432 131h63q-6-30-21.5-56.5t-41-46-61-30.5T291-13q-58 0-102.5 21T114 65.5 68.5 151 53 256q0 57 16 104.5t46.5 81T190 494t100 19q54 0 94.5-19.5t67.5-52 40-74.5 13-86v-20zM288 457q-39 0-68-12t-50-31.5-33.5-44.5-16.5-52h320q-2 27-12.5 52T398 413.5 351.5 445 288 457z"/><glyph glyph-name="uni0436" unicode="ж" horiz-adv-x="759" d="M110 0H40l132 257L47 500h69l111-216h121v216h63V284h122l111 216h68L587 257 719 0h-70L531 228H411V0h-63v228H227z"/><glyph glyph-name="uni0437" unicode="з" horiz-adv-x="517" d="M380 368q0 43-34 66t-86 23q-59 0-90.5-21.5T128 369H65q7 66 58.5 105T259 513q46 0 80.5-11t57.5-30 34.5-44 11.5-52q0-42-17.5-69T384 272v-20q14-5 28-13.5t25-22.5 18-34 7-47q0-29-12.5-55.5t-38-47-63-33T262-13q-98 0-152 41T45 136h63q16-53 57.5-73T263 43q60 0 98 23.5t38 70.5q0 20-6 36.5T372.5 202 334 220.5t-59 6.5h-89v56h87q30 0 50 7t33 19 18.5 27 5.5 32z"/><glyph glyph-name="uni0438" unicode="и" horiz-adv-x="601" d="M85 0v500h63V62h20l232 438h116V0h-63v438h-20L196 0H85z"/><glyph glyph-name="uni0439" unicode="й" horiz-adv-x="601" d="M85 0v500h63V62h20l232 438h116V0h-63v438h-20L196 0H85zm358 727v-12q0-32-11.5-57t-31-42-46-25.5T298 582t-56.5 8.5-46 25.5-30.5 42-11 57v12h56v-12q0-37 24.5-59t63.5-22q40 0 64.5 22t24.5 59v12h56z"/><glyph glyph-name="uni043A" unicode="к" horiz-adv-x="539" d="M294 230H148V0H85v500h63V286h148l126 214h70L350 259 499 0h-73z"/><glyph glyph-name="uni043B" unicode="л" horiz-adv-x="593" d="M26 58h17q27 0 46 12t31 41 18 78 6 124v187h364V0h-63v444H203V313q0-89-9-149t-28.5-96.5-50-52T43 0H26v58z"/><glyph glyph-name="uni043C" unicode="м" horiz-adv-x="677" d="M85 500h112l133-255h20l130 255h112V0h-63v438h-18L381 187h-84L166 438h-18V0H85v500z"/><glyph glyph-name="uni043D" unicode="н" horiz-adv-x="601" d="M453 0v230H148V0H85v500h63V286h305v214h63V0h-63z"/><glyph glyph-name="uni043E" unicode="о" horiz-adv-x="588" d="M294 513q58 0 103-20.5t75.5-56.5 46.5-84 16-102-16-102-46.5-84T397 7.5 294-13q-59 0-103.5 20.5T115 64t-46.5 84T53 250t15.5 102 46.5 84 75.5 56.5T294 513zm0-470q45 0 78.5 17.5T428 107t33 66.5 11 76.5-11 76.5-33 66.5-55.5 46.5T294 457q-46 0-79.5-17.5T159 393t-32.5-66.5T116 250t10.5-76.5T159 107t55.5-46.5T294 43z"/><glyph glyph-name="uni043F" unicode="п" horiz-adv-x="597" d="M449 0v444H148V0H85v500h427V0h-63z"/><glyph glyph-name="uni0440" unicode="р" horiz-adv-x="604" d="M328-13q-62 0-100.5 21T168 56h-20v-256H85v700h61v-56h20q21 26 60.5 47.5T328 513q52 0 93.5-20.5T492 437t44-83.5T551 250q0-56-15-104t-44-83.5T421.5 7 328-13zm-8 470q-46 0-78.5-17.5T188 393t-30.5-66.5T148 250q0-40 9.5-77t30.5-66 53.5-46.5T320 43q41 0 72.5 15t52.5 42.5 32 65.5 11 84-11 84-32 65.5-52.5 42.5-72.5 15z"/><glyph glyph-name="uni0441" unicode="с" horiz-adv-x="541" d="M495 143q-15-69-66.5-112.5T292-13q-58 0-102.5 20.5t-75 56.5-46 84T53 250q0 55 15.5 103t46 83.5 75 56T292 513q87 0 137-43t64-109h-63q-14 43-47 69.5T292 457q-47 0-80.5-16.5t-54.5-45-31-65.5-10-78 10-78.5 31.5-66.5T212 60.5 292 43q60 0 94.5 27.5T432 143h63z"/><glyph glyph-name="uni0442" unicode="т" horiz-adv-x="476" d="M30 500h416v-56H270V0h-63v444H30v56z"/><glyph glyph-name="uni0443" unicode="у" horiz-adv-x="589" d="M423 69q-20-29-60-49T271 0q-94 0-144 52.5T77 195v305h63V206q0-150 137-150 37 0 67 15t51.5 40 33.5 58.5 12 69.5v261h63V36q0-115-62.5-175.5T264-200H85v56h191q85 0 125 43.5T441 34v35h-18z"/><glyph glyph-name="uni0444" unicode="ф" horiz-adv-x="688" d="M376-200h-63V0h-8q-59 0-105.5 17.5t-79 50.5-50 79T53 250t17.5 103 50 79 79 50.5T305 500h8v227h63V500h7q58 0 105-17.5t79.5-50.5 50-79T635 250t-17.5-103-50-79T488 17.5 383 0h-7v-200zM116 250q0-42 12.5-77.5T165 111t59-40.5T305 56h8v388h-8q-46 0-81-14.5T165 389t-36.5-61.5T116 250zM383 56q46 0 81 14.5t59 40.5 36.5 61.5T572 250t-12.5 77.5T523 389t-59 40.5-81 14.5h-7V56h7z"/><glyph glyph-name="uni0445" unicode="х" horiz-adv-x="531" d="M408 500h69L331 256 494 0h-72L282 221h-33L109 0H38l163 256L55 500h70l125-209h33z"/><glyph glyph-name="uni0446" unicode="ц" horiz-adv-x="631" d="M508 500V56h93v-199h-63V0H85v500h63V56h297v444h63z"/><glyph glyph-name="uni0447" unicode="ч" horiz-adv-x="544" d="M119 500V360q0-20 2-40t15-36 41.5-25.5T258 249q38 0 72.5 4t65.5 11v236h63V0h-63v208q-32-7-72.5-11t-72.5-4q-70 0-109.5 14.5T83 246t-23 54.5-4 61.5v138h63z"/><glyph glyph-name="uni0448" unicode="ш" horiz-adv-x="791" d="M706 500V0H85v500h63V56h216v444h63V56h216v444h63z"/><glyph glyph-name="uni0449" unicode="щ" horiz-adv-x="829" d="M706 500V56h93v-199h-63V0H85v500h63V56h216v444h63V56h216v444h63z"/><glyph glyph-name="uni044A" unicode="ъ" horiz-adv-x="616" d="M20 500h214V325h158q89 0 136.5-43T576 163 528.5 43.5 392 0H171v444H20v56zM384 56q72 0 100.5 29t28.5 77q0 49-28.5 78T384 269H234V56h150z"/><glyph glyph-name="uni044B" unicode="ы" horiz-adv-x="710" d="M148 325h148q89 0 136.5-43T480 163 432.5 43.5 296 0H85v500h63V325zM288 56q72 0 100.5 29t28.5 77q0 49-28.5 78T288 269H148V56h140zM625 0h-63v500h63V0z"/><glyph glyph-name="uni044C" unicode="ь" horiz-adv-x="530" d="M148 325h158q89 0 136.5-43T490 163 442.5 43.5 306 0H85v500h63V325zM298 56q72 0 100.5 29t28.5 77q0 49-28.5 78T298 269H148V56h150z"/><glyph glyph-name="uni044D" unicode="э" horiz-adv-x="547" d="M116 138q11-42 47.5-68.5T262 43q39 0 69.5 14t52 39 33 58.5T430 226H184v56h245q-2 37-13.5 69T383 406.5t-51 37-69 13.5q-60 0-96-25t-48-66H55q14 64 67.5 105.5T260 513q57 0 100.5-19.5T434 439t45-83.5T494 250t-15.5-105-45-83.5-73.5-55T259-13q-41 0-75.5 11T122 29 77 77t-25 61h64z"/><glyph glyph-name="uni044E" unicode="ю" horiz-adv-x="796" d="M507 513q57 0 101-20.5t74-56.5 45.5-84T743 250t-15.5-102T682 64 608 7.5 507-13q-54 0-96.5 19t-72 51.5-46.5 77-20 95.5H148V0H85v500h63V286h126q5 48 22.5 89.5t47 72 70.5 48 93 17.5zm0-470q44 0 76.5 17.5t54 46.5 32 66.5T680 250t-10.5 76.5-32 66.5-54 46.5T507 457t-76.5-17.5T377 393t-31.5-66.5T335 250t10.5-76.5T377 107t53.5-46.5T507 43z"/><glyph glyph-name="uni044F" unicode="я" horiz-adv-x="569" d="M74 355q0 68 42 106.5T238 500h246V0h-63v210H235L135 0H65l105 219q-48 14-72 49t-24 87zm63 0q0-41 24-65t83-24h177v178H244q-59 0-83-24.5T137 355z"/><glyph glyph-name="uni0451" unicode="ё" horiz-adv-x="558" d="M505 261H116v-14q0-47 12.5-84.5t35.5-64 55-41T291 43q58 0 93.5 23.5T432 131h63q-6-30-21.5-56.5t-41-46-61-30.5T291-13q-58 0-102.5 21T114 65.5 68.5 151 53 256q0 57 16 104.5t46.5 81T190 494t100 19q54 0 94.5-19.5t67.5-52 40-74.5 13-86v-20zM288 457q-39 0-68-12t-50-31.5-33.5-44.5-16.5-52h320q-2 27-12.5 52T398 413.5 351.5 445 288 457zm-87 269l58-58-58-58-58 58zm174 0l58-58-58-58-58 58z"/><glyph glyph-name="uni0452" unicode="ђ" horiz-adv-x="612" d="M472 277q0 150-139 150-37 0-67.5-15t-52-40-33.5-58.5-12-69.5V0h-63v586H20v50h85v91h63v-91h218v-50H168V414h20q20 29 59.5 49t91.5 20q94 0 145-52.5T535 288V-47q0-78-38.5-115.5T380-200h-56v56h54q51 0 72.5 24T472-43v320z"/><glyph glyph-name="uni0453" unicode="ѓ" horiz-adv-x="480" d="M85 500h363v-56H148V0H85v500zm190 82h-58l83 145h80z"/><glyph glyph-name="uni0454" unicode="є" horiz-adv-x="541" d="M495 138q-7-33-25-61t-45-48-61.5-31T288-13q-57 0-101 19.5t-73.5 55-45 83.5T53 250t15 105.5 45 83.5 73.5 54.5T287 513q84 0 137.5-41.5T492 366h-64q-12 41-48 66t-96 25q-39 0-69-13.5t-51-37-32.5-55.5-13.5-69h245v-56H117q2-38 13.5-71.5t33-58.5 52-39T285 43q62 0 98.5 26.5T431 138h64z"/><glyph glyph-name="uni0455" unicode="ѕ" horiz-adv-x="501" d="M316 279q65-11 103-43.5t38-96.5q0-28-12.5-55.5t-37.5-49T344.5 0 258-13q-102 0-155.5 42T41 139h62q8-49 49.5-72.5T252 43q62 0 102 23t40 71q0 35-23 55t-73 28l-97 17q-62 10-100.5 41.5T62 369q0 30 12 56t36 45.5 60.5 31T255 513q82 0 131-38t57-101h-62q-2 21-14 36.5t-30 26-41 15.5-47 5q-54 0-89-21.5T125 372q0-32 21.5-50t69.5-26z"/><glyph glyph-name="uni0456" unicode="і" horiz-adv-x="239" d="M151 0H88v500h63V0zm-31 748l62-62-62-62-62 62z"/><glyph glyph-name="uni0457" unicode="ї" horiz-adv-x="239" d="M151 0H88v500h63V0zM33 726l58-58-58-58-58 58zm174 0l58-58-58-58-58 58z"/><glyph glyph-name="uni0458" unicode="ј" horiz-adv-x="250" d="M100 500h63V-47q0-78-38.5-115.5T8-200h-56v56H6q51 0 72.5 24T100-43v543zm33 248l62-62-62-62-62 62z"/><glyph glyph-name="uni0459" unicode="љ" horiz-adv-x="871" d="M26 58h17q27 0 46 12t31 41 18 78 6 124v187h357V325h146q89 0 136.5-43T831 163 783.5 43.5 647 0H438v444H203V313q0-89-9-149t-28.5-96.5-50-52T43 0H26v58zm613-2q72 0 100.5 29t28.5 77q0 49-28.5 78T639 269H501V56h138z"/><glyph glyph-name="uni045A" unicode="њ" horiz-adv-x="838" d="M423 0v230H148V0H85v500h63V286h275v214h63V325h128q89 0 136.5-43T798 163 750.5 43.5 614 0H423zm183 56q72 0 100.5 29t28.5 77q0 49-28.5 78T606 269H486V56h120z"/><glyph glyph-name="uni045B" unicode="ћ" horiz-adv-x="612" d="M472 0v277q0 150-139 150-37 0-67.5-15t-52-40-33.5-58.5-12-69.5V0h-63v586H20v50h85v91h63v-91h218v-50H168V414h20q20 29 59.5 49t91.5 20q94 0 145-52.5T535 288V0h-63z"/><glyph glyph-name="uni045C" unicode="ќ" horiz-adv-x="539" d="M294 230H148V0H85v500h63V286h148l126 214h70L350 259 499 0h-73zm-12 352h-58l83 145h80z"/><glyph glyph-name="uni045E" unicode="ў" horiz-adv-x="589" d="M423 69q-20-29-60-49T271 0q-94 0-144 52.5T77 195v305h63V206q0-150 137-150 37 0 67 15t51.5 40 33.5 58.5 12 69.5v261h63V36q0-115-62.5-175.5T264-200H85v56h191q85 0 125 43.5T441 34v35h-18zm13 658v-12q0-32-11.5-57t-31-42-46-25.5T291 582t-56.5 8.5-46 25.5-30.5 42-11 57v12h56v-12q0-37 24.5-59t63.5-22q40 0 64.5 22t24.5 59v12h56z"/><glyph glyph-name="uni045F" unicode="џ" horiz-adv-x="593" d="M508 500V0H328v-143h-63V0H85v500h63V56h297v444h63z"/><glyph glyph-name="uni0490" unicode="Ґ" horiz-adv-x="617" d="M161 0H95v714h410v150h66V654H161V0z"/><glyph glyph-name="uni0491" unicode="ґ" horiz-adv-x="474" d="M438 615V444H148V0H85v500h290v115h63z"/><glyph glyph-name="uni0492" unicode="Ғ" horiz-adv-x="650" d="M30 383h98v331h476v-60H194V383h261v-56H194V0h-66v327H30v56z"/><glyph glyph-name="uni0493" unicode="ғ" horiz-adv-x="510" d="M25 261h90v239h363v-56H178V261h199v-56H178V0h-63v205H25v56z"/><glyph glyph-name="uni049A" unicode="Қ" horiz-adv-x="701" d="M565 60h111v-235h-66V0h-14zM94 714h66V399h216l164 315h74L434 367 623 0h-73L375 339H160V0H94v714z"/><glyph glyph-name="uni049B" unicode="қ" horiz-adv-x="576" d="M432 56h114v-199h-63V0h-13zM295 229H148V0H85v500h63V286h150l126 214h68L350 259 499 0h-69z"/><glyph glyph-name="uni04A2" unicode="Ң" horiz-adv-x="790" d="M659 714V60h103v-235h-66V0H593v338H160V0H94v714h66V400h433v314h66z"/><glyph glyph-name="uni04A3" unicode="ң" horiz-adv-x="639" d="M516 56h93v-199h-63V0h-93v230H148V0H85v500h63V286h305v214h63V56z"/><glyph glyph-name="uni04AE" unicode="Ү" horiz-adv-x="628" d="M329 373l203 341h75L347 279V0h-66v279L21 714h76l204-341h28z"/><glyph glyph-name="uni04AF" unicode="ү" horiz-adv-x="524" d="M24 500h67L246 62h33l155 438h64L321 0h-28v-200h-63V0h-29z"/><glyph glyph-name="uni04B0" unicode="Ұ" horiz-adv-x="628" d="M95 316h164L21 714h73l206-341h28l206 341h73L368 316h165v-56H347V0h-66v260H95v56z"/><glyph glyph-name="uni04B1" unicode="ұ" horiz-adv-x="524" d="M293-26v-174h-63v174H86v56h104L24 500h67L246 62h33l155 438h64L331 30h107v-56H293z"/><glyph glyph-name="uni04BA" unicode="Һ" horiz-adv-x="669" d="M543 0v205q0 28-3 55.5t-21 49-57 35T351 358q-53 0-101-5.5T160 337V0H94v714h66V398q21 5 46 8.5t50.5 6 50 4T352 418q93 0 144.5-19.5t76.5-51 30.5-71.5 5.5-81V0h-66z"/><glyph glyph-name="uni04BB" unicode="һ" horiz-adv-x="593" d="M452 0v307q0 150-139 150-37 0-67.5-15t-52-40-33.5-58.5-12-69.5V0H85v727h63V444h20q20 29 59.5 49t91.5 20q94 0 145-52.5T515 318V0h-63z"/><glyph glyph-name="uni04D8" unicode="Ә" horiz-adv-x="747" d="M362 727q80 0 141-29t102.5-79 63-117.5T690 357t-21-144-62-117.5T505 16 364-13q-76 0-134 28t-97.5 78.5-59.5 119T53 362v18.5l1 18.5h568q-5 54-23 102.5T548.5 587t-79 58.5T360 667q-84 0-133-33t-67-93H90q22 88 94.5 137T362 727zm2-680q66 0 114 24t79.5 64.5T605 229t18 110H120q0-57 14.5-109.5t44.5-93 76-65T364 47z"/><glyph glyph-name="uni04D9" unicode="ә" horiz-adv-x="558" d="M52 242v14.5l1 15.5h387q-8 88-54 136.5T266 457q-60 0-93.5-23.5T126 368H63q6 31 22 57.5t41.5 46T187 502t78 11q58 0 103-21t75.5-58 46-86T505 244q0-57-16-104.5t-46-81T369 6 269-13q-53 0-93 18t-68 51.5T66 137 52 242zM271 43q73 0 119 43.5T441 217H113q1-80 42-127t116-47z"/><glyph glyph-name="uni04E8" unicode="Ө" horiz-adv-x="768" d="M384 727q80 0 141-29t102.5-79.5 62.5-118T711 357q0-77-21-144T627.5 95.5 525 16 384-13 242.5 16 140 95.5 78 213 57 357q0 76 21 143.5t62 118T242.5 698 384 727zm0-680q67 0 115 24.5t79.5 65 47.5 93T644 339H123q2-57 18-109.5t48-93 80-65T384 47zm0 620q-63 0-110-22t-78.5-59-49-85.5T125 399h518q-5 53-22.5 101.5t-49 85.5-78 59T384 667z"/><glyph glyph-name="uni04E9" unicode="ө" horiz-adv-x="590" d="M295 513q58 0 103-20.5t76-56.5 47-84 16-102-16-102-47-84-76-56.5T295-13q-59 0-104 20.5T115.5 64 69 148 53 250t16 102 46.5 84 75.5 56.5T295 513zm0-470q42 0 74 15t54 40.5 34.5 58.5 15.5 69H117q3-36 15.5-69T167 98.5 221 58t74-15zm0 414q-41 0-72.5-14.5T169 404t-35-55.5-17-66.5h355q-4 35-17 66.5T420 404t-53.5 38.5T295 457z"/><glyph glyph-name="endash" unicode="–" horiz-adv-x="615" d="M50 247v57h515v-57H50z"/><glyph glyph-name="emdash" unicode="—" horiz-adv-x="875" d="M50 247v57h775v-57H50z"/><glyph glyph-name="quoteleft" unicode="‘" horiz-adv-x="244" d="M159 714h47l-56-206H42z"/><glyph glyph-name="quoteright" unicode="’" horiz-adv-x="244" d="M85 508H38l56 206h108z"/><glyph glyph-name="quotesinglbase" unicode="‚" horiz-adv-x="244" d="M65-104H18l56 206h108z"/><glyph glyph-name="quotedblleft" unicode="“" horiz-adv-x="400" d="M159 714h47l-56-206H42zm156 0h47l-56-206H198z"/><glyph glyph-name="quotedblright" unicode="”" horiz-adv-x="400" d="M85 508H38l56 206h108zm156 0h-47l56 206h108z"/><glyph glyph-name="quotedblbase" unicode="„" horiz-adv-x="400" d="M65-104H18l56 206h108zm156 0h-47l56 206h108z"/><glyph glyph-name="dagger" unicode="†" horiz-adv-x="549" d="M50 447v53h193v214h63V500h193v-53H306v-599h-63v599H50z"/><glyph glyph-name="daggerdbl" unicode="‡" horiz-adv-x="549" d="M50 447v53h193v214h63V500h193v-53H306V115h193V62H306v-214h-63V62H50v53h193v332H50z"/><glyph glyph-name="bullet" unicode="•" horiz-adv-x="434" d="M70 356q0 30 11.5 57t31.5 47 47 31.5 57 11.5 57-11.5 47-31.5 31.5-47 11.5-57-11.5-57-31.5-47-47-31.5-57-11.5-57 11.5-47 31.5-31.5 47T70 356z"/><glyph glyph-name="ellipsis" unicode="…" horiz-adv-x="712" d="M122 119l67-67-67-67-67 67zm234 0l67-67-67-67-67 67zm234 0l67-67-67-67-67 67z"/><glyph glyph-name="perthousand" unicode="‰" horiz-adv-x="1244" d="M192 0l424 700h64L257 0h-65zm17 714q39 0 69-15t50-41 30-60 10-73-10-73-30-60-50-41-69-15q-40 0-69.5 15T90 392t-30 60-10 73 10 73 30 60 49.5 41 69.5 15zm0-327q25 0 44 10.5t32 29 19 44 6 54.5-6 54.5-19 44-32 29-44 10.5q-26 0-44.5-10.5t-31.5-29-19-44-6-54.5 6-54.5 19-44 31.5-29T209 387zm826-22q39 0 69-15t50-41 30-60 10-73-10-73-30-60-50-41-69-15q-40 0-69.5 15T916 43t-30 60-10 73 10 73 30 60 49.5 41 69.5 15zm0-327q25 0 44 10.5t32 29 19 44 6 54.5-6 54.5-19 44-32 29-44 10.5q-26 0-44.5-10.5t-31.5-29-19-44-6-54.5 6-54.5 19-44 31.5-29T1035 38zM663 365q39 0 69-15t50-41 30-60 10-73-10-73-30-60-50-41-69-15q-40 0-69.5 15T544 43t-30 60-10 73 10 73 30 60 49.5 41 69.5 15zm0-327q25 0 44 10.5t32 29 19 44 6 54.5-6 54.5-19 44-32 29-44 10.5q-26 0-44.5-10.5t-31.5-29-19-44-6-54.5 6-54.5 19-44 31.5-29T663 38z"/><glyph glyph-name="guilsinglleft" unicode="‹" horiz-adv-x="335" d="M117 272l158-168h-71L60 252v59l144 149h71L117 292v-20z"/><glyph glyph-name="guilsinglright" unicode="›" horiz-adv-x="335" d="M218 292L60 460h71l144-149v-59L131 104H60l158 168v20z"/><glyph glyph-name="fraction" unicode="⁄" horiz-adv-x="221" d="M-134 0l424 700h61L-72 0h-62z"/><glyph glyph-name="Euro" unicode="€" horiz-adv-x="670" d="M395 267H182q14-109 65-165.5T379 45q72 0 115 38.5T547 191h65q-13-97-75-150.5T379-13q-51 0-95 16.5t-78.5 51T148 142t-32 125H40l18 52h54v55l1 23H40l18 52h61q10 68 34 118t58.5 82.5 77 48.5 90.5 16q94 0 153.5-50.5T606 519h-66q-10 65-49.5 101T379 656q-76 0-127-53t-68-154h274l-18-52H179q-1-11-1.5-23t-.5-24v-31h236z"/><glyph glyph-name="uni20B4" unicode="₴" horiz-adv-x="633" d="M576 177q-13-86-75.5-138T332-13q-56 0-101 15t-76 41.5-47.5 63T91 187q0 40 16 77H40v52h553v-52H176q-20-32-20-77 0-34 13-60.5T205 82t55-27.5 70-9.5q70 0 119 32.5t63 99.5h64zM335 714q49 0 89-15t68-40 43-58 15-69q0-47-22-86h65v-52H40v52h415q30 32 30 84 0 30-11.5 53.5T442 623t-47.5 24.5T335 656q-72 0-110.5-30T173 543h-64q6 38 24.5 69.5t47.5 54 68 35 86 12.5z"/><glyph glyph-name="uni20B8" unicode="₸" horiz-adv-x="515" d="M19 570h477v-52H290V0h-65v518H19v52zm0 130h477v-52H19v52z"/><glyph glyph-name="uni20BD" unicode="₽" horiz-adv-x="681" d="M50 356h99v344h248q109 0 166.5-52T621 502q0-93-57.5-145.5T397 304H214v-78h259v-52H214V0h-65v174H50v52h99v78H50v52zm337 0q47 0 79 10.5t52 29.5 29 45.5 9 58.5q0 33-9 59t-29 44.5-52 28.5-79 10H214V356h173z"/><glyph glyph-name="uni2116" unicode="№" horiz-adv-x="1146" d="M652 700V0H534L178 631h-19V0H94v700h118L568 69h19v631h65zm264 14q40 0 70-14.5t50-40.5 29.5-61 9.5-75q0-41-9.5-75t-29.5-59-50-39-70-14q-41 0-70.5 14.5T796 390t-29.5 59.5T757 525q0 40 9.5 75t29.5 60 49.5 39.5T916 714zm0-327q25 0 44 10.5t32 29 19 44 6 54.5-6 54.5-19 44-32 29-44 10.5q-26 0-44.5-10.5t-31.5-29-19-44-6-54.5 6-54.5 19-44 31.5-29T916 387zM757 217v51h319v-51H757z"/><glyph glyph-name="trademark" unicode="™" horiz-adv-x="849" d="M404 714h91l93-181h12l91 181h91V333h-52v328h-12l-94-184h-60l-96 184h-12V333h-52v381zm-64-46H209V333h-52v335H25v46h315v-46z"/><glyph glyph-name="Omega" unicode="Ω" horiz-adv-x="752" d="M554 60h139V0H426v59q31 18 66.5 46.5t66 68.5 50.5 92.5T629 385q0 65-18.5 117.5t-51.5 89-79.5 56T376 667t-103.5-19.5-79.5-56-51.5-89T123 385q0-66 20-118.5t50.5-92.5 66-68.5T326 59V0H59v60h139v20q-22 19-46.5 48T106 195.5 71 282 57 388q0 76 22.5 138.5t64.5 107 101 69T376 727t131-24.5 101-69 64.5-107T695 388q0-58-14-106t-35-86.5-45.5-67.5T554 80V60z"/><glyph glyph-name="arrowleft" unicode="←" horiz-adv-x="827" d="M376 500L175 299v-21h587v-56H175v-21L376 0h-78L48 250l250 250h78z"/><glyph glyph-name="arrowup" unicode="↑" horiz-adv-x="680" d="M590 386L389 587h-21V0h-56v587h-21L90 386v78l250 250 250-250v-78z"/><glyph glyph-name="arrowright" unicode="→" horiz-adv-x="822" d="M524 500l250-250L524 0h-78l201 201v21H60v56h587v21L446 500h78z"/><glyph glyph-name="arrowdown" unicode="↓" horiz-adv-x="680" d="M90 328l201-201h21v587h56V127h21l201 201v-78L340 0 90 250v78z"/><glyph glyph-name="uni2196" unicode="↖" horiz-adv-x="704" d="M90 361v353h353l55-55H214l-15-15 415-415-39-39-415 415-15-15V306z"/><glyph glyph-name="uni2197" unicode="↗" horiz-adv-x="704" d="M559 306v284l-15 15-415-415-39 39 415 415-15 15H206l55 55h353V361z"/><glyph glyph-name="uni2198" unicode="↘" horiz-adv-x="704" d="M145 408V124l15-15 415 415 39-39L199 70l15-15h284L443 0H90v353z"/><glyph glyph-name="uni2199" unicode="↙" horiz-adv-x="704" d="M614 353V0H261l-55 55h284l15 15L90 485l39 39 415-415 15 15v284z"/><glyph glyph-name="partialdiff" unicode="∂" horiz-adv-x="582" d="M291 43q46 0 79.5 15.5t55 41 31.5 59 10 70.5-10 70.5-31.5 59.5-55 41.5T291 416q-47 0-80-15.5T156 359t-32-59.5-10-70.5 10-70.5 32-59 55-41T291 43zm-39 684q39-29 87-71.5t90.5-101 71-133T529 255q0-56-14.5-105t-44-85T396 8 289-13q-56 0-99.5 19.5t-74 53T69 137t-16 93 16 93 46.5 77 74 52.5T287 472q40 0 74.5-12.5T418 425h20q-21 50-52 94t-67 81.5-74.5 69T171 727h81z"/><glyph glyph-name="Delta" unicode="∆" horiz-adv-x="634" d="M594 80V0H40v80l232 634h90zm-64 0L327 644h-20L104 80V60h426v20z"/><glyph glyph-name="product" unicode="∏" horiz-adv-x="586" d="M391-200v854H195v-854h-68v854H30v60h526v-60h-97v-854h-68z"/><glyph glyph-name="summation" unicode="∑" horiz-adv-x="546" d="M516 60V0H40v81l210 266v20L49 634v80h451v-60H127v-20l201-267v-20L118 80V60h398z"/><glyph glyph-name="minus" unicode="−" horiz-adv-x="684" d="M90 255v54h504v-54H90z"/><glyph glyph-name="uni2215" unicode="∕" horiz-adv-x="485" d="M0 0l424 700h61L62 0H0z"/><glyph glyph-name="radical" unicode="√" horiz-adv-x="634" d="M99 500L231 70h20l209 644h144v-54H503L287 0h-94L37 500h62z"/><glyph glyph-name="infinity" unicode="∞" horiz-adv-x="932" d="M476 324q18 19 39 40.5t46 39 54 29 63 11.5q36 0 66-11.5t52-32.5 34-51 12-67-12-67-34-51-52-32.5-66-11.5q-34 0-63 11.5t-54 29-46 38.5-39 41h-20q-18-20-39-41t-46-38.5-54-29-63-11.5q-36 0-66 11.5T136 164t-34 51-12 67 12 67 34 51 52 32.5 66 11.5q34 0 63-11.5t54-29 46-39 39-40.5h20zm-51-42q-16 19-34 39t-39 36-44.5 26-50.5 10q-46 0-79-28.5T145 282t33-82.5 79-28.5q27 0 50.5 10t44.5 26 39 35.5 34 39.5zm82 0q16-20 34-39.5t39-35.5 44.5-26 50.5-10q46 0 79 28.5t33 82.5-33 82.5-79 28.5q-27 0-50.5-10T580 357t-39-36-34-39z"/><glyph glyph-name="integral" unicode="∫" horiz-adv-x="461" d="M449 727v-56h-42q-56 0-83-32t-36-83L183-39q-15-85-60.5-123T-2-200h-35v56H3q56 0 83 32t36 83l105 595q15 85 61 123t126 38h35z"/><glyph glyph-name="approxequal" unicode="≈" horiz-adv-x="669" d="M578 461q0-72-36-111t-88-39q-35 0-67 15t-65 37q-25 16-49.5 29T220 405q-36 0-55-25.5T146 311H91q0 72 36.5 111t88.5 39q21 0 39.5-5.5t35.5-14 33-18.5 31-20q24-15 48-25.5t47-10.5q36 0 55 25.5t19 68.5h54zm0-205q0-72-36-111t-88-39q-35 0-67 15t-65 37q-25 16-49.5 29T220 200q-36 0-55-25.5T146 106H91q0 72 36.5 111t88.5 39q21 0 39.5-5.5t35.5-14 33-18.5 31-20q24-15 48-25.5t47-10.5q36 0 55 25.5t19 68.5h54z"/><glyph glyph-name="notequal" unicode="≠" horiz-adv-x="684" d="M210 30h-61l82 127H90v54h176l93 142H90v54h304l83 127h57l-82-127h142v-54H418l-92-142h268v-54H291z"/><glyph glyph-name="lessequal" unicode="≤" horiz-adv-x="684" d="M90 295v64l504 175v-60L177 337v-20l417-137v-60zm0-241h504V0H90v54z"/><glyph glyph-name="greaterequal" unicode="≥" horiz-adv-x="684" d="M90 120v60l417 137v20L90 474v60l504-175v-64zM594 0H90v54h504V0z"/><glyph glyph-name="uni2460" unicode="①" d="M797 357q0-77-28.5-144T690 95.5 573 16 430-13q-77 0-143.5 29T170 95.5 91.5 213 63 357q0 76 28.5 143.5t78.5 118T286.5 698 430 727q76 0 143-29t117-79.5 78.5-118T797 357zm-55 0q0 66-24 124t-66 101-99 68-123 25-123-25-99-68-66-101-24-124 24-124 66-101 99-68 123-25 123 25 99 68 66 101 24 124zM570 215v-49H321v49h97v267h-13l-83-50v57l93 58h58V215h97z"/><glyph glyph-name="uni2461" unicode="②" d="M797 357q0-77-28.5-144T690 95.5 573 16 430-13q-77 0-143.5 29T170 95.5 91.5 213 63 357q0 76 28.5 143.5t78.5 118T286.5 698 430 727q76 0 143-29t117-79.5 78.5-118T797 357zm-55 0q0 66-24 124t-66 101-99 68-123 25-123-25-99-68-66-101-24-124 24-124 66-101 99-68 123-25 123 25 99 68 66 101 24 124zM578 215v-49H301v61l117 88q38 28 64.5 55t26.5 65q0 32-19 51t-53 19q-80 0-82-77h-55q1 33 12 57t30 39.5 43.5 22.5 51.5 7q54 0 90.5-30t36.5-89q0-41-25.5-74.5T467 291l-84-65v-11h195z"/><glyph glyph-name="uni2462" unicode="③" d="M797 357q0-77-28.5-144T690 95.5 573 16 430-13q-77 0-143.5 29T170 95.5 91.5 213 63 357q0 76 28.5 143.5t78.5 118T286.5 698 430 727q76 0 143-29t117-79.5 78.5-118T797 357zm-55 0q0 66-24 124t-66 101-99 68-123 25-123-25-99-68-66-101-24-124 24-124 66-101 99-68 123-25 123 25 99 68 66 101 24 124zm-273 48q45-7 75.5-37.5T575 286q0-30-11-54t-30-40-45.5-24.5T432 159q-62 0-101 35t-42 89h54q3-35 28.5-55t60.5-20q38 0 63 20.5t25 57.5q0 35-23 56t-64 21q-13 0-19.5-.5T398 360v55l83 70v13H318v49h242v-53l-91-76v-13z"/><glyph glyph-name="uni2463" unicode="④" d="M797 357q0-77-28.5-144T690 95.5 573 16 430-13q-77 0-143.5 29T170 95.5 91.5 213 63 357q0 76 28.5 143.5t78.5 118T286.5 698 430 727q76 0 143-29t117-79.5 78.5-118T797 357zm-55 0q0 66-24 124t-66 101-99 68-123 25-123-25-99-68-66-101-24-124 24-124 66-101 99-68 123-25 123 25 99 68 66 101 24 124zm-168-52v-49h-55v-90h-55v90H267v53l177 238h75V305h55zm-110 0v172h-13L333 318v-13h131z"/><glyph glyph-name="uni2464" unicode="⑤" d="M797 357q0-77-28.5-144T690 95.5 573 16 430-13q-77 0-143.5 29T170 95.5 91.5 213 63 357q0 76 28.5 143.5t78.5 118T286.5 698 430 727q76 0 143-29t117-79.5 78.5-118T797 357zm-55 0q0 66-24 124t-66 101-99 68-123 25-123-25-99-68-66-101-24-124 24-124 66-101 99-68 123-25 123 25 99 68 66 101 24 124zm-300 70q31 0 55.5-10.5t41-28.5 25.5-41.5 9-49.5q0-63-37.5-100.5T435 159q-69 0-102.5 35T294 282h55q5-37 27-55.5t57-18.5q38 0 61.5 22.5T518 295q0 35-21.5 59T437 378q-54 0-81-37h-53l21 206h231v-49H368l-9-94h13q10 9 28.5 16t41.5 7z"/><glyph glyph-name="uni2465" unicode="⑥" d="M797 357q0-77-28.5-144T690 95.5 573 16 430-13q-77 0-143.5 29T170 95.5 91.5 213 63 357q0 76 28.5 143.5t78.5 118T286.5 698 430 727q76 0 143-29t117-79.5 78.5-118T797 357zm-55 0q0 66-24 124t-66 101-99 68-123 25-123-25-99-68-66-101-24-124 24-124 66-101 99-68 123-25 123 25 99 68 66 101 24 124zm-302 62q28 0 52.5-9.5T535 383t28-40 10-51-9.5-52.5-27-42.5-43-28-57.5-10q-67 0-107.5 42T288 344q0 43 9 81.5t27.5 67 47.5 45 70 16.5q50 0 81-28t40-71h-55q-16 50-68 50-41 0-65.5-31T344 388h13q14 13 35 22t48 9zm-6-211q35 0 59.5 21.5T518 291q0 39-25 59t-60 20-59-20-24-59q0-40 24.5-61.5T434 208z"/><glyph glyph-name="uni2466" unicode="⑦" d="M797 357q0-77-28.5-144T690 95.5 573 16 430-13q-77 0-143.5 29T170 95.5 91.5 213 63 357q0 76 28.5 143.5t78.5 118T286.5 698 430 727q76 0 143-29t117-79.5 78.5-118T797 357zm-55 0q0 66-24 124t-66 101-99 68-123 25-123-25-99-68-66-101-24-124 24-124 66-101 99-68 123-25 123 25 99 68 66 101 24 124zM573 547v-50L395 166h-59l172 319v13H313v49h260z"/><glyph glyph-name="uni2467" unicode="⑧" d="M797 357q0-77-28.5-144T690 95.5 573 16 430-13q-77 0-143.5 29T170 95.5 91.5 213 63 357q0 76 28.5 143.5t78.5 118T286.5 698 430 727q76 0 143-29t117-79.5 78.5-118T797 357zm-55 0q0 66-24 124t-66 101-99 68-123 25-123-25-99-68-66-101-24-124 24-124 66-101 99-68 123-25 123 25 99 68 66 101 24 124zM431 505q-32 0-54.5-15T354 446q0-28 22.5-42t54.5-14q31 0 53.5 14t22.5 42q0 29-22.5 44T431 505zm0-297q39 0 65 18.5t26 49.5q0 30-26 47.5T431 341q-40 0-66-17.5T339 276q0-31 26-49.5t66-18.5zm-86 165q-15 8-30 27t-15 48q0 24 10 43.5t27.5 33.5 41.5 21.5 52 7.5 52-7.5 41.5-21.5 27.5-33.5 10-43.5q0-27-15-47t-31-28v-12q10-5 21-13t20-19 14.5-25.5T577 270q0-48-40.5-79.5T430 159t-106 31.5-40 79.5q0 19 5.5 33.5T304 329t19.5 19 21.5 13v12z"/><glyph glyph-name="uni2468" unicode="⑨" d="M797 357q0-77-28.5-144T690 95.5 573 16 430-13q-77 0-143.5 29T170 95.5 91.5 213 63 357q0 76 28.5 143.5t78.5 118T286.5 698 430 727q76 0 143-29t117-79.5 78.5-118T797 357zm-55 0q0 66-24 124t-66 101-99 68-123 25-123-25-99-68-66-101-24-124 24-124 66-101 99-68 123-25 123 25 99 68 66 101 24 124zm-322-62q-29 0-53 9.5T325 331t-28 40-10 51 9.5 52.5 27 42.5 43 28 57.5 10q67 0 107.5-42T572 370q0-43-9-81.5t-27.5-67-48-45T418 160q-50 0-81 28t-40 71h55q16-50 68-50 41 0 65.5 31t30.5 86h-13q-14-13-35-22t-48-9zm6 211q-35 0-59.5-21.5T342 423q0-39 25-59t60-20 59 20 24 59q0 40-24.5 61.5T426 506z"/><glyph glyph-name="lozenge" unicode="◊" horiz-adv-x="518" d="M458 357L296 0h-74L60 357l162 357h74zm-65 0L269 644h-20L125 357 249 70h20z"/><glyph glyph-name="circle" unicode="○" d="M797 357q0-77-28.5-144T690 95.5 573 16 430-13q-77 0-143.5 29T170 95.5 91.5 213 63 357q0 76 28.5 143.5t78.5 118T286.5 698 430 727q76 0 143-29t117-79.5 78.5-118T797 357zm-55 0q0 66-24 124t-66 101-99 68-123 25-123-25-99-68-66-101-24-124 24-124 66-101 99-68 123-25 123 25 99 68 66 101 24 124z"/><glyph glyph-name="H18533" unicode="●" d="M430 727q76 0 143-29t117-79.5 78.5-118T797 357q0-77-28.5-144T690 95.5 573 16 430-13q-77 0-143.5 29T170 95.5 91.5 213 63 357q0 76 28.5 143.5t78.5 118T286.5 698 430 727z"/><glyph glyph-name="uni2776" unicode="❶" d="M430 727q76 0 143-29t117-79.5 78.5-118T797 357q0-77-28.5-144T690 95.5 573 16 430-13q-77 0-143.5 29T170 95.5 91.5 213 63 357q0 76 28.5 143.5t78.5 118T286.5 698 430 727zm43-512v332h-58l-93-58v-57l83 50h13V215h-97v-49h249v49h-97z"/><glyph glyph-name="uni2777" unicode="❷" d="M430 727q76 0 143-29t117-79.5 78.5-118T797 357q0-77-28.5-144T690 95.5 573 16 430-13q-77 0-143.5 29T170 95.5 91.5 213 63 357q0 76 28.5 143.5t78.5 118T286.5 698 430 727zm-47-512v11l84 65q46 36 71.5 69.5T564 435q0 59-36.5 89T437 554q-27 0-51.5-7T342 524.5 312 485t-12-57h55q2 77 82 77 34 0 53-19t19-51q0-38-26.5-65T418 315l-117-88v-61h277v49H383z"/><glyph glyph-name="uni2778" unicode="❸" d="M430 727q76 0 143-29t117-79.5 78.5-118T797 357q0-77-28.5-144T690 95.5 573 16 430-13q-77 0-143.5 29T170 95.5 91.5 213 63 357q0 76 28.5 143.5t78.5 118T286.5 698 430 727zm39-309l91 76v53H318v-49h163v-13l-83-70v-55q9 2 15.5 2.5t19.5.5q41 0 64-21t23-56q0-37-25-57.5T432 208q-35 0-60.5 20T343 283h-54q3-54 42-89t101-35q30 0 56.5 8.5T534 192t30 40 11 54q0 51-30.5 81.5T469 405v13z"/><glyph glyph-name="uni2779" unicode="❹" d="M430 727q76 0 143-29t117-79.5 78.5-118T797 357q0-77-28.5-144T690 95.5 573 16 430-13q-77 0-143.5 29T170 95.5 91.5 213 63 357q0 76 28.5 143.5t78.5 118T286.5 698 430 727zm89-422v242h-75L267 309v-53h197v-90h55v90h55v49h-55zm-186 0v13l118 159h13V305H333z"/><glyph glyph-name="uni277A" unicode="❺" d="M430 727q76 0 143-29t117-79.5 78.5-118T797 357q0-77-28.5-144T690 95.5 573 16 430-13q-77 0-143.5 29T170 95.5 91.5 213 63 357q0 76 28.5 143.5t78.5 118T286.5 698 430 727zm12-300q-23 0-41.5-7T372 404h-13l9 94h187v49H324l-21-206h53q27 37 81 37 38 0 59.5-24t21.5-59q0-42-23.5-64.5T433 208q-35 0-57 18.5T349 282h-55q5-53 38.5-88T435 159q63 0 100.5 37.5T573 297q0 26-9 49.5T538.5 388t-41 28.5T442 427z"/><glyph glyph-name="uni277B" unicode="❻" d="M430 727q76 0 143-29t117-79.5 78.5-118T797 357q0-77-28.5-144T690 95.5 573 16 430-13q-77 0-143.5 29T170 95.5 91.5 213 63 357q0 76 28.5 143.5t78.5 118T286.5 698 430 727zm10-308q-27 0-48-9t-35-22h-13q6 55 30.5 86t65.5 31q52 0 68-50h55q-9 43-40 71t-81 28q-41 0-70-16.5t-47.5-45-27.5-67-9-81.5q0-101 40.5-143T436 159q32 0 57.5 10t43 28 27 42.5T573 292t-10 51-28 40-42.5 26.5T440 419zm-6-211q-35 0-59.5 21.5T350 291q0 39 24 59t59 20 60-20 25-59q0-40-24.5-61.5T434 208z"/><glyph glyph-name="uni277C" unicode="❼" d="M430 727q76 0 143-29t117-79.5 78.5-118T797 357q0-77-28.5-144T690 95.5 573 16 430-13q-77 0-143.5 29T170 95.5 91.5 213 63 357q0 76 28.5 143.5t78.5 118T286.5 698 430 727zM313 547v-49h195v-13L336 166h59l178 331v50H313z"/><glyph glyph-name="uni277D" unicode="❽" d="M430 727q76 0 143-29t117-79.5 78.5-118T797 357q0-77-28.5-144T690 95.5 573 16 430-13q-77 0-143.5 29T170 95.5 91.5 213 63 357q0 76 28.5 143.5t78.5 118T286.5 698 430 727zm1-222q31 0 53.5-15t22.5-44q0-28-22.5-42T431 390q-32 0-54.5 14T354 446q0 29 22.5 44t54.5 15zm0-297q-40 0-66 18.5T339 276q0 30 26 47.5t66 17.5q39 0 65-17.5t26-47.5q0-31-26-49.5T431 208zm-86 153q-11-5-21.5-13T304 329t-14.5-25.5T284 270q0-48 40-79.5T430 159t106.5 31.5T577 270q0 19-5.5 33.5T557 329t-20 19-21 13v12q16 8 31 28t15 47q0 24-10 43.5T524.5 525 483 546.5t-52 7.5-52-7.5-41.5-21.5-27.5-33.5-10-43.5q0-29 15-48t30-27v-12z"/><glyph glyph-name="uni277E" unicode="❾" d="M430-13q-77 0-143.5 29T170 95.5 91.5 213 63 357q0 76 28.5 143.5t78.5 118T286.5 698 430 727q76 0 143-29t117-79.5 78.5-118T797 357q0-77-28.5-144T690 95.5 573 16 430-13zm-10 308q27 0 48 9t35 22h13q-6-55-30.5-86T420 209q-52 0-68 50h-55q9-43 40-71t81-28q40 0 69.5 16.5t48 45 27.5 67 9 81.5q0 101-40.5 143T424 555q-32 0-57.5-10t-43-28-27-42.5T287 422t10-51 28-40 42-26.5 53-9.5zm6 211q35 0 59.5-21.5T510 423q0-39-24-59t-59-20-60 20-25 59q0 40 24.5 61.5T426 506z"/><glyph glyph-name="commaaccent" unicode="" horiz-adv-x="156" d="M34-215l49 60v17H42v79h84v-96l-48-60H34z"/><glyph glyph-name="ff" unicode="ﬀ" horiz-adv-x="716" d="M531 500h145v-56H531V0h-63v444H195V0h-63v444H28v56h104v74q0 78 38.5 115.5T287 727h61v-56h-59q-51 0-72.5-24T195 570v-70h273v74q0 78 38.5 115.5T623 727h61v-56h-59q-51 0-72.5-24T531 570v-70z"/><glyph glyph-name="a.ss03" horiz-adv-x="546" d="M408 56h-20q-23-30-65-49.5T226-13q-44 0-78 13.5T91 36 56.5 87 45 148q0 30 10 59t32 52.5 57.5 38T232 312h174v31q0 48-31 81t-104 33q-62 0-94.5-22.5T141 374H78q3 33 18 59t40.5 44 59.5 27 75 9q91 0 144.5-44T469 347V0h-61v56zM235 43q35 0 66 11.5t54.5 32 37 49T406 198v58H249q-69 0-105-28.5T108 151q0-52 35-80t92-28z"/><glyph glyph-name="agrave.ss03" horiz-adv-x="546" d="M408 56h-20q-23-30-65-49.5T226-13q-44 0-78 13.5T91 36 56.5 87 45 148q0 30 10 59t32 52.5 57.5 38T232 312h174v31q0 48-31 81t-104 33q-62 0-94.5-22.5T141 374H78q3 33 18 59t40.5 44 59.5 27 75 9q91 0 144.5-44T469 347V0h-61v56zM235 43q35 0 66 11.5t54.5 32 37 49T406 198v58H249q-69 0-105-28.5T108 151q0-52 35-80t92-28zm-75 684h78l83-145h-56z"/><glyph glyph-name="aacute.ss03" horiz-adv-x="546" d="M408 56h-20q-23-30-65-49.5T226-13q-44 0-78 13.5T91 36 56.5 87 45 148q0 30 10 59t32 52.5 57.5 38T232 312h174v31q0 48-31 81t-104 33q-62 0-94.5-22.5T141 374H78q3 33 18 59t40.5 44 59.5 27 75 9q91 0 144.5-44T469 347V0h-61v56zM235 43q35 0 66 11.5t54.5 32 37 49T406 198v58H249q-69 0-105-28.5T108 151q0-52 35-80t92-28zm52 539h-58l83 145h80z"/><glyph glyph-name="acircumflex.ss03" horiz-adv-x="546" d="M408 56h-20q-23-30-65-49.5T226-13q-44 0-78 13.5T91 36 56.5 87 45 148q0 30 10 59t32 52.5 57.5 38T232 312h174v31q0 48-31 81t-104 33q-62 0-94.5-22.5T141 374H78q3 33 18 59t40.5 44 59.5 27 75 9q91 0 144.5-44T469 347V0h-61v56zM235 43q35 0 66 11.5t54.5 32 37 49T406 198v58H249q-69 0-105-28.5T108 151q0-52 35-80t92-28zm184 539h-65l-68 95h-20l-68-95h-63l105 145h74z"/><glyph glyph-name="atilde.ss03" horiz-adv-x="546" d="M408 56h-20q-23-30-65-49.5T226-13q-44 0-78 13.5T91 36 56.5 87 45 148q0 30 10 59t32 52.5 57.5 38T232 312h174v31q0 48-31 81t-104 33q-62 0-94.5-22.5T141 374H78q3 33 18 59t40.5 44 59.5 27 75 9q91 0 144.5-44T469 347V0h-61v56zM235 43q35 0 66 11.5t54.5 32 37 49T406 198v58H249q-69 0-105-28.5T108 151q0-52 35-80t92-28zm115 602q25 0 32.5 23.5T390 721h48q0-132-89-132-26 0-45.5 12T265 630q-13 11-29.5 23.5T200 666q-13 0-21-6.5T166.5 642t-6-24.5T159 589h-48q0 132 90 132 29 0 50-13.5t40-29.5q16-13 29.5-23t29.5-10z"/><glyph glyph-name="adieresis.ss03" horiz-adv-x="546" d="M408 56h-20q-23-30-65-49.5T226-13q-44 0-78 13.5T91 36 56.5 87 45 148q0 30 10 59t32 52.5 57.5 38T232 312h174v31q0 48-31 81t-104 33q-62 0-94.5-22.5T141 374H78q3 33 18 59t40.5 44 59.5 27 75 9q91 0 144.5-44T469 347V0h-61v56zM235 43q35 0 66 11.5t54.5 32 37 49T406 198v58H249q-69 0-105-28.5T108 151q0-52 35-80t92-28zm-49 683l58-58-58-58-58 58zm174 0l58-58-58-58-58 58z"/><glyph glyph-name="aring.ss03" horiz-adv-x="546" d="M408 56h-20q-23-30-65-49.5T226-13q-44 0-78 13.5T91 36 56.5 87 45 148q0 30 10 59t32 52.5 57.5 38T232 312h174v31q0 48-31 81t-104 33q-62 0-94.5-22.5T141 374H78q3 33 18 59t40.5 44 59.5 27 75 9q91 0 144.5-44T469 347V0h-61v56zM235 43q35 0 66 11.5t54.5 32 37 49T406 198v58H249q-69 0-105-28.5T108 151q0-52 35-80t92-28zm38 750q22 0 41-8.5t33-22.5 22.5-33 8.5-41-8.5-41-22.5-33.5-33-23-41-8.5-41 8.5-33.5 23-23 33.5-8.5 41 8.5 41 23 33 33.5 22.5 41 8.5zm0-163q25 0 41.5 16t16.5 42q0 25-16.5 41.5T273 746q-26 0-42-16.5T215 688q0-26 16-42t42-16z"/><glyph glyph-name="amacron.ss03" horiz-adv-x="546" d="M408 56h-20q-23-30-65-49.5T226-13q-44 0-78 13.5T91 36 56.5 87 45 148q0 30 10 59t32 52.5 57.5 38T232 312h174v31q0 48-31 81t-104 33q-62 0-94.5-22.5T141 374H78q3 33 18 59t40.5 44 59.5 27 75 9q91 0 144.5-44T469 347V0h-61v56zM235 43q35 0 66 11.5t54.5 32 37 49T406 198v58H249q-69 0-105-28.5T108 151q0-52 35-80t92-28zm-97 590v54h274v-54H138z"/><glyph glyph-name="abreve.ss03" horiz-adv-x="546" d="M408 56h-20q-23-30-65-49.5T226-13q-44 0-78 13.5T91 36 56.5 87 45 148q0 30 10 59t32 52.5 57.5 38T232 312h174v31q0 48-31 81t-104 33q-62 0-94.5-22.5T141 374H78q3 33 18 59t40.5 44 59.5 27 75 9q91 0 144.5-44T469 347V0h-61v56zM235 43q35 0 66 11.5t54.5 32 37 49T406 198v58H249q-69 0-105-28.5T108 151q0-52 35-80t92-28zm177 684v-14q0-32-11-56t-29.5-41-43-25.5T276 582t-52.5 8.5-43 25.5-29.5 41-11 56v14h55v-13q0-37 23-59t58-22 58 22 23 59v13h55z"/><glyph glyph-name="aogonek.ss03" horiz-adv-x="546" d="M469 0q-31-16-54-41.5T392-96q0-28 21.5-42t57.5-15v-47h-17q-53 0-86.5 23T334-105q0 17 6.5 33.5t17 31T381-15t27 17v54h-20q-23-30-65-49.5T226-13q-44 0-78 13.5T91 36 56.5 87 45 148q0 30 10 59t32 52.5 57.5 38T232 312h174v31q0 48-31 81t-104 33q-62 0-94.5-22.5T141 374H78q3 33 18 59t40.5 44 59.5 27 75 9q91 0 144.5-44T469 347V0zM235 43q35 0 66 11.5T355.5 87t37 50 13.5 63v59H249q-69 0-105-29t-36-77q0-53 35-81.5T235 43z"/><glyph glyph-name="uni0430.ss03" horiz-adv-x="546" d="M408 56h-20q-23-30-65-49.5T226-13q-44 0-78 13.5T91 36 56.5 87 45 148q0 30 10 59t32 52.5 57.5 38T232 312h174v31q0 48-31 81t-104 33q-62 0-94.5-22.5T141 374H78q3 33 18 59t40.5 44 59.5 27 75 9q91 0 144.5-44T469 347V0h-61v56zM235 43q35 0 66 11.5t54.5 32 37 49T406 198v58H249q-69 0-105-28.5T108 151q0-52 35-80t92-28z"/><glyph glyph-name="zero.numr" horiz-adv-x="378" d="M338 523q0-51-11-88t-31-61-47.5-36-59.5-12q-65 0-107 48T40 523q0 102 42 150t107 48q32 0 59.5-12t47.5-36 31-61.5 11-88.5zM189 375q46 0 70 38t24 110-24 110.5-70 38.5q-47 0-70.5-38.5T95 523t23.5-110 70.5-38z"/><glyph glyph-name="one.numr" horiz-adv-x="329" d="M289 382v-49H40v49h97v267h-13l-83-50v57l93 58h58V382h97z"/><glyph glyph-name="two.numr" horiz-adv-x="358" d="M318 382v-49H41v61l117 88q38 28 64.5 55t26.5 65q0 32-19 51t-53 19q-80 0-82-77H40q1 33 12 57t30 39.5 43.5 22.5 51.5 7q54 0 90.5-30t36.5-89q0-41-25.5-74.5T207 458l-84-65v-11h195z"/><glyph glyph-name="three.numr" horiz-adv-x="363" d="M219 572q45-7 75.5-37.5T325 453q0-30-11-54t-30-40-45.5-24.5T182 326q-62 0-101 35t-42 89h54q3-35 28.5-55t60.5-20q38 0 63 20.5t25 57.5q0 35-23 56t-64 21q-13 0-19.5-.5T148 527v55l83 70v13H68v49h242v-53l-91-76v-13z"/><glyph glyph-name="four.numr" horiz-adv-x="387" d="M347 472v-49h-55v-90h-55v90H40v53l177 238h75V472h55zm-110 0v172h-13L106 485v-13h131z"/><glyph glyph-name="five.numr" horiz-adv-x="359" d="M188 594q31 0 55.5-10.5t41-28.5 25.5-41.5 9-49.5q0-63-37.5-100.5T181 326q-69 0-102.5 35T40 449h55q5-37 27-55.5t57-18.5q38 0 61.5 22.5T264 462q0 35-21.5 59T183 545q-54 0-81-37H49l21 206h231v-49H114l-9-94h13q10 9 28.5 16t41.5 7z"/><glyph glyph-name="six.numr" horiz-adv-x="365" d="M192 586q28 0 52.5-9.5T287 550t28-40 10-51-9.5-52.5-27-42.5-43-28-57.5-10q-67 0-107.5 42T40 511q0 43 9 81.5t27.5 67 47.5 45 70 16.5q50 0 81-28t40-71h-55q-16 50-68 50-41 0-65.5-31T96 555h13q14 13 35 22t48 9zm-6-211q35 0 59.5 21.5T270 458q0 39-25 59t-60 20-59-20-24-59q0-40 24.5-61.5T186 375z"/><glyph glyph-name="seven.numr" horiz-adv-x="306" d="M281 714v-50L103 333H44l172 319v13H21v49h260z"/><glyph glyph-name="eight.numr" horiz-adv-x="373" d="M187 672q-32 0-54.5-15T110 613q0-28 22.5-42t54.5-14q31 0 53.5 14t22.5 42q0 29-22.5 44T187 672zm0-297q39 0 65 18.5t26 49.5q0 30-26 47.5T187 508q-40 0-66-17.5T95 443q0-31 26-49.5t66-18.5zm-86 165q-15 8-30 27t-15 48q0 24 10 43.5T93.5 692t41.5 21.5 52 7.5 52-7.5 41.5-21.5 27.5-33.5 10-43.5q0-27-15-47t-31-28v-12q10-5 21-13t20-19 14.5-25.5T333 437q0-48-40.5-79.5T186 326 80 357.5 40 437q0 19 5.5 33.5T60 496t19.5 19 21.5 13v12z"/><glyph glyph-name="nine.numr" horiz-adv-x="365" d="M173 461q-28 0-52.5 9.5T78 497t-28 40-10 51 9.5 52.5 27 42.5 43 28 57.5 10q67 0 107.5-42T325 536q0-43-9-81.5t-27.5-67-47.5-45-70-16.5q-50 0-81 28t-40 71h55q16-50 68-50 41 0 65.5 31t30.5 86h-13q-14-13-35-22t-48-9zm6 211q-35 0-59.5-21.5T95 589q0-39 25-59t60-20 59 20 24 59q0 40-24.5 61.5T179 672z"/><glyph glyph-name="zero.dnom" horiz-adv-x="378" d="M338 190q0-51-11-88t-31-61-47.5-36T189-7Q124-7 82 41T40 190q0 102 42 150t107 48q32 0 59.5-12t47.5-36 31-61.5 11-88.5zM189 42q46 0 70 38t24 110-24 110.5-70 38.5q-47 0-70.5-38.5T95 190t23.5-110T189 42z"/><glyph glyph-name="one.dnom" horiz-adv-x="329" d="M289 49V0H40v49h97v267h-13l-83-50v57l93 58h58V49h97z"/><glyph glyph-name="two.dnom" horiz-adv-x="358" d="M318 49V0H41v61l117 88q38 28 64.5 55t26.5 65q0 32-19 51t-53 19q-80 0-82-77H40q1 33 12 57t30 39.5 43.5 22.5 51.5 7q54 0 90.5-30t36.5-89q0-41-25.5-74.5T207 125l-84-65V49h195z"/><glyph glyph-name="three.dnom" horiz-adv-x="367" d="M220 239q45-7 75.5-37.5T326 120q0-30-11-54t-30-40-45.5-24.5T183-7Q121-7 82 28t-42 89h54q3-35 28.5-55T183 42q38 0 63 20.5t25 57.5q0 35-23 56t-64 21q-13 0-19.5-.5T149 194v55l83 70v13H69v49h242v-53l-91-76v-13z"/><glyph glyph-name="four.dnom" horiz-adv-x="387" d="M347 139V90h-55V0h-55v90H40v53l177 238h75V139h55zm-110 0v172h-13L106 152v-13h131z"/><glyph glyph-name="five.dnom" horiz-adv-x="359" d="M188 261q31 0 55.5-10.5t41-28.5 25.5-41.5 9-49.5q0-63-37.5-100.5T181-7Q112-7 78.5 28T40 116h55q5-37 27-55.5T179 42q38 0 61.5 22.5T264 129q0 35-21.5 59T183 212q-54 0-81-37H49l21 206h231v-49H114l-9-94h13q10 9 28.5 16t41.5 7z"/><glyph glyph-name="six.dnom" horiz-adv-x="365" d="M192 253q28 0 52.5-9.5T287 217t28-40 10-51-9.5-52.5-27-42.5-43-28T188-7Q121-7 80.5 35T40 178q0 43 9 81.5t27.5 67 47.5 45 70 16.5q50 0 81-28t40-71h-55q-16 50-68 50-41 0-65.5-31T96 222h13q14 13 35 22t48 9zm-6-211q35 0 59.5 21.5T270 125q0 39-25 59t-60 20-59-20-24-59q0-40 24.5-61.5T186 42z"/><glyph glyph-name="seven.dnom" horiz-adv-x="306" d="M281 381v-50L103 0H44l172 319v13H21v49h260z"/><glyph glyph-name="eight.dnom" horiz-adv-x="373" d="M187 339q-32 0-54.5-15T110 280q0-28 22.5-42t54.5-14q31 0 53.5 14t22.5 42q0 29-22.5 44T187 339zm0-297q39 0 65 18.5t26 49.5q0 30-26 47.5T187 175q-40 0-66-17.5T95 110q0-31 26-49.5T187 42zm-86 165q-15 8-30 27t-15 48q0 24 10 43.5T93.5 359t41.5 21.5 52 7.5 52-7.5 41.5-21.5 27.5-33.5 10-43.5q0-27-15-47t-31-28v-12q10-5 21-13t20-19 14.5-25.5T333 104q0-48-40.5-79.5T186-7 80 24.5 40 104q0 19 5.5 33.5T60 163t19.5 19 21.5 13v12z"/><glyph glyph-name="nine.dnom" horiz-adv-x="365" d="M173 128q-29 0-53 9.5T78 164t-28 40-10 51 9.5 52.5 27 42.5 43 28 57.5 10q67 0 107.5-42T325 203q0-43-9-81.5t-27.5-67-48-45T171-7q-50 0-81 28T50 92h55q16-50 68-50 41 0 65.5 31t30.5 86h-13q-14-13-35-22t-48-9zm6 211q-35 0-59.5-21.5T95 256q0-39 25-59t60-20 59 20 24 59q0 40-24.5 61.5T179 339z"/><glyph glyph-name="zero.onum" horiz-adv-x="600" d="M300 513q52 0 97-18t78-52 52-83 19-110-19-110-52-83-78-52-97-18-97 18-78 52-52 83-19 110 19 110 52 83 78 52 97 18zm0-470q44 0 78 15t57.5 42.5T471 166t12 84-12 84.5-35.5 65.5-57.5 42-78 15-78-15-57.5-42-35.5-65.5-12-84.5 12-84 35.5-65.5T222 58t78-15z"/><glyph glyph-name="one.onum" horiz-adv-x="437" d="M60 56h142v377h-19L60 351v68l123 81h82V56h132V0H60v56z"/><glyph glyph-name="two.onum" horiz-adv-x="543" d="M493 0H55v75l186 91q42 21 73 38t52 36 31 42.5 10 55.5q0 52-36.5 85.5T267 457q-75 0-112.5-39.5T117 311H54q0 41 13.5 77.5T108 453t66.5 44 92.5 16q52 0 90.5-16t63.5-41 37-56 12-61q0-47-17.5-80t-45-57.5-61-42T280 127L171 75V56h322V0z"/><glyph glyph-name="three.onum" horiz-adv-x="555" d="M474 500v-76L282 256v-20q48 0 89-14t70.5-41.5 46-67.5T504 21q0-54-18-96.5T436.5-147 361-191t-95-15-93.5 15.5-73 42.5T51-84 30-4h63q3-33 17-59.5t37.5-46 53.5-30 65-10.5q38 0 70 12t55.5 34T428-50.5 441 21q0 75-45 118.5T267 183q-16 0-32-1.5t-27-4.5v81l187 166v20H81v56h393z"/><glyph glyph-name="four.onum" horiz-adv-x="603" d="M555 56V0H455v-200h-63V0H40v76l311 424h104V56h100zm-163 0v379h-20L110 76V56h282z"/><glyph glyph-name="five.onum" horiz-adv-x="583" d="M302 273q55 0 97-18.5t70.5-50 43-74T527 41q0-57-16.5-102.5t-47-77.5-73.5-49.5-95-17.5q-56 0-98.5 15.5t-72 42.5T79-84 60-4h65q8-72 53-109t114-37q38 0 69.5 13t54.5 37 35.5 58.5T464 37q0 38-11.5 71T419 165t-53 38-70 14q-103 0-152-73H77l31 356h386v-56H161l-18-222h20q26 24 58.5 37.5T302 273z"/><glyph glyph-name="six.onum" horiz-adv-x="581" d="M312 451q48 0 88.5-16.5T471 388t46.5-71.5T534 225t-15.5-93.5T474 56 402 5.5 305-13q-55 0-100.5 18T126 63.5 75 169 57 328q0 80 15.5 150t47 122.5 80.5 83T316 714q43 0 77-12t59-33.5 41-50.5 23-63h-63q-15 49-48 76t-88 27q-47 0-82.5-20.5T174 580t-38.5-88T120 380h20q10 12 26 24.5t37.5 23 48.5 17 60 6.5zm-8-408q36 0 66.5 12t53 34.5 35 55.5 12.5 76-13 75.5-36 54.5-53.5 33-66.5 11q-35 0-66-11.5t-53.5-34T147 295t-13-73q0-42 13.5-75T184 90.5 238 55t66-12z"/><glyph glyph-name="seven.onum" horiz-adv-x="538" d="M171-200h-67l312 624v20H50v56h433v-76z"/><glyph glyph-name="eight.onum" horiz-adv-x="600" d="M138 525q0-32 13-56.5t35.5-41.5 51.5-25.5 62-8.5 62 8.5 51.5 25.5 35.5 41.5 13 56.5-13 56.5-35.5 41.5-51.5 26-62 9-62-9-51.5-26-35.5-41.5-13-56.5zM300 43q39 0 72 10.5T430 83t39 46 14 60q0 34-13.5 61t-38 46.5-58 30T300 337t-73.5-10.5-58-30-38-46.5-13.5-61q0-33 14-60t39-46 58-29.5T300 43zm246 143q0-44-18-80.5t-50.5-63-78-41T300-13 200.5 1.5t-78 41-50.5 63T54 186q0 37 11.5 65.5T95 301t39 34.5 40 21.5v20q-15 8-32.5 21t-32 31T85 471.5 75 526q0 42 17 77t47 59.5 71 38 90 13.5 90.5-13.5 71.5-38 47-59.5 17-77q0-30-10-54.5T491 429t-32.5-31-32.5-21v-20q19-8 40-21.5t39-34.5 29.5-49.5T546 186z"/><glyph glyph-name="nine.onum" horiz-adv-x="581" d="M268 49q-48 0-88.5 16.5T109 112t-46.5 71.5T46 275t15.5 93.5T106 444t72 50.5 97 18.5q55 0 100.5-18t78.5-58.5T505 331t18-159q0-80-15.5-149t-47-120-80.5-80-116-29q-43 0-77 12t-59 33.5T87-110 64-47h63q15-49 48-76t88-27q46 0 82 19.5T406-76t38.5 85T460 120h-20q-10-12-26-24.5t-37.5-23-48.5-17-60-6.5zm8 408q-36 0-66.5-12t-53-34.5-35-55.5-12.5-76 13-75.5 36-54.5 53.5-33 66.5-11q35 0 66 11.5t53.5 34T433 205t13 73q0 42-13.5 75T396 409.5 342 445t-66 12z"/><glyph glyph-name="zero.tnum" horiz-adv-x="630" d="M315 714q54 0 100-21.5t79.5-66.5T547 512.5 566 350t-19-162.5-52.5-113-79.5-66T315-13 215 8.5t-79.5 66-52.5 113T64 350t19 162.5T135.5 626t79.5 66.5T315 714zM129 350q0-146 45-224l240 497q-41 33-99 33-91 0-138.5-78.5T129 350zM315 45q91 0 138.5 78T501 350q0 146-45 223L216 77q41-32 99-32z"/><glyph glyph-name="one.tnum" horiz-adv-x="630" d="M63 58h238v572h-19L111 518v70l171 112h84V58h204V0H63v58z"/><glyph glyph-name="two.tnum" horiz-adv-x="630" d="M82 514q4 52 23.5 89.5t50 62T225 702t82 12q49 0 89.5-14t69.5-40.5 45-65 16-88.5q0-45-14.5-82.5t-40-71-59.5-66-74-67.5L175 79V58h372V0H85v79l208 179q45 38 77 69t52.5 60 30 58 9.5 62q0 72-42 110.5T306 656q-65 0-108-35t-51-107H82z"/><glyph glyph-name="three.tnum" horiz-adv-x="630" d="M508 700v-78L317 452v-20q48 0 88.5-14.5t70.5-42 46.5-68T539 215q0-54-18-96.5t-50-72T395 2t-95-15-93.5 15.5-73 42.5T85 109t-21 80h65q3-33 17-59.5t37-45 53-29T300 45q38 0 70 11.5T425 90t36 53.5 13 71.5q0 75-44.5 118.5T301 377q-16 0-32-1.5t-27-4.5v82l187 169v20H115v58h393z"/><glyph glyph-name="four.tnum" horiz-adv-x="630" d="M573 229v-58H473V0h-65v171H57v78l311 451h105V229h100zm-165 0v404h-20L128 249v-20h280z"/><glyph glyph-name="five.tnum" horiz-adv-x="630" d="M326 469q55 0 97.5-19t71-51 43-74.5T552 235q0-57-16.5-102.5t-47.5-78-74-50T319-13q-56 0-98.5 15.5t-72 42.5-45.5 64-19 80h65q8-72 53-108t114-36q38 0 69.5 12.5t54 36.5 35 58.5T487 231q0 38-11.5 71t-33 57-52.5 38-70 14q-103 0-151-72h-69l31 361h387v-58H185l-18-225h20q26 24 58.5 38t80.5 14z"/><glyph glyph-name="six.tnum" horiz-adv-x="630" d="M333 452q48 0 89-17t70.5-47 46.5-71.5 17-91.5-15.5-93.5-45-75.5T423 5.5 326-13q-55 0-100.5 18T147 63.5 95.5 169 77 328q0 80 15.5 150T140 600.5t81 83T337 714q43 0 77-12t59-33.5 41-50.5 23-63h-65q-15 49-47 75t-87 26q-47 0-82.5-20T195 579.5 156.5 492 141 380h20q10 12 26 24.5t37.5 23T273 445t60 7zm-8-407q36 0 66 11.5t52.5 34 35 55T491 221t-13 75-35.5 54-53 33-66.5 11q-35 0-65.5-11.5t-53-33.5-35.5-54-13-73q0-42 13-75t36-55.5T259 57t66-12z"/><glyph glyph-name="seven.tnum" horiz-adv-x="630" d="M214 0h-69l313 622v20H93v58h433v-78z"/><glyph glyph-name="eight.tnum" horiz-adv-x="630" d="M154 525q0-32 13-56.5t35-41 51-25 62-8.5 62 8.5 51 25 35 41 13 56.5-13 56.5-35 41-51 25-62 8.5-62-8.5-51-25-35-41-13-56.5zM315 45q39 0 72 10t57.5 28.5T483 129t14 60q0 34-13.5 61T446 296t-57.5 29.5T315 336t-73.5-10.5T184 296t-37.5-46-13.5-61q0-33 14-60t38.5-45.5T243 55t72-10zm247 141q0-44-18-80.5t-51-63-78.5-41T315-13 215.5 1.5t-78.5 41-51 63T68 186q0 37 11.5 65.5T109 301t39.5 34.5T189 357v20q-15 8-32.5 21T124 429t-25 42.5T89 526q0 42 17 77t47 59.5 71.5 38T315 714t90.5-13.5 72-38T525 603t17-77q0-30-10-54.5T506.5 429t-33-31-32.5-21v-20q19-8 40.5-21.5T521 301t29.5-49.5T562 186z"/><glyph glyph-name="nine.tnum" horiz-adv-x="630" d="M297 249q-48 0-89 17t-70.5 47T91 384.5 74 476t15.5 93.5 45 75.5 72.5 50.5 97 18.5q55 0 100.5-18t78.5-58.5T534.5 532 553 373q0-80-15.5-150T490 100.5t-81-83T293-13q-43 0-77 12t-59 33.5T116 83t-23 63h65q15-49 47-75t87-26q47 0 82.5 20t60.5 56.5 38.5 87.5T489 321h-20q-10-12-26-24.5t-37.5-23T357 256t-60-7zm8 407q-36 0-66-11.5t-52.5-34-35-55T139 480t13-75 35.5-54 53-33 66.5-11q35 0 65.5 11.5t53 33.5 35.5 54 13 73q0 42-13 75t-36 55.5-54 34.5-66 12z"/><glyph glyph-name="dollar.tnum" horiz-adv-x="630" d="M340 798v-86q44-3 79.5-18.5T481 654t42-55.5 22-67.5h-64q-11 50-43.5 83.5T340 654V394l58-12q79-17 122.5-63T564 187q0-39-13.5-74.5t-41.5-63-70-44T340-13v-85h-51v87q-97 9-154 62.5T66 188h65q11-62 53.5-97T289 48v295l-46 9q-75 14-113 59.5T92 526q0 36 12 68.5t37 58 61.5 41.5 86.5 19v85h51zm0-752q69 3 114 39t45 102q0 59-34.5 93T367 325l-27 5V46zm-51 609q-57-4-94.5-37.5T157 527q0-48 26.5-75.5T270 411l19-4v248z"/><glyph glyph-name="Euro.tnum" horiz-adv-x="630" d="M373 267H167q14-109 63-165.5T360 45q69 0 109.5 38.5T522 191h65q-15-97-74-150.5T360-13q-51 0-94.5 16.5t-77 51-56 87.5T102 267H29l18 52h51v55l1 23H29l18 52h58q10 68 33 118t57 82.5 76 48.5 89 16q93 0 148.5-50.5T581 519h-66q-11 65-47 101t-108 36q-75 0-124.5-53T170 449h266l-18-52H164q-1-11-1-23v-55h228z"/><glyph glyph-name="sterling.tnum" horiz-adv-x="630" d="M576 58V0H51v58h21q38 0 55 24t17 70v138H51v58h93v156q0 103 55 156.5T346 714q88 0 139.5-50T540 519h-64q-1 30-8 55t-22.5 43.5-40 28.5-59.5 10q-38 0-64-12.5T240 610t-23.5-48.5T209 503V348h217v-58H209V161q0-24-3.5-44.5T184 78V58h392z"/><glyph glyph-name="yen.tnum" horiz-adv-x="630" d="M131 348h102L41 700h70l190-352h28l190 352h70L396 348h103v-52H368l-21-38v-40h152v-52H347V0h-65v166H131v52h151v40l-21 38H131v52z"/><glyph glyph-name="uni20BD.tnum" horiz-adv-x="630" d="M49 356h89v344h230q109 0 166.5-52T592 502q0-93-57.5-145.5T368 304H203v-78h241v-52H203V0h-65v174H49v52h89v78H49v52zm308 0q47 0 79.5 10.5t52.5 30 29 46.5 9 59-9 58-29 44-52.5 28-79.5 10H203V356h154z"/><glyph glyph-name="uni20B4.tnum" horiz-adv-x="630" d="M560 177q-15-86-77-138T319-13q-53 0-95 16t-71.5 43.5-45.5 64T91 187q0 42 15 77H48v52h533v-52H174q-18-32-18-77 0-32 12-58.5t33.5-45 51-28.5T317 45q67 0 115 32.5t64 99.5h64zM332 714q48 0 86.5-15.5t65.5-41 41.5-59.5 14.5-70q0-23-5.5-43.5T519 446h62v-52H48v52h396q31 27 31 82 0 58-39 93t-102 35q-69 0-106-30t-51-83h-64q7 37 25 68.5t46 54 65.5 35.5 82.5 13z"/><glyph glyph-name="uni20B8.tnum" horiz-adv-x="630" d="M76 570h477v-52H347V0h-65v518H76v52zm0 130h477v-52H76v52z"/><glyph glyph-name="cent.tnum" horiz-adv-x="630" d="M530 143q-14-65-60.5-107T348-12v-68h-51v69q-51 5-90 27.5T141.5 74t-40 80T88 250t13.5 96 40 80 65.5 57.5 90 27.5v69h51v-68q39-3 69-15t52.5-32 37-46.5T528 361h-63q-13 38-41 64t-76 31V44q51 5 79.5 31t39.5 68h63zM151 252q0-38 8.5-72.5t26-62.5 45-47T297 45v410q-39-5-66.5-23.5t-45.5-46-26-62-8-71.5z"/><glyph glyph-name="tilde.cap" horiz-adv-x="405" d="M277 822q25 0 32.5 23.5T317 898h48q0-132-89-132-26 0-45.5 12T192 807q-13 11-29.5 23.5T127 843q-13 0-21-6.5T93.5 819t-6-24.5T86 766H38q0 132 90 132 29 0 50-13.5t40-29.5q16-13 29.5-23t29.5-10z"/><glyph glyph-name="hungarumlaut.cap" horiz-adv-x="379" d="M94 767H36l77 129h80zm150 0h-58l77 129h80z"/><glyph glyph-name="breve.cap" horiz-adv-x="352" d="M312 896v-12q0-28-11-50t-29.5-37-43-22.5T176 767t-52.5 7.5-43 22.5T51 834t-11 50v12h56v-11q0-31 23-49t57-18 57 18 23 49v11h56z"/><glyph glyph-name="dotaccent.cap" horiz-adv-x="149" d="M75 908l64-64-64-65-64 65z"/><glyph glyph-name="caron.cap" horiz-adv-x="360" d="M38 896h68l65-79h20l65 79h66L217 767h-74z"/><glyph glyph-name="ring.cap" horiz-adv-x="291" d="M146 966q22 0 41-8.5t33-22.5 22.5-33 8.5-41-8.5-41-22.5-33.5-33-23-41-8.5-41 8.5-33.5 23-23 33.5-8.5 41 8.5 41 23 33 33.5 22.5 41 8.5zm0-163q25 0 41.5 16t16.5 42q0 25-16.5 41.5T146 919q-26 0-42-16.5T88 861q0-26 16-42t42-16z"/><glyph glyph-name="grave.cap" horiz-adv-x="241" d="M39 896h80l83-129h-58z"/><glyph glyph-name="acute.cap" horiz-adv-x="241" d="M97 767H39l83 129h80z"/><glyph glyph-name="dieresis.cap" horiz-adv-x="325" d="M75 902l58-58-58-58-58 58zm174 0l58-58-58-58-58 58z"/><glyph glyph-name="circumflex.cap" horiz-adv-x="360" d="M143 896h74l105-129h-66l-65 79h-20l-65-79H38z"/><glyph glyph-name="macron.cap" horiz-adv-x="354" d="M40 817v54h274v-54H40z"/><glyph glyph-name="cyrbreve" horiz-adv-x="407" d="M348 727v-12q0-32-11.5-57t-31-42-46-25.5T203 582t-56.5 8.5-46 25.5T70 658t-11 57v12h56v-12q0-37 24.5-59t63.5-22q40 0 64.5 22t24.5 59v12h56z"/><glyph glyph-name="cyrbreve.cap" horiz-adv-x="416" d="M376 904q0-38-13.5-67T326 788t-53.5-30-65.5-10q-34 0-64.5 10t-53 30-36 49T40 904h58q0-48 31-75t78-27q48 0 79.5 27t31.5 75h58z"/><glyph glyph-name="hyphen.case" horiz-adv-x="360" d="M50 332v57h260v-57H50z"/><glyph glyph-name="endash.case" horiz-adv-x="615" d="M50 332v57h515v-57H50z"/><glyph glyph-name="emdash.case" horiz-adv-x="875" d="M50 332v57h775v-57H50z"/><glyph glyph-name="emdash.ss02.case" horiz-adv-x="1445" d="M50 332v57h1345v-57H50z"/><glyph glyph-name="bracketleft.case" horiz-adv-x="301" d="M80-93v900h161v-54h-98V-39h98v-54H80z"/><glyph glyph-name="bracketright.case" horiz-adv-x="301" d="M60-93v54h98v792H60v54h161V-93H60z"/><glyph glyph-name="braceleft.case" horiz-adv-x="375" d="M163 347q23-8 36.5-32t13.5-70V57q0-54 25-75t64-21h33v-54h-33q-32 0-60 9t-48.5 27.5-32 46.5T150 56v177q0 46-11 71.5T90 330H80v54h10q38 0 49 25.5t11 71.5v177q0 38 11.5 66t32 46.5T242 798t60 9h33v-54h-33q-39 0-64-21t-25-75V469q0-46-13.5-70T163 367v-20z"/><glyph glyph-name="braceright.case" horiz-adv-x="375" d="M212 367q-23 8-36.5 32T162 469v188q0 54-25 75t-64 21H40v54h33q32 0 60-9t48.5-27.5 32-46.5 11.5-66V481q0-46 11-71.5t49-25.5h10v-54h-10q-38 0-49-25.5T225 233V56q0-38-11.5-66t-32-46.5T133-84t-60-9H40v54h33q39 0 64 21t25 75v188q0 46 13.5 70t36.5 32v20z"/><glyph glyph-name="parenleft.case" horiz-adv-x="271" d="M113 362q0-75 12.5-140t34-121T210-3t62-90h-64q-34 40-63 89T94.5 101.5 60.5 223 48 362q0 71 11.5 134.5t32 119 48 103.5 59.5 88h64q-32-41-59-88.5t-47.5-102-32-118T113 362z"/><glyph glyph-name="parenright.case" horiz-adv-x="271" d="M158 362q0 73-11.5 136.5t-32 118-47.5 102T8 807h64q32-40 59.5-88t48-103.5 32-119T223 362q0-74-12.5-139t-34-121.5T126-4 63-93H-1Q32-51 61-3t50.5 104 34 121T158 362z"/><glyph glyph-name="guillemotleft.case" horiz-adv-x="526" d="M117 338l158-168h-71L60 318v59l144 149h71L117 358v-20zm191 0l158-168h-71L251 318v59l144 149h71L308 358v-20z"/><glyph glyph-name="guillemotright.case" horiz-adv-x="526" d="M409 358L251 526h71l144-149v-59L322 170h-71l158 168v20zm-191 0L60 526h71l144-149v-59L131 170H60l158 168v20z"/><glyph glyph-name="guilsinglleft.case" horiz-adv-x="335" d="M117 338l158-168h-71L60 318v59l144 149h71L117 358v-20z"/><glyph glyph-name="guilsinglright.case" horiz-adv-x="335" d="M218 358L60 526h71l144-149v-59L131 170H60l158 168v20z"/><glyph glyph-name="exclamdown.case" horiz-adv-x="302" d="M118 0v297l13 239h41l12-239V0h-66zm33 595l-67 67 67 67 67-67z"/><glyph glyph-name="questiondown.case" horiz-adv-x="534" d="M272-13q-43 0-80 13t-64.5 37-43 58.5T69 174q0 39 9 67.5t26 51 41 43.5 54 45q15 12 26 22t18 22.5 10.5 30T257 500v36h63v-36q0-34-5.5-57.5T298 401t-27-33-37-33q-23-19-41.5-35t-32-33.5-21-39.5-7.5-53q0-25 9-49.5t27-43 44-30T272 40q68 0 106 34t43 111h63q-5-97-62.5-147.5T272-13zm16 608l-67 67 67 67 67-67z"/><glyph glyph-name="t.ss04" horiz-adv-x="367" d="M134 0v444H28v56h106v155h63V500h142v-56H197V0h-63z"/><glyph glyph-name="tcaron.ss04" horiz-adv-x="410" d="M337 635v92h84V618l-44-67h-43l44 67v17h-41zM134 0v444H28v56h106v155h63V500h142v-56H197V0h-63z"/><glyph glyph-name="uni0163.ss04" horiz-adv-x="367" d="M134 0v444H28v56h106v155h63V500h142v-56H197V0h-63zm-18-215l49 60v17h-41v79h84v-96l-48-60h-44z"/><glyph glyph-name="Y.ss05" horiz-adv-x="608" d="M179 0l102 215L17 714h74l211-398h28l189 398h71L249 0h-70z"/><glyph glyph-name="Yacute.ss05" horiz-adv-x="608" d="M179 0l102 215L17 714h74l211-398h28l189 398h71L249 0h-70zm151 767h-58l83 129h80z"/><glyph glyph-name="Ydieresis.ss05" horiz-adv-x="608" d="M179 0l102 215L17 714h74l211-398h28l189 398h71L249 0h-70zm46 902l58-58-58-58-58 58zm174 0l58-58-58-58-58 58z"/><glyph glyph-name="ampersand.ss06" horiz-adv-x="646" d="M606 349h-71V210q0-53-18-94.5t-50-70T390.5 2 293-13q-54 0-98.5 16t-77 44T67 113t-18 83q0 39 10.5 68T87 314.5t39.5 35T172 371v19q-39 15-68 50t-29 97q0 43 17 76t45.5 55.5 65.5 34 78 11.5q89 0 142.5-41T488 560h-64q-24 96-143 96-33 0-59.5-9.5T177 621t-27.5-38-9.5-47q0-57 37-93t115-36h41v-58h-41q-39 0-71.5-9T164 312t-37-47.5-13-68.5q0-36 13.5-64T165 84.5 222 55t71-10q91 0 134 44.5T470 210v197h136v-58z"/><glyph glyph-name="zero.ss07" horiz-adv-x="616" d="M309 714q54 0 100-21.5t79.5-66.5T541 512.5 560 350t-19-162.5-52.5-113-79.5-66T309-13 209 8.5t-79.5 66-52.5 113T58 350t19 162.5T129.5 626t79.5 66.5T309 714zM123 350q0-146 45-224l240 497q-41 33-99 33-91 0-138.5-78.5T123 350zM309 45q91 0 138.5 78T495 350q0 146-45 223L210 77q41-32 99-32z"/><glyph glyph-name="emdash.ss02" horiz-adv-x="1445" d="M50 247v57h1345v-57H50z"/><glyph glyph-name="uni0423.ss08" horiz-adv-x="608" d="M106 64h25q40 0 67 17t51 67l32 67L17 714h74l211-398h28l190 398h70L326 160q-20-43-39.5-73t-42-49.5-50-28.5T131 0h-25v64z"/><glyph glyph-name="uni040E.ss08" horiz-adv-x="608" d="M106 64h25q40 0 67 17t51 67l32 67L17 714h74l211-398h28l190 398h70L326 160q-20-43-39.5-73t-42-49.5-50-28.5T131 0h-25v64zm367 840q0-38-13.5-67T423 788t-53.5-30-65.5-10q-34 0-64.5 10t-53 30-36 49-13.5 67h58q0-48 31-75t78-27q48 0 79.5 27t31.5 75h58z"/><glyph glyph-name="quotedbl.ss01" horiz-adv-x="317" d="M80 714h34V473H80v241zm123 0h34V473h-34v241z"/><glyph glyph-name="numbersign.ss01" horiz-adv-x="555" d="M331 208H172L136 0h-34l36 208H35v31h110l37 222H81v31h107l37 208h34l-38-208h161l37 208h34l-37-208h104v-31H410l-38-222h103v-31H366L330 0h-35zm-153 31h160l38 222H216z"/><glyph glyph-name="quotesingle.ss01" horiz-adv-x="194" d="M80 714h34V473H80v241z"/><glyph glyph-name="parenleft.ss01" horiz-adv-x="238" d="M232 759q-81-103-114.5-215.5T84 309t33.5-234.5T232-141h-43Q113-38 81.5 74.5T50 309q0 123 32 235t108 215h42z"/><glyph glyph-name="parenright.ss01" horiz-adv-x="240" d="M6 759h42q76-103 108-215t32-235q0-122-31.5-234.5T49-141H6Q87-38 120.5 74.5T154 309t-33.5 234.5T6 759z"/><glyph glyph-name="bracketleft.ss01" horiz-adv-x="258" d="M80-141v900h118v-31h-84v-838h84v-31H80z"/><glyph glyph-name="bracketright.ss01" horiz-adv-x="258" d="M60-141v31h84v838H60v31h118v-900H60z"/><glyph glyph-name="braceleft.ss01" horiz-adv-x="337" d="M137 300q17-7 26.5-26.5T173 209V-6q0-54 21-79t73-25h30v-31h-30q-60 0-94 30T139-5v204q0 46-7.5 70.5T93 294H80v30h13q31 0 38.5 24.5T139 419v204q0 76 34 106t94 30h30v-31h-30q-52 0-73-25t-21-79V409q0-45-9.5-64.5T137 318v-18z"/><glyph glyph-name="braceright.ss01" horiz-adv-x="337" d="M200 318q-17 7-26.5 26.5T164 409v215q0 54-21 79t-73 25H40v31h30q60 0 94-30t34-106V419q0-46 7.5-70.5T244 324h13v-30h-13q-31 0-38.5-24.5T198 199V-5q0-76-34-106t-94-30H40v31h30q52 0 73 25t21 79v215q0 45 9.5 64.5T200 300v18z"/><glyph glyph-name="asterisk.ss01" horiz-adv-x="452" d="M243 714l-1-180 170 60 10-35-170-55 107-141-28-23-105 147-105-147-28 23 108 142-171 54 11 35 169-60-1 180h34z"/><glyph glyph-name="plus.ss01" horiz-adv-x="680" d="M324 534h33V298h235v-31H357V30h-33v237H88v31h236v236z"/><glyph glyph-name="minus.ss01" horiz-adv-x="684" d="M90 267v31h504v-31H90z"/><glyph glyph-name="less.ss01" horiz-adv-x="684" d="M594 43L90 259v44l504 216v-33L140 290v-18L594 76V43z"/><glyph glyph-name="equal.ss01" horiz-adv-x="683" d="M593 170H90v31h503v-31zm0 192H90v31h503v-31z"/><glyph glyph-name="greater.ss01" horiz-adv-x="684" d="M90 76l454 196v18L90 486v33l504-216v-44L90 43v33z"/><glyph glyph-name="hyphen.ss01" horiz-adv-x="360" d="M50 260v31h260v-31H50z"/><glyph glyph-name="endash.ss01" horiz-adv-x="615" d="M50 260v31h515v-31H50z"/><glyph glyph-name="emdash.ss01" horiz-adv-x="875" d="M50 260v31h775v-31H50z"/><glyph glyph-name="emdash.ss01.ss02" horiz-adv-x="1445" d="M50 260v31h1345v-31H50z"/><glyph glyph-name="underscore.ss01" horiz-adv-x="502" d="M-1-113v31h504v-31H-1z"/><glyph glyph-name="slash.ss01" horiz-adv-x="365" d="M0-141l302 900h33L36-141H0z"/><glyph glyph-name="bar.ss01" horiz-adv-x="214" d="M90 759h34v-900H90v900z"/><glyph glyph-name="backslash.ss01" horiz-adv-x="365" d="M329-141L30 759h33l302-900h-36z"/><glyph glyph-name="degree.ss01" horiz-adv-x="461" d="M40 523q0 43 14.5 79t40 62.5T155 706t75 15 75-15 61-41.5 40.5-62.5 14.5-79q0-42-14.5-78.5T366 382t-61-41-75-15-75 15-60.5 41-40 62.5T40 523zm34 0q0-35 11.5-65.5t32.5-53 49.5-35T230 357t63 12.5 50 35 32.5 53T387 523q0 36-11.5 66.5t-32.5 53-50 35-63 12.5-62.5-12.5-49.5-35-32.5-53T74 523z"/><glyph glyph-name="guillemotleft.ss01" horiz-adv-x="483" d="M96 273l161-169h-42L60 262v39l154 159h42L96 291v-18zm166 0l161-169h-42L226 262v39l154 159h42L262 291v-18z"/><glyph glyph-name="guillemotright.ss01" horiz-adv-x="483" d="M387 291L226 460h42l155-158v-39L269 104h-42l160 169v18zm-166 0L60 460h42l155-158v-39L103 104H61l160 169v18z"/><glyph glyph-name="guilsinglleft.ss01" horiz-adv-x="317" d="M96 273l161-169h-42L60 262v39l154 159h42L96 291v-18z"/><glyph glyph-name="guilsinglright.ss01" horiz-adv-x="317" d="M221 291L61 460h42l154-159v-39L102 104H60l161 169v18z"/><glyph glyph-name="quoteleft.ss01" horiz-adv-x="234" d="M139 610V508H75v119l48 87h31l-48-87v-17h33z"/><glyph glyph-name="quoteright.ss01" horiz-adv-x="234" d="M90 612v102h64V595l-48-87H75l48 87v17H90z"/><glyph glyph-name="quotesinglbase.ss01" horiz-adv-x="234" d="M90 0v102h64V-17l-48-87H75l48 87V0H90z"/><glyph glyph-name="quotedblleft.ss01" horiz-adv-x="371" d="M276 610V508h-64v119l48 87h31l-48-87v-17h33zm-137 0V508H75v119l48 87h31l-48-87v-17h33z"/><glyph glyph-name="quotedblright.ss01" horiz-adv-x="371" d="M90 612v102h64V595l-48-87H75l48 87v17H90zm137 0v102h64V595l-48-87h-31l48 87v17h-33z"/><glyph glyph-name="quotedblbase.ss01" horiz-adv-x="371" d="M90 0v102h64V-17l-48-87H75l48 87V0H90zm137 0v102h64V-17l-48-87h-31l48 87V0h-33z"/><glyph glyph-name="arrowleft.ss01" horiz-adv-x="827" d="M344 500L131 286v-20h631v-31H131v-21L344 0h-46L48 250l250 250h46z"/><glyph glyph-name="arrowup.ss01" horiz-adv-x="680" d="M590 418L376 633h-19V0h-34v633h-19L90 418v46l250 250 250-250v-46z"/><glyph glyph-name="arrowright.ss01" horiz-adv-x="827" d="M529 500l250-250L529 0h-46l213 214v21H65v31h631v20L483 500h46z"/><glyph glyph-name="arrowdown.ss01" horiz-adv-x="680" d="M90 296L304 81h19v633h34V81h19l214 215v-46L340 0 90 250v46z"/><glyph glyph-name="uni2196.ss01" horiz-adv-x="696" d="M475 682H174l-13-14 445-447-23-23-447 446-13-14V328l-33 33v353h353z"/><glyph glyph-name="uni2197.ss01" horiz-adv-x="696" d="M253 714h353V361l-33-33v302l-13 14-447-446-23 23 445 447-13 14H221z"/><glyph glyph-name="uni2198.ss01" horiz-adv-x="696" d="M443 0H90v353l33 33V84l13-14 447 446 23-23L161 46l13-14h301z"/><glyph glyph-name="uni2199.ss01" horiz-adv-x="696" d="M221 32h301l13 14L90 493l23 23L560 70l13 14v302l33-33V0H253z"/><glyph glyph-name="parenleft.ss01.case" horiz-adv-x="238" d="M232 807q-81-103-114.5-215.5T84 357t33.5-234.5T232-93h-43Q113 10 81.5 122.5T50 357q0 123 32 235t108 215h42z"/><glyph glyph-name="parenright.ss01.case" horiz-adv-x="238" d="M6 807h42q76-103 108-215t32-235q0-122-31.5-234.5T49-93H6Q87 10 120.5 122.5T154 357t-33.5 234.5T6 807z"/><glyph glyph-name="bracketleft.ss01.case" horiz-adv-x="258" d="M80-93v900h118v-31h-84V-62h84v-31H80z"/><glyph glyph-name="bracketright.ss01.case" horiz-adv-x="258" d="M60-93v31h84v838H60v31h118V-93H60z"/><glyph glyph-name="braceleft.ss01.case" horiz-adv-x="337" d="M137 348q17-7 26.5-26.5T173 257V42q0-54 21-79t73-25h30v-31h-30q-60 0-94 30T139 43v204q0 46-7.5 70.5T93 342H80v30h13q31 0 38.5 24.5T139 467v204q0 76 34 106t94 30h30v-31h-30q-52 0-73-25t-21-79V457q0-45-9.5-64.5T137 366v-18z"/><glyph glyph-name="braceright.ss01.case" horiz-adv-x="337" d="M200 366q-17 7-26.5 26.5T164 457v215q0 54-21 79t-73 25H40v31h30q60 0 94-30t34-106V467q0-46 7.5-70.5T244 372h13v-30h-13q-31 0-38.5-24.5T198 247V43q0-76-34-106T70-93H40v31h30q52 0 73 25t21 79v215q0 45 9.5 64.5T200 348v18z"/><glyph glyph-name="guillemotleft.ss01.case" horiz-adv-x="483" d="M96 339l161-169h-42L60 328v39l154 159h42L96 357v-18zm166 0l161-169h-42L226 328v39l154 159h42L262 357v-18z"/><glyph glyph-name="guillemotright.ss01.case" horiz-adv-x="483" d="M387 357L226 526h42l155-158v-39L269 170h-42l160 169v18zm-166 0L60 526h42l155-158v-39L103 170H61l160 169v18z"/><glyph glyph-name="guilsinglleft.ss01.case" horiz-adv-x="317" d="M96 339l161-169h-42L60 328v39l154 159h42L96 357v-18z"/><glyph glyph-name="guilsinglright.ss01.case" horiz-adv-x="317" d="M221 357L61 526h42l154-159v-39L102 170H60l161 169v18z"/><glyph glyph-name="hyphen.ss01.case" horiz-adv-x="360" d="M50 345v31h260v-31H50z"/><glyph glyph-name="endash.ss01.case" horiz-adv-x="615" d="M50 345v31h515v-31H50z"/><glyph glyph-name="emdash.ss01.case" horiz-adv-x="875" d="M50 345v31h775v-31H50z"/><glyph glyph-name="emdash.ss01.ss02.case" horiz-adv-x="1445" d="M50 345v31h1345v-31H50z"/><glyph glyph-name="tbar.ss04" horiz-adv-x="367" d="M134 0v259H28v56h106v129H28v56h106v155h63V500h142v-56H197V315h142v-56H197V0h-63z"/><glyph glyph-name="at.case" horiz-adv-x="978" d="M700-10q-57-36-122-55.5T437-85q-89 0-159.5 28t-120 78.5T82 142 56 297q0 106 36 198t100.5 159.5 154.5 106T546 799q76 0 144-22t119.5-65.5 82-107T922 459q0-58-15.5-114.5T861 243t-73.5-72.5T689 143q-38 0-60.5 14.5T595 200h-18q-9-9-21-19t-28-18.5-36-14-45-5.5q-75 0-117.5 48.5T287 324q0 49 15 94t43 78.5 67.5 53.5 89.5 20q42 0 71.5-17t39.5-34h18l8 37h56l-44-254q-2-11-3-21-2-8-2.5-17t-.5-15q0-52 51-52 30 0 59.5 18t53 51 37.5 79.5T860 450q0 66-21.5 120.5t-63 92.5-102 59T535 743q-86 0-161.5-31.5T241 623t-90-137.5T118 307q0-66 18-127t57-107.5T293.5-2 443-30q65 0 122.5 18.5T674 39zM454 197q33 0 60 14.5t46.5 40.5 30.5 62 11 79q0 40-10 64t-25 37-34 17.5-37 4.5q-34 0-61-17t-46-44-29-61.5-10-69.5q0-25 5.5-48t17.5-40.5 32-28 49-10.5z"/><glyph glyph-name="W.ss10" horiz-adv-x="855" d="M476 468L625 70h20l83 644h65L701 0H586L438 401h-20L269 0H154L62 714h66l83-644h20l149 398h96z"/><glyph glyph-name="w.ss10" horiz-adv-x="668" d="M384 335l91-273h20l61 438h62L548 0H438l-94 275h-20L230 0H120L50 500h62l62-438h20l94 273h96z"/><glyph glyph-name="y.ss08" horiz-adv-x="519" d="M239 11L27 500h70l163-378h24l152 378h67L286-39q-18-44-32-74.5T223.5-163t-38-28-54.5-9H84v56h42q20 0 32.5 6.5T181-118t18.5 33.5T220-35z"/><glyph glyph-name="uni0443.ss08" horiz-adv-x="519" d="M239 11L27 500h70l163-378h24l152 378h67L286-39q-18-44-32-74.5T223.5-163t-38-28-54.5-9H84v56h42q20 0 32.5 6.5T181-118t18.5 33.5T220-35z"/><glyph glyph-name="tt" horiz-adv-x="734" d="M675 500v-56H533V134q0-43 21-60.5T629 56h46V0h-51q-39 0-68 5.5T508 25t-28.5 38-9.5 61v320H197V134q0-43 21-60.5T293 56h46V0h-51q-39 0-68 5.5T172 25t-28.5 38-9.5 61v320H28v56h106v155h63V500h273v155h63V500h142z"/></font>
</defs>
</svg>
